<?xml version="1.0" encoding="utf-8"?>
<!-- Generator: Adobe Illustrator 19.1.0, SVG Export Plug-In . SVG Version: 6.00 Build 0)  -->
<svg version="1.1" id="Layer_1" xmlns="http://www.w3.org/2000/svg" xmlns:xlink="http://www.w3.org/1999/xlink" x="0px" y="0px"
	 viewBox="0 0 50 50" style="enable-background:new 0 0 50 50;" xml:space="preserve">
<style type="text/css">
	.st0{fill:#00A99D;}
	.st1{fill:#FFFFFF;}
	.st2{fill:none;stroke:#FFFFFF;stroke-width:10;stroke-miterlimit:10;}
	.st3{fill:none;stroke:#FFFFFF;stroke-width:2;stroke-miterlimit:10;}
</style>
<g>
	<circle class="st0" cx="25" cy="25" r="24.7"/>
</g>
<g>
	<path class="st1" d="M25,48.1c-6.2,0-12-2.4-16.3-6.8C4.3,37,1.9,31.2,1.9,25S4.3,13,8.7,8.7C13,4.3,18.8,1.9,25,1.9
		s12,2.4,16.3,6.8c4.4,4.4,6.8,10.1,6.8,16.3s-2.4,12-6.8,16.3C37,45.7,31.2,48.1,25,48.1z M25,2.7C19,2.7,13.5,5,9.2,9.2
		C5,13.5,2.7,19,2.7,25S5,36.5,9.2,40.8C13.5,45,19,47.3,25,47.3s11.5-2.3,15.8-6.5C45,36.5,47.3,31,47.3,25S45,13.5,40.8,9.2
		C36.5,5,31,2.7,25,2.7z"/>
</g>
<g>
	<path class="st1" d="M106,12c0,0,0.1,0.1,0.1,0.2c0,0.1,0.1,0.1,0.1,0.2c0,0,0,0.1,0.1,0.1c0,0,0,0,0,0c0,0,0,0,0,0c0,0,0,0,0,0
		c0,0,0,0,0,0c-0.1,0.2-0.3,0.5-0.5,0.9c-0.4,0.8-1.1,1.9-1.8,3.3c-1.5,2.7-3.5,6.4-5.5,10c-4,7.3-8,14.6-8,14.6l-1-0.6
		c0,0,4-7.3,8-14.6c2-3.6,4-7.3,5.5-10c0.8-1.4,1.4-2.5,1.8-3.3c0.2-0.4,0.4-0.7,0.5-0.9c0,0,0,0,0,0c0,0,0,0,0,0c0,0,0,0,0,0
		c0,0,0,0,0,0c0.1,0,0.1,0,0.1,0c0.1,0,0.2,0,0.2,0C105.9,11.9,106,12,106,12z"/>
</g>
<g>
	<path class="st1" d="M105.8,12.8c-5-2.9-17.7-4.1-17.7-4.1l-0.9,1.7l7.8,4.3l1.2-1.5l-0.7,1.9l6.3,3.4l1.4,0.7l8.2,4.5l1.1-1.6
		l-0.7,1.9l6.1,3.3l0.9-1.7C118.8,25.5,110.8,15.7,105.8,12.8z"/>
</g>
<path class="st0" d="M1463.7-89.4c0,174.2-315.3,619.7-315.3,619.7S833,84.8,833-89.4"/>
<circle class="st0" cx="1148.4" cy="-89.4" r="315.3"/>
<circle class="st2" cx="1148.4" cy="-89.4" r="289.1"/>
<g id="bKKxHF.tif">
	<g>
		<path class="st1" d="M987,83.4c20.7-12.7,41.4-25.5,63.3-38.9c-19.9-6.8-40.3-6.5-63.9-7.9c11.1-17.9,20-34.9,31.4-50.1
			c21.5-28.7,47.9-52.4,79.4-69.8c6.9-3.8,9.5-8.7,10-16.5c1.2-18.8,3.3-37.5,5.2-57.6c41.2,14.8,73.9-10.5,109.7-20.4
			c3.2-0.9,6.2-2.4,9.3-3.5c1.2-0.4,2.5-0.7,5.7-1.6c-5.5,12.4-10.4,23.6-16.5,37.2c25.5-5.6,42.7-18.1,57.3-34.9
			c15.2-17.5,22.9-37.2,16.2-61.6c9.9,6.7,15.8,19.4,17.5,32.8c4.1,32.5-8.1,59.7-28.8,83c-34.9,39.5-75.6,71.5-125.3,90.9
			c-11.4,4.5-22.7,9.4-34.3,13.4c-6,2-7.6,4.8-6.3,10.9c3.3,16.1,1.6,31.7-5.7,46.6c-9.4,19.2-24.1,30.8-45.6,34.5
			c-26.2,4.5-52.1,10.3-78.1,15.6C987.3,84.7,987.1,84.1,987,83.4z"/>
		<path class="st1" d="M1111.1-295.6c16.3,2.4,32.6,5,48.9,7.3c25.6,3.5,51.3,6.4,76.8,10.1c23.6,3.4,42,14.1,48.7,39
			c0.3,1.2,0.4,2.5,0.8,5.6c-2.4-2.3-3.8-3.3-4.8-4.6c-7.7-10.2-18.3-12.2-30.2-10.8c-26.3,3.3-50.9,12.1-74.7,23.3
			c-3.5,1.7-7.1,3.2-13,5.8c8.5-21.3-2.1-32.7-16.9-42.8c-11-7.4-21.4-15.7-31.7-24c-2.5-2-3.9-5.5-5.7-8.3
			C1109.8-295.2,1110.5-295.4,1111.1-295.6z"/>
		<path class="st1" d="M1319.4-168.5c5.8,55.5-8.1,103.7-48.9,143.3c-33.6,32.7-71.7,57.7-116.7,71.5c-15.4,4.7-31,8.5-47.8,13.1
			c17.4-20.9,26.3-43.9,20.6-71.7C1208.8-42.2,1279.1-86.4,1319.4-168.5z"/>
		<path class="st1" d="M1300.3-17.3c-11.5,18.2-23.4,37.1-35.7,55.9c-1.3,2-5.1,4.2-7.1,3.7c-13.4-2.9-26.6-6.5-39.7-11.2
			C1244.6,11.8,1267.9-11.6,1300.3-17.3z"/>
	</g>
</g>
<circle class="st1" cx="1028.2" cy="2" r="8.5"/>
<path class="st3" d="M11.7,22.5c0,0,3.2,2,6.5,2c3.2,0,6.5-2,6.5-2s3.3,2,6.5,2c3.3,0,6.5-2,6.5-2"/>
<path class="st3" d="M11.7,30.5c0,0,3.2,2,6.5,2c3.2,0,6.5-2,6.5-2s3.3,2,6.5,2c3.3,0,6.5-2,6.5-2"/>
<path class="st3" d="M11.7,14.5c0,0,3.2,2,6.5,2c3.2,0,6.5-2,6.5-2s3.3,2,6.5,2c3.3,0,6.5-2,6.5-2"/>
</svg>
