<?xml version="1.0" encoding="utf-8"?>
<!-- Generator: Adobe Illustrator 20.1.0, SVG Export Plug-In . SVG Version: 6.00 Build 0)  -->
<svg version="1.1" id="Layer_1" xmlns="http://www.w3.org/2000/svg" xmlns:xlink="http://www.w3.org/1999/xlink" x="0px" y="0px"
	 viewBox="0 0 250 245" style="enable-background:new 0 0 250 245;" xml:space="preserve">
<style type="text/css">
	.st0{opacity:0.1;fill:#E30613;enable-background:new    ;}
	.st1{fill:#FFFFFF;stroke:#000000;stroke-miterlimit:10;}
	.st2{fill:#FFECB4;}
	.st3{fill:#1F1908;}
	.st4{fill:none;stroke:#231F20;stroke-width:4;stroke-miterlimit:10;}
	.st5{fill:#231F20;}
</style>
<g id="grid">
</g>
<g id="_x32_4_Grid_Col_1_">
	<g id="_x32_4_Grid_Col">
		<g>
			<rect x="-968.2" y="-192.8" class="st0" width="60" height="3000.3"/>
		</g>
		<g>
			<rect x="-1048.2" y="-192.8" class="st0" width="60" height="3000.3"/>
		</g>
		<g>
			<rect x="-1128.2" y="-192.8" class="st0" width="60" height="3000.3"/>
		</g>
		<g>
			<rect x="-1208.2" y="-192.8" class="st0" width="60" height="3000.3"/>
		</g>
		<g>
			<rect x="-1288.2" y="-192.8" class="st0" width="60" height="3000.3"/>
		</g>
		<g>
			<rect x="-1368.2" y="-192.8" class="st0" width="60" height="3000.3"/>
		</g>
		<g>
			<rect x="-1448.2" y="-192.8" class="st0" width="60" height="3000.3"/>
		</g>
		<g>
			<rect x="-1528.2" y="-192.8" class="st0" width="60" height="3000.3"/>
		</g>
		<g>
			<rect x="-1608.2" y="-192.8" class="st0" width="60" height="3000.3"/>
		</g>
		<g>
			<rect x="-1688.2" y="-192.8" class="st0" width="60" height="3000.3"/>
		</g>
		<g>
			<rect x="-1768.2" y="-192.8" class="st0" width="60" height="3000.3"/>
		</g>
		<g>
			<rect x="-1848.2" y="-192.8" class="st0" width="60" height="3000.3"/>
		</g>
		<g>
			<rect x="-1928.2" y="-192.8" class="st0" width="60" height="3000.3"/>
		</g>
		<g>
			<rect x="-2008.2" y="-192.8" class="st0" width="60" height="3000.3"/>
		</g>
		<g>
			<rect x="-2088.2" y="-192.8" class="st0" width="60" height="3000.3"/>
		</g>
	</g>
</g>
<g id="Layer_3">
	<g>
		<path d="M-798.2-193v585.6h-1400V-193H-798.2 M-797.2-194h-1h-1400h-1v1v585.6v1h1h1400h1v-1V-193L-797.2-194L-797.2-194z"/>
	</g>
	<g>
		<path d="M-798.2,395.1v1193h-1400v-1193L-798.2,395.1 M-797.2,394.1h-1h-1400h-1v1v1193v1h1h1400h1v-1v-1193L-797.2,394.1
			L-797.2,394.1z"/>
	</g>
	<g>
		<path d="M-798.2,1588.3v367.5h-1400v-367.5H-798.2 M-797.2,1587.3h-1h-1400h-1v1v367.5v1h1h1400h1v-1v-367.5L-797.2,1587.3
			L-797.2,1587.3z"/>
	</g>
	<rect x="-2088.2" y="-178" class="st1" width="60" height="60"/>
	<rect x="-1687.6" y="-178" class="st1" width="378.8" height="143.1"/>
	<rect x="-1928.1" y="212.7" class="st1" width="859.9" height="52.1"/>
	<rect x="-1928.1" y="140.7" class="st1" width="859.9" height="52.1"/>
	<rect x="-1768.5" y="510.7" class="st1" width="541" height="69"/>
	<rect x="-1846.5" y="1296.8" class="st1" width="696.8" height="51"/>
	<rect x="-1846.5" y="1368.8" class="st1" width="696.8" height="51"/>
	<rect x="-1846.5" y="1441.8" class="st1" width="696.8" height="51"/>
	<rect x="-1846.5" y="1675.8" class="st1" width="696.8" height="51"/>
	<rect x="-1768.5" y="2054.8" class="st1" width="541" height="69"/>
	<rect x="-2197.9" y="2738" class="st1" width="1399.8" height="69"/>
	<rect x="-1687.8" y="2211.8" class="st1" width="299.6" height="69"/>
	<rect x="-1687.8" y="2166.4" class="st1" width="299.7" height="36.5"/>
	<rect x="-2008.2" y="2297.4" class="st1" width="220.1" height="36.5"/>
	<rect x="-2008.2" y="2346.4" class="st1" width="220.1" height="36.5"/>
	<rect x="-2008.2" y="2395.4" class="st1" width="220.1" height="36.5"/>
	<rect x="-2008.2" y="2444.4" class="st1" width="220.1" height="36.5"/>
	<rect x="-2008.2" y="2493.4" class="st1" width="220.1" height="36.5"/>
	<rect x="-1368" y="2166.4" class="st1" width="302.7" height="36.5"/>
	<rect x="-1687.8" y="2341.9" class="st1" width="299.9" height="69"/>
	<rect x="-1687.8" y="2296.4" class="st1" width="299.6" height="36.5"/>
	<rect x="-1687.8" y="2471.9" class="st1" width="299.8" height="69"/>
	<rect x="-1687.8" y="2426.4" class="st1" width="299.5" height="36.5"/>
	<g>
		<rect x="-2008.3" y="2165.9" class="st1" width="60" height="57.8"/>
		<rect x="-1928.1" y="2165.9" class="st1" width="59.9" height="57.8"/>
		<rect x="-1848.1" y="2165.9" class="st1" width="60" height="57.8"/>
	</g>
	<rect x="-1368.1" y="2211.8" class="st1" width="380.9" height="334.6"/>
	<rect x="-1210.8" y="2570.9" class="st1" width="222.8" height="57.9"/>
	<rect x="-2088.5" y="683.7" class="st1" width="220.2" height="137"/>
	<rect x="-1848.5" y="683.7" class="st1" width="220.2" height="137"/>
	<rect x="-1608.5" y="683.7" class="st1" width="220.2" height="137"/>
	<rect x="-1368.4" y="684.2" class="st1" width="220.2" height="137"/>
	<rect x="-1128.6" y="684.2" class="st1" width="220.2" height="137"/>
	<g>
		<rect x="-2088.5" y="819.7" class="st1" width="220.2" height="89.2"/>
		<rect x="-1848.5" y="819.7" class="st1" width="220.2" height="89.2"/>
		<rect x="-1608.5" y="819.7" class="st1" width="220.2" height="89.2"/>
		<rect x="-1368.4" y="820" class="st1" width="220.2" height="89.2"/>
		<rect x="-1128.6" y="820" class="st1" width="220.2" height="89.2"/>
	</g>
	<g>
		<rect x="-2088.5" y="929.7" class="st1" width="220.2" height="137"/>
		<rect x="-1848.5" y="929.7" class="st1" width="220.2" height="137"/>
		<rect x="-1608.5" y="929.7" class="st1" width="220.2" height="137"/>
		<rect x="-1368.4" y="930.2" class="st1" width="220.2" height="137"/>
		<rect x="-1128.6" y="930.2" class="st1" width="220.2" height="137"/>
		<rect x="-2088.5" y="1766.8" class="st1" width="220.2" height="137"/>
		<rect x="-1848.5" y="1766.8" class="st1" width="220.2" height="137"/>
		<rect x="-1608.5" y="1766.8" class="st1" width="220.2" height="137"/>
		<rect x="-1368.4" y="1767.3" class="st1" width="220.2" height="137"/>
		<rect x="-1128.6" y="1767.3" class="st1" width="220.2" height="137"/>
		<g>
			<rect x="-2088.5" y="1065.7" class="st1" width="220.2" height="89.2"/>
			<rect x="-1848.5" y="1065.7" class="st1" width="220.2" height="89.2"/>
			<rect x="-1608.5" y="1065.7" class="st1" width="220.2" height="89.2"/>
			<rect x="-1368.4" y="1066.1" class="st1" width="220.2" height="89.2"/>
			<rect x="-1128.6" y="1066.1" class="st1" width="220.2" height="89.2"/>
		</g>
	</g>
</g>
<g id="Layer_4">
	<g id="aLk7su.tif">
		<g>
			<path class="st2" d="M74.8,292.8c0.7,0.2,1.4,0.3,2,0.6c1.5,0.6,3.1,0.8,4.6,1c1.4,0.2,2.8,0.4,4.2,0.9c0.6,0.2,1.2,0.3,1.8,0.4
				c0.7,0.1,1.5,0.2,2.2,0.3c0.4,0,0.7,0,1.1-0.1c3.7-0.8,7.3-1.7,11-2.5c1.7-0.4,3.5-0.7,5.2-1c2.3-0.4,4.5-1,6.7-1.8
				c2.1-0.8,4.1-1.4,6.2-2.2c0.5-0.2,0.9-0.3,1.5-0.1c1,0.7,2.2,1.5,3.3,2.2c0.6,0,1-0.2,1.4-0.5c1.4-0.8,2.7-1.6,4.1-2.5
				c0.4-0.3,0.8-0.5,1.4-0.4c0.3,0.1,0.7,0.4,1.1,0.6c1.9,1,3.8,1.9,5.9,2.6c1.1,0.3,2.1,0.8,3.1,1.2c0.3,0.1,0.7,0.3,1,0.5
				c1.5-0.1,2.7-1.1,4.2-1.7c0.9,0.2,1.7,0.7,2.5,1.2c1.4,0.8,2.7,1.6,4.2,2.2c0.9,0.4,1.8,0.5,2.8,0.3c1.3-0.4,2.7-0.6,4.1-0.9
				c1-0.2,1.9-0.5,2.8-0.9c1.3-0.5,2.5-0.9,3.9-0.9c0.9,0.4,1.9,0.9,2.8,1.2c1,0.4,2,0.7,3,1.1c2.3,0.8,4.6,1.6,6.9,2.3
				c3.6,1.2,7.3,2.2,11,3.2c0.2,0,0.4,0.1,0.5,0.1c1.4,0.1,2.9,0.2,4.3,0.3c2,0.2,4.1,0.2,6.1,0.5c0.1,0,0.2,0,0.3,0
				c1.8,0.1,3.5,0.2,5.3,0.3c1.7,0.1,3.3,0.3,5,0.5c0.1,0,0.2,0,0.3,0c1.6,0.1,3.2,0.2,4.7,0.4c1.4,0.1,2.8,0.3,4.2,0.4
				c0.1,0,0.3,0,0.4,0c1.4,0.1,2.9,0.2,4.3,0.4c1.3,0.1,2.7,0.3,4,0.5c1.2,0.1,2.3,0.2,3.5,0.3c0.2,0,0.4,0.1,0.5,0.1
				c0.1,0.1,0.1,0.2,0.1,0.3c0,0.5,0,0.9-0.1,1.4c-0.2,1.3-0.3,2.7-0.5,4c-0.1,0.9-0.2,1.8-0.3,2.6c-0.2,1.8-0.5,3.6-0.7,5.4
				c-0.1,1.1-0.2,2.1-0.4,3.2c-0.1,1.1-0.3,2.2-0.4,3.3c-0.1,0.8-0.2,1.7-0.3,2.5c-0.2,1.9-0.4,3.7-0.6,5.6
				c-0.1,1.1-0.3,2.1-0.4,3.2c-0.1,0.9-0.2,1.8-0.3,2.8c-0.2,1.9-0.4,3.7-0.6,5.6c-0.2,1.9-0.5,3.8-0.8,5.7c0.1,0.2,0.2,0.4,0.4,0.6
				c0.6,0.8,0.9,1.7,1.1,2.7c0.3,1.9,0,3.6-0.9,5.3c-1.4,2.5-3.6,4-6.5,4.2c-1.2,0.1-2.4,0.1-3.6-0.3c-2.5-0.9-4.3-2.5-5.1-5.1
				c-0.1-0.2-0.1-0.5-0.1-0.7c0-0.1,0-0.3,0.1-0.4c0.4,0.7,0.6,1.4,1,2.1c1.1,1.7,2.6,2.7,4.6,3.1c1.7,0.3,1.7,0.3,3.3,0
				c2.5-0.6,4.2-2.1,5-4.6c0.4-1.4,0.4-2.8-0.2-4.3c-0.9-0.2-1.8-0.3-2.8-0.4c-1.6-0.1-3.2-0.3-4.9-0.5c-0.1,0-0.2,0-0.3,0
				c-1.5-0.1-3-0.2-4.5-0.3c-1.7-0.1-3.3-0.3-5.2-0.5c-1.4,0.4-3.1,0.8-4.7,1.2c-2.5,0.6-5,1.3-7.5,1.7c-1.2,0.2-2.5,0.3-3.7,0.5
				c-1.8,0.2-3.5,0.2-5.3,0.2c-3.1-0.1-6.1-0.5-9.1-1.3c-0.9-0.3-1.8-0.5-2.7-0.8c-0.3-0.1-0.5-0.1-0.8-0.2c-1,0.4-1.9,1-2.9,1.5
				c-2.5,1.3-5,2.6-7.8,3.5c-1.5,0.5-3.1,0.8-4.6,1c-1.9,0.3-3.8,0.2-5.7,0.2c-1.1,0-2.1-0.2-3.2-0.3c-0.8-0.1-1.6-0.2-2.3-0.4
				c-0.6,0.5-1,1-1.4,1.5c-0.3,0.3-0.5,0.6-0.9,0.9c-0.2,0.1-0.4,0.2-0.6,0.3c-0.4-0.3-0.8-0.7-1.3-1c2.2-2.2,4.1-4.6,5.6-7.3
				c0.7-1.2,1.3-2.5,1.8-3.8c0-0.1,0-0.3,0-0.4c-1.3-0.4-1.3-0.4-2.3-0.2c-0.1,0.3-0.3,0.6-0.4,1c-1,2.5-2.4,4.7-4,6.8
				c-0.2,0.2-0.4,0.4-0.6,0.6c-0.3-0.3-0.5-0.5-0.8-0.7c-0.1-0.1-0.1-0.2-0.1-0.3c1.8-2.3,3.4-4.7,4.3-7.4c-0.2-0.4-0.5-0.3-0.8-0.3
				c-2.8,0-5.5,0-8.3-0.1c-1,0-2-0.1-3.1-0.1c-2.5,0-5,0-7.6,0c-0.3,0-0.6,0-0.8,0c-0.3-0.2-0.6-0.4-1-0.7c0.1-0.1,0.2-0.2,0.3-0.2
				c1.3,0,2.6,0,3.9,0c3.3,0,6.5,0,9.8,0.1c2.1,0.1,4.3,0.2,6.4,0.2c0.5,0,0.9,0,1.4,0c0.3-0.6,0.6-1.1,0.5-1.7
				c-0.3-0.3-0.7-0.2-1.1-0.2c-2.5,0-5,0-7.4-0.1c-7.1-0.3-14.2-0.2-21.3-0.2c-4.2,0-8.5,0-12.7,0.1c-3,0.1-6.1,0.2-9.1,0.2
				c-0.2,0-0.4,0.1-0.7,0.1c-0.1,0.6,0.2,1.1,0.4,1.7c0.3,0,0.6,0.1,0.8,0.1c1.7,0,3.5,0,5.2-0.1c4.4-0.3,8.8-0.1,13.2-0.2
				c0.4,0,0.8-0.1,1.3,0.2c-0.1,0.2-0.2,0.4-0.3,0.6c-0.4,0-0.7,0.1-1,0.1c-2.1,0-4.2,0-6.3,0.1c-3.9,0.2-7.8,0.1-11.8,0.2
				c-0.2,0-0.4,0.1-0.6,0.1c0.4,1.4,1,2.5,1.7,3.7c0.7,1.1,1.4,2.2,2.2,3.2c0.8,1.1,1.8,2,2.8,3c0.9,0.9,2,1.7,3,2.6
				c-0.3,0.4-0.6,0.6-1,0.8c-1.6-1-2.9-2.3-4.2-3.6c-1.4-1.4-2.5-2.9-3.5-4.5s-1.8-3.3-2.5-5c-0.3,0-0.5-0.1-0.7-0.1
				c-0.5,0.1-1.1,0-1.7,0.3c1.2,3.2,2.9,6,4.9,8.6c2.1,2.6,4.6,4.8,7.2,6.6c0.5,0.7,1,1.3,1.4,1.9c-0.2,0.2-0.3,0.4-0.4,0.6
				c-0.5,0.1-0.8-0.2-1.1-0.4c-2.7-1.6-5.1-3.7-7.2-6c-0.4-0.4-0.8-0.9-1.3-1.4c-0.5,0.1-0.9,0.2-1.4,0.3c-1.6,0.4-3.3,0.8-5,0.8
				c-0.7,0-1.3,0.2-1.9,0.2c-3.5,0.1-6.9-0.6-10.1-1.9c-2.3-0.9-4.5-2.2-6.7-3.4c-0.7-0.4-1.4-0.9-2.2-1.2c-0.2,0.1-0.5,0.1-0.7,0.2
				c-2.5,1-5.1,1.6-7.7,2h-0.1c-1.2,0.1-2.4,0.2-3.6,0.2c-1.9,0-3.7-0.2-5.6-0.4c-4.2-0.5-8.3-1.7-12.4-2.9c-1.1-0.3-2.2-0.7-3.3-1
				c-5.8,0.5-11.6,1-17.3,1.7c-0.1,0.1-0.1,0.1-0.2,0.2c-0.8,1.5-1,3-0.6,4.6c0.5,2.2,2,3.6,4,4.4c3.9,1.5,7.9-0.2,9.7-3.3
				c0.1-0.1,0.1-0.2,0.2-0.4c0.2,0.2,0.1,0.4,0,0.6c-0.9,2.3-2.7,3.7-5,4.6c-0.8,0.3-1.5,0.3-2.3,0.3c-1.2,0-2.4-0.1-3.6-0.5
				c-2-0.7-3.5-2-4.5-3.9c-0.3-0.6-0.5-1.2-0.6-1.8c-0.3-2.3-0.1-4.6,1.5-6.5c0.1-0.1,0.2-0.2,0.2-0.3c0-0.1,0.1-0.2,0.1-0.3
				c0-0.2,0-0.4,0-0.6c-0.3-2.3-0.5-4.6-0.8-6.9c-0.3-2.5-0.7-5-1-7.5c-0.1-1.1-0.2-2.1-0.4-3.2c-0.1-1.1-0.3-2.2-0.5-3.3
				c-0.1-0.9-0.2-1.8-0.4-2.8c-0.3-2-0.5-4.1-0.8-6.1c-0.1-1.1-0.2-2.1-0.4-3.2c-0.1-1.1-0.3-2.2-0.4-3.3c-0.1-0.9-0.2-1.8-0.3-2.6
				c-0.2-1.6-0.4-3.2-0.6-4.9c0-0.1,0-0.2,0.1-0.3c0.5-0.2,1-0.3,1.6-0.4c1.6-0.2,3.2-0.4,4.9-0.5c1.3-0.1,2.6-0.2,3.9-0.4
				c1.4-0.1,2.9-0.3,4.3-0.4c0.1,0,0.3,0,0.4-0.1c1.5-0.1,3-0.2,4.5-0.4c1.5-0.1,3-0.3,4.4-0.5c0.1,0,0.2,0,0.3,0
				c1.6-0.1,3.3-0.2,4.9-0.4c1.5-0.1,3-0.2,4.5-0.3c0.8-0.1,1.6-0.3,2.5-0.5c3.9-1,7.8-2.1,11.8-3.1c0.6-0.2,1.3-0.4,1.9-0.6
				C67.4,294.7,71.1,293.8,74.8,292.8z M229.4,307.8c-0.3-0.1-0.6-0.2-0.9-0.2c-1.5-0.1-3-0.2-4.5-0.4c-0.2,0-0.4,0-0.6-0.1
				c-1.5-0.2-3-0.3-4.4-0.5c-1.5-0.1-3-0.2-4.5-0.3c-0.1,0-0.2,0-0.3,0c-1.5-0.2-3-0.3-4.4-0.4c-1.7-0.1-3.3-0.2-5-0.4
				c-0.1,0-0.2,0-0.3,0c-1.6-0.2-3.2-0.3-4.9-0.5c-1.8-0.1-3.6-0.2-5.4-0.4h-0.1c-1.8-0.2-3.5-0.3-5.3-0.5c-1.3-0.1-2.7-0.1-4-0.3
				c-1.4-0.2-2.9-0.1-4.3-0.3c-1.5-0.2-3-0.1-4.5-0.3c-1.6-0.2-3.3-0.1-4.9-0.3c-1.8-0.2-3.5-0.1-5.3-0.3c-2.1-0.2-4.2-0.1-6.3-0.3
				c-2.4-0.2-4.8-0.2-7.3-0.3c-3.8-0.2-7.6-0.2-11.3-0.3c-1.2-0.1-2.4,0-3.6,0c-10,0-20.1,0-30.1,0c-2.2,0-4.4,0.1-6.6,0.2
				c-2.3,0.1-4.6,0-6.9,0.2c-1.4,0.4-2.7,0.4-4.1,0.4c-1.4,0.1-2.8,0.2-4.2,0.2c-1.1,0-2.3,0-3.4,0.1c-1.3,0.2-2.5,0.2-3.8,0.2
				c-2.1,0.1-4.3,0.2-6.4,0.3c-0.1,0-0.2,0-0.3,0c-2.2,0.3-4.5,0.3-6.7,0.5c-1.9,0.2-3.8,0.2-5.7,0.4c-1.1,0.1-2.2,0.2-3.3,0.2
				c-0.2,0-0.4,0-0.6,0c-1.8,0.2-3.6,0.3-5.4,0.5c-1.7,0.1-3.3,0.2-5,0.3h-0.1c-1.6,0.2-3.2,0.3-4.7,0.5c-1.5,0.1-3.1,0.2-4.6,0.3
				c-0.1,0-0.2,0-0.3,0c-1.5,0.2-3,0.3-4.4,0.5c-1.4,0.1-2.9,0.2-4.3,0.4c-1.8,0.2-3.6,0.4-5.4,0.5c-0.3,0-0.6,0.1-1,0.2
				c0,0.4,0,0.7,0,1c0.2,1.5,0.4,3.1,0.6,4.6c0.2,1.8,0.5,3.7,0.8,5.5c0.2,1.8,0.4,3.5,0.6,5.3c0.1,0.8,0.2,1.6,0.3,2.4
				c0.1,1.1,0.3,2.1,0.4,3.2c0.1,1,0.2,2,0.4,3.1c0.2,1.8,0.5,3.6,0.7,5.4c0.1,0.7,0.2,1.5,0.3,2.2c0.1,1.1,0.2,2.1,0.4,3.2
				c0.1,0.5,0.2,1,0.3,1.5c0.3,0,0.6,0.1,0.9,0c1.1-0.1,2.2-0.2,3.3-0.3c1.8-0.1,3.5-0.2,5.3-0.4c0.1,0,0.3,0,0.4,0
				c1.8-0.2,3.5-0.3,5.3-0.5c1.9-0.1,3.7-0.2,5.6-0.3h0.1c1.8-0.4,3.7-0.2,5.6-0.4c1.4-0.2,2.9-0.1,4.3-0.3c1.7-0.2,3.4-0.1,5-0.3
				s3.2-0.1,4.7-0.3c2-0.2,4-0.1,6-0.3c2-0.2,4.1-0.1,6.1-0.3c2.4-0.2,4.8-0.1,7.3-0.3c2.9-0.2,5.8-0.1,8.7-0.3
				c2.6-0.2,5.3-0.1,8-0.3c4-0.2,8,0,12-0.3c2.2-0.1,4.5-0.1,6.7-0.1c4.9,0,9.8-0.1,14.7,0.2c4.4,0.2,8.9,0,13.3,0.3
				c3.4,0.2,6.8,0.1,10.2,0.3c2.6,0.2,5.1,0.1,7.7,0.3c2.7,0.2,5.5,0.1,8.2,0.3c1.7,0.1,3.4,0.1,5,0.2c2.1,0.2,4.2,0.1,6.3,0.3
				c1.4,0.1,2.9,0.1,4.3,0.2c2.1,0.2,4.2,0.2,6.3,0.4c2,0.1,4,0.2,6,0.4c1,0.1,2,0.1,3.1,0.2c0.3,0,0.6,0,0.8,0.1
				c1,0.2,2,0.2,3.1,0.3c0.4,0,0.7,0,1.1,0.1c1.8,0.2,3.5,0.3,5.3,0.5c1.6,0.1,3.3,0.2,4.9,0.4c0.2,0,0.5,0.1,0.7,0.1
				c0.5,0,1,0.1,1.5,0.1s1,0.1,1.6,0c0.1-0.3,0.2-0.6,0.3-0.9c0.2-1.5,0.4-3,0.6-4.4c0.1-0.7,0.2-1.5,0.3-2.2
				c0.1-1.1,0.2-2.1,0.4-3.2c0.3-2.4,0.7-4.9,1-7.3c0.1-0.8,0.2-1.6,0.3-2.4c0.1-1.1,0.2-2.1,0.4-3.2c0.3-2.5,0.7-5,1-7.5
				C228.9,311.9,229.1,309.9,229.4,307.8z M23,346.1c-0.3-2-0.5-3.9-0.8-5.8c-0.3-2.4-0.6-4.9-0.9-7.4c-0.1-0.8-0.2-1.6-0.3-2.4
				c-0.3-1.8-0.5-3.7-0.8-5.5c-0.2-1.7-0.4-3.4-0.6-5.1c-0.1-0.8-0.2-1.7-0.3-2.5c-0.1-1.1-0.3-2.1-0.4-3.2
				c-0.1-0.7-0.2-1.5-0.3-2.2c-0.2-1.2-0.3-2.4-0.5-3.6c0-0.4-0.1-0.7-0.1-1.1s-0.3-0.8-0.1-1.2c0.5-0.2,1.1-0.3,1.7-0.3
				c0.5,0,1-0.1,1.5-0.1c1.3-0.1,2.7-0.3,4-0.4c1.4-0.1,2.9-0.2,4.3-0.4c1-0.1,2-0.2,3.1-0.3c1.5-0.2,3-0.3,4.4-0.5
				c1.6-0.1,3.2-0.2,4.7-0.3c0.1,0,0.2,0,0.3,0c1.6-0.2,3.1-0.3,4.7-0.5c1.8-0.1,3.5-0.2,5.3-0.4c0.1,0,0.2,0,0.3,0
				c1.7-0.2,3.4-0.3,5.1-0.5c2.1-0.1,4.2-0.2,6.3-0.4c0.1,0,0.2,0,0.3,0c1.9-0.4,3.9-0.2,5.9-0.4c1.4-0.2,2.8-0.1,4.2-0.3
				c1.9-0.2,3.7-0.1,5.6-0.3c1.7-0.2,3.4-0.1,5.2-0.3c2.3-0.2,4.6-0.1,6.8-0.3c2.6-0.2,5.3-0.1,8-0.3c4-0.2,7.9-0.1,11.9-0.3
				c3.7-0.2,7.4-0.1,11.1-0.1c5.3,0,10.6-0.1,16,0.2c4.1,0.2,8.1,0,12.2,0.3c2.7,0.2,5.4,0.1,8.1,0.3c2,0.2,3.9,0.1,5.9,0.3
				c2.2,0.2,4.4,0.2,6.6,0.3c2.5,0.2,4.9,0.2,7.4,0.4c0.1,0,0.2,0,0.3,0c2.1,0.3,4.3,0.2,6.4,0.5c2,0.2,4,0.3,6,0.4
				c0.1,0,0.2,0,0.3,0c1.9,0.2,3.7,0.3,5.6,0.5c1.7,0.1,3.4,0.2,5.2,0.3c0.1,0,0.2,0,0.3,0c1.6,0.2,3.2,0.3,4.7,0.5
				c1.6,0.1,3.2,0.2,4.7,0.3c0.1,0,0.2,0,0.3,0c1.6,0.2,3.1,0.3,4.7,0.5c1.4,0.1,2.9,0.2,4.3,0.3c1.4,0.1,2.9,0.3,4.3,0.5
				c1.5,0.1,3,0.2,4.5,0.4c0.4,0,0.8,0.1,1.3,0.4c-1.7,13.3-3.5,26.7-5.2,40.1c0.7,0.4,1.4,0.7,2.1,1.1c0.1-0.4,0.2-0.7,0.3-1.1
				c0.1-0.9,0.2-1.8,0.3-2.6c0.2-1.9,0.4-3.7,0.6-5.6c0.1-0.8,0.2-1.7,0.3-2.5c0.1-1.1,0.3-2.1,0.4-3.2c0.2-1.8,0.4-3.7,0.6-5.6
				c0.1-0.8,0.2-1.7,0.3-2.5c0.1-1.1,0.3-2.2,0.4-3.3c0.1-1.1,0.2-2.1,0.4-3.2c0.1-0.8,0.2-1.7,0.3-2.5c0.1-1.1,0.3-2.2,0.4-3.3
				c0.1-1.1,0.2-2.1,0.4-3.2c0.1-0.8,0.2-1.7,0.3-2.5c0.1-0.5,0.1-0.9,0.2-1.4c0-0.5,0.1-0.9,0.1-1.4c-1-0.1-2-0.2-2.9-0.3
				c-1.3-0.1-2.6-0.2-3.9-0.4c-1.3-0.1-2.7-0.3-4-0.4c-1.5-0.1-3.1-0.2-4.6-0.4c-0.1,0-0.3,0-0.4,0c-1.5-0.2-3.1-0.3-4.6-0.4
				c-1.6-0.1-3.3-0.2-4.9-0.3c-0.1,0-0.2,0-0.3,0c-1.8-0.2-3.5-0.3-5.3-0.5c-1.9-0.1-3.7-0.2-5.6-0.3h-0.1c-1.8-0.4-3.7-0.2-5.6-0.4
				c-1.4-0.2-2.9-0.1-4.3-0.3c-1.6-0.2-3.3-0.1-4.9-0.3c-1.8-0.2-3.6-0.1-5.4-0.3c-1.9-0.2-3.8-0.1-5.7-0.3
				c-3.4-0.2-6.8-0.3-10.2-0.4c-0.5,0-1,0-1.5,0c-2.4-0.1-4.8-0.3-7.3-0.3c-1.6,0-3.3,0-4.9-0.1c-1.4,0-2.7-0.2-4-0.2
				c-7.7,0-15.4-0.1-23.1,0c-4.3,0-8.7,0-13,0.2c-4.1,0.2-8.2,0-12.3,0.3c-2.4,0.2-4.9,0-7.3,0.3c-3.2,0-6.4,0.3-9.6,0.4
				c-0.6,0-1.1,0-1.7,0.1c-1.1,0.2-2.2,0.2-3.3,0.2c-2.2,0.1-4.4,0.2-6.6,0.3c-0.1,0-0.2,0-0.3,0c-2.3,0.3-4.6,0.3-6.8,0.5
				c-1.9,0.2-3.7,0.2-5.6,0.3c-0.1,0-0.2,0-0.3,0c-1.9,0.2-3.7,0.3-5.6,0.5c-1.6,0.1-3.3,0.2-4.9,0.3H43c-1.6,0.2-3.2,0.3-4.9,0.5
				c-1.6,0.1-3.2,0.2-4.7,0.4c-0.1,0-0.2,0-0.3,0c-1.3,0.1-2.7,0.3-4,0.4c-1.4,0.1-2.9,0.2-4.3,0.4c-1,0.1-2,0.2-3.1,0.3
				c-1.6,0.2-3.1,0.3-4.7,0.5c-0.5,0.1-1,0-1.5,0.4c-0.1,0.5,0,1.1,0.1,1.6c0.1,1.1,0.3,2.1,0.4,3.2c0.1,1.1,0.2,2.1,0.3,3.2
				c0.1,0.9,0.2,1.8,0.3,2.6c0.1,1.1,0.3,2.2,0.4,3.3s0.2,2.1,0.4,3.2c0.2,1.8,0.5,3.5,0.7,5.3s0.4,3.7,0.6,5.6
				c0.1,0.8,0.2,1.7,0.3,2.5c0.1,1.1,0.3,2.1,0.4,3.2c0.1,1.1,0.2,2.2,0.4,3.3c0.2,1.4,0.4,2.9,0.5,4.3c0,0.3,0.1,0.6,0.2,1
				c0.1,0.3-0.1,0.7,0.3,0.9C21.4,347,22.1,346.6,23,346.1z M55.1,299.5l0.1,0.1c0.4-0.1,0.8-0.1,1.2-0.2c1.4-0.1,2.9-0.1,4.3-0.3
				c1.5-0.2,3-0.1,4.5-0.3c1.5-0.2,3-0.1,4.5-0.3c1.9-0.2,3.7-0.1,5.6-0.3c1.8-0.2,3.5-0.1,5.3-0.3c2.3-0.2,4.6-0.1,6.8-0.3
				c2.5-0.2,5-0.1,7.6-0.3c3.5-0.2,7.1,0,10.6-0.3c9.9,0,19.9-0.1,29.8-0.1c4.2,0,8.5,0,12.7,0.1c1.5,0,3.1,0.1,4.6,0.2
				c2.6,0.1,5.1,0,7.7,0.2c2.9,0.2,5.9,0.1,8.8,0.3c3.1,0.2,6.2,0.2,9.2,0.4c1.7,0.1,3.4,0.2,5.2,0.3c0.4,0,0.7,0.1,1.1,0.1
				c0.7,0,1.5,0.1,2.2,0.1c0.2,0,0.3,0,0.8-0.1c-0.6-0.2-1-0.3-1.4-0.4c-2.1-0.6-4.1-1.2-6.2-1.9c-2.3-0.7-4.5-1.5-6.8-2.2
				c-1.2-0.4-2.5-0.7-3.8-1.1c-0.9-0.3-1.8-0.6-2.6-0.8c-0.5,0.1-1,0.2-1.4,0.3c-1.7,0.3-3.5,0.7-5.2,1c-1.8,0.2-3.5,0.7-5.1,1.3
				c-0.3,0-0.6-0.1-0.8-0.1c-0.5-0.1-1.1-0.3-1.6-0.5c-1.7-0.6-3.4-1.3-5.1-2c-0.6-0.2-1.2-0.3-1.8-0.1c-0.8,0.2-1.6,0.5-2.4,0.7
				c-0.3,0.1-0.6,0.1-0.8,0.1c-1-0.5-1.8-1.1-2.7-1.5c-2.8-1.3-5.8-2.2-8.7-3c-2.2,0.9-4.3,1.8-6.4,2.7c-0.9-0.3-1.7-0.6-2.5-1
				c-0.9-0.4-1.9-0.6-2.8-0.2c-0.3,0.1-0.6,0.1-1,0.2c-3,0.7-6.1,1.4-9.1,2.1c-3.8,0.8-7.5,1.7-11.3,2.5c-2.6,0.6-5.3,1.2-7.9,1.7
				c-5.1-1-10.3-2.1-15.4-3.1c-0.2,0.1-0.3,0.1-0.5,0.2c-1.4,0.6-2.8,1.1-4.3,1.3c-1.5,0.3-2.9,0.6-4.4,1c-3.4,0.8-6.6,2-9.8,3.2
				C55.6,299.2,55.4,299.4,55.1,299.5z M72.1,350.6c0.4,0.3,0.8,0.5,1.1,0.7c1.5,0.7,2.9,1.5,4.4,2.2c2.1,1,4.3,1.8,6.6,2.2
				c1,0.2,2,0.3,3.1,0.3c1,0,2.1-0.1,3.1-0.2c2-0.3,3.9-0.9,5.8-1.6c0.2-0.1,0.5-0.3,0.7-0.4c-0.7-1.3-1.5-2.5-2.1-3.7
				c-0.6-1.3-1.2-2.6-1.8-4c-0.3,0-0.7-0.1-1,0c-1.6,0.1-3.2,0-4.8,0.2c-1.5,0.2-3.1,0.1-4.6,0.1c-1.3,0.1-2.6,0.2-3.7,0.3
				c-1.2,0.8-2.2,1.5-3.3,2.1C74.4,349.3,73.3,349.9,72.1,350.6z M151.9,353.6c0.6,0.2,1.1,0.3,1.6,0.5c2.1,0.7,4.3,0.8,6.5,1
				c0.8,0.1,1.7-0.1,2.5-0.2c1.9-0.1,3.8-0.6,5.6-1.2c2.6-0.9,5-2.2,7.4-3.3c0.2-0.1,0.3-0.2,0.5-0.4c-0.8-0.5-1.6-0.7-2.3-1.1
				s-1.5-0.8-2.2-1.2c-0.7-0.4-1.5-0.8-2.1-1.2c-1.3-0.3-2.6-0.3-3.9-0.3c-1.3,0-2.5,0-3.8-0.1c-1.8-0.2-3.5-0.1-5.3-0.2
				c-0.3,0-0.5,0.1-0.7,0.1c-0.6,1.3-1.1,2.6-1.7,3.8C153.3,351,152.6,352.2,151.9,353.6z M63.9,347.3c-1.1,0-2.3,0-3.4,0.1
				c-2,0.3-4.1,0.2-6.1,0.4c-2,0.2-4,0.3-6,0.4h-0.1c-2,0.3-4,0.3-6,0.5c-0.1,0-0.2,0.1-0.4,0.2c0.4,0.2,0.6,0.3,0.9,0.4
				c2.8,1,5.7,1.8,8.6,2.5c1.6,0.4,3.3,0.7,5,0.8c2.6,0.2,5.1,0.2,7.7-0.2c2.1-0.4,4.1-1,6-1.8c0.2-0.1,0.3-0.2,0.3-0.4
				C68.2,349.1,66.1,348.1,63.9,347.3z M177.9,349.7c0.2,0.2,0.4,0.3,0.5,0.4c3.4,1.3,6.9,1.8,10.5,2c1.2,0.1,2.3-0.2,3.5-0.2
				s2.4-0.2,3.6-0.4c1.8-0.3,3.6-0.8,5.5-1.2c1.6-0.4,3.2-0.9,4.9-1.4c-2.4-0.5-4.6-0.4-6.8-0.6c-1.9-0.2-3.8-0.2-5.7-0.4h-0.1
				c-2-0.3-4.1-0.2-6.1-0.5c-1.2-0.1-2.5-0.1-4-0.2C181.8,347.7,179.9,348.7,177.9,349.7z M186.3,346.4c0.4,0,0.6,0,0.9,0.1
				c0.9,0,1.8,0,2.7,0.1c1,0.1,2,0.1,3.1,0.2c1,0.1,2,0.2,3.1,0.2c1.9,0.1,3.8,0.2,5.7,0.4c1.1,0.1,2.2,0.2,3.3,0.2
				c0.3,0,0.6,0.1,0.8,0.1c1.8,0.2,3.6,0.4,5.4-0.3c0.1-0.1,0.3-0.1,0.4-0.1c1-0.3,2-0.6,3.4-1c-0.5-0.1-0.7-0.1-1-0.1
				c-0.6,0-1.1,0-1.7-0.1c-1.8-0.1-3.5-0.3-5.3-0.5c-2-0.1-4.1-0.2-6.1-0.4c-1.3-0.1-2.6-0.2-3.9-0.2c-0.4,0-0.7-0.1-1.1-0.1
				c-1,0-2.1-0.2-3.1,0c-1.6,0.2-3.1,0.5-4.7,0.8C187.6,345.8,187,345.9,186.3,346.4z M39.3,348c0.3,0,0.5-0.1,0.7-0.1
				c1.9-0.1,3.7-0.2,5.6-0.4c0.1,0,0.3,0,0.4,0c1.8-0.2,3.5-0.3,5.3-0.5c1.3-0.1,2.5-0.1,3.8-0.3c1.8-0.2,3.5-0.2,5.3-0.3
				c0.2,0,0.4,0.1,0.5-0.2c-0.1,0-0.1-0.1-0.1-0.1c-2.4-0.8-4.8-1-7.3-1.3c-0.1,0-0.3,0-0.4,0c-0.7,0-1.4,0.1-2.1,0.1
				c-1.9,0.1-3.7,0.2-5.6,0.3h-0.1c-2,0.3-4.1,0.3-6.1,0.5c-1.5,0.2-3.1,0.2-4.6,0.4c0,0-0.1,0-0.2,0.1
				C36,346.9,37.6,347.5,39.3,348z M189.7,344.6c-1.6-0.1-3-0.3-4.4-0.3c-1.6-0.1-3.2,0-4.7-0.3c-2.6,0-5.2-0.2-7.8-0.3
				c-1.6-0.1-3.2,0-4.7-0.2c-0.1,0-0.2,0-0.3,0.1c0.1,0.2,0.2,0.3,0.3,0.4c0.5,0.4,1,0.7,1.4,1.1c0.4,0.3,0.9,0.5,1.4,0.5
				c2.6,0,5.1,0.2,7.7,0.3c1,0,1.9,0.1,2.9,0.2c0.9,0.1,1.8,0.1,2.7,0.1c0.3,0,0.5-0.1,0.8-0.2C186.4,345.6,187.9,345.1,189.7,344.6
				z M77.6,345.5c0.8-0.4,1.3-1.1,1.8-1.7c-0.3-0.3-0.5-0.2-0.8-0.2c-1.9,0-3.7,0.1-5.6,0.2c-2,0.2-4,0.1-6,0.3
				c-2.7,0.2-5.4,0.3-8.1,0.4c-0.3,0-0.7,0-1.3,0.1c0.6,0.2,0.9,0.3,1.2,0.4c0.9,0.3,1.9,0.5,2.8,0.8c0.8,0.3,1.6,0.4,2.5,0.4
				c1.8,0,3.6-0.2,5.4-0.3c2.6-0.1,5.1-0.2,7.7-0.3C77.3,345.6,77.5,345.6,77.6,345.5z M80.4,345.2c0.2,0.1,0.3,0.2,0.4,0.2
				c1.4,0,2.9,0,4.3-0.1c1.3-0.1,2.6-0.1,3.9-0.2c0.8,0,1.7,0,2.5,0c0.3,0,0.5-0.1,0.8-0.1c0.1-0.7-0.1-1.2-0.4-1.8
				c-0.5,0-1,0-1.4,0c-1.8,0.1-3.6,0.2-5.4,0.2c-0.9,0-1.8,0-2.6,0.1C81.7,344,81.1,344.5,80.4,345.2z M35,348.3
				c-0.3-0.1-0.5-0.2-0.7-0.2c-1-0.2-2-0.5-3-0.7c-1.5-0.3-3-0.4-4.6-0.3c-1.9,0.1-3.6,0.7-5,1.9c-0.2,0.1-0.3,0.3-0.4,0.5
				c0.1,0.1,0.2,0.1,0.3,0.1c0.7,0,1.4,0,2.1-0.1c1.5-0.1,3-0.3,4.4-0.5c1.4-0.1,2.9-0.2,4.3-0.4C33.3,348.6,34.1,348.5,35,348.3z
				 M76.5,346.5c-0.6,0-0.9-0.1-1.3,0c-1,0.2-1.9,0.2-2.9,0.2c-2.2,0.1-4.4,0.2-6.7,0.3c-0.1,0-0.2,0.1-0.2,0.1
				c0.1,0.1,0.1,0.1,0.2,0.2c1.8,0.9,3.6,1.8,5.4,2.7C73,349.2,74.7,348.1,76.5,346.5z M156.2,344.9c0.2,0,0.4,0.1,0.7,0.1
				c1,0,2,0,2.9,0.1c1,0,2,0,2.9,0.1c1.3,0.2,2.5,0.1,3.8,0.2c0.2,0,0.5,0,0.9-0.1c-1-0.7-1.9-1.3-2.8-1.9c-0.3,0-0.6,0-0.9-0.1
				c-0.7,0-1.5,0-2.2-0.1c-1.5-0.2-3-0.1-4.5-0.2c-0.2,0-0.3,0.1-0.6,0.1C156.3,343.8,155.9,344.3,156.2,344.9z M227.3,349.5
				c-0.7-0.9-1.5-1.3-2.4-1.5c-1.4-0.4-2.8-0.7-4.3-0.7c-1.4,0-2.7,0.2-4,0.4c-0.9,0.1-1.8,0.2-2.8,0.7c1.3,0.1,2.4,0.2,3.5,0.3
				c0.4,0,0.8,0,1.3,0.1c1.5,0.1,3,0.3,4.4,0.5c0.6,0.1,1.3,0.1,1.9,0.2C225.7,349.6,226.4,349.6,227.3,349.5z M177,349.5
				c1.6-0.8,3.2-1.5,4.8-2.3c-0.2-0.1-0.4-0.2-0.5-0.2c-1.9-0.1-3.8-0.3-5.7-0.3c-0.5,0-1-0.1-1.5-0.1c-0.7-0.1-1.5-0.1-2.3,0
				C172.7,347.4,174.4,348.4,177,349.5z M96.5,343.1c-0.8-0.1-1.5-0.2-2.3,0.1c0,0.2,0,0.3,0,0.5c0.1,0.4,0.2,0.7,0.3,1
				c1.2,0.2,1.5,0.2,2.4-0.1C96.9,344.1,96.7,343.6,96.5,343.1z M151.6,344.7c0.8,0.3,1.6,0.2,2.3,0.1c0.5-0.9,0.5-0.9,0.3-1.6
				c-0.7-0.1-1.4-0.2-2.2,0C151.9,343.7,151.7,344.1,151.6,344.7z"/>
			<path class="st2" d="M135.1,366.4c-0.2-0.3-0.3-0.6-0.4-0.8c-0.1-0.2-0.3-0.5-0.4-0.8c0.9-0.4,1.7-0.7,2.6-1.1
				c0.4,0.5,0.7,0.9,1.1,1.4C137.2,365.7,136.2,366,135.1,366.4z"/>
			<path class="st2" d="M118.3,365.8c0.6,0.1,1.1,0.2,1.7,0.3c0.1,0.6,0.3,1.1,0.4,1.7c-0.9,0-2.2-0.2-3.2-0.5
				c0.2-0.3,0.4-0.5,0.6-0.8C118,366.3,118.1,366.1,118.3,365.8z"/>
		</g>
	</g>
	<g>
		<path class="st2" d="M157.2,310.4c-1.3,1.5-1.6,2.2-1.7,3.9c-0.3,4.9-0.4,9.9-0.3,14.8v0.1c0,1.7,0.2,2.2,1.5,3.3
			c-0.1,0.1-0.1,0.1-0.2,0.1c-1.7,0-3.5,0-5.2,0c-0.1,0-0.2-0.1-0.3-0.1c0-0.1,0-0.3,0.1-0.4c0.5-0.4,0.9-0.8,1.2-1.5
			c0.3-2.8,0.4-5.8,0.3-8.8c-0.2-0.1-0.4-0.2-0.6-0.2c-0.8-0.1-1.6-0.2-2.4-0.2c-2.9,0-5.9,0-8.8,0c-0.3,0-0.5,0-0.8,0
			c-0.3,0.2-0.2,0.5-0.2,0.7c0,2,0,3.9,0,5.9c0,0.6,0.1,1.2,0.2,1.8c0.1,0.8,0.4,1.4,1,1.9c0.1,0.1,0.3,0.3,0.4,0.4
			c-0.1,0.1-0.2,0.2-0.2,0.2c-1.8,0-3.6,0-5.4,0c-0.1-0.4,0.2-0.5,0.3-0.6c0.8-0.6,1.1-1.5,1.1-2.5c0-1.2,0-2.4,0-3.6
			c0-3.1,0-6.3,0-9.4c0-1.2-0.1-2.3-0.2-3.5c-0.1-0.9-0.4-1.6-1.1-2.2c-0.1-0.1-0.3-0.2-0.3-0.5c0.1,0,0.2-0.1,0.3-0.1
			c1.7,0.3,3.3,0.2,5,0c0.1,0,0.2,0.1,0.3,0.1c0,0.1,0,0.2-0.1,0.3c-0.8,0.6-1.1,1.4-1.2,2.3c-0.2,2.2-0.3,4.4-0.4,6.6
			c0,0.2,0.1,0.4,0.1,0.5c0.4,0.4,0.8,0.5,1.3,0.4c1.4,0,2.7-0.1,4.1-0.1c0.6,0,1.2,0,1.8,0c1.8,0.2,3.6,0.2,5.5,0.1
			c0,0,0.1,0,0.1-0.1c0.3-0.2,0.3-0.4,0.3-0.7c0-1,0-2.1-0.1-3.1c0-0.9-0.2-1.9-0.2-2.8c0-1.2-0.3-2.2-1.2-3
			c-0.1-0.1-0.1-0.2-0.1-0.2s0-0.1,0.1-0.1l0.1-0.1c0.4,0,0.7,0,1.1,0C154.1,310.4,155.6,310.4,157.2,310.4z"/>
		<path class="st2" d="M78.3,334.1c-1.7,0.2-3.3-0.1-4.8,0.4c-0.1-0.5,0.2-0.7,0.4-0.8c0.6-0.6,0.9-1.4,0.8-2.3c-0.1-2-0.3-4-0.4-6
			c0-0.1,0-0.2,0-0.3c-0.1-1.9-0.3-3.7-0.3-5.6c0-1.4-0.2-2.9-0.3-4.3c-0.1-1.1-0.5-2-1.4-2.6c-0.1-0.1-0.3-0.2-0.5-0.5
			c1-0.2,2,0,2.9-0.1c1.8,1.8,3.6,3.6,5.3,5.4c1.8,1.8,3.5,3.7,5.3,5.5c1.8,1.8,3.4,3.7,5.2,5.5c0.3-0.2,0.2-0.4,0.2-0.6
			c-0.1-1.9-0.1-3.8-0.3-5.7c-0.1-1.9-0.3-3.7-0.4-5.6c-0.1-0.9-0.1-1.8-0.2-2.6c-0.1-1-0.5-1.9-1.4-2.4c0-0.3,0.2-0.4,0.3-0.4
			c1.1,0.2,2.1,0.1,3.2-0.1c0.3-0.1,0.7-0.1,1.1,0.1c0,0.1,0,0.2-0.1,0.3c-0.8,0.7-1,1.6-1,2.7c0,2.8,0,5.5,0.2,8.2
			c0.1,1.3,0.1,2.6,0.1,3.9c0.1,2.4,0.2,4.8,0.4,7.4c0,0-0.1,0.2-0.2,0.4c-0.2-0.1-0.4-0.2-0.5-0.3c-0.3-0.3-0.6-0.6-0.9-0.9
			c-3-3.1-6-6.2-9-9.2c-1.9-2-3.9-3.9-5.8-5.9c-0.2-0.2-0.3-0.5-0.7-0.4c0,0.1-0.1,0.3,0,0.4c0.2,2.6,0.3,5.2,0.5,7.8
			c0.1,1.9,0.3,3.8,0.6,5.7c0.1,1,0.4,2,1.5,2.5C78.1,333.7,78.2,333.9,78.3,334.1z"/>
		<path class="st2" d="M54.1,325.8c0,3.2-1,5.8-3,8c-1.5,1.6-3.3,2.7-5.3,3.2c-3.8,0.9-7.4,0.3-10.5-2.2c-2.1-1.7-3.3-3.9-3.9-6.4
			c-1.3-5.4,2-11.7,8.4-13.4c2.3-0.6,4.6-0.6,6.9,0.1c3.2,1,5.3,3,6.6,6C53.9,322.6,54.2,324.3,54.1,325.8z M43.2,335.8
			c0.6,0.1,1.4-0.1,2.2-0.4c2.4-0.7,4.2-2.1,5.2-4.3c0.8-1.8,1.1-3.6,0.8-5.6c-0.1-0.3-0.1-0.6-0.1-0.8c-0.3-2-1-3.8-2.2-5.4
			c-1.1-1.4-2.4-2.5-4.1-3c-1.3-0.4-2.6-0.4-4-0.2c-3.2,0.5-6.2,3.1-6.8,7c-0.2,1.7-0.1,3.4,0.4,5c0.6,2.2,1.7,4.1,3.4,5.7
			C39.4,335.1,41,335.8,43.2,335.8z"/>
		<path class="st2" d="M106.5,333.1c-4.9,0.2-9.8-3.4-11.1-8.5c-1-3.9-0.1-7.3,2.4-10.3c1.5-1.8,3.4-2.9,5.6-3.5
			c1.8-0.5,3.6-0.6,5.4-0.3c0.8,0.1,1.5,0.3,2.3,0.6c2.6,0.9,4.5,2.6,5.7,5.1c1.5,3.1,1.7,6.4,0.5,9.6c-1.3,3.6-3.9,5.8-7.5,6.9
			C108.8,333.1,107.6,333.1,106.5,333.1z M98.1,320.6c0,3.3,0.9,6,2.9,8.3c1,1.2,2.2,2.1,3.8,2.5c1.4,0.4,2.7,0.3,4.1,0
			c3.4-0.7,5.9-3.6,6.3-7c0.2-1.2,0.1-2.4,0-3.6c-0.2-1.8-0.8-3.5-1.7-5.1c-1.1-1.7-2.6-2.9-4.6-3.5c-1.8-0.5-3.6-0.4-5.3,0.2
			c-1.9,0.7-3.4,1.9-4.4,3.7C98.4,317.6,98,319.1,98.1,320.6z"/>
		<path class="st2" d="M188.5,324.1c0.5,0.3,0.9,0.6,1.2,0.8c1.2,0.9,2.1,2,2.3,3.5c0.1,0.7,0.3,1.5,0.5,2.2
			c0.1,0.6,0.3,1.2,0.5,1.8c0.2,0.8,0.6,1.6,1.4,2c0.2,0.1,0.3,0.2,0.3,0.5c-1.4-0.2-2.7-0.3-4.1-0.5c-0.3-0.3-0.3-0.7-0.3-1.1
			c-0.1-1.3-0.2-2.5-0.3-3.8c-0.3-2.5-1.5-4.3-4-5.2c-0.3-0.1-0.6-0.2-0.9-0.2c-0.8,0-1.6,0-2.3,0c-0.4,0.3-0.5,0.7-0.5,1.2
			c0,1.9,0.1,3.7,0.1,5.6c0,0.6,0.1,1.1,0.2,1.7c0.2,0.2,0.4,0.5,0.6,0.7c0.2,0.2,0.5,0.3,0.4,0.6c-1.1,0-5.2-0.2-5.9-0.4
			c0.1-0.4,0.4-0.4,0.7-0.6c0.9-0.6,1.2-1.3,1.3-2.3c0.1-2,0.2-4.1,0.3-6.1c0.1-1.1,0.2-2.1,0.2-3.2c0.1-2.1,0.1-4.3,0.1-6.4
			c0-1.1-0.3-2.1-1.3-2.8c-0.1,0-0.1-0.2-0.1-0.2s0-0.1,0-0.2c0.1,0,0.3-0.1,0.4-0.1c1,0.3,1.9,0.2,2.9,0.2c1.2,0,2.4,0,3.6,0
			c1.2,0,2.3,0.2,3.4,0.5c0.3,0.1,0.5,0.2,0.8,0.3c2,0.8,3.1,2.3,3.4,4.4c0.2,1.7-0.1,3.3-1.1,4.8c-0.8,1.1-1.8,1.9-3.2,2.1
			C188.9,323.9,188.8,323.9,188.5,324.1z M182.5,322.6c0.9,0,1.6,0,2.4,0.1c0.7,0,1.4,0,2.1,0c1.6-0.1,2.7-1,3.2-2.5
			c0.4-1,0.5-2.1,0.3-3.2c-0.2-1.6-1-2.8-2.5-3.4c-0.6-0.2-1.2-0.3-1.8-0.4c-0.7-0.1-1.5,0-2.2,0c-0.2,0-0.4,0.1-0.7,0.2
			c-0.1,0.9-0.3,1.8-0.3,2.7c-0.1,1.4-0.3,2.9-0.5,4.3C182.4,321,182.4,321.7,182.5,322.6z"/>
		<path class="st2" d="M216.8,337.5c-0.8-0.2-1.4-0.4-2-0.5c-0.7-0.1-1.4-0.2-2.1-0.3c-0.6-0.1-1.3,0-1.9-0.1
			c-0.1-0.5,0.3-0.7,0.5-1c0.2-0.3,0.3-0.6,0.5-0.8c-0.4-2.3-1-4.5-1.5-6.7c-0.3-0.1-0.5-0.3-0.7-0.3c-2.2-0.3-4.3-0.8-6.6-0.6
			c-0.2,0.3-0.3,0.6-0.5,0.8c-0.9,1.7-1.7,3.3-2.6,5c-0.5,1-0.5,1.1-0.2,2.3c-0.1,0-0.1,0.1-0.2,0.1c-1.3-0.2-2.7-0.4-4-0.4
			c0-0.4,0.3-0.4,0.4-0.4c1.2-0.4,2-1.2,2.6-2.3c0.7-1.3,1.4-2.5,2.1-3.8c1.9-3.4,3.8-6.8,5.6-10.2c0.3-0.5,0.5-1,0.7-1.4
			c0-0.7-0.3-1.3-0.5-1.8c-0.3-0.5-0.8-0.9-1.1-1.5c1.4,0,2.5,0.4,3.9,0.4c0.1,0.3,0.3,0.6,0.4,0.9c1,3.8,2.1,7.5,3.1,11.3
			c0.7,2.6,1.4,5.1,2,7.7c0.3,1.2,0.8,2.4,1.9,3.2C216.7,337.1,216.7,337.2,216.8,337.5z M207.8,318.8c-0.2,0.3-0.4,0.5-0.5,0.8
			c-1.1,1.9-2.1,3.8-3.2,5.7c-0.1,0.1,0,0.2-0.1,0.4c0.3,0.1,0.6,0.2,1,0.3c0.8,0.1,1.6,0.2,2.3,0.3c0.7,0,1.5,0.2,2.2,0
			c0-0.2,0-0.4,0-0.6C209,323.4,208.5,321.1,207.8,318.8z"/>
		<path class="st2" d="M165.7,312.1c-0.1,0.8-0.3,1.5-0.3,2.2c-0.2,1.8-0.3,3.5-0.4,5.3c0,0.4,0,0.7,0.1,1.1
			c0.3,0.1,0.6,0.2,0.8,0.2c1.3,0,2.5,0,3.8,0.1c1.1,0,2.1-0.2,2.9-1.1c0.1-0.1,0.1-0.1,0.2-0.2h0.1l0.1,0.1v0.1
			c-0.3,1.3-0.1,2.6-0.4,3.9l-0.1,0.1c-0.1,0-0.2,0-0.2-0.1c-0.7-1-1.8-1.2-2.8-1.4c-1.3-0.2-2.7-0.2-4-0.3c-0.1,0-0.3,0-0.5,0.1
			c0,0.2-0.1,0.5-0.1,0.7c0,2.4-0.1,4.8,0,7c0.3,0.8,0.8,1.1,1.5,1.4c0.8,0.3,1.6,0.5,2.4,0.6c0.6,0,1.2,0,1.8,0
			c1.3,0,2.4-0.5,3.3-1.4c0.4-0.4,0.7-0.7,1.1-1.1c0.2-0.2,0.4-0.4,0.6-0.5c0.4,0.1,0.3,0.4,0.3,0.6c-0.1,0.2-0.2,0.4-0.3,0.6
			c-0.5,0.9-1,1.8-1.6,2.8c-0.2,0.2-0.6,0.3-1,0.3c-0.7,0-1.4,0-2.1-0.1c-1.6-0.2-3.2-0.2-4.7-0.2c-0.7,0-1.5-0.1-2.2-0.1
			c-0.8,0-1.7,0-2.5,0.1c-0.3,0-0.7,0.1-1,0.1c-0.2,0-0.3-0.1-0.5-0.2c0.2-0.2,0.2-0.4,0.4-0.5c0.3-0.3,0.6-0.5,0.8-0.8
			c0.6-0.7,1-1.5,1-2.5c0.3-4.7,0.3-9.3,0.3-14c0-0.3,0-0.7,0-1c0-1.1-0.4-1.9-1.2-2.6c-0.2-0.2-0.6-0.3-0.7-0.7
			c0.6-0.2,1.3-0.1,1.9,0c0.7,0.2,1.5,0.2,2.2,0.2c2.2,0,4.5,0,6.7,0c0.4,0,0.8,0,1.3,0.1s0.9,0.2,1.4,0.3c0.1,0.2,0.1,0.4,0.2,0.6
			c0.1,0.6,0.1,1.2,0.2,1.8c0,0.3,0,0.6-0.4,0.7c-0.3-0.4-0.5-0.7-0.8-1.1c-0.7-0.5-1.6-0.8-2.5-1
			C169.1,311.9,167.5,312.1,165.7,312.1z"/>
		<path class="st2" d="M53.9,313.8c0.1-0.3,0.3-0.3,0.5-0.3c1,0,2,0,2.9,0c1.5,0,3-0.3,4.4-0.5c1.7-0.2,3.3-0.5,5-0.4
			c0.2,0,0.5,0.1,0.7,0.1c0.6,0.8,0.5,1.8,0.7,2.8c-0.2,0.1-0.3,0.1-0.4,0.2c-0.1-0.1-0.2-0.1-0.2-0.2c-0.8-1.1-1.9-1.4-3.2-1.5
			c-0.9,0-1.9-0.1-2.8,0.2c-0.3,0.1-0.6,0-0.8,0.1c-0.3,0-0.6,0.1-0.8,0.1s-0.4,0.1-0.6,0.2c-0.2,1.5-0.1,6.7,0.3,8.4
			c0.3,0.3,0.6,0.2,0.9,0.1c0.8-0.2,1.7-0.2,2.5-0.2c0.3,0,0.7,0,1,0c1.1-0.2,2.2-0.4,2.9-1.4c0.1-0.1,0.2-0.2,0.3-0.2
			c0.1,0.1,0.2,0.1,0.2,0.2c-0.1,1,0,2,0.1,2.9c0,0.3,0.1,0.6,0,1c-0.2,0.1-0.3-0.1-0.5-0.2c-0.5-0.5-1.2-0.8-1.9-0.8
			c-1.5,0-3,0-4.5,0.1c-0.3,0-0.5,0.1-0.8,0.2c0,0.2-0.1,0.3-0.1,0.4c0.2,2.4,0.5,4.8,0.9,7.1c0.4,0.8,1.1,1.2,1.8,1.3
			c1.7,0.2,3.3,0.3,5-0.2c0.8-0.2,1.5-0.7,2.1-1.4c0.4-0.5,0.8-1,1.2-1.6c0.1-0.1,0.3-0.3,0.4-0.4c0.1,0,0.2,0,0.3,0
			c0.2,0.2,0.2,0.4,0.1,0.7c-0.1,0.3-0.2,0.5-0.3,0.8c-0.3,0.7-0.7,1.3-0.8,2.1c-0.1,0.3-0.3,0.5-0.3,0.7c-0.6,0.4-1.1,0.5-1.7,0.5
			c-1.8,0.1-3.6,0.2-5.4,0.3c-1.1,0.1-2.2,0.2-3.3,0.3c-0.9,0.1-1.8,0.3-2.8,0.4c-0.2,0-0.5,0.1-0.7-0.1c0-0.1,0-0.3,0.1-0.4
			c0.2-0.2,0.4-0.4,0.5-0.6c0.7-1,1.1-2,1-3.3c-0.2-1.7-0.3-3.3-0.5-5c-0.1-1.4-0.2-2.9-0.4-4.3c-0.1-1.1-0.2-2.2-0.4-3.3
			c-0.1-0.5-0.1-1-0.2-1.5c-0.1-1.4-0.7-2.5-2.1-3.1c-0.1,0-0.2-0.1-0.2-0.1C54,313.9,53.9,313.9,53.9,313.8z"/>
		<path class="st2" d="M123.6,322.3c0,1.4,0,2.7,0.1,4.1c0,0.8,0.1,1.7,0.2,2.5c0,0.8,0.1,1.6,0.5,2.5c0.3,0.3,0.7,0.6,1.1,1
			c-0.1,0.1-0.2,0.1-0.3,0.1c-1.8,0-3.6,0-5.5,0c-0.1,0-0.2-0.1-0.3-0.1c0.1-0.4,0.6-0.6,0.8-0.9c0.2-0.3,0.5-0.6,0.8-0.9
			c0-0.6,0.1-1.2,0.1-1.8c0-3.6,0-7.2-0.1-10.8c0-1.6-0.1-3.2-0.3-4.8c-0.1-1-0.4-1.8-1.3-2.4c-0.2-0.1-0.3-0.2-0.3-0.5
			c0.2,0,0.5-0.1,0.8-0.1c1.4,0,2.9,0,4.3,0c0.7,0,1.4-0.1,2.1-0.2c1.8-0.1,3.6,0.2,5.1,1.1c2.3,1.3,3.6,4.5,2.1,7.5
			c-0.6,1.2-1.4,2.1-2.4,2.8c-0.9,0.7-2,1-3.1,1.1c-0.4,0-0.8,0-1.3,0C125.2,322.7,125,322.7,123.6,322.3z M123.7,321.5
			c0.5,0.1,1,0.1,1.4,0.2c1.5,0.3,2.9,0,4.2-0.8c0.8-0.5,1.5-1.2,1.7-2.1c0.2-0.7,0.3-1.4,0.4-2c0.3-2.1-1-4.2-2.9-4.9
			c-0.4-0.1-0.8-0.2-1.2-0.3c-1.1-0.2-2.1-0.2-3.2,0.1c-0.4,0.6-0.4,1.2-0.4,1.8c0,2.5,0,4.9,0,7.4
			C123.6,321,123.6,321.2,123.7,321.5z"/>
	</g>
	<path d="M1498-63.5c-6.4,7.4-7.9,11-8.3,19.6c-1.3,24.7-1.8,49.3-1.5,74c0,0.2,0,0.5,0,0.7c0.2,8.4,1.2,10.8,7.3,16.5
		c-0.3,0.3-0.6,0.7-0.9,0.7c-8.6,0-17.2-0.1-25.8-0.2c-0.4,0-0.8-0.3-1.4-0.6c0.2-0.6,0.1-1.4,0.5-1.8c2.3-2,4.6-4,5.9-7.4
		c1.3-14.1,1.8-28.8,1.6-43.8c-1.1-0.3-2.1-0.8-3.2-0.9c-3.9-0.4-7.9-0.9-11.8-1c-14.7-0.2-29.4-0.2-44-0.2c-1.4,0-2.7,0.2-3.8,0.2
		c-1.3,1.1-1.2,2.3-1.2,3.5c0.1,9.8,0.1,19.6,0.2,29.4c0.1,3,0.6,6,0.8,9c0.3,3.9,1.9,7.1,5,9.6c0.7,0.6,1.3,1.3,1.9,1.9
		c-0.6,0.4-0.9,0.8-1.2,0.8c-9,0-18.1,0-27.1-0.1c-0.3-1.8,0.9-2.3,1.7-3c4-3.1,5.5-7.4,5.6-12.2c0.1-6.1,0.2-12.1,0.2-18.2
		c0-15.6,0.1-31.2-0.1-46.8c-0.1-5.8-0.7-11.6-1-17.4c-0.3-4.4-1.9-8.1-5.3-11c-0.7-0.6-1.5-1.1-1.3-2.4c0.5-0.2,1.1-0.7,1.7-0.6
		c8.3,1.3,16.7,1,25,0c0.5-0.1,1.1,0.5,1.7,0.7c-0.2,0.6-0.2,1.2-0.4,1.4c-4,2.8-5.4,7-5.9,11.4c-1.2,10.9-1.7,21.8-1.8,32.8
		c0,0.9,0.3,1.8,0.4,2.7c1.9,1.8,4.2,2.2,6.5,2.2c6.7-0.1,13.5-0.4,20.2-0.5c3-0.1,6.1-0.2,9,0c9.1,0.8,18.1,0.8,27.2,0.5
		c0.2,0,0.4-0.2,0.7-0.3c1.4-0.8,1.7-2.2,1.7-3.6c-0.1-5.1-0.1-10.2-0.3-15.4c-0.2-4.6-0.8-9.3-0.9-13.9c-0.1-5.8-1.4-11.1-6.1-15
		c-0.3-0.3-0.4-0.8-0.6-1.2c0.1-0.2,0.2-0.3,0.4-0.4c0.2-0.1,0.4-0.3,0.6-0.3c1.9,0,3.7,0,5.6,0C1482.6-63.7,1489.8-63.6,1498-63.5z
		"/>
	<path d="M1104.4,54.6c-8.3,1.2-16.4-0.4-24.2,1.9c-0.4-2.6,1.1-3.3,2-4.2c3.2-3.2,4.4-7.1,4.1-11.5c-0.7-10-1.4-20-2.1-29.9
		c0-0.5-0.1-0.9-0.1-1.4c-0.5-9.3-1.3-18.6-1.5-27.9c-0.2-7.2-1-14.4-1.7-21.6c-0.5-5.3-2.5-9.9-7.2-12.9c-0.7-0.5-1.3-1.2-2.4-2.3
		c5.2-1,9.8-0.2,14.6-0.4c8.9,9.1,17.8,18,26.6,27c8.9,9.2,17.7,18.5,26.7,27.7c8.8,9,17,18.5,25.9,27.3c1.6-0.9,1-2.1,1-3.1
		c-0.4-9.5-0.7-19.1-1.3-28.6c-0.6-9.3-1.5-18.5-2.2-27.8c-0.4-4.4-0.7-8.8-1.2-13.2c-0.5-5.1-2.3-9.5-6.9-12.1
		c-0.1-1.5,0.8-2,1.7-1.8c5.4,0.8,10.6,0.7,15.9-0.6c1.7-0.4,3.7-0.7,5.3,0.5c-0.1,0.5-0.1,1.1-0.4,1.3c-3.9,3.6-5.1,8.2-5.1,13.3
		c0,13.7-0.1,27.5,1.1,41.2c0.5,6.5,0.3,13,0.6,19.5c0.5,12.1,1.2,24.2,1.9,37c0,0.1-0.5,0.8-1.1,1.8c-1-0.5-1.9-0.8-2.5-1.4
		c-1.5-1.4-3-2.9-4.4-4.5c-14.9-15.4-29.8-30.8-44.7-46.1c-9.6-9.8-19.2-19.6-28.9-29.4c-0.9-0.9-1.6-2.4-3.5-1.9
		c-0.1,0.6-0.3,1.3-0.2,2c0.8,13,1.6,26,2.6,39c0.7,9.5,1.7,19,2.8,28.5c0.6,5.2,2.2,10,7.4,12.7
		C1103.4,52.9,1103.7,53.7,1104.4,54.6z"/>
	<path d="M983.6,13.2c0.2,16-4.9,29-14.9,39.9c-7.3,7.9-16.3,13.3-26.6,15.8c-19.2,4.7-37,1.6-52.6-11.1
		c-10.3-8.4-16.6-19.2-19.6-32.2c-6.3-26.7,9.9-58.6,42-66.8c11.4-2.9,23-2.8,34.4,0.7c15.7,4.9,26.4,15.2,32.8,30.1
		C982.4-2.4,984,5.8,983.6,13.2z M929.1,63.5c2.7,0.5,6.8-0.7,10.8-1.8c11.7-3.4,20.8-10.5,26.1-21.6c4.2-8.8,5.7-18.2,3.8-27.9
		c-0.3-1.4-0.3-2.8-0.6-4.1c-1.6-9.8-5-18.8-10.9-26.9c-5.3-7.2-12-12.2-20.6-14.8c-6.5-1.9-13.1-2.2-19.9-1
		c-15.9,2.6-31,15.3-33.9,35.1c-1.2,8.5-0.5,16.7,1.8,24.8c3.1,11,8.6,20.6,17.2,28.2C909.9,59.8,918,63.4,929.1,63.5z"/>
	<path d="M1244.9,49.9c-24.6,1-48.9-17.1-55.4-42.5c-4.9-19.2-0.6-36.4,12.2-51.4c7.4-8.8,16.9-14.6,27.9-17.6
		c8.8-2.4,17.8-3,26.9-1.3c3.9,0.7,7.7,1.5,11.5,2.8c12.9,4.6,22.5,13.1,28.5,25.3c7.7,15.6,8.4,31.9,2.6,48.1
		c-6.3,17.9-19.4,29.1-37.4,34.7C1256.1,49.7,1250.6,49.9,1244.9,49.9z M1202.7-12.7c-0.2,16.4,4.5,29.9,14.4,41.6
		c5,6,11.2,10.4,18.9,12.4c6.9,1.8,13.7,1.5,20.6-0.1c16.9-3.7,29.2-18,31.5-35c0.8-6.1,0.6-12,0-18c-0.9-9.2-3.8-17.7-8.7-25.5
		c-5.4-8.6-13-14.5-22.8-17.4c-9-2.6-17.9-2.1-26.7,1c-9.6,3.4-16.9,9.6-21.7,18.6C1204.3-27.8,1202.5-19.9,1202.7-12.7z"/>
	<path d="M1654.1,4.7c2.5,1.7,4.3,2.8,5.9,4.1c5.9,4.5,10.3,10,11.6,17.6c0.6,3.7,1.5,7.3,2.4,10.9c0.7,2.9,1.6,5.8,2.4,8.7
		c1.1,4.2,3.1,7.7,6.9,10.1c0.8,0.5,1.5,1.1,1.3,2.6c-6.8-0.8-13.6-1.7-20.2-2.5c-1.6-1.7-1.5-3.6-1.7-5.4
		c-0.5-6.3-0.8-12.5-1.5-18.8c-1.4-12.7-7.7-21.7-20-26.1c-1.5-0.5-3.1-1-4.7-1.1c-3.9-0.2-7.9-0.1-11.6-0.1
		c-2.1,1.6-2.4,3.7-2.4,5.8c0.1,9.3,0.3,18.6,0.6,27.9c0.1,2.8,0.6,5.5,0.9,8.5c1,1.2,2,2.4,3,3.7c0.8,1,2.6,1.3,2.2,3.2
		c-5.7,0.1-25.9-1.2-29.6-2c0.4-1.8,2.2-2.2,3.4-3c4.3-2.8,6.2-6.7,6.5-11.7c0.5-10.2,1.1-20.4,1.6-30.7c0.3-5.3,0.9-10.7,1-16
		c0.3-10.7,0.3-21.4,0.5-32.1c0.1-5.7-1.4-10.6-6.3-14c-0.3-0.2-0.4-0.8-0.5-1.2c0-0.2,0.1-0.4,0.1-0.8c0.6-0.1,1.3-0.5,1.9-0.4
		c4.8,1.3,9.7,1.2,14.6,1.2c6.1,0.1,12.1,0,18.2,0c5.9,0,11.5,1.1,17.2,2.7c1.3,0.4,2.6,0.9,3.9,1.4c9.9,4.1,15.4,11.5,16.9,22.1
		c1.2,8.7-0.6,16.6-5.7,23.7c-4,5.5-9,9.4-15.9,10.4C1656.3,3.7,1655.7,4.1,1654.1,4.7z M1624.2-2.6c4.4,0.1,8.1,0.2,11.8,0.3
		c3.5,0,7,0.2,10.4-0.1c8-0.7,13.3-5,16-12.5c1.8-5.1,2.5-10.5,1.6-15.8c-1.2-7.8-5-14-12.6-17c-2.8-1.1-5.8-1.6-8.8-1.9
		c-3.7-0.3-7.4-0.2-11.1-0.2c-1.1,0-2.1,0.5-3.3,0.8c-0.6,4.7-1.4,9-1.6,13.4c-0.4,7.2-1.4,14.3-2.4,21.4
		C1623.7-10.5,1623.6-6.9,1624.2-2.6z"/>
	<path d="M1795.4,71.7c-3.9-0.9-7-1.8-10.2-2.3c-3.4-0.6-6.9-1-10.4-1.4c-3.2-0.4-6.5,0.1-9.5-0.5c-0.6-2.7,1.4-3.6,2.3-5.1
		c0.9-1.4,1.6-2.8,2.4-4.1c-1.9-11.4-5-22.4-7.5-33.5c-1.3-0.6-2.3-1.3-3.4-1.5c-10.8-1.7-21.5-4-32.7-2.9c-0.8,1.4-1.6,2.8-2.4,4.2
		c-4.3,8.2-8.7,16.5-12.9,24.8c-2.6,5.1-2.5,5.4-1.1,11.3c-0.3,0.2-0.7,0.7-1,0.6c-6.6-1-13.3-2.2-20.1-2c0-1.8,1.4-1.8,2.2-2.1
		c5.8-2.1,9.8-6.2,12.8-11.4c3.6-6.3,7-12.6,10.5-18.9c9.4-16.9,18.8-33.8,28.2-50.7c1.3-2.4,2.5-4.9,3.5-6.9
		c-0.2-3.7-1.3-6.5-2.7-9.2c-1.4-2.6-4.1-4.4-5.5-7.5c6.7-0.2,12.7,1.8,19.2,2c0.7,1.4,1.6,2.8,2,4.3c5.2,18.8,10.4,37.6,15.5,56.5
		c3.5,12.8,6.8,25.6,10.2,38.4c1.6,6.2,4.2,11.9,9.6,15.8C1794.7,69.8,1794.8,70.4,1795.4,71.7z M1750.4-21.6
		c-1,1.6-1.8,2.7-2.5,3.8c-5.3,9.5-10.6,19-15.8,28.5c-0.3,0.5-0.2,1.2-0.3,2.1c1.7,0.5,3.2,1.1,4.7,1.4c3.9,0.6,7.8,1.2,11.7,1.4
		c3.6,0.2,7.3,0.9,11-0.2c0-1.2,0.2-2.2,0-3C1756.3,1.3,1753.8-10,1750.4-21.6z"/>
	<path d="M1540.5-55c-0.6,4.1-1.4,7.5-1.7,10.9c-0.8,8.8-1.4,17.6-1.9,26.4c-0.1,1.8,0.2,3.7,0.3,5.7c1.6,0.4,2.9,0.9,4.2,0.9
		c6.3,0.2,12.6,0.2,18.8,0.4c5.6,0.2,10.6-1.2,14.5-5.4c0.3-0.3,0.7-0.5,1.2-0.8c0.2-0.1,0.5-0.1,0.7-0.1c0.1,0.2,0.3,0.3,0.4,0.5
		s0.2,0.5,0.2,0.6c-1.7,6.3-0.7,12.9-1.8,19.3c0,0.2-0.3,0.3-0.5,0.4c-0.4-0.1-1.1-0.1-1.2-0.3c-3.3-5-8.7-6.1-14-6.9
		c-6.6-1-13.4-1.1-20.1-1.5c-0.6,0-1.3,0.2-2.3,0.5c-0.1,1.1-0.4,2.3-0.4,3.4c-0.2,11.9-0.4,23.7,0.1,35c1.6,3.9,4.2,5.7,7.3,6.9
		c3.9,1.5,7.9,2.7,12.2,2.8c3,0.1,6.1,0,9.1,0.1c6.5,0.2,11.8-2.3,16.2-6.8c1.8-1.8,3.6-3.7,5.4-5.5c1-0.9,2.1-1.8,3-2.5
		c1.9,0.5,1.7,1.8,1.5,2.8c-0.3,1.1-0.8,2.2-1.4,3.2c-2.5,4.5-5,8.9-8,14.2c-0.8,0.9-2.7,1.6-4.9,1.6c-3.5-0.1-7,0.2-10.5-0.3
		c-7.9-1.1-15.8-0.8-23.7-1.1c-3.7-0.2-7.4-0.7-11.1-0.7c-4.2-0.1-8.3,0.1-12.5,0.3c-1.6,0-3.2,0.4-4.9,0.3c-0.8,0-1.5-0.7-2.7-1.2
		c0.8-1.1,1.2-1.8,1.8-2.4c1.3-1.3,2.8-2.5,4-3.9c3.1-3.6,4.9-7.7,5.2-12.6c1.3-23.2,1.7-46.5,1.6-69.8c0-1.6-0.1-3.3,0-4.9
		c0.1-5.3-2.1-9.4-6.1-12.7c-1.2-1-3-1.5-3.3-3.7c3.2-1,6.4-0.6,9.5,0.1c3.7,0.8,7.4,1,11.1,1c11.2,0,22.3,0,33.5,0
		c2.1,0,4.2,0,6.3,0.3c2.3,0.3,4.5,1,7.1,1.6c0.3,1.1,0.7,2.1,0.9,3.2c0.4,3,0.7,6,0.9,9c0.1,1.4-0.1,2.8-2.1,3.5
		c-1.2-1.8-2.5-3.7-3.9-5.7c-3.7-2.6-7.9-4.2-12.6-5.1C1557.5-55.8,1549.4-54.8,1540.5-55z"/>
	<path d="M982.3-46.6c0.4-1.7,1.4-1.7,2.3-1.7c4.9-0.1,9.8-0.1,14.7-0.1c7.5,0,14.8-1.3,22.1-2.3c8.3-1.2,16.6-2.5,25-2
		c1.1,0.1,2.3,0.3,3.5,0.4c2.7,4.5,2.2,9.4,3.3,14.2c-0.8,0.4-1.4,0.7-1.9,0.9c-0.5-0.3-1-0.5-1.2-0.9c-3.8-5.6-9.6-7-15.8-7.3
		c-4.6-0.2-9.3-0.4-13.9,1c-1.3,0.4-2.8,0.2-4.2,0.4c-1.4,0.2-2.8,0.4-4.1,0.7c-1.1,0.2-2.2,0.6-3.1,0.9c-1.1,7.7-0.3,33.4,1.4,42
		c1.4,1.3,3.1,1,4.6,0.6c4.1-1,8.3-0.9,12.5-1c1.6-0.1,3.3,0,4.9-0.2c5.6-0.8,11-2.1,14.6-7.1c0.4-0.5,1-0.7,1.5-1.1
		c0.5,0.4,1.1,0.7,1.1,0.9c-0.4,4.9-0.1,9.7,0.6,14.6c0.2,1.6,0.6,3.2-0.2,4.8c-1.1,0.5-1.7-0.3-2.3-0.9c-2.7-2.4-6-3.8-9.5-3.8
		c-7.4-0.1-14.9,0.1-22.3,0.3c-1.3,0-2.6,0.7-4,1.1c-0.2,0.9-0.5,1.5-0.5,2.2c1.1,12,2.4,24,4.3,35.5c2.1,4.2,5.4,6.1,9.1,6.6
		c8.3,1.2,16.7,1.3,24.9-1c4.2-1.2,7.6-3.4,10.2-6.9c2-2.6,3.9-5.2,5.9-7.8c0.6-0.7,1.3-1.3,1.9-1.8c0.6,0.1,1.1,0.1,1.5,0.2
		c0.9,1,0.8,2.1,0.5,3.3c-0.4,1.3-1,2.6-1.6,3.9c-1.6,3.4-3.3,6.7-4,10.4c-0.3,1.3-1.3,2.4-1.7,3.3c-2.8,1.9-5.4,2.3-8.3,2.5
		c-9.1,0.5-18.1,0.8-27.1,1.7c-5.6,0.6-11.1,0.8-16.7,1.3c-4.6,0.4-9.2,1.4-13.7,2.2c-1.2,0.2-2.3,0.4-3.4-0.7
		c0.1-0.6,0-1.3,0.4-1.8c0.8-1.1,1.9-2,2.7-3.2c3.4-4.9,5.5-10.2,4.8-16.3c-0.9-8.3-1.6-16.7-2.3-25C998.2,9.2,997.7,2,997-5.2
		c-0.5-5.6-1.2-11.1-1.8-16.6c-0.3-2.5-0.7-5.1-1-7.6c-0.7-7-3.6-12.4-10.2-15.5c-0.4-0.2-0.8-0.4-1.2-0.7
		C982.7-46,982.6-46.2,982.3-46.6z"/>
	<path d="M1330.3-4.1c-0.2,6.8,0,13.6,0.3,20.3c0.2,4.2,0.7,8.4,0.8,12.5c0.1,4,0.6,7.9,2.4,12.3c1.6,1.4,3.6,3.2,5.7,5
		c-0.7,0.3-1.1,0.6-1.5,0.7c-9.1,0.1-18.2,0.1-27.2,0.2c-0.4,0-0.8-0.3-1.5-0.6c0.6-2.2,2.9-2.8,4.1-4.3c1.2-1.4,2.4-2.8,3.8-4.5
		c0.1-2.9,0.4-5.9,0.4-8.9c-0.1-17.9-0.2-35.9-0.5-53.8c-0.1-7.9-0.7-15.8-1.3-23.7c-0.4-4.8-2.1-9.1-6.4-11.8
		c-0.8-0.5-1.5-1.1-1.3-2.6c1.2-0.1,2.5-0.4,3.9-0.4c7.2-0.1,14.4,0,21.7-0.2c3.5-0.1,6.9-0.6,10.4-0.8c9-0.6,17.7,0.9,25.5,5.5
		c11.3,6.7,17.9,22.5,10.6,37.4c-2.8,5.8-6.9,10.5-12.1,14.2c-4.7,3.3-10,4.9-15.6,5.4c-2.1,0.2-4.2,0.2-6.3,0.2
		C1338-1.9,1337.1-2,1330.3-4.1z M1330.5-8.3c2.7,0.5,4.7,0.7,6.8,1.2c7.4,1.6,14.3-0.1,20.7-3.8c4.2-2.4,7.2-5.9,8.5-10.6
		c0.9-3.4,1.7-6.8,2.1-10.2c1.3-10.4-4.9-20.7-14.7-24.4c-1.9-0.7-4-1.2-6.1-1.5c-5.3-0.8-10.6-1-15.8,0.4c-1.9,2.9-1.8,5.9-1.8,8.9
		c-0.1,12.3-0.1,24.6-0.1,37C1330.2-10.4,1330.4-9.5,1330.5-8.3z"/>
	<path class="st2" d="M117.9,347.1c0.1-0.1,0.2-0.2,0.3-0.3c0.6-0.4,1.2-0.9,1.5-1.6c0.1-0.2,0.3-0.4,0.4-0.5c0.5-0.3,1-0.3,1.5-0.1
		c0.3,0.1,0.6,0.3,0.6,0.7c-0.7,0.4-1.5,0.5-2,1.2c-0.3,0.4-0.6,0.8-0.9,1.2c0,1.4,0,2.7,0.3,4c0.3,0.1,0.6,0.2,0.9,0.4
		c0.2,0.2,0.4,0.5,0.7,0.7c0.8-1.7,1.3-3.5,2.5-4.9c-0.3-0.8-0.6-1.5-0.8-2.2c0.1-0.4,0.3-0.5,0.6-0.6c0.3,0,0.6,0.1,1,0.4
		c0.1,0.5,0.3,1.1,0.4,1.7c0.2,0.5,0.9,0.5,1.1,1c-0.3-0.1-0.5-0.1-0.8-0.2c-0.2,0.3-0.1,0.5,0,0.8c0.3,0.6,0.6,1.1,0.8,1.7
		c-0.2-0.1-0.3-0.1-0.8-0.3c0.4,0.8,0.2,1.5,0.7,2.2c0.2,0,0.5,0,0.7,0c0.1-0.2,0.2-0.3,0.3-0.4c-0.2-0.5-0.7-0.7-0.7-1.3
		c0.4,0.4,0.9,0.7,1.5,0.8c0.2,0,0.4,0,0.5-0.3c-0.3-0.7-0.8-1.4-1.4-2c-0.3-0.3-0.5-0.6-0.8-0.9c0.4,0,0.6,0.2,0.9,0.4
		c0.8,0.7,1.6,1.5,2.2,2.3c0.1,0.2,0.3,0.3,0.6,0.8c-0.4-1.5-0.7-2.7-0.6-3.9c-1.2-1.1-2.7-1.8-4.1-2.7c0.6-0.6,0.6-0.6,1.6-0.5
		c1,0.7,2,1.5,3,2.2c0.4,0,0.8,0,1.1,0c1.2-0.1,2.3,0,3.5,0.4c0.5,0.1,1,0.2,1.5,0.4c0.6,0.4,1.2,0.9,1.5,1.7
		c0.3-0.3,0.6-0.6,0.9-0.9c0.1-0.1,0.2-0.1,0.4-0.2c0.2-0.1,0.4-0.1,0.6-0.2c0.3,0.1,0.7,0.3,1,0.4c0.2,0.4,0.4,0.7,0.7,1.2
		c0.2-0.1,0.5-0.1,0.8-0.2c1.3-0.1,2.2,1.1,1.7,2.3c-0.2,0.4-0.4,0.7-0.6,1.1c0.3,1.1,0.3,1.1,0,2.2c0.3,0.2,0.3-0.2,0.5-0.3
		c0.2-0.1,0.3-0.2,0.5-0.3s0.4-0.2,0.6-0.2c1,0.1,1.5,0.7,1.7,1.6c-0.2,0.9-0.2,0.9-1.3,2.1c0.2,0.1,0.4,0.3,0.6,0.3
		c0.7,0.1,1.3,0.5,1.7,1.2c0.2,0,0.4-0.1,0.6,0c1.3,0.2,1.9,1.4,1.4,2.6c-0.1,0.2-0.3,0.4-0.3,0.4c-0.2,0.8-0.4,1.5-0.5,2.3
		c0.2,0.4,0.6,0.8,0.6,1.5c0,0.4-0.2,0.8-0.5,1.1c-0.6,0.6-1.3,0.8-2,0.3c-0.3-0.2-0.6-0.5-0.7-0.9c0-0.1,0-0.4,0-0.6
		c0-0.2,0-0.5,0-0.9c-0.1-0.1-0.4-0.3-0.6-0.5c-0.5,0-1.1,0-1.5-0.3c-0.6-0.4-0.7-1-0.7-1.6c-0.3-0.3-0.6-0.3-1-0.4
		c-0.1,0.3-0.1,0.5-0.2,0.8c-0.4,1.2-1.3,1.5-2.4,1c-0.1,0-0.2-0.1-0.2-0.2c-0.6-0.9-0.6-0.9-0.4-2.6c-0.3-0.4-0.8-0.1-1.3-0.5
		c-0.1-0.1-0.3-0.3-0.6-0.6c0-0.4-0.1-0.7,0-1.1c0-0.4,0.2-0.7,0.2-1c-0.1,0-0.2,0-0.4-0.1c-0.1,0.4-0.2,0.8-0.3,1.2
		c-0.1,0.4-0.2,0.7-0.3,1.1c-0.3,1.4-0.7,1.7-2,1.9c-0.1,0-0.3,0.1-0.4,0.1c-0.1,0.4-0.2,0.7-0.3,1.1c-0.1,0.3-0.4,0.6-0.6,1
		c0.3,0.1,0.6,0.2,0.9,0.4c1.2,0.6,1.7,2,0.9,3.2c-0.2,0.3-0.4,0.5-0.7,0.6c-0.3,0.2-0.6,0.2-0.9,0.3c-0.4-0.1-0.8-0.2-1.2-0.4
		c0,0.4,0,0.7,0,1.1c0.7,0.7,1.2,1.5,1,2.7c1.1,0.7,1.4,1.6,1.1,2.8c-0.3,1-1.1,1.4-2.1,1.4c-0.2,0.3-0.4,0.7-0.6,1
		c-0.4,0.4-0.9,0.6-1.3,0.7c-0.3,0.3-0.1,0.7-0.2,1c-0.1,1.3-0.7,1.9-2,2c-0.1,0-0.3,0-0.4,0c-0.6-0.2-1-0.4-1.3-1
		c-0.4-0.7-0.3-1.4-0.2-1.9c0.2-0.7,0.7-0.9,1-1.2c0-0.1,0.1-0.2,0.1-0.2c-0.1-0.3-0.2-0.6-0.3-0.9c-0.7-0.5-1.2-1.1-1.3-2.1
		c0-0.5,0.3-1.1,0.7-1.7c-0.2-0.3-0.4-0.5-0.7-0.8c-0.6,0.6-1,1.3-2.2,1.3c-0.6-0.1-1.4-0.4-1.8-1.3c0-0.2-0.1-0.5-0.1-0.7
		c0-0.3,0-0.6,0-0.7c0.3-1.1,1.2-1.3,1.6-1.9c-0.2-0.3-0.5-0.5-0.6-0.7c-0.2-0.2-0.3-0.5-0.4-0.8c0-0.4,0-0.9,0-1.4
		c-0.3-0.3-0.7-0.1-1-0.2s-0.7-0.2-1-0.5c-0.2-0.2-0.5-0.5-0.6-0.8c-0.1-0.3-0.2-0.7-0.2-1.1c0-0.3,0.1-0.6,0.1-1
		c-0.2,0-0.3,0-0.4-0.1c-0.4,0.6-0.9,1.1-1.3,1.6c0.2,0.3,0.5,0.7,0.7,1c0.2,0.5,0.1,1-0.1,1.4s-0.5,0.7-0.9,0.9
		c-0.5,0.2-1.1,0.1-1.4-0.3c-0.2-0.3-0.4-0.6-0.7-0.9c-0.2,0.2-0.4,0.3-0.5,0.4c0,0.6,0,1.2,0,1.9c-0.2,0.2-0.3,0.5-0.5,0.6
		c-0.2,0.2-0.5,0.3-0.7,0.5c-0.1,0.2-0.2,0.4-0.3,0.7c0.1,0.2,0.3,0.5,0.4,0.7c0.3,0.7,0.1,1.3-0.3,1.9c-0.6,0.8-1.7,0.8-2.2,0
		c-0.2-0.3-0.3-0.6-0.4-0.9c0.1-0.4,0.1-0.7,0.2-1.1c-0.2-0.2-0.5-0.4-0.6-0.7c-0.2-0.3-0.3-0.6-0.4-0.9c-0.1-0.1-0.3-0.2-0.5-0.4
		c-0.2-0.1-0.3-0.3-0.5-0.5c-0.2-0.6-0.2-1.1-0.1-1.6c0.2-0.6,0.8-0.9,1.2-1.2c0.1-0.3,0.2-0.6,0.3-1c0.3-0.3,0.6-0.5,0.9-0.8
		c0-0.1,0-0.3,0-0.4c-0.5-0.3-1.1-0.3-1.6-0.9c-0.1-0.2-0.2-0.6-0.3-0.9c0.4-1.5,0.7-1.8,2.1-1.9c-0.1-0.3-0.2-0.6-0.2-0.9
		c-0.1-0.3-0.1-0.6-0.1-0.9c-0.8-0.3-1.4-0.9-1.5-1.8c0.2-1,0.7-1.6,1.7-1.8c0.1-0.5,0.2-0.9,0.2-1.2c0.3-0.6,0.8-0.9,1.5-1
		c0.3,0.1,0.6,0.3,1,0.5c0.1-0.1,0.3-0.2,0.3-0.4c0.1-0.4,0.1-0.8,0.2-1.2c0.3-0.8,1-1,1.5-1.2c0.7-0.6,1.2-1,1.8-1.4
		C117.1,347.3,117.5,347,117.9,347.1c-0.1,0.3-0.5,0.5-0.8,0.7c-0.7,0.6-1,0.9-1.3,1.7c0.5,0.2,0.8-0.2,1.1-0.4c0.8-0.6,1.1-1,1.3-2
		C118.2,347.1,118.1,347.1,117.9,347.1z M122.2,353.4c0.6,0,1-0.1,1.5-0.1c0.1-0.6,0.1-1.2,0.1-1.8c0-0.7,0.5-1.2,0.6-1.9
		c-0.1-0.3-0.3-0.6-0.4-0.8c-0.3-0.1-0.5,0.1-0.6,0.3c-0.6,1.2-1,2.5-1.3,3.8C122.1,353,122.2,353.2,122.2,353.4z M131.6,351.1
		c-0.6-0.9-1.2-1.7-1.3-2.6c-0.3-0.2-0.5-0.5-0.9-0.3c0.2,1.7,0.6,2.7,1.5,3.6C131,351.6,131.3,351.4,131.6,351.1z M133.3,347.7
		c-1-0.4-2-0.9-3.2-0.6c0.8,0.7,1.8,1.1,2.5,1.1C132.9,348.1,133.1,348.1,133.3,347.7z M125,352.7c0-0.6,0.1-1.2-0.2-1.7
		c0-0.1-0.1-0.1-0.3-0.2c-0.6,0.8-0.5,1.7-0.4,2.5c0.1,0,0.3,0,0.3-0.1C124.6,353.1,124.8,352.9,125,352.7z M131.4,348.6
		c0.4,0.4,0.7,0.7,1.1,0.8c0.1,0,0.2,0,0.3,0c0.2-0.1,0.4-0.3,0.2-0.6C132.5,348.6,132.1,348.3,131.4,348.6z M118.4,351.4
		c0.1-0.1,0.2-0.1,0.2-0.2c0.2-0.5,0.2-1.1,0.2-1.6c0-0.3,0.1-0.7-0.2-1.1c0,0.6-0.1,1.1,0,1.5C118.6,350.5,118.1,350.9,118.4,351.4
		z M132.3,350.3c-0.3-0.3-0.6-0.6-0.9-0.9c-0.1-0.1-0.2,0-0.4-0.1c0.2,0.7,0.5,1.2,1.2,1.6C132.2,350.7,132.2,350.5,132.3,350.3z
		 M117.9,349.4c-0.4,0.8-0.4,1.3-0.1,1.9C117.9,350.7,118.4,350.2,117.9,349.4z"/>
	<path d="M1302,119.5c0.4-0.5,0.8-1.1,1.4-1.5c3.2-2,5.9-4.5,7.7-7.9c0.5-1,1.5-1.8,2.1-2.5c2.7-1.3,5.2-1.5,7.7-0.5
		c1.5,0.6,2.8,1.5,3.2,3.7c-3.3,1.7-7.4,2.7-10,5.8c-1.6,2-3.2,4-4.7,5.8c-0.2,6.8,0,13.3,1.4,19.8c1.4,0.7,3,1.2,4.3,2.1
		c1.2,0.9,2.1,2.3,3.4,3.7c3.8-8.7,6.4-17.5,12.3-24.6c-1.5-4-2.9-7.7-4.2-11c0.3-2,1.4-2.7,3-2.8c1.7-0.1,3.2,0.3,4.7,1.9
		c0.6,2.6,1.3,5.5,1.9,8.4c1.1,2.5,4.6,2.4,5.4,5.1c-1.3-0.3-2.5-0.6-3.8-0.9c-1,1.3-0.5,2.6,0.1,3.8c1.4,2.8,2.8,5.6,4.1,8.4
		c-0.9-0.3-1.7-0.6-3.8-1.3c1.9,3.8,1.1,7.6,3.7,10.8c1.2-0.1,2.3-0.1,3.3-0.2c0.5-0.8,0.9-1.3,1.3-1.8c-0.8-2.5-3.7-3.7-3.7-6.5
		c2.1,1.8,4.4,3.4,7.3,3.8c1,0.1,1.8-0.2,2.3-1.6c-1.7-3.5-4.2-6.8-7.1-9.9c-1.4-1.5-2.7-3.2-4-4.7c1.8-0.1,3,1.1,4.3,2.1
		c4,3.6,7.9,7.3,11.1,11.6c0.6,0.8,1.3,1.6,3.1,3.8c-2-7.4-3.5-13.3-3.2-19.5c-5.9-5.7-13.4-9-20.2-13.4c2.8-2.9,2.8-2.9,8-2.5
		c5,3.7,9.9,7.3,14.8,10.9c2,0,3.8,0.1,5.7,0c5.9-0.3,11.6,0.2,17.3,1.8c2.4,0.7,4.9,1.2,7.7,1.9c3.1,2,5.8,4.7,7.7,8.6
		c1.6-1.7,3-3.1,4.4-4.5c0.5-0.5,1.2-0.7,1.9-0.9c0.9-0.3,1.8-0.6,2.9-0.9c1.6,0.7,3.3,1.4,5,2.1c1.1,1.9,2.2,3.7,3.4,5.8
		c1.2-0.3,2.4-0.7,3.8-0.8c6.4-0.7,11.1,5.7,8.5,11.6c-0.8,1.9-2.1,3.6-3.2,5.3c1.3,5.4,1.3,5.4,0,11c1.5,0.8,1.6-1,2.5-1.4
		c0.8-0.4,1.5-1.1,2.4-1.4c1-0.5,2.2-0.8,3-1.1c5.1,0.7,7.6,3.7,8.5,8.2c-1.1,4.5-1.1,4.5-6.4,10.7c1,0.6,1.8,1.6,2.8,1.7
		c3.7,0.6,6.5,2.5,8.4,6.1c1-0.1,2.1-0.3,3.2-0.2c6.4,0.9,9.6,7,6.9,13.1c-0.5,1-1.3,2-1.4,2.1c-1,4.2-1.8,7.5-2.7,11.6
		c1.1,1.7,3.1,3.8,3.2,7.4c-0.1,1.8-1,3.9-2.6,5.7c-2.8,3.2-6.4,3.8-10,1.5c-1.6-1-2.8-2.4-3.6-4.6c0-0.7-0.1-1.9-0.2-3.1
		c0-1.2,0-2.3,0-4.3c-0.7-0.5-1.8-1.4-3-2.4c-2.6,0-5.4-0.1-7.6-1.6c-2.8-2.2-3.3-5.2-3.5-8c-1.4-1.5-3.1-1.4-4.9-1.8
		c-0.3,1.3-0.6,2.7-1,4c-2.1,5.8-6.5,7.6-12.2,5.1c-0.4-0.2-0.8-0.5-1.1-0.8c-2.9-4.5-2.9-4.5-1.9-13c-1.5-1.9-4-0.7-6.6-2.4
		c-0.4-0.4-1.5-1.6-2.8-2.9c-0.1-1.8-0.4-3.7-0.2-5.5c0.2-1.8,0.8-3.5,1.2-5.2c-0.6-0.1-1-0.2-1.8-0.3c-0.5,1.9-1,3.9-1.5,5.8
		c-0.5,1.8-1.2,3.5-1.6,5.3c-1.6,6.8-3.3,8.4-10.2,9.4c-0.7,0.1-1.3,0.3-2.2,0.4c-0.5,1.8-0.8,3.6-1.5,5.3s-1.9,3.2-3,5.1
		c1.5,0.6,2.9,1.2,4.3,1.9c6.2,3.2,8.3,10,4.6,15.9c-0.8,1.3-2.2,2.4-3.5,3.2c-1.4,0.8-3.1,1-4.7,1.6c-2-0.6-3.9-1.2-6.2-1.8
		c0,1.9,0,3.5,0,5.6c3.4,3.4,6,7.6,5.2,13.3c5.4,3.3,7,8.1,5.5,13.9c-1.3,5-5.3,6.8-10.3,7.1c-1,1.7-2.1,3.5-3.1,5.1
		c-1.9,2.2-4.4,2.9-6.6,3.6c-1.3,1.7-0.7,3.3-0.8,4.9c-0.4,6.5-3.6,9.6-10.1,10c-0.7,0-1.4-0.1-2.1-0.1c-2.8-0.8-5.1-2.2-6.5-4.9
		c-1.8-3.3-1.4-6.7-0.9-9.4c1-3.4,3.5-4.6,5.1-6.2c0.1-0.5,0.3-0.8,0.3-1c-0.4-1.6-0.9-3.1-1.3-4.7c-3.4-2.4-5.9-5.4-6.3-10.5
		c0-2.6,1.6-5.4,3.6-8.2c-1.2-1.4-2.2-2.5-3.5-4c-3,2.8-5.2,6.4-11,6.6c-3.1-0.3-6.8-2-9-6.6c-0.1-1-0.5-2.3-0.5-3.7
		c0-1.6,0.2-3.2,0.2-3.3c1.3-5.6,5.9-6.2,8.1-9.5c-1.1-1.3-2.3-2.4-3.2-3.7c-0.8-1.1-1.3-2.4-2.2-4c0-2.2,0-4.7,0-6.9
		c-1.7-1.6-3.5-0.7-4.9-1.2c-1.7-0.6-3.5-1.2-5-2.3c-1.2-0.9-2.3-2.4-2.9-3.8c-0.7-1.7-1-3.6-1.1-5.4c-0.1-1.5,0.3-3.1,0.5-4.7
		c-0.9-0.1-1.5-0.2-2.1-0.3c-2.2,2.8-4.4,5.4-6.7,8.2c1.2,1.7,2.4,3.4,3.4,4.8c0.8,2.7,0.6,4.9-0.3,7.2c-0.9,2-2.4,3.4-4.4,4.3
		c-2.5,1.1-5.2,0.7-7-1.4c-1.2-1.4-2.1-3-3.3-4.7c-1.1,0.8-2,1.5-2.7,2.1c0,3.2,0,6.2,0,9.2c-0.9,1.1-1.7,2.3-2.7,3.2
		c-1,0.9-2.3,1.5-3.5,2.3c-0.5,1.1-1,2.1-1.5,3.3c0.6,1.2,1.3,2.4,1.8,3.7c1.3,3.3,0.7,6.4-1.3,9.3c-2.9,4-8.4,4-11.2-0.1
		c-0.9-1.3-1.3-2.9-2-4.4c0.3-1.9,0.7-3.7,1-5.7c-1-1.1-2.3-2.2-3.2-3.6c-0.9-1.3-1.4-2.9-2.2-4.7c-0.7-0.5-1.7-1-2.6-1.8
		c-0.9-0.7-1.6-1.6-2.3-2.3c-1-3-1-5.7-0.4-8.2c1.2-3.1,3.8-4.4,6.1-5.9c0.4-1.7,0.9-3.2,1.4-5c1.4-1.3,2.9-2.7,4.6-4.2
		c0.1-0.6,0.1-1.3,0.2-2.2c-2.3-1.4-5.4-1.3-7.8-4.4c-0.4-1.1-1.1-3-1.7-4.7c2.1-7.6,3.5-8.8,10.6-9.2c-0.4-1.6-0.9-3.1-1.1-4.6
		c-0.3-1.4-0.3-2.7-0.5-4.3c-4.1-1.7-7.1-4.4-7.4-9.2c0.8-4.9,3.5-8,8.6-8.8c0.4-2.3,0.8-4.3,1.2-6.1c1.7-3.2,4.1-4.7,7.7-5
		c1.4,0.7,3.1,1.5,5,2.4c0.6-0.7,1.5-1.2,1.6-2c0.4-2,0.6-4.1,0.8-5.9c1.4-4.2,5-5,7.3-5.9c3.4-2.8,6.1-5.1,8.9-7.2
		c1.8-1.4,3.7-2.8,6.2-2.8c-0.7,1.9-2.6,2.5-4,3.7c-3.5,3-4.8,4.6-6.3,8.7c2.5,1,3.9-1,5.5-2.1c4.2-2.9,5.3-4.8,6.6-9.8
		C1303.3,119.6,1302.6,119.5,1302,119.5z M1323.4,151.1c2.8-0.2,5.1-0.4,7.7-0.6c0.6-2.9,0.4-5.9,0.3-8.9c-0.1-3.4,2.4-6,2.9-9.4
		c-0.7-1.4-1.3-2.9-1.9-4.1c-1.7-0.3-2.5,0.5-3.1,1.6c-3.2,6-5.1,12.4-6.3,19.1C1323,149.3,1323.3,150,1323.4,151.1z M1370,139.7
		c-3.1-4.3-5.9-8.3-6.7-12.8c-1.5-1.2-2.6-2.7-4.4-1.4c0.9,8.3,3,13.6,7.4,17.8C1367.4,142.2,1368.5,141.1,1370,139.7z
		 M1378.4,122.6c-5.1-1.9-10.1-4.2-16.1-2.8c3.8,3.6,8.8,5.7,12.6,5.3C1376.5,124.9,1377.8,124.5,1378.4,122.6z M1337.2,147.7
		c-0.1-3.2,0.3-6-1.1-8.6c-0.2-0.3-0.7-0.5-1.3-0.8c-2.9,3.9-2.3,8.3-1.8,12.7c0.7-0.2,1.3-0.2,1.5-0.5
		C1335.4,149.7,1336.2,148.8,1337.2,147.7z M1369.3,127c1.8,2,3.3,3.4,5.3,4.1c0.4,0.1,0.9,0,1.3-0.1c0.9-0.7,1.8-1.4,0.9-2.9
		C1374.7,127.2,1372.6,125.6,1369.3,127z M1304.2,141.2c0.6-0.4,1.1-0.6,1.2-1c1.2-2.6,0.8-5.4,0.8-8.1c0-1.6,0.5-3.4-1-5.7
		c-0.1,3.1-0.4,5.4-0.2,7.6C1305.1,136.5,1302.7,138.6,1304.2,141.2z M1373.4,135.5c-1.4-1.4-2.8-2.9-4.3-4.3
		c-0.4-0.3-1.2-0.2-2.1-0.4c0.9,3.6,2.6,6.1,5.9,7.9C1373.1,137.5,1373.2,136.7,1373.4,135.5z M1302,131.3c-1.9,3.8-1.8,6.5-0.5,9.3
		C1301.7,137.8,1304.4,135.3,1302,131.3z"/>
</g>
<path class="st3" d="M160.7,105.7c0,8-2.5,14.4-7.5,19.9c-3.7,4-8.2,6.7-13.2,8c-9.5,2.2-18.4,0.7-26.1-5.5
	c-5.2-4.2-8.2-9.7-9.7-15.9c-3.2-13.4,5-29.1,20.9-33.4c5.7-1.5,11.4-1.5,17.2,0.2c8,2.5,13.2,7.5,16.4,14.9
	C160.2,97.8,160.9,102,160.7,105.7z M133.6,130.6c1.5,0.2,3.5-0.2,5.5-1c6-1.7,10.5-5.2,12.9-10.7c2-4.5,2.7-9,2-13.9
	c-0.2-0.7-0.2-1.5-0.2-2c-0.7-5-2.5-9.5-5.5-13.4c-2.7-3.5-6-6.2-10.2-7.5c-3.2-1-6.5-1-10-0.5c-8,1.2-15.4,7.7-16.9,17.4
	c-0.5,4.2-0.2,8.5,1,12.4c1.5,5.5,4.2,10.2,8.5,14.2C124.1,128.9,128.1,130.6,133.6,130.6z"/>
<path class="st2" d="M117.9,347.1c0.1-0.1,0.2-0.2,0.3-0.3c0.6-0.4,1.2-0.9,1.5-1.6c0.1-0.2,0.3-0.4,0.4-0.5c0.5-0.3,1-0.3,1.5-0.1
	c0.3,0.1,0.6,0.3,0.6,0.7c-0.7,0.4-1.5,0.5-2,1.2c-0.3,0.4-0.6,0.8-0.9,1.2c0,1.4,0,2.7,0.3,4c0.3,0.1,0.6,0.2,0.9,0.4
	c0.2,0.2,0.4,0.5,0.7,0.7c0.8-1.7,1.3-3.5,2.5-4.9c-0.3-0.8-0.6-1.5-0.8-2.2c0.1-0.4,0.3-0.5,0.6-0.6c0.3,0,0.6,0.1,1,0.4
	c0.1,0.5,0.3,1.1,0.4,1.7c0.2,0.5,0.9,0.5,1.1,1c-0.3-0.1-0.5-0.1-0.8-0.2c-0.2,0.3-0.1,0.5,0,0.8c0.3,0.6,0.6,1.1,0.8,1.7
	c-0.2-0.1-0.3-0.1-0.8-0.3c0.4,0.8,0.2,1.5,0.7,2.2c0.2,0,0.5,0,0.7,0c0.1-0.2,0.2-0.3,0.3-0.4c-0.2-0.5-0.7-0.7-0.7-1.3
	c0.4,0.4,0.9,0.7,1.5,0.8c0.2,0,0.4,0,0.5-0.3c-0.3-0.7-0.8-1.4-1.4-2c-0.3-0.3-0.5-0.6-0.8-0.9c0.4,0,0.6,0.2,0.9,0.4
	c0.8,0.7,1.6,1.5,2.2,2.3c0.1,0.2,0.3,0.3,0.6,0.8c-0.4-1.5-0.7-2.7-0.6-3.9c-1.2-1.1-2.7-1.8-4.1-2.7c0.6-0.6,0.6-0.6,1.6-0.5
	c1,0.7,2,1.5,3,2.2c0.4,0,0.8,0,1.1,0c1.2-0.1,2.3,0,3.5,0.4c0.5,0.1,1,0.2,1.5,0.4c0.6,0.4,1.2,0.9,1.5,1.7
	c0.3-0.3,0.6-0.6,0.9-0.9c0.1-0.1,0.2-0.1,0.4-0.2c0.2-0.1,0.4-0.1,0.6-0.2c0.3,0.1,0.7,0.3,1,0.4c0.2,0.4,0.4,0.7,0.7,1.2
	c0.2-0.1,0.5-0.1,0.8-0.2c1.3-0.1,2.2,1.1,1.7,2.3c-0.2,0.4-0.4,0.7-0.6,1.1c0.3,1.1,0.3,1.1,0,2.2c0.3,0.2,0.3-0.2,0.5-0.3
	c0.2-0.1,0.3-0.2,0.5-0.3s0.4-0.2,0.6-0.2c1,0.1,1.5,0.7,1.7,1.6c-0.2,0.9-0.2,0.9-1.3,2.1c0.2,0.1,0.4,0.3,0.6,0.3
	c0.7,0.1,1.3,0.5,1.7,1.2c0.2,0,0.4-0.1,0.6,0c1.3,0.2,1.9,1.4,1.4,2.6c-0.1,0.2-0.3,0.4-0.3,0.4c-0.2,0.8-0.4,1.5-0.5,2.3
	c0.2,0.4,0.6,0.8,0.6,1.5c0,0.4-0.2,0.8-0.5,1.1c-0.6,0.6-1.3,0.8-2,0.3c-0.3-0.2-0.6-0.5-0.7-0.9c0-0.1,0-0.4,0-0.6
	c0-0.2,0-0.5,0-0.9c-0.1-0.1-0.4-0.3-0.6-0.5c-0.5,0-1.1,0-1.5-0.3c-0.6-0.4-0.7-1-0.7-1.6c-0.3-0.3-0.6-0.3-1-0.4
	c-0.1,0.3-0.1,0.5-0.2,0.8c-0.4,1.2-1.3,1.5-2.4,1c-0.1,0-0.2-0.1-0.2-0.2c-0.6-0.9-0.6-0.9-0.4-2.6c-0.3-0.4-0.8-0.1-1.3-0.5
	c-0.1-0.1-0.3-0.3-0.6-0.6c0-0.4-0.1-0.7,0-1.1c0-0.4,0.2-0.7,0.2-1c-0.1,0-0.2,0-0.4-0.1c-0.1,0.4-0.2,0.8-0.3,1.2
	c-0.1,0.4-0.2,0.7-0.3,1.1c-0.3,1.4-0.7,1.7-2,1.9c-0.1,0-0.3,0.1-0.4,0.1c-0.1,0.4-0.2,0.7-0.3,1.1c-0.1,0.3-0.4,0.6-0.6,1
	c0.3,0.1,0.6,0.2,0.9,0.4c1.2,0.6,1.7,2,0.9,3.2c-0.2,0.3-0.4,0.5-0.7,0.6c-0.3,0.2-0.6,0.2-0.9,0.3c-0.4-0.1-0.8-0.2-1.2-0.4
	c0,0.4,0,0.7,0,1.1c0.7,0.7,1.2,1.5,1,2.7c1.1,0.7,1.4,1.6,1.1,2.8c-0.3,1-1.1,1.4-2.1,1.4c-0.2,0.3-0.4,0.7-0.6,1
	c-0.4,0.4-0.9,0.6-1.3,0.7c-0.3,0.3-0.1,0.7-0.2,1c-0.1,1.3-0.7,1.9-2,2c-0.1,0-0.3,0-0.4,0c-0.6-0.2-1-0.4-1.3-1
	c-0.4-0.7-0.3-1.4-0.2-1.9c0.2-0.7,0.7-0.9,1-1.2c0-0.1,0.1-0.2,0.1-0.2c-0.1-0.3-0.2-0.6-0.3-0.9c-0.7-0.5-1.2-1.1-1.3-2.1
	c0-0.5,0.3-1.1,0.7-1.7c-0.2-0.3-0.4-0.5-0.7-0.8c-0.6,0.6-1,1.3-2.2,1.3c-0.6-0.1-1.4-0.4-1.8-1.3c0-0.2-0.1-0.5-0.1-0.7
	c0-0.3,0-0.6,0-0.7c0.3-1.1,1.2-1.3,1.6-1.9c-0.2-0.3-0.5-0.5-0.6-0.7c-0.2-0.2-0.3-0.5-0.4-0.8c0-0.4,0-0.9,0-1.4
	c-0.3-0.3-0.7-0.1-1-0.2s-0.7-0.2-1-0.5c-0.2-0.2-0.5-0.5-0.6-0.8c-0.1-0.3-0.2-0.7-0.2-1.1c0-0.3,0.1-0.6,0.1-1
	c-0.2,0-0.3,0-0.4-0.1c-0.4,0.6-0.9,1.1-1.3,1.6c0.2,0.3,0.5,0.7,0.7,1c0.2,0.5,0.1,1-0.1,1.4s-0.5,0.7-0.9,0.9
	c-0.5,0.2-1.1,0.1-1.4-0.3c-0.2-0.3-0.4-0.6-0.7-0.9c-0.2,0.2-0.4,0.3-0.5,0.4c0,0.6,0,1.2,0,1.9c-0.2,0.2-0.3,0.5-0.5,0.6
	c-0.2,0.2-0.5,0.3-0.7,0.5c-0.1,0.2-0.2,0.4-0.3,0.7c0.1,0.2,0.3,0.5,0.4,0.7c0.3,0.7,0.1,1.3-0.3,1.9c-0.6,0.8-1.7,0.8-2.2,0
	c-0.2-0.3-0.3-0.6-0.4-0.9c0.1-0.4,0.1-0.7,0.2-1.1c-0.2-0.2-0.5-0.4-0.6-0.7c-0.2-0.3-0.3-0.6-0.4-0.9c-0.1-0.1-0.3-0.2-0.5-0.4
	c-0.2-0.1-0.3-0.3-0.5-0.5c-0.2-0.6-0.2-1.1-0.1-1.6c0.2-0.6,0.8-0.9,1.2-1.2c0.1-0.3,0.2-0.6,0.3-1c0.3-0.3,0.6-0.5,0.9-0.8
	c0-0.1,0-0.3,0-0.4c-0.5-0.3-1.1-0.3-1.6-0.9c-0.1-0.2-0.2-0.6-0.3-0.9c0.4-1.5,0.7-1.8,2.1-1.9c-0.1-0.3-0.2-0.6-0.2-0.9
	c-0.1-0.3-0.1-0.6-0.1-0.9c-0.8-0.3-1.4-0.9-1.5-1.8c0.2-1,0.7-1.6,1.7-1.8c0.1-0.5,0.2-0.9,0.2-1.2c0.3-0.6,0.8-0.9,1.5-1
	c0.3,0.1,0.6,0.3,1,0.5c0.1-0.1,0.3-0.2,0.3-0.4c0.1-0.4,0.1-0.8,0.2-1.2c0.3-0.8,1-1,1.5-1.2c0.7-0.6,1.2-1,1.8-1.4
	C117.1,347.3,117.5,347,117.9,347.1c-0.1,0.3-0.5,0.5-0.8,0.7c-0.7,0.6-1,0.9-1.3,1.7c0.5,0.2,0.8-0.2,1.1-0.4c0.8-0.6,1.1-1,1.3-2
	C118.2,347.1,118.1,347.1,117.9,347.1z M122.2,353.4c0.6,0,1-0.1,1.5-0.1c0.1-0.6,0.1-1.2,0.1-1.8c0-0.7,0.5-1.2,0.6-1.9
	c-0.1-0.3-0.3-0.6-0.4-0.8c-0.3-0.1-0.5,0.1-0.6,0.3c-0.6,1.2-1,2.5-1.3,3.8C122.1,353,122.2,353.2,122.2,353.4z M131.6,351.1
	c-0.6-0.9-1.2-1.7-1.3-2.6c-0.3-0.2-0.5-0.5-0.9-0.3c0.2,1.7,0.6,2.7,1.5,3.6C131,351.6,131.3,351.4,131.6,351.1z M133.3,347.7
	c-1-0.4-2-0.9-3.2-0.6c0.8,0.7,1.8,1.1,2.5,1.1C132.9,348.1,133.1,348.1,133.3,347.7z M125,352.7c0-0.6,0.1-1.2-0.2-1.7
	c0-0.1-0.1-0.1-0.3-0.2c-0.6,0.8-0.5,1.7-0.4,2.5c0.1,0,0.3,0,0.3-0.1C124.6,353.1,124.8,352.9,125,352.7z M131.4,348.6
	c0.4,0.4,0.7,0.7,1.1,0.8c0.1,0,0.2,0,0.3,0c0.2-0.1,0.4-0.3,0.2-0.6C132.5,348.6,132.1,348.3,131.4,348.6z M118.4,351.4
	c0.1-0.1,0.2-0.1,0.2-0.2c0.2-0.5,0.2-1.1,0.2-1.6c0-0.3,0.1-0.7-0.2-1.1c0,0.6-0.1,1.1,0,1.5C118.6,350.5,118.1,350.9,118.4,351.4z
	 M132.3,350.3c-0.3-0.3-0.6-0.6-0.9-0.9c-0.1-0.1-0.2,0-0.4-0.1c0.2,0.7,0.5,1.2,1.2,1.6C132.2,350.7,132.2,350.5,132.3,350.3z
	 M117.9,349.4c-0.4,0.8-0.4,1.3-0.1,1.9C117.9,350.7,118.4,350.2,117.9,349.4z"/>
<path class="st3" d="M118.6,143.8c0.1-0.1,0.3-0.3,0.4-0.4c0.9-0.6,1.8-1.3,2.2-2.4c0.1-0.3,0.4-0.6,0.6-0.7
	c0.7-0.4,1.5-0.4,2.2-0.1c0.4,0.1,0.9,0.4,0.9,1c-1,0.6-2.2,0.7-3,1.8c-0.4,0.6-0.9,1.2-1.3,1.8c0,2.1,0,4,0.4,6
	c0.4,0.1,0.9,0.3,1.3,0.6c0.3,0.3,0.6,0.7,1,1c1.2-2.5,1.9-5.2,3.7-7.3c-0.4-1.2-0.9-2.2-1.2-3.3c0.1-0.6,0.4-0.7,0.9-0.9
	c0.4,0,0.9,0.1,1.5,0.6c0.1,0.7,0.4,1.6,0.6,2.5c0.3,0.7,1.3,0.7,1.6,1.5c-0.4-0.1-0.7-0.1-1.2-0.3c-0.3,0.4-0.1,0.7,0,1.2
	c0.4,0.9,0.9,1.6,1.2,2.5c-0.3-0.1-0.4-0.1-1.2-0.4c0.6,1.2,0.3,2.2,1,3.3c0.3,0,0.7,0,1,0c0.1-0.3,0.3-0.4,0.4-0.6
	c-0.3-0.7-1-1-1-1.9c0.6,0.6,1.3,1,2.2,1.2c0.3,0,0.6,0,0.7-0.4c-0.4-1-1.2-2.1-2.1-3c-0.4-0.4-0.7-0.9-1.2-1.3
	c0.6,0,0.9,0.3,1.3,0.6c1.2,1,2.4,2.2,3.3,3.4c0.1,0.3,0.4,0.4,0.9,1.2c-0.6-2.2-1-4-0.9-5.8c-1.8-1.6-4-2.7-6.1-4
	c0.9-0.9,0.9-0.9,2.4-0.7c1.5,1,3,2.2,4.5,3.3c0.6,0,1.2,0,1.6,0c1.8-0.1,3.4,0,5.2,0.6c0.7,0.1,1.5,0.3,2.2,0.6
	c0.9,0.6,1.8,1.3,2.2,2.5c0.4-0.4,0.9-0.9,1.3-1.3c0.1-0.1,0.3-0.1,0.6-0.3s0.6-0.1,0.9-0.3c0.4,0.1,1,0.4,1.5,0.6
	c0.3,0.6,0.6,1,1,1.8c0.3-0.1,0.7-0.1,1.2-0.3c1.9-0.1,3.3,1.6,2.5,3.4c-0.3,0.6-0.6,1-0.9,1.6c0.4,1.6,0.4,1.6,0,3.3
	c0.4,0.3,0.4-0.3,0.7-0.4c0.3-0.1,0.4-0.3,0.7-0.4c0.3-0.1,0.6-0.3,0.9-0.3c1.5,0.1,2.2,1,2.5,2.4c-0.3,1.3-0.3,1.3-1.9,3.1
	c0.3,0.1,0.6,0.4,0.9,0.4c1,0.1,1.9,0.7,2.5,1.8c0.3,0,0.6-0.1,0.9,0c1.9,0.3,2.8,2.1,2.1,3.9c-0.1,0.3-0.4,0.6-0.4,0.6
	c-0.3,1.2-0.6,2.2-0.7,3.4c0.3,0.6,0.9,1.2,0.9,2.2c0,0.6-0.3,1.2-0.7,1.6c-0.9,0.9-1.9,1.2-3,0.4c-0.4-0.3-0.9-0.7-1-1.3
	c0-0.1,0-0.6,0-0.9c0-0.3,0-0.7,0-1.3c-0.1-0.1-0.6-0.4-0.9-0.7c-0.7,0-1.6,0-2.2-0.4c-0.9-0.6-1-1.5-1-2.4
	c-0.4-0.4-0.9-0.4-1.5-0.6c-0.1,0.4-0.1,0.7-0.3,1.2c-0.6,1.8-1.9,2.2-3.6,1.5c-0.1,0-0.3-0.1-0.3-0.3c-0.9-1.3-0.9-1.3-0.6-3.9
	c-0.4-0.6-1.2-0.1-1.9-0.7c-0.1-0.1-0.4-0.4-0.9-0.9c0-0.6-0.1-1,0-1.6c0-0.6,0.3-1,0.3-1.5c-0.1,0-0.3,0-0.6-0.1
	c-0.1,0.6-0.3,1.2-0.4,1.8c-0.1,0.6-0.3,1-0.4,1.6c-0.4,2.1-1,2.5-3,2.8c-0.1,0-0.4,0.1-0.6,0.1c-0.1,0.6-0.3,1-0.4,1.6
	c-0.1,0.4-0.6,0.9-0.9,1.5c0.4,0.1,0.9,0.3,1.3,0.6c1.8,0.9,2.5,3,1.3,4.8c-0.3,0.4-0.6,0.7-1,0.9c-0.4,0.3-0.9,0.3-1.3,0.4
	c-0.6-0.1-1.2-0.3-1.8-0.6c0,0.6,0,1,0,1.6c1,1,1.8,2.2,1.5,4c1.6,1,2.1,2.4,1.6,4.2c-0.4,1.5-1.6,2.1-3.1,2.1
	c-0.3,0.4-0.6,1-0.9,1.5c-0.6,0.6-1.3,0.9-1.9,1c-0.4,0.4-0.1,1-0.3,1.5c-0.1,1.9-1,2.8-3,3c-0.1,0-0.4,0-0.6,0
	c-0.9-0.3-1.5-0.6-1.9-1.5c-0.6-1-0.4-2.1-0.3-2.8c0.3-1,1-1.3,1.5-1.8c0-0.1,0.1-0.3,0.1-0.3c-0.1-0.4-0.3-0.9-0.4-1.3
	c-1-0.7-1.8-1.6-1.9-3.1c0-0.7,0.4-1.6,1-2.5c-0.3-0.4-0.6-0.7-1-1.2c-0.9,0.9-1.5,1.9-3.3,1.9c-0.9-0.1-2.1-0.6-2.7-1.9
	c0-0.3-0.1-0.7-0.1-1c0-0.4,0-0.9,0-1c0.4-1.6,1.8-1.9,2.4-2.8c-0.3-0.4-0.7-0.7-0.9-1c-0.3-0.3-0.4-0.7-0.6-1.2c0-0.6,0-1.3,0-2.1
	c-0.4-0.4-1-0.1-1.5-0.3s-1-0.3-1.5-0.7c-0.3-0.3-0.7-0.7-0.9-1.2c-0.1-0.4-0.3-1-0.3-1.6c0-0.4,0.1-0.9,0.1-1.5
	c-0.3,0-0.4,0-0.6-0.1c-0.6,0.9-1.3,1.6-1.9,2.4c0.3,0.4,0.7,1,1,1.5c0.3,0.7,0.1,1.5-0.1,2.1c-0.3,0.6-0.7,1-1.3,1.3
	c-0.7,0.3-1.6,0.1-2.1-0.4c-0.3-0.4-0.6-0.9-1-1.3c-0.3,0.3-0.6,0.4-0.7,0.6c0,0.9,0,1.8,0,2.8c-0.3,0.3-0.4,0.7-0.7,0.9
	c-0.3,0.3-0.7,0.4-1,0.7c-0.1,0.3-0.3,0.6-0.4,1c0.1,0.3,0.4,0.7,0.6,1c0.4,1,0.1,1.9-0.4,2.8c-0.9,1.2-2.5,1.2-3.3,0
	c-0.3-0.4-0.4-0.9-0.6-1.3c0.1-0.6,0.1-1,0.3-1.6c-0.3-0.3-0.7-0.6-0.9-1c-0.3-0.4-0.4-0.9-0.6-1.3c-0.1-0.1-0.4-0.3-0.7-0.6
	c-0.3-0.1-0.4-0.4-0.7-0.7c-0.3-0.9-0.3-1.6-0.1-2.4c0.3-0.9,1.2-1.3,1.8-1.8c0.1-0.4,0.3-0.9,0.4-1.5c0.4-0.4,0.9-0.7,1.3-1.2
	c0-0.1,0-0.4,0-0.6c-0.7-0.4-1.6-0.4-2.4-1.3c-0.1-0.3-0.3-0.9-0.4-1.3c0.6-2.2,1-2.7,3.1-2.8c-0.1-0.4-0.3-0.9-0.3-1.3
	c-0.1-0.4-0.1-0.9-0.1-1.3c-1.2-0.4-2.1-1.3-2.2-2.7c0.3-1.5,1-2.4,2.5-2.7c0.1-0.7,0.3-1.3,0.3-1.8c0.4-0.9,1.2-1.3,2.2-1.5
	c0.4,0.1,0.9,0.4,1.5,0.7c0.1-0.1,0.4-0.3,0.4-0.6c0.1-0.6,0.1-1.2,0.3-1.8c0.4-1.2,1.5-1.5,2.2-1.8c1-0.9,1.8-1.5,2.7-2.1
	C117.4,144.1,118,143.7,118.6,143.8c-0.1,0.4-0.7,0.7-1.2,1c-1,0.9-1.5,1.3-1.9,2.5c0.7,0.3,1.2-0.3,1.6-0.6c1.2-0.9,1.6-1.5,1.9-3
	C119,143.8,118.9,143.8,118.6,143.8z M125,153.2c0.9,0,1.5-0.1,2.2-0.1c0.1-0.9,0.1-1.8,0.1-2.7c0-1,0.7-1.8,0.9-2.8
	c-0.1-0.4-0.4-0.9-0.6-1.2c-0.4-0.1-0.7,0.1-0.9,0.4c-0.9,1.8-1.5,3.7-1.9,5.7C124.8,152.6,125,152.9,125,153.2z M139,149.8
	c-0.9-1.3-1.8-2.5-1.9-3.9c-0.4-0.3-0.7-0.7-1.3-0.4c0.3,2.5,0.9,4,2.2,5.4C138.1,150.6,138.5,150.3,139,149.8z M141.5,144.7
	c-1.5-0.6-3-1.3-4.8-0.9c1.2,1,2.7,1.6,3.7,1.6C140.9,145.3,141.2,145.3,141.5,144.7z M129.2,152.2c0-0.9,0.1-1.8-0.3-2.5
	c0-0.1-0.1-0.1-0.4-0.3c-0.9,1.2-0.7,2.5-0.6,3.7c0.1,0,0.4,0,0.4-0.1C128.6,152.8,128.9,152.5,129.2,152.2z M138.7,146.1
	c0.6,0.6,1,1,1.6,1.2c0.1,0,0.3,0,0.4,0c0.3-0.1,0.6-0.4,0.3-0.9C140.3,146.1,139.7,145.6,138.7,146.1z M119.3,150.3
	c0.1-0.1,0.3-0.1,0.3-0.3c0.3-0.7,0.3-1.6,0.3-2.4c0-0.4,0.1-1-0.3-1.6c0,0.9-0.1,1.6,0,2.2C119.6,148.9,118.9,149.5,119.3,150.3z
	 M140,148.6c-0.4-0.4-0.9-0.9-1.3-1.3c-0.1-0.1-0.3,0-0.6-0.1c0.3,1,0.7,1.8,1.8,2.4C139.9,149.2,139.9,148.9,140,148.6z
	 M118.6,147.3c-0.6,1.2-0.6,1.9-0.1,2.8C118.6,149.2,119.3,148.5,118.6,147.3z"/>
<path class="st4" d="M83.8,105"/>
<g>
	<path class="st5" d="M134.1,153c0,0,0.4,0.2,1.2,0.5c0.8,0.3,1.9,0.7,3.4,1.1c1.5,0.4,3.3,0.7,5.4,0.8c2.1,0.1,4.5-0.1,6.9-0.7
		c2.5-0.6,5.1-1.6,7.7-3c2.6-1.4,5.2-3.2,7.7-5.2c2.6-2,5.1-4.3,7.7-6.6c2.6-2.3,5.2-4.8,8.2-7.1c1.5-1.1,3-2.2,4.7-3.2
		c1.7-0.9,3.5-1.8,5.6-2.2c2.1-0.4,4.4-0.4,6.4,0.3c2.1,0.7,3.7,2,5,3.3c0.3,0.3,0.6,0.7,0.9,1l0.8,1.1c0.2,0.3,0.3,0.3,0.4,0.6
		c0.1,0.2,0.3,0.4,0.4,0.7c0.2,0.4,0.5,0.9,0.7,1.3c0.8,1.8,0.9,3.9,0.5,5.7c-0.4,1.8-1.3,3.3-2.4,4.6c-1.1,1.2-2.3,2.2-3.6,2.9
		c-2.6,1.5-5.2,2-7.5,2c-2.3,0-4.3-0.6-5.8-1.2c-1.5-0.6-2.6-1.3-3.2-1.8c-0.3-0.3-0.6-0.5-0.8-0.6c-0.2-0.1-0.3-0.2-0.3-0.2
		l0.2-0.3c0,0,0.1,0.1,0.3,0.2c0.2,0.1,0.5,0.3,0.8,0.5c0.7,0.4,1.8,0.9,3.3,1.3c1.5,0.4,3.3,0.7,5.3,0.4c2-0.2,4.3-0.9,6.3-2.4
		c2-1.4,3.7-3.6,4.1-6c0.2-1.2,0-2.4-0.6-3.6c-0.1-0.3-0.3-0.6-0.5-0.8c-0.1-0.1-0.2-0.2-0.3-0.4c-0.1-0.1-0.3-0.4-0.4-0.4l-0.8-0.8
		l-0.8-0.7c-1.1-0.9-2.3-1.7-3.6-1.9c-1.3-0.3-2.5-0.2-3.9,0.2c-2.7,0.8-5.5,2.7-8.3,4.8c-5.5,4.1-10.9,9-16.6,12.8
		c-2.9,1.9-5.8,3.6-8.7,4.9c-2.9,1.3-5.9,2.1-8.7,2.5c-1.4,0.2-2.7,0.2-4,0.2c-1.3,0-2.5-0.2-3.6-0.4c-2.2-0.4-4.1-1-5.6-1.6
		c-1.5-0.6-2.6-1.2-3.3-1.6c-0.7-0.4-1.1-0.6-1.1-0.6L134.1,153z"/>
</g>
<path class="st4" d="M197.5,428c-23-24-35.8,10.7-63.5,10.7"/>
<g>
	<path class="st5" d="M134.1,438.5c0,0,0.4,0.2,1.1,0.5c0.8,0.3,1.8,0.8,3.3,1.2c2.9,0.9,7.2,1.8,12.2,1.3c5.1-0.5,10.7-2.7,16.2-6
		c2.8-1.6,5.5-3.5,8.3-5.5c2.8-2,5.6-4,8.7-5.9c1.6-0.9,3.2-1.8,4.9-2.5c1.8-0.7,3.7-1.2,5.7-1.2c2,0,4.1,0.5,5.8,1.5
		c1.7,0.9,3.2,2.2,4.4,3.5c0.3,0.3,0.6,0.7,0.9,1l0.2,0.3l0.2,0.3c0.1,0.2,0.2,0.3,0.4,0.6c0.6,0.8,1,1.7,1.3,2.6
		c0.6,1.9,0.5,3.9,0,5.6c-1.1,3.5-3.7,5.7-6.2,7.1c-2.5,1.4-5.2,1.8-7.5,1.7c-2.3-0.1-4.2-0.6-5.6-1.3c-1.5-0.7-2.5-1.3-3.1-1.9
		c-0.3-0.3-0.6-0.5-0.7-0.6c-0.2-0.1-0.2-0.2-0.2-0.2l0.2-0.3c0,0,0.1,0.1,0.3,0.2c0.2,0.1,0.5,0.3,0.8,0.4c0.7,0.4,1.8,0.8,3.2,1.2
		c1.4,0.4,3.2,0.6,5.2,0.4c2-0.2,4.1-0.8,6.1-2.1c1.9-1.3,3.7-3.3,4.3-5.6c0.3-1.2,0.2-2.4-0.2-3.5c-0.2-0.6-0.5-1.1-0.9-1.6
		c-0.1-0.1-0.2-0.2-0.3-0.4l-0.1-0.1l0,0c0.1,0.1,0,0,0,0l0-0.1l-0.2-0.2c-0.3-0.3-0.5-0.6-0.8-0.8c-1-1.1-2.2-1.9-3.4-2.6
		c-1.2-0.6-2.5-1-3.9-1c-2.8-0.1-6,1-8.9,2.6c-3,1.5-5.9,3.4-8.8,5.3c-2.9,1.8-5.8,3.7-8.7,5.2c-2.9,1.6-5.9,2.9-8.8,3.8
		c-2.9,0.9-5.8,1.4-8.5,1.6c-2.7,0.2-5.1-0.1-7.3-0.5c-2.1-0.4-3.9-1-5.3-1.6c-1.4-0.6-2.5-1.1-3.3-1.5c-0.7-0.4-1.1-0.6-1.1-0.6
		L134.1,438.5z"/>
</g>
<g>
	<path class="st5" d="M136.7,157.9c0,0-0.5,0.1-1.3,0.2c-0.4,0-1.1,0.2-1.8,0.3c-0.7,0.1-1.5,0.2-2.4,0.3c-1.8,0.2-4,0.3-6.4,0.2
		c-2.4-0.1-5.1-0.5-7.9-1.3c-2.7-0.8-5.5-2-8.3-3.5c-2.8-1.5-5.6-3.2-8.5-5c-2.9-1.8-5.9-3.7-8.8-5.7c-2.9-2-5.6-4.4-8.3-6.4
		c-2.8-2-5.6-3.9-8.3-4.7c-1.4-0.4-2.7-0.4-3.9-0.1c-1.3,0.3-2.5,1-3.6,2l-0.8,0.7l-0.8,0.8c-0.1,0.1-0.3,0.3-0.4,0.4
		c-0.1,0.1-0.2,0.2-0.3,0.4c-0.2,0.3-0.3,0.5-0.5,0.8c-0.6,1.1-0.7,2.3-0.6,3.5c0.3,2.5,2.1,4.6,4.1,6c2,1.4,4.2,2.1,6.3,2.4
		c2,0.2,3.9,0,5.3-0.4c1.5-0.4,2.6-0.9,3.3-1.3c0.4-0.2,0.6-0.3,0.8-0.5c0.2-0.1,0.3-0.2,0.3-0.2l0.2,0.3c0,0-0.1,0.1-0.3,0.2
		c-0.2,0.1-0.4,0.3-0.8,0.6c-0.7,0.5-1.7,1.2-3.2,1.8c-1.5,0.6-3.4,1.2-5.8,1.2c-2.3,0-5-0.5-7.5-2c-1.3-0.7-2.5-1.7-3.6-2.9
		c-1.1-1.2-2-2.8-2.4-4.6c-0.4-1.8-0.3-3.9,0.5-5.7c0.2-0.5,0.4-0.9,0.7-1.3c0.1-0.2,0.3-0.4,0.4-0.7l0.4-0.6l0.8-1.1
		c0.3-0.3,0.6-0.7,0.9-1c1.3-1.3,3-2.6,5-3.3c2-0.7,4.4-0.7,6.4-0.3c2.1,0.4,3.9,1.3,5.6,2.2c1.7,1,3.2,2.1,4.7,3.2
		c2.9,2.3,5.6,4.7,8.1,7.2c2.5,2.5,4.8,5,7.4,7.2c2.5,2.2,5.2,3.9,8,5.1c2.8,1.1,5.5,1.8,8,2c2.5,0.1,4.8-0.2,6.7-0.8
		c1.9-0.6,3.4-1.4,4.6-2.1c0.6-0.4,1.1-0.8,1.5-1.1c0.4-0.3,0.7-0.6,1-0.9c0.7-0.6,1-0.9,1-0.9L136.7,157.9z"/>
</g>
<image style="overflow:visible;" width="600" height="360" xlink:href="../../../../NissChmbrLogo_CYMKPrintHRes_600x360.jpg"  transform="matrix(0.24 0 0 0.24 559 121.6667)">
</image>
</svg>
