<svg id="dfe9e9e6-3ef9-42f3-b769-f18c691ce5b1" data-name="Layer 1" xmlns="http://www.w3.org/2000/svg" xmlns:xlink="http://www.w3.org/1999/xlink" viewBox="0 0 653 275">
  <defs>
    <style>
      .\35 21325de-9aa2-442b-97e9-32ec04fdf2f4 {
        fill: none;
      }

      .f8b0c241-ba9d-4c28-b60e-8848ef38a710 {
        fill: #fff;
      }

      .\37 fab0a00-7b03-49f2-bd3a-63e7d4350b21 {
        clip-path: url(#182f136b-0ec5-47f5-9bff-baa6bfc67162);
      }

      .\33 3b1e91a-67ad-4d48-beb7-3005b6df774b {
        fill: url(#e3b2acdd-56c0-4474-ad9e-21c4227197e2);
      }

      .e65e2e07-7631-4c51-ae12-8516f3e81050 {
        clip-path: url(#c6f0dce2-72a9-4946-85c0-b67a17b18760);
      }

      .\37 6c1bdf8-ffa8-4916-934a-2f786c2c651a {
        fill: url(#406b163f-4b82-4719-8555-3e8b9cfad227);
      }

      .\37 20cc65a-0da2-47bd-94ef-08cbc0bf97ee {
        clip-path: url(#83f292fd-6160-4a1d-a7a8-8b0005b3f523);
      }

      .\39 d8e238d-e50d-403c-a323-3915b1785599 {
        fill: url(#8dfc4161-cbd9-4464-961c-9f8a4c0f3959);
      }

      .f41e2b2f-4a35-4faa-a628-c9c32e925f1e {
        clip-path: url(#b60266a7-fe59-4824-a348-2b692817be64);
      }

      .\38 52c22de-8fb4-4d5e-ae38-722bca7efafd {
        fill: url(#63ed4135-5225-4c4f-86cf-957d7ab5e64a);
      }

      .\32 07659da-9d27-44b7-af7e-f4209e3ed109 {
        clip-path: url(#05c164df-bf65-4a4b-ab21-6fb6dff2eeef);
      }

      .\37 d1dab56-9368-42ed-931f-dbdbb7812bd4 {
        fill: url(#4c1e8b4a-5cd9-4530-98ef-963760a81756);
      }

      .\34 cc9c2bc-df59-4763-9856-fbdc5ab95eec {
        clip-path: url(#d437c373-fb74-471f-a1a6-d4d4ab24eea4);
      }

      .\36 77650f6-92e0-4c3a-aa94-3249337077a2 {
        fill: url(#1e431525-52f2-4c4e-8a5d-01aa6d53de53);
      }

      .deec9a56-9ccd-4229-945f-80447166d484 {
        clip-path: url(#de081059-d5a2-4be5-8b02-a488ad523fe5);
      }

      .fc9dba56-3c71-4855-9811-9f6a73ee8c15 {
        fill: url(#e6c698a0-f54b-4a3f-accb-799461b4c2c2);
      }

      .\30 239998b-ee4f-46dc-84d2-0f5888378267 {
        clip-path: url(#bff27e2d-6262-4504-87d9-2c240477f9b6);
      }

      .b8bd006a-4c85-4760-abe1-f4a679a37659 {
        fill: url(#b17399ca-6bb4-4330-a476-56524a799231);
      }

      .f7c760a8-419f-4f5e-8d7d-0296b3d0c355 {
        clip-path: url(#795ad4ca-0f44-43e6-bbc1-1e0b42d02645);
      }

      .\35 59667f0-166c-4a2a-9c95-b4ec3e1719c1 {
        fill: url(#5d37a26d-86eb-4644-9f3e-2c82d2b1c2e2);
      }

      .\35 7aec99a-272a-4598-bf7c-0fda7a576429 {
        clip-path: url(#96d56b2b-56b4-4a20-9700-3b4f6a0a5986);
      }

      .\39 4036200-091f-43ed-a0f8-d9d0ab5d5bd4 {
        fill: url(#6919ff6b-2d19-450b-80d4-dafa20a03392);
      }

      .d3e2c1fe-02a2-406f-bc05-21d021783ccc {
        clip-path: url(#fc32fe41-ee89-4d68-bdce-839407604e65);
      }

      .\33 28885a3-77b7-4f32-aee5-a7815e19eb77 {
        fill: url(#83c9d384-e17e-4d2c-bc69-dd58e5d160b4);
      }

      .\31 c2d021e-ed06-4199-b1f6-892c7bc053ba {
        clip-path: url(#eefd0aee-6874-4afb-bebe-6bc789e20936);
      }

      .\33 cb0f7f8-820f-4f1c-a588-6003184bd816 {
        fill: url(#94a559da-302b-46d8-9e40-f1ee1e816c80);
      }

      .\39 d0e11f3-a58b-43d0-988c-9ccf08440c71 {
        clip-path: url(#06393646-043a-4a41-b812-758ef26c108a);
      }

      .a516dba9-0af8-446d-89c6-0f613376dd16 {
        fill: url(#2d2bb4d5-ac5e-44ea-bd76-9d8b1ac7efd8);
      }

      .\32 9d40cac-5530-4bdd-8c75-1e0ba324ded3 {
        clip-path: url(#66b4afc4-9a6f-49a4-9360-48bc2aa0b716);
      }

      .e2e9d3f5-3d8f-4ea5-b848-ffd3b10a68a7 {
        fill: url(#c0e41837-c2dd-4101-a8cc-32a2b59bdeb6);
      }

      .\39 04b927c-87b4-4723-90ff-89d01b58b6f7 {
        clip-path: url(#e030edbe-1bbe-4c6c-80ea-8efd2c92c116);
      }

      .\32 7fdefd4-5299-4086-a4bc-ae0d0b56ef8e {
        fill: url(#498c2c5f-7fb5-4e42-bc2d-049d24c23f64);
      }

      .\36 d51abd4-7ea3-417e-98bf-e8d723491ecf {
        fill: url(#6c35e14d-b98e-49ec-b424-23ade07276d9);
      }

      .\30 297efe5-a783-4bda-bb31-5e80f1e0ef00 {
        clip-path: url(#cee13be9-7418-4c29-be17-aeca689ac223);
      }

      .\33 0c4d2c7-730f-4d8b-b3aa-821b92e0735a {
        fill: url(#e8494cb3-d112-4f44-a4e7-70fcb5286b8a);
      }

      .\31 1b1fd2c-f826-46bb-9def-9508181fa3a7 {
        clip-path: url(#c3bed4f1-c72f-4343-a783-843e24eb5e63);
      }

      .\37 a0f718c-e7cc-4779-a290-d8d2e623fd05 {
        fill: url(#394bc49c-f337-4ff5-aa72-55cbaf21480e);
      }

      .\34 cf47312-a545-4b9a-8ba1-e535a1619198 {
        clip-path: url(#588e3366-d1fa-4772-a3ae-e135b71bd39a);
      }

      .\36 bbf9ddc-e09b-450e-9931-ee34dafd77a2 {
        fill: url(#f0a08daf-8e57-4f22-a1c1-b062f92f0d24);
      }

      .\31 a42219d-1e7b-4da8-a7d0-65c0196da3b6 {
        clip-path: url(#d2847c5b-e8f0-4caa-928f-2ebaca48a6bc);
      }

      .b713ef39-0a5d-4774-89d1-a32cf3a5047e {
        fill: url(#c727eb9f-668f-4ceb-bd04-2d2979de94f5);
      }

      .\37 79ff15a-9eb8-412f-ac4f-5fde4195585b {
        clip-path: url(#0c6804d6-3f23-468f-883b-428bd7b307e8);
      }

      .\34 c8e37c0-7f33-4e4a-bdef-c8c59d4c908d {
        fill: url(#b8e9485a-a1ff-414b-902d-bbe350bc5803);
      }

      .\39 f2f4fb0-96bf-41a7-8c5b-dee922f80c15 {
        clip-path: url(#22168894-2400-4b6a-a115-734ec7677abe);
      }

      .\38 a05f678-c0bc-4da2-b483-8392811bd48e {
        fill: url(#aebb9c5d-34ff-4279-a093-34bc17580424);
      }

      .\36 a0eeb5e-648a-41c5-abc5-aad8da98f8e8 {
        clip-path: url(#54d6735f-2c00-467e-9433-37c3e4faf4fb);
      }

      .\31 495a2a8-0e39-4751-b0c8-a0df48dbab3a {
        fill: url(#9a3a91e7-56fe-484e-8026-0625cf1d9535);
      }

      .\33 0be8952-fa6a-431f-9ea4-1cff252010fe {
        clip-path: url(#d979d239-babf-4d51-80eb-dd6a98daa7f2);
      }

      .\39 d6b0a5d-9408-4acb-bc4a-840d34e10c12 {
        fill: url(#dbd7cb67-df89-4d90-9cce-b1aee50448b7);
      }

      .f01e9c7a-0db6-4987-b65c-078bb82c0f42 {
        clip-path: url(#33028383-6542-4d62-bf52-838dacc010a3);
      }

      .e481d9e8-1498-4007-9585-43ea5ef7a159 {
        fill: url(#ec26e2f5-8e43-4be3-8382-764d8d187716);
      }

      .e5316aa1-69bf-4e33-b123-e22e314d5855 {
        clip-path: url(#c387fbcb-c42a-4557-b96b-1b8d343f2401);
      }

      .\34 00d2330-a5ad-49b6-afc3-a920a2ceaccb {
        fill: url(#8e5c5cfc-8279-4e20-863f-224576b4fe62);
      }

      .\35 e2d4521-3ec1-4fea-87b7-92f1abe90534 {
        clip-path: url(#66259239-6d31-4a51-98e7-589a0a3f808b);
      }

      .\38 fc0196a-9abf-4062-9a9f-7fdaa3797a68 {
        fill: url(#ba77b331-946d-4356-b6f7-b75b6093c598);
      }

      .\39 3d7ed24-8cc3-4a50-b2fd-7a22dde6bc91 {
        fill: url(#ad6ea345-ff4e-44ad-b94b-186dd4e7400b);
      }

      .c0f9286a-3d39-4cda-bf6b-7074e2d61f78 {
        fill: url(#25f3c944-3c71-4821-9f37-58f8ba9baa3a);
      }

      .\33 725b708-0aec-4185-b971-963c90ebc82e {
        fill: url(#1e680a90-fe43-401d-b2ba-ca1f45c3410e);
      }

      .\30 85686bd-2b8b-406d-8cd2-cecc067a6b43 {
        fill: #40c1d1;
      }

      .\32 3d70af2-d075-4db4-b133-81670962f655 {
        fill: #7972af;
      }

      .f4c55907-ce63-4b02-b851-1f0620c614d3 {
        fill: #58595b;
      }
    </style>
    <clipPath id="182f136b-0ec5-47f5-9bff-baa6bfc67162">
      <polygon class="521325de-9aa2-442b-97e9-32ec04fdf2f4" points="445.425 23.31 425.531 28.678 405.674 23.176 425.531 17.03 445.425 23.31"/>
    </clipPath>
    <radialGradient id="e3b2acdd-56c0-4474-ad9e-21c4227197e2" cx="149.759" cy="1573.891" r="0.979" gradientTransform="matrix(-9.554, -97.268, -95.972, 9.683, 152929.467, -571.31)" gradientUnits="userSpaceOnUse">
      <stop offset="0" stop-color="#0e0f1a"/>
      <stop offset="0.008" stop-color="#0e0f1a"/>
      <stop offset="0.508" stop-color="#409fd0"/>
      <stop offset="0.678" stop-color="#3bb3d0"/>
      <stop offset="1" stop-color="#41c1d1"/>
    </radialGradient>
    <clipPath id="c6f0dce2-72a9-4946-85c0-b67a17b18760">
      <polygon class="521325de-9aa2-442b-97e9-32ec04fdf2f4" points="55.135 11.372 37.512 16.796 21.575 11.553 37.535 5.115 55.135 11.372"/>
    </clipPath>
    <radialGradient id="406b163f-4b82-4719-8555-3e8b9cfad227" cx="149.075" cy="1573.542" r="0.979" gradientTransform="matrix(-11.307, -113.446, -111.934, 11.459, 177884.344, -1016.27)" xlink:href="#e3b2acdd-56c0-4474-ad9e-21c4227197e2"/>
    <clipPath id="83f292fd-6160-4a1d-a7a8-8b0005b3f523">
      <path class="521325de-9aa2-442b-97e9-32ec04fdf2f4" d="M53.943,90.121a21.917,21.917,0,0,1,21.968-22c11.247,0,21.173,10.194,21.173,21.594,0,12.339-9.13,22.667-21.439,22.667-12.173,0-21.7-10.059-21.7-22.264M37.535,20.875V129.82l19.613-8.439a29.759,29.759,0,0,0,21.145,8.439,34.787,34.787,0,0,0,26.467-12.473,41.583,41.583,0,0,0,9.925-26.824A41.068,41.068,0,0,0,104.759,63.3c-6.618-7.51-16.938-12.606-27-12.606-8.47,0-17.071,3.486-22.628,10.058V15.471Z"/>
    </clipPath>
    <radialGradient id="8dfc4161-cbd9-4464-961c-9f8a4c0f3959" cx="147.458" cy="1575.559" r="0.979" gradientTransform="matrix(54.853, -100.184, -98.849, -55.593, 147639.915, 102444.087)" xlink:href="#e3b2acdd-56c0-4474-ad9e-21c4227197e2"/>
    <clipPath id="b60266a7-fe59-4824-a348-2b692817be64">
      <path class="521325de-9aa2-442b-97e9-32ec04fdf2f4" d="M530.786,73.625a19.493,19.493,0,0,0,7.145,15.558c4.5,3.753,7.808,4.693,13.234,6.437,4.63,1.61,12.439,3.487,12.439,9.657,0,4.695-3.969,7.108-8.206,7.108-4.583,0-7.214-1.153-8.48-5.081l-17.189,5.3c3.463,10.791,12.86,17.218,25.009,17.218a29.611,29.611,0,0,0,19.054-7.777A24.279,24.279,0,0,0,581.2,104.2c0-14.887-11.115-18.911-22.893-22.531-3.572-1.073-10.056-2.28-9.925-7.243-.131-4.024,3.044-6.3,6.882-6.3,3.308,0,6.22,1.879,6.749,5.366h17.2c0-12.742-11.51-22.8-23.686-22.8-12.968,0-24.745,9.12-24.745,22.934"/>
    </clipPath>
    <radialGradient id="63ed4135-5225-4c4f-86cf-957d7ab5e64a" cx="141.874" cy="1578.02" r="0.979" gradientTransform="matrix(72.943, 0, 0, -73.929, -9848.643, 116781.467)" xlink:href="#e3b2acdd-56c0-4474-ad9e-21c4227197e2"/>
    <clipPath id="05c164df-bf65-4a4b-ab21-6fb6dff2eeef">
      <path class="521325de-9aa2-442b-97e9-32ec04fdf2f4" d="M204.51,50.739v44.4c0,9.523.4,17.3,7.014,24.41a30.169,30.169,0,0,0,23.158,10.326c8.073,0,14.953-3.084,18.658-10.326h.265v1.837l16.144-4.866V50.983l-17.6,6.357v32.3c0,10.595-1.853,22.8-15.218,22.8a13.714,13.714,0,0,1-12.571-7.647c-2.118-4.292-2.25-10.595-2.25-15.154v-38.9Z"/>
    </clipPath>
    <radialGradient id="4c1e8b4a-5cd9-4530-98ef-963760a81756" cx="147.461" cy="1575.568" r="0.979" gradientTransform="matrix(54.862, -100.201, -98.866, -55.603, 147703.728, 102501.834)" xlink:href="#e3b2acdd-56c0-4474-ad9e-21c4227197e2"/>
    <clipPath id="d437c373-fb74-471f-a1a6-d4d4ab24eea4">
      <path class="521325de-9aa2-442b-97e9-32ec04fdf2f4" d="M291.693,60.391h-.265V57.329L275.15,51.376v65.217l17.6,4.8V94.189c0-5.9-.264-13.949,2.911-19.046,2.382-4.024,7.544-6.572,12.308-6.572a14.077,14.077,0,0,1,11.645,6.17c3.044,4.962,3.044,12.34,3.044,18.106v36.875h17.6V89.36c0-9.522-.133-18.777-5.822-26.824a14.32,14.32,0,0,0-1.853-2.145,29.105,29.105,0,0,0-20.908-9.254c-7.675,0-15.615,3.084-19.981,9.254"/>
    </clipPath>
    <radialGradient id="1e431525-52f2-4c4e-8a5d-01aa6d53de53" cx="138.877" cy="1583.992" r="0.979" gradientTransform="matrix(36.563, 0, 0, -37.057, -4770.079, 58788.245)" xlink:href="#e3b2acdd-56c0-4474-ad9e-21c4227197e2"/>
    <clipPath id="de081059-d5a2-4be5-8b02-a488ad523fe5">
      <polygon class="521325de-9aa2-442b-97e9-32ec04fdf2f4" points="428.29 32.891 428.29 167.246 445.889 157.138 445.889 27.261 428.29 32.891"/>
    </clipPath>
    <radialGradient id="e6c698a0-f54b-4a3f-accb-799461b4c2c2" cx="139.283" cy="1582.68" r="1.242" gradientTransform="matrix(39.644, 0, 0, -40.179, -5084.596, 63687.753)" xlink:href="#e3b2acdd-56c0-4474-ad9e-21c4227197e2"/>
    <clipPath id="bff27e2d-6262-4504-87d9-2c240477f9b6">
      <path class="521325de-9aa2-442b-97e9-32ec04fdf2f4" d="M451.346,90.793a38.833,38.833,0,0,0,38.641,39.026A39.512,39.512,0,0,0,521.8,112.774a29.568,29.568,0,0,0,3.386-6.827H505.736c-3.441,3.89-9.793,6.438-16.411,6.438a20.079,20.079,0,0,1-18.217-11.418l-.038.026c-2.948-5.246-2.273-12.732-1.606-16.731a16.971,16.971,0,0,1,2.79-7.007,22.34,22.34,0,0,1,17.866-9.13A20.678,20.678,0,0,1,510.1,82.342H476.864c-1.4,2.32-2.973,10.285.1,15.826h49.942a60.85,60.85,0,0,0,.926-8.448c0-20.789-16.672-39.029-37.58-39.029-21.968,0-38.907,18.105-38.907,40.1"/>
    </clipPath>
    <radialGradient id="b17399ca-6bb4-4330-a476-56524a799231" cx="139.229" cy="1583.109" r="0.979" gradientTransform="matrix(39.47, 0, 0, -40.003, -5005.806, 63419.489)" xlink:href="#e3b2acdd-56c0-4474-ad9e-21c4227197e2"/>
    <clipPath id="795ad4ca-0f44-43e6-bbc1-1e0b42d02645">
      <path class="521325de-9aa2-442b-97e9-32ec04fdf2f4" d="M528.609,105.953c.529,15.291,11.258,23.867,26.212,23.867a29.606,29.606,0,0,0,18.761-7.511c-5.1-3.381-9.941-7.144-15.148-10.341a10.426,10.426,0,0,1-2.953.418c-5.16,0-7.948-1.737-8.876-6.432Z"/>
    </clipPath>
    <radialGradient id="5d37a26d-86eb-4644-9f3e-2c82d2b1c2e2" cx="147.863" cy="1577.632" r="0.979" gradientTransform="matrix(46.468, -62.861, -62.023, -47.095, 90933.795, 83722.288)" xlink:href="#e3b2acdd-56c0-4474-ad9e-21c4227197e2"/>
    <clipPath id="96d56b2b-56b4-4a20-9700-3b4f6a0a5986">
      <path class="521325de-9aa2-442b-97e9-32ec04fdf2f4" d="M363.262,89.748c0-11.4,9.924-21.595,21.172-21.595a21.916,21.916,0,0,1,21.967,22c0,12.205-9.527,22.264-21.7,22.264-12.309,0-21.438-10.328-21.438-22.666M405.21,60.778c-5.556-6.572-14.158-10.059-22.627-10.059-10.059,0-20.379,5.1-27,12.607a41.071,41.071,0,0,0-9.924,27.226,41.586,41.586,0,0,0,9.924,26.825,34.79,34.79,0,0,0,26.466,12.473c9.529,0,19.189-4.292,24.349-12.473h.267v12.183l16.143,6.8V31.97l-17.6-4.743Z"/>
    </clipPath>
    <radialGradient id="6919ff6b-2d19-450b-80d4-dafa20a03392" cx="140.286" cy="1581.162" r="0.979" gradientTransform="matrix(47.835, 0, 0, -48.481, -6326.328, 76738.064)" xlink:href="#e3b2acdd-56c0-4474-ad9e-21c4227197e2"/>
    <clipPath id="fc32fe41-ee89-4d68-bdce-839407604e65">
      <path class="521325de-9aa2-442b-97e9-32ec04fdf2f4" d="M545.466,72.606c-2.741,3.2-3.007,8.278-1.278,12.04,1.706,3.713,5.154,6.2,8.622,8.069,1.9,1.028,3.886,1.856,5.86,2.728a9.394,9.394,0,0,1,4.529,3.523,7.858,7.858,0,0,1,.283,7.687c-.7,3.789-4.281,5.733-8.081,5.733-3.4,0-6.326-1.2-7.927-3.67,1.165,2.075,3.4,3.408,5.2,4.531,6.206,3.893,14.407,1.354,19.609-3.121a18.975,18.975,0,0,0,7-15.22c-3.681-7.577-12.138-10.518-20.97-13.233-3.572-1.073-10.056-2.28-9.925-7.243a5.648,5.648,0,0,1,2.036-4.727,8.4,8.4,0,0,0-4.956,2.9"/>
    </clipPath>
    <radialGradient id="83c9d384-e17e-4d2c-bc69-dd58e5d160b4" cx="148.623" cy="1574.049" r="0.979" gradientTransform="matrix(120.859, 0, 0.104, -119.252, -17621.709, 187845.762)" xlink:href="#e3b2acdd-56c0-4474-ad9e-21c4227197e2"/>
    <clipPath id="eefd0aee-6874-4afb-bebe-6bc789e20936">
      <path class="521325de-9aa2-442b-97e9-32ec04fdf2f4" d="M588.779,73.625a19.493,19.493,0,0,0,7.145,15.558c4.5,3.753,7.809,4.693,13.235,6.437,4.629,1.61,12.438,3.487,12.438,9.657,0,4.695-3.97,7.108-8.206,7.108-4.582,0-7.213-1.153-8.48-5.081l-17.189,5.3c3.463,10.791,12.86,17.218,25.008,17.218a29.614,29.614,0,0,0,19.055-7.777A24.279,24.279,0,0,0,639.2,104.2c0-14.887-11.115-18.911-22.893-22.531-3.573-1.073-10.057-2.28-9.924-7.243-.133-4.024,3.043-6.3,6.879-6.3,3.31,0,6.221,1.879,6.751,5.366h17.2c0-12.742-11.511-22.8-23.686-22.8-12.97,0-24.746,9.12-24.746,22.934"/>
    </clipPath>
    <radialGradient id="94a559da-302b-46d8-9e40-f1ee1e816c80" cx="141.857" cy="1578.02" r="0.979" gradientTransform="matrix(72.943, 0, 0, -73.929, -9789.409, 116781.467)" xlink:href="#e3b2acdd-56c0-4474-ad9e-21c4227197e2"/>
    <clipPath id="06393646-043a-4a41-b812-758ef26c108a">
      <path class="521325de-9aa2-442b-97e9-32ec04fdf2f4" d="M586.6,105.953c.53,15.291,11.259,23.867,26.212,23.867a29.608,29.608,0,0,0,18.762-7.511c-5.1-3.381-9.943-7.144-15.149-10.341a10.419,10.419,0,0,1-2.952.418c-5.161,0-7.949-1.737-8.875-6.432Z"/>
    </clipPath>
    <radialGradient id="2d2bb4d5-ac5e-44ea-bd76-9d8b1ac7efd8" cx="147.853" cy="1577.645" r="0.979" gradientTransform="matrix(46.468, -62.861, -62.023, -47.095, 90993.028, 83722.288)" xlink:href="#e3b2acdd-56c0-4474-ad9e-21c4227197e2"/>
    <clipPath id="66b4afc4-9a6f-49a4-9360-48bc2aa0b716">
      <path class="521325de-9aa2-442b-97e9-32ec04fdf2f4" d="M603.458,72.606c-2.74,3.2-3.006,8.278-1.278,12.04,1.7,3.713,5.153,6.2,8.622,8.069,1.9,1.028,3.886,1.856,5.86,2.728a9.387,9.387,0,0,1,4.528,3.523,7.855,7.855,0,0,1,.283,7.687c-.7,3.789-4.282,5.733-8.081,5.733-3.4,0-6.327-1.2-7.927-3.67,1.165,2.075,3.4,3.408,5.2,4.531,6.206,3.893,14.407,1.354,19.609-3.121a18.984,18.984,0,0,0,7-15.22c-3.68-7.577-12.139-10.518-20.97-13.233-3.573-1.073-10.057-2.28-9.924-7.243a5.649,5.649,0,0,1,2.034-4.727,8.4,8.4,0,0,0-4.955,2.9"/>
    </clipPath>
    <radialGradient id="c0e41837-c2dd-4101-a8cc-32a2b59bdeb6" cx="148.622" cy="1574.06" r="0.979" gradientTransform="matrix(120.859, 0, 0.104, -119.252, -17563.684, 187847.002)" xlink:href="#e3b2acdd-56c0-4474-ad9e-21c4227197e2"/>
    <clipPath id="e030edbe-1bbe-4c6c-80ea-8efd2c92c116">
      <path class="521325de-9aa2-442b-97e9-32ec04fdf2f4" d="M204.51,50.739v44.4c0,9.523.4,17.3,7.014,24.41a30.169,30.169,0,0,0,23.158,10.326q1.027,0,2.026-.069a26.114,26.114,0,0,0,5.531-4.736,36.577,36.577,0,0,0,9.817-26.847c-.046-.725-.116-1.444-.2-2.161-.9,8.557-4.221,16.379-14.92,16.379a13.714,13.714,0,0,1-12.571-7.647c-2.118-4.292-2.25-10.595-2.25-15.154v-38.9Z"/>
    </clipPath>
    <radialGradient id="498c2c5f-7fb5-4e42-bc2d-049d24c23f64" cx="150.631" cy="1576.326" r="0.979" gradientTransform="matrix(12.749, -69.154, -68.233, -12.922, 105921.272, 30920.246)" xlink:href="#e3b2acdd-56c0-4474-ad9e-21c4227197e2"/>
    <radialGradient id="6c35e14d-b98e-49ec-b424-23ade07276d9" cx="148.49" cy="1573.383" r="0.979" gradientTransform="matrix(-12.172, -132.797, -131.028, 12.336, 208263.146, 495.217)" xlink:href="#e3b2acdd-56c0-4474-ad9e-21c4227197e2"/>
    <clipPath id="cee13be9-7418-4c29-be17-aeca689ac223">
      <polygon class="521325de-9aa2-442b-97e9-32ec04fdf2f4" points="428.29 31.97 428.29 167.246 445.889 159.983 445.889 27.261 428.29 31.97"/>
    </clipPath>
    <radialGradient id="e8494cb3-d112-4f44-a4e7-70fcb5286b8a" cx="146.758" cy="1578.393" r="1.211" gradientTransform="matrix(46.868, -63.403, -62.558, -47.501, 91771.21, 84438.328)" xlink:href="#e3b2acdd-56c0-4474-ad9e-21c4227197e2"/>
    <clipPath id="c3bed4f1-c72f-4343-a783-843e24eb5e63">
      <path class="521325de-9aa2-442b-97e9-32ec04fdf2f4" d="M137.67,90.323v-.136c0-13.21,9.81-22.881,21.9-22.881s21.769,9.67,21.769,22.881-9.676,22.881-21.769,22.881-21.9-9.669-21.9-22.745m-17.6-.272v.136c0,19.34,13.842,39.633,39.509,39.633s39.507-20.293,39.507-39.633c0-19.2-13.842-39.5-39.507-39.5s-39.509,20.293-39.509,39.36"/>
    </clipPath>
    <radialGradient id="394bc49c-f337-4ff5-aa72-55cbaf21480e" cx="150.375" cy="1574.588" r="0.979" gradientTransform="matrix(0, -83.638, -82.524, 0.036, 130103.969, 12683.827)" xlink:href="#e3b2acdd-56c0-4474-ad9e-21c4227197e2"/>
    <clipPath id="588e3366-d1fa-4772-a3ae-e135b71bd39a">
      <path class="521325de-9aa2-442b-97e9-32ec04fdf2f4" d="M451.346,90.793a38.833,38.833,0,0,0,38.641,39.026A39.512,39.512,0,0,0,521.8,112.774a29.568,29.568,0,0,0,3.386-6.827H505.736c-3.441,3.89-9.793,6.438-16.411,6.438a20.079,20.079,0,0,1-18.217-11.418l-.038.026c-2.948-5.246-2.273-12.732-1.606-16.731a16.971,16.971,0,0,1,2.79-7.007,22.34,22.34,0,0,1,17.866-9.13A20.678,20.678,0,0,1,510.1,82.342H476.166c-1.4,2.32-2.971,10.285.1,15.826h50.639a60.85,60.85,0,0,0,.926-8.448c0-20.789-16.672-39.029-37.58-39.029-21.968,0-38.907,18.105-38.907,40.1"/>
    </clipPath>
    <radialGradient id="f0a08daf-8e57-4f22-a1c1-b062f92f0d24" cx="135.918" cy="1571.328" r="0.979" gradientTransform="matrix(21.363, 50.52, 49.847, -21.652, -80750.873, 27240.793)" xlink:href="#e3b2acdd-56c0-4474-ad9e-21c4227197e2"/>
    <clipPath id="d2847c5b-e8f0-4caa-928f-2ebaca48a6bc">
      <path class="521325de-9aa2-442b-97e9-32ec04fdf2f4" d="M363.262,89.748c0-11.4,9.924-21.595,21.172-21.595a21.916,21.916,0,0,1,21.967,22c0,12.205-9.527,22.264-21.7,22.264-12.309,0-21.438-10.328-21.438-22.666M405.21,60.778c-5.556-6.572-14.158-10.059-22.627-10.059-10.059,0-20.379,5.1-27,12.607a41.071,41.071,0,0,0-9.924,27.226,41.586,41.586,0,0,0,9.924,26.825,34.79,34.79,0,0,0,26.466,12.473c9.529,0,19.189-4.292,24.349-12.473h.267V129.82l16.143,7.165V31.97l-17.6-4.743Z"/>
    </clipPath>
    <radialGradient id="c727eb9f-668f-4ceb-bd04-2d2979de94f5" cx="147.829" cy="1577.596" r="0.979" gradientTransform="matrix(46.868, -63.403, -62.558, -47.501, 91771.908, 84438.329)" xlink:href="#e3b2acdd-56c0-4474-ad9e-21c4227197e2"/>
    <clipPath id="0c6804d6-3f23-468f-883b-428bd7b307e8">
      <path class="521325de-9aa2-442b-97e9-32ec04fdf2f4" d="M55.135,60.749v-.718c-.176.3-.357.6-.527.9a38.9,38.9,0,0,0-4.389,12.5c-.879,4.869-1.15,10.041.184,14.852a32.836,32.836,0,0,0,2.811,6.6,22.579,22.579,0,0,0,2.347,3.7,22.831,22.831,0,0,1-1.617-8.465,21.917,21.917,0,0,1,21.968-22c11.247,0,21.173,10.194,21.173,21.594a24.9,24.9,0,0,1-.148,2.651,28.217,28.217,0,0,1-2.605,11.349,34.434,34.434,0,0,1-20.242,19.02,39.022,39.022,0,0,1-7.047,1.761,11.982,11.982,0,0,1-7.095-.652,30.528,30.528,0,0,0,18.346,5.972,34.787,34.787,0,0,0,26.467-12.473,41.583,41.583,0,0,0,9.925-26.824A41.068,41.068,0,0,0,104.759,63.3c-6.618-7.51-16.938-12.606-27-12.606-8.47,0-17.071,3.486-22.628,10.058"/>
    </clipPath>
    <radialGradient id="b8e9485a-a1ff-414b-902d-bbe350bc5803" cx="147.442" cy="1573.169" r="0.979" gradientTransform="matrix(0, -183.983, -181.532, 0.059, 285595.293, 27232.555)" xlink:href="#e3b2acdd-56c0-4474-ad9e-21c4227197e2"/>
    <clipPath id="22168894-2400-4b6a-a115-734ec7677abe">
      <path class="521325de-9aa2-442b-97e9-32ec04fdf2f4" d="M355.586,63.218a41.069,41.069,0,0,0-9.924,27.226,41.586,41.586,0,0,0,9.924,26.825,34.786,34.786,0,0,0,26.466,12.472,30.526,30.526,0,0,0,18.347-5.972,11.984,11.984,0,0,1-7.1.653,39.177,39.177,0,0,1-7.046-1.762,34.436,34.436,0,0,1-20.242-19.019,28.222,28.222,0,0,1-2.605-11.35,24.892,24.892,0,0,1-.147-2.65c0-11.4,9.924-21.6,21.172-21.6a21.917,21.917,0,0,1,21.967,22,25.806,25.806,0,0,1-1.616,9.014,30.49,30.49,0,0,0,2.812-4.249,31.43,31.43,0,0,0,2.346-6.6,32.583,32.583,0,0,0,.494-15.245c-1.807-8.075-5.226-12.289-5.226-12.289-5.556-6.572-14.158-10.058-22.627-10.058-10.059,0-20.379,5.1-27,12.606"/>
    </clipPath>
    <radialGradient id="aebb9c5d-34ff-4279-a093-34bc17580424" cx="150.449" cy="1573.429" r="0.979" gradientTransform="matrix(-19.034, -86.808, -85.652, 19.291, 138040.711, -17151.712)" xlink:href="#e3b2acdd-56c0-4474-ad9e-21c4227197e2"/>
    <clipPath id="54d6735f-2c00-467e-9433-37c3e4faf4fb">
      <polygon class="521325de-9aa2-442b-97e9-32ec04fdf2f4" points="406.668 129.82 422.81 137.063 422.81 32.363 406.668 129.82"/>
    </clipPath>
    <radialGradient id="9a3a91e7-56fe-484e-8026-0625cf1d9535" cx="148.177" cy="1573.594" r="0.979" gradientTransform="matrix(0, -141.417, -139.534, 0.045, 220058.698, 21074.545)" xlink:href="#e3b2acdd-56c0-4474-ad9e-21c4227197e2"/>
    <clipPath id="d979d239-babf-4d51-80eb-dd6a98daa7f2">
      <polygon class="521325de-9aa2-442b-97e9-32ec04fdf2f4" points="428.29 32.891 428.29 167.246 445.889 159.983 428.29 31.97 428.29 32.891"/>
    </clipPath>
    <radialGradient id="dbd7cb67-df89-4d90-9cce-b1aee50448b7" cx="147.658" cy="1570.432" r="1.199" gradientTransform="matrix(1.796, -149.694, 147.699, 1.82, -231864.629, 19481.775)" xlink:href="#e3b2acdd-56c0-4474-ad9e-21c4227197e2"/>
    <clipPath id="33028383-6542-4d62-bf52-838dacc010a3">
      <path class="521325de-9aa2-442b-97e9-32ec04fdf2f4" d="M157.483,50.739q-1.777,1-3.476,2.138C145.324,58.729,138.084,68.013,138.043,79a27.213,27.213,0,0,0,.431,4.845,21.686,21.686,0,0,1,21.1-16.541c12.094,0,21.769,9.67,21.769,22.881a25.039,25.039,0,0,1-1.19,7.706,42.889,42.889,0,0,1-17.236,25.285,45.266,45.266,0,0,1-11.763,5.858,44.452,44.452,0,0,0,8.42.784c25.666,0,39.507-20.293,39.507-39.633,0-19.2-13.842-39.5-39.507-39.5-.707,0-1.4.018-2.092.048"/>
    </clipPath>
    <radialGradient id="ec26e2f5-8e43-4be3-8382-764d8d187716" cx="149.169" cy="1574.525" r="0.979" gradientTransform="matrix(7.891, -101.449, -100.097, -7.997, 156549.721, 27754.968)" xlink:href="#e3b2acdd-56c0-4474-ad9e-21c4227197e2"/>
    <clipPath id="c387fbcb-c42a-4557-b96b-1b8d343f2401">
      <path class="521325de-9aa2-442b-97e9-32ec04fdf2f4" d="M292.982,58.773a39.117,39.117,0,0,0-2.441,20.268,53.2,53.2,0,0,0,2.256,8.844c.151-4.548.73-9.312,2.865-12.741,2.382-4.024,7.544-6.572,12.308-6.572a14.077,14.077,0,0,1,11.645,6.17c3.044,4.962,3.044,12.34,3.044,18.106v36.875h17.6V89.36c0-9.522-.133-18.777-5.822-26.824a14.32,14.32,0,0,0-1.853-2.145,29.1,29.1,0,0,0-20.908-9.254c-6.972,0-14.161,2.545-18.693,7.636"/>
    </clipPath>
    <radialGradient id="8e5c5cfc-8279-4e20-863f-224576b4fe62" cx="146.617" cy="1577.322" r="0.979" gradientTransform="matrix(63.866, -62.154, -61.325, -64.728, 87640, 111327.839)" xlink:href="#e3b2acdd-56c0-4474-ad9e-21c4227197e2"/>
    <clipPath id="66259239-6d31-4a51-98e7-589a0a3f808b">
      <path class="521325de-9aa2-442b-97e9-32ec04fdf2f4" d="M454.277,75.4a33.526,33.526,0,0,0-.062,3.39,35.6,35.6,0,0,0,4.37,15.253,31.969,31.969,0,0,0,10.275,11.668,32.374,32.374,0,0,0,10.495,5.021,17.726,17.726,0,0,0,3.3.542,20,20,0,0,1-11.543-10.3l-.04.026c-2.946-5.246-2.27-12.732-1.6-16.731a16.971,16.971,0,0,1,2.79-7.007,22.34,22.34,0,0,1,17.866-9.13A20.678,20.678,0,0,1,510.1,82.342H476.166c-1.4,2.32-2.971,10.285.1,15.826h50.639a60.714,60.714,0,0,0,.926-8.448c0-20.789-16.672-39.029-37.58-39.029a38.623,38.623,0,0,0-35.975,24.7"/>
    </clipPath>
    <radialGradient id="ba77b331-946d-4356-b6f7-b75b6093c598" cx="149.846" cy="1576.7" r="0.979" gradientTransform="matrix(21.039, -71.188, -70.239, -21.324, 108100.609, 44416.099)" xlink:href="#e3b2acdd-56c0-4474-ad9e-21c4227197e2"/>
    <radialGradient id="ad6ea345-ff4e-44ad-b94b-186dd4e7400b" cx="233.785" cy="86.633" r="15.626" gradientTransform="matrix(0.917, 0, 0, 0.946, 57.972, 43.25)" gradientUnits="userSpaceOnUse">
      <stop offset="0.167" stop-color="#409fd0"/>
      <stop offset="0.678" stop-color="#3bb3d0"/>
      <stop offset="1" stop-color="#41c1d1"/>
    </radialGradient>
    <linearGradient id="25f3c944-3c71-4821-9f37-58f8ba9baa3a" x1="7.072" y1="197.87" x2="420.102" y2="197.87" gradientUnits="userSpaceOnUse">
      <stop offset="0.717" stop-color="#90cfb9"/>
      <stop offset="1" stop-color="#48b882"/>
    </linearGradient>
    <linearGradient id="1e680a90-fe43-401d-b2ba-ca1f45c3410e" x1="375.583" y1="162.741" x2="341.871" y2="235.785" gradientTransform="translate(57.446 -36.123) rotate(3.348)" gradientUnits="userSpaceOnUse">
      <stop offset="0.592" stop-color="#90cfb9"/>
      <stop offset="1" stop-color="#48b882"/>
    </linearGradient>
  </defs>
  <title>boundless-splash</title>
  <g>
    <g>
      <path class="f8b0c241-ba9d-4c28-b60e-8848ef38a710" d="M453.551,157.969V135.617a.547.547,0,0,1,.615-.624h8.909a5.188,5.188,0,0,1,5.65,5.688V152.9a5.669,5.669,0,0,1-1.5,4.185,5.6,5.6,0,0,1-4.147,1.5h-8.909A.547.547,0,0,1,453.551,157.969Zm3.91-2.5h5.107q2.607,0,2.606-2.716V140.829q0-2.716-2.606-2.716h-5.107c-.266,0-.4.123-.4.367v16.59A.354.354,0,0,0,457.461,155.473Z"/>
      <path class="f8b0c241-ba9d-4c28-b60e-8848ef38a710" d="M486.36,158.593h-7.822a5.524,5.524,0,0,1-4.147-1.5,5.748,5.748,0,0,1-1.467-4.185v-7.339a5.735,5.735,0,0,1,1.467-4.2,5.565,5.565,0,0,1,4.147-1.487h2.97a5.629,5.629,0,0,1,4.165,1.487,5.692,5.692,0,0,1,1.485,4.2v4.661a.581.581,0,0,1-.653.66h-9.7c-.266,0-.4.123-.4.367v1.579a2.351,2.351,0,0,0,2.642,2.678h7.316a.58.58,0,0,1,.651.662v1.834Q487.011,158.594,486.36,158.593Zm-9.56-10.2h6.482a.322.322,0,0,0,.362-.367v-2.349a2.863,2.863,0,0,0-.615-2.036,2.665,2.665,0,0,0-1.991-.642h-1.993a2.665,2.665,0,0,0-1.991.642,2.863,2.863,0,0,0-.615,2.036v2.349A.321.321,0,0,0,476.8,148.389Z"/>
      <path class="f8b0c241-ba9d-4c28-b60e-8848ef38a710" d="M497.732,158.593h-6.664a.547.547,0,0,1-.615-.624v-1.8q0-.589.615-.588h6.084q2.355,0,2.355-1.651v-.441a2.436,2.436,0,0,0-1.7-2.239l-3.948-1.908a7.345,7.345,0,0,1-2.678-1.946,4.384,4.384,0,0,1-.834-2.789q0-4.734,5.178-4.735h6.012q.581,0,.581.624v1.8c0,.418-.194.624-.581.624h-5.286a2.985,2.985,0,0,0-1.666.387,1.166,1.166,0,0,0-.581,1.009v.4q0,1.175,1.848,2.054l3.982,2.056a5.592,5.592,0,0,1,2.59,2,5.673,5.673,0,0,1,.705,2.991Q503.127,158.594,497.732,158.593Z"/>
      <path class="f8b0c241-ba9d-4c28-b60e-8848ef38a710" d="M507.075,136.755v-3.34a.514.514,0,0,1,.579-.586h2.355a.515.515,0,0,1,.579.586v3.34q0,.624-.579.624h-2.355C507.267,137.379,507.075,137.171,507.075,136.755Zm0,21.214V140.5c0-.416.192-.624.579-.624h2.317a.549.549,0,0,1,.617.624v17.47a.723.723,0,0,1-.127.5.623.623,0,0,1-.452.128H507.69A.547.547,0,0,1,507.075,157.969Z"/>
      <path class="f8b0c241-ba9d-4c28-b60e-8848ef38a710" d="M522.066,157.676h-1.629a5.222,5.222,0,0,1-4-1.487,5.91,5.91,0,0,1-1.394-4.2v-6.422a5.692,5.692,0,0,1,1.485-4.2,5.575,5.575,0,0,1,4.129-1.487h8.111q.654,0,.653.624v18.169a5.183,5.183,0,0,1-5.65,5.652H516.96c-.412,0-.617-.2-.617-.588v-1.908a.548.548,0,0,1,.617-.624h6.265q2.642,0,2.642-2.716v-2.789h-.145Q524.817,157.674,522.066,157.676Zm3.8-6.239v-8.075c0-.244-.132-.367-.4-.367h-4.31q-2.572,0-2.57,2.716V151.8q0,2.716,2.57,2.715H522.9Q525.868,154.518,525.867,151.436Z"/>
      <path class="f8b0c241-ba9d-4c28-b60e-8848ef38a710" d="M536.84,158.593h-2.281a.549.549,0,0,1-.617-.624V140.5a.549.549,0,0,1,.617-.624h2.281a.549.549,0,0,1,.617.624v1.322h.145q.868-1.945,3.657-1.946h1.593a5.37,5.37,0,0,1,4.057,1.469,5.845,5.845,0,0,1,1.412,4.221v12.4q0,.624-.653.624h-2.281a.547.547,0,0,1-.615-.624V145.711q0-2.716-2.644-2.716h-1.7q-2.971,0-2.97,3.12v11.855A.549.549,0,0,1,536.84,158.593Z"/>
      <path class="f8b0c241-ba9d-4c28-b60e-8848ef38a710" d="M561.21,152.867v-.955a.549.549,0,0,1,.617-.624h2.317a.549.549,0,0,1,.617.624v.662a3.083,3.083,0,0,0,.669,2.221,3.049,3.049,0,0,0,2.228.678h2.5a3.011,3.011,0,0,0,2.246-.716,3.29,3.29,0,0,0,.687-2.329v-.845a2.207,2.207,0,0,0-.886-1.854,4.734,4.734,0,0,0-2.192-.881q-1.3-.2-2.861-.57a24.983,24.983,0,0,1-2.861-.843,4.5,4.5,0,0,1-2.19-1.8,5.937,5.937,0,0,1-.888-3.377v-1.541a5.725,5.725,0,0,1,1.5-4.2,5.567,5.567,0,0,1,4.147-1.523h3.84a5.612,5.612,0,0,1,4.181,1.523,5.725,5.725,0,0,1,1.5,4.2v.807a.547.547,0,0,1-.615.624H573.45a.547.547,0,0,1-.615-.624v-.477a3.152,3.152,0,0,0-.669-2.257,3.052,3.052,0,0,0-2.228-.678h-2.281a2.945,2.945,0,0,0-2.228.716,3.534,3.534,0,0,0-.669,2.44v1.138q0,1.652,2.353,2.239,1.05.258,2.3.441a19.127,19.127,0,0,1,2.516.55,10.477,10.477,0,0,1,2.319.973,4.455,4.455,0,0,1,1.7,1.836,6.319,6.319,0,0,1,.651,2.991v1.431a5.723,5.723,0,0,1-1.5,4.2,5.562,5.562,0,0,1-4.145,1.523H566.9a5.63,5.63,0,0,1-4.165-1.523A5.688,5.688,0,0,1,561.21,152.867Z"/>
      <path class="f8b0c241-ba9d-4c28-b60e-8848ef38a710" d="M584.024,158.593h-2.281a.549.549,0,0,1-.617-.624V133.414a.549.549,0,0,1,.617-.624h2.281a.549.549,0,0,1,.617.624v8.406h.145q.868-1.945,3.657-1.946h1.593a5.37,5.37,0,0,1,4.057,1.469,5.845,5.845,0,0,1,1.412,4.221v12.4q0,.624-.653.624h-2.281a.547.547,0,0,1-.615-.624V145.711q0-2.716-2.644-2.716h-1.7q-2.971,0-2.97,3.12v11.855A.549.549,0,0,1,584.024,158.593Z"/>
      <path class="f8b0c241-ba9d-4c28-b60e-8848ef38a710" d="M608.288,158.593H605.1a5.524,5.524,0,0,1-4.147-1.5,5.748,5.748,0,0,1-1.467-4.185v-7.339a5.735,5.735,0,0,1,1.467-4.2,5.565,5.565,0,0,1,4.147-1.487h3.187a5.188,5.188,0,0,1,5.65,5.69V152.9a5.669,5.669,0,0,1-1.5,4.185A5.6,5.6,0,0,1,608.288,158.593Zm-2.68-3.12h2.21q2.607,0,2.606-2.678v-7.122q0-2.678-2.606-2.678h-2.21a2.665,2.665,0,0,0-1.991.642,2.863,2.863,0,0,0-.615,2.036v7.122a2.863,2.863,0,0,0,.615,2.036A2.658,2.658,0,0,0,605.607,155.473Z"/>
      <path class="f8b0c241-ba9d-4c28-b60e-8848ef38a710" d="M624.584,158.593H621.47a.731.731,0,0,1-.725-.624L616.58,140.5q-.144-.624.436-.624h2.606a.644.644,0,0,1,.725.624l2.644,13.873h.253l3.187-13.873a.651.651,0,0,1,.687-.624h2.391a.716.716,0,0,1,.76.624l3.114,13.873h.255L636.28,140.5a.67.67,0,0,1,.725-.624h2.606q.616,0,.436.624l-4.165,17.47a.669.669,0,0,1-.723.624h-3.114a.7.7,0,0,1-.725-.624l-2.9-13.616h-.253l-2.861,13.616A.668.668,0,0,1,624.584,158.593Z"/>
    </g>
    <g>
      <g>
        <g class="7fab0a00-7b03-49f2-bd3a-63e7d4350b21">
          <polygon class="33b1e91a-67ad-4d48-beb7-3005b6df774b" points="406.064 32.649 404.541 17.144 445.034 13.059 446.557 28.564 406.064 32.649"/>
        </g>
        <g class="e65e2e07-7631-4c51-ae12-8516f3e81050">
          <polygon class="76c1bdf8-ffa8-4916-934a-2f786c2c651a" points="21.914 20.197 20.422 5.233 54.796 1.714 56.288 16.678 21.914 20.197"/>
        </g>
        <g class="720cc65a-0da2-47bd-94ef-08cbc0bf97ee">
          <polygon class="9d8e238d-e50d-403c-a323-3915b1785599" points="-10.333 102.899 55.698 -17.703 162.553 42.393 96.521 162.994 -10.333 102.899"/>
        </g>
        <g class="f41e2b2f-4a35-4faa-a628-c9c32e925f1e">
          <rect class="852c22de-8fb4-4d5e-ae38-722bca7efafd" x="529.73" y="50.691" width="51.474" height="79.129"/>
        </g>
        <g class="207659da-9d27-44b7-af7e-f4209e3ed109">
          <polygon class="7d1dab56-9368-42ed-931f-dbdbb7812bd4" points="171.382 111.243 219.869 22.686 302.876 69.37 254.39 157.927 171.382 111.243"/>
        </g>
        <g class="4cc9c2bc-df59-4763-9856-fbdc5ab95eec">
          <rect class="677650f6-92e0-4c3a-aa94-3249337077a2" x="275.15" y="51.137" width="65.108" height="78.586"/>
        </g>
        <g class="deec9a56-9ccd-4229-945f-80447166d484">
          <rect class="fc9dba56-3c71-4855-9811-9f6a73ee8c15" x="428.29" y="27.261" width="17.599" height="139.985"/>
        </g>
        <g class="0239998b-ee4f-46dc-84d2-0f5888378267">
          <rect class="b8bd006a-4c85-4760-abe1-f4a679a37659" x="451.346" y="50.691" width="76.487" height="79.129"/>
        </g>
        <g class="f7c760a8-419f-4f5e-8d7d-0296b3d0c355">
          <polygon class="559667f0-166c-4a2a-9c95-b4ec3e1719c1" points="517.309 121.24 544.777 84.081 584.882 114.534 557.414 151.692 517.309 121.24"/>
        </g>
        <g class="57aec99a-272a-4598-bf7c-0fda7a576429">
          <rect class="94036200-091f-43ed-a0f8-d9d0ab5d5bd4" x="345.661" y="27.227" width="77.149" height="109.129"/>
        </g>
        <g class="d3e2c1fe-02a2-406f-bc05-21d021783ccc">
          <rect class="328885a3-77b7-4f32-aee5-a7815e19eb77" x="536.556" y="74.257" width="48.628" height="38.328" transform="translate(449.461 650.996) rotate(-88.157)"/>
        </g>
        <g class="1c2d021e-ed06-4199-b1f6-892c7bc053ba">
          <rect class="3cb0f7f8-820f-4f1c-a588-6003184bd816" x="587.722" y="50.691" width="51.474" height="79.129"/>
        </g>
        <g class="9d0e11f3-a58b-43d0-988c-9ccf08440c71">
          <polygon class="a516dba9-0af8-446d-89c6-0f613376dd16" points="575.3 121.24 602.769 84.081 642.874 114.534 615.406 151.692 575.3 121.24"/>
        </g>
        <g class="29d40cac-5530-4bdd-8c75-1e0ba324ded3">
          <rect class="e2e9d3f5-3d8f-4ea5-b848-ffd3b10a68a7" x="594.548" y="74.257" width="48.628" height="38.327" transform="translate(505.588 708.959) rotate(-88.157)"/>
        </g>
        <g class="904b927c-87b4-4723-90ff-89d01b58b6f7">
          <polygon class="27fdefd4-5299-4086-a4bc-ae0d0b56ef8e" points="190.412 127.204 206.135 41.923 266.786 53.408 251.063 138.69 190.412 127.204"/>
        </g>
        <g class="4cc9c2bc-df59-4763-9856-fbdc5ab95eec">
          <polygon class="6d51abd4-7ea3-417e-98bf-e8d723491ecf" points="275.707 135.8 268.009 51.809 339.701 45.06 347.4 129.05 275.707 135.8"/>
        </g>
        <g class="0297efe5-a783-4bda-bb31-5e80f1e0ef00">
          <polygon class="30c4d2c7-730f-4d8b-b3aa-821b92e0735a" points="376.294 127.765 434.617 18.702 497.885 96.906 439.562 175.805 376.294 127.765"/>
        </g>
        <g class="11b1fd2c-f826-46bb-9def-9508181fa3a7">
          <rect class="7a0f718c-e7cc-4779-a290-d8d2e623fd05" x="119.431" y="50.04" width="80.286" height="80.431" transform="translate(-1.439 2.593) rotate(-0.927)"/>
        </g>
        <g class="4cf47312-a545-4b9a-8ba1-e535a1619198">
          <polygon class="6bbf9ddc-e09b-450e-9931-ee34dafd77a2" points="515.964 22.623 556.101 117.541 463.214 157.887 423.077 62.969 515.964 22.623"/>
        </g>
        <g class="1a42219d-1e7b-4da8-a7d0-65c0196da3b6">
          <polygon class="b713ef39-0a5d-4774-89d1-a32cf3a5047e" points="293.695 97.526 373.397 -10.293 474.776 66.686 395.075 174.505 293.695 97.526"/>
        </g>
        <g class="779ff15a-9eb8-412f-ac4f-5fde4195585b">
          <rect class="4c8e37c0-7f33-4e4a-bdef-c8c59d4c908d" x="48.597" y="50.289" width="66.56" height="79.932" transform="translate(-1.077 0.989) rotate(-0.687)"/>
        </g>
        <g class="9f2f4fb0-96bf-41a7-8c5b-dee922f80c15">
          <polygon class="8a05f678-c0bc-4da2-b483-8392811bd48e" points="348.76 143.875 329.128 54.335 408.417 36.478 428.05 126.017 348.76 143.875"/>
        </g>
        <g class="6a0eeb5e-648a-41c5-abc5-aad8da98f8e8">
          <rect class="1495a2a8-0e39-4751-b0c8-a0df48dbab3a" x="406.04" y="32.267" width="17.397" height="104.892" transform="translate(-0.986 4.981) rotate(-0.687)"/>
        </g>
        <g class="30be8952-fa6a-431f-9ea4-1cff252010fe">
          <polygon class="9d6b0a5d-9408-4acb-bc4a-840d34e10c12" points="445.886 167.463 447.15 31.986 428.292 31.753 427.029 167.231 445.886 167.463"/>
        </g>
        <g class="f01e9c7a-0db6-4987-b65c-078bb82c0f42">
          <polygon class="e481d9e8-1498-4007-9585-43ea5ef7a159" points="131.92 129.331 138.413 45.844 205.199 51.179 198.705 134.667 131.92 129.331"/>
        </g>
        <g class="e5316aa1-69bf-4e33-b123-e22e314d5855">
          <polygon class="400d2330-a5ad-49b6-afc3-a920a2ceaccb" points="250.711 88.836 315.884 25.41 378.996 92.024 313.823 155.45 250.711 88.836"/>
        </g>
        <g class="5e2d4521-3ec1-4fea-87b7-92f1abe90534">
          <polygon class="8fc0196a-9abf-4062-9a9f-7fdaa3797a68" points="437.747 106.282 460.241 30.171 544.263 55.678 521.768 131.789 437.747 106.282"/>
        </g>
      </g>
      <g id="776fab9c-456c-4791-b1fa-bcfd40768b1d" data-name="&lt;Group&gt;">
        <polygon id="ae47848f-423b-46bf-b8e5-1c396c550893" data-name="&lt;Path&gt;" class="93d7ed24-8cc3-4a50-b2fd-7a22dde6bc91" points="291.854 124.988 272.352 131.185 252.992 125.379 272.382 119.268 291.854 124.988"/>
      </g>
    </g>
    <polyline class="c0f9286a-3d39-4cda-bf6b-7074e2d61f78" points="420.102 155.267 7.072 155.267 49.077 240.474 419.816 240.474"/>
    <polygon id="4a51ca61-3f5a-4557-a56c-caeaa71f2c88" data-name="&lt;Path&gt;" class="3725b708-0aec-4185-b971-963c90ebc82e" points="371.982 239.194 371.966 239.184 372.834 182.767 372.882 182.796 421.425 155.334 421.443 155.342 420.568 211.76 420.524 211.732 371.982 239.194"/>
    <polygon id="e9085ba7-cbd3-4a82-8843-be471e453b28" data-name="&lt;Path&gt;" class="085686bd-2b8b-406d-8cd2-cecc067a6b43" points="419.458 265.828 419.88 209.536 468.305 181.616 468.306 181.598 468.459 181.686 468.501 181.66 468.079 238.082 419.649 266 419.654 265.944 419.458 265.828"/>
    <polygon id="9c530ca8-3fd1-4ff6-b278-2cce72630dd9" data-name="&lt;Path&gt;" class="23d70af2-d075-4db4-b133-81670962f655" points="419.88 209.536 419.458 265.828 371.426 238.56 371.38 238.591 372.178 182.297 419.88 209.536 419.88 209.536"/>
    <g>
      <g>
        <path class="f4c55907-ce63-4b02-b851-1f0620c614d3" d="M138.384,165.011l-6.226-.027-.08,17.919-1.29-.007.08-17.919-6.264-.027.005-1.174,13.78.061Z"/>
        <path class="f4c55907-ce63-4b02-b851-1f0620c614d3" d="M147.781,181.99a5.263,5.263,0,0,0,2.288-.47,4.916,4.916,0,0,0,1.716-1.32,6,6,0,0,0,1.081-2,8.159,8.159,0,0,0,.381-2.487l.052-11.806,1.278.005-.052,11.806a9.114,9.114,0,0,1-.477,2.946,7.19,7.19,0,0,1-1.344,2.384,6.2,6.2,0,0,1-2.125,1.588,7.043,7.043,0,0,1-5.6-.025A6.174,6.174,0,0,1,142.868,181a7.188,7.188,0,0,1-1.324-2.395,9.159,9.159,0,0,1-.45-2.952l.052-11.806,1.29.007-.052,11.792a8.074,8.074,0,0,0,.359,2.49,6,6,0,0,0,1.056,2.009,4.93,4.93,0,0,0,1.7,1.344A5.2,5.2,0,0,0,147.781,181.99Z"/>
        <path class="f4c55907-ce63-4b02-b851-1f0620c614d3" d="M170.157,181.93l-.03,1.145-10.624-.047.085-19.093,10.624.047-.005,1.147-9.334-.042-.034,7.717,7.768.036,0,1.121-7.768-.036-.035,7.961Z"/>
      </g>
      <g>
        <path class="f4c55907-ce63-4b02-b851-1f0620c614d3" d="M80.529,230.507l0,.77-7.051-.033,0-.77,3.14.014.052-11.942c0-.237.013-.486.033-.751l-3.027,2.868a.3.3,0,0,1-.271.094.4.4,0,0,1-.212-.127l-.279-.418,3.967-3.738.724,0-.061,14.013Z"/>
        <path class="f4c55907-ce63-4b02-b851-1f0620c614d3" d="M92.633,223.966a12.824,12.824,0,0,1-.4,3.349,7.273,7.273,0,0,1-1.063,2.335,4.343,4.343,0,0,1-1.566,1.371A4.233,4.233,0,0,1,85.791,231a4.377,4.377,0,0,1-1.549-1.385,7.152,7.152,0,0,1-1.037-2.346,14.9,14.9,0,0,1,.029-6.7,7.175,7.175,0,0,1,1.059-2.335,4.328,4.328,0,0,1,1.562-1.371,4.109,4.109,0,0,1,1.9-.445,4.159,4.159,0,0,1,1.906.461,4.357,4.357,0,0,1,1.554,1.385,7.25,7.25,0,0,1,1.042,2.346A12.8,12.8,0,0,1,92.633,223.966Zm-.967,0a12.705,12.705,0,0,0-.3-3.06,6.619,6.619,0,0,0-.846-2.078,3.422,3.422,0,0,0-1.25-1.188,3.23,3.23,0,0,0-1.51-.38,3.18,3.18,0,0,0-1.508.367,3.464,3.464,0,0,0-1.261,1.176,6.6,6.6,0,0,0-.869,2.069,14.877,14.877,0,0,0-.027,6.122,6.6,6.6,0,0,0,.851,2.076,3.413,3.413,0,0,0,1.251,1.181,3.264,3.264,0,0,0,3.018.013,3.367,3.367,0,0,0,1.261-1.168,6.707,6.707,0,0,0,.864-2.067A12.709,12.709,0,0,0,91.666,223.962Z"/>
        <path class="f4c55907-ce63-4b02-b851-1f0620c614d3" d="M105.718,231.392l-.763,0a.311.311,0,0,1-.222-.08.534.534,0,0,1-.135-.2l-1.584-4.284-6.713-.031-1.622,4.27a.451.451,0,0,1-.137.2.337.337,0,0,1-.231.081l-.753,0,5.658-14.7.976.005Zm-3-5.362-2.748-7.451a7.479,7.479,0,0,1-.277-.874c-.04.166-.082.322-.128.472s-.095.286-.147.411L96.6,226Z"/>
        <path class="f4c55907-ce63-4b02-b851-1f0620c614d3" d="M121.556,216.743l-.065,14.721-.859-.005.055-12.546c0-.181.011-.371.032-.571L115.293,228.6a.423.423,0,0,1-.389.269h-.155a.422.422,0,0,1-.384-.273l-5.48-10.334c.018.208.027.405.026.593l-.055,12.546-.869,0,.065-14.721.685,0a.594.594,0,0,1,.213.034.356.356,0,0,1,.154.166l5.47,10.262a4.316,4.316,0,0,1,.249.626c.039-.11.081-.221.127-.327s.094-.21.146-.307l5.407-10.2a.351.351,0,0,1,.16-.166.653.653,0,0,1,.218-.031Z"/>
        <path class="f4c55907-ce63-4b02-b851-1f0620c614d3" d="M124.872,224.883l4.491.02,0,.843-4.491-.02Z"/>
        <path class="f4c55907-ce63-4b02-b851-1f0620c614d3" d="M137.753,223.848a4.667,4.667,0,0,1,1.2.474,3.41,3.41,0,0,1,1.552,1.89,4.365,4.365,0,0,1,.215,1.449,4.166,4.166,0,0,1-.335,1.684,3.724,3.724,0,0,1-.919,1.275,3.959,3.959,0,0,1-1.4.8,5.91,5.91,0,0,1-3.6-.016,3.975,3.975,0,0,1-1.4-.817,3.723,3.723,0,0,1-.907-1.284,4.148,4.148,0,0,1-.321-1.686,4.383,4.383,0,0,1,.229-1.447,3.5,3.5,0,0,1,.618-1.1,3.422,3.422,0,0,1,.94-.776,4.547,4.547,0,0,1,1.205-.463,3.843,3.843,0,0,1-1.061-.515,3.057,3.057,0,0,1-.774-.774,3.389,3.389,0,0,1-.474-.995,4.014,4.014,0,0,1-.159-1.17,3.888,3.888,0,0,1,.282-1.465,3.508,3.508,0,0,1,.792-1.194,3.656,3.656,0,0,1,1.244-.8,4.773,4.773,0,0,1,3.283.014,3.736,3.736,0,0,1,1.242.807,3.5,3.5,0,0,1,.788,1.2,3.905,3.905,0,0,1,.269,1.469,4.053,4.053,0,0,1-.169,1.168,3.245,3.245,0,0,1-1.273,1.752A3.792,3.792,0,0,1,137.753,223.848Zm-1.49,7.059a4.109,4.109,0,0,0,1.425-.23,3.2,3.2,0,0,0,1.109-.66,2.919,2.919,0,0,0,.72-1.031,3.454,3.454,0,0,0,.258-1.34,3.538,3.538,0,0,0-.322-1.615,2.907,2.907,0,0,0-.836-1.033,3.191,3.191,0,0,0-1.128-.552,4.537,4.537,0,0,0-2.4-.011,3.2,3.2,0,0,0-1.132.541,2.92,2.92,0,0,0-.845,1.025,3.534,3.534,0,0,0-.335,1.611,3.476,3.476,0,0,0,.244,1.344,2.97,2.97,0,0,0,.706,1.036,3.152,3.152,0,0,0,1.1.671A4.17,4.17,0,0,0,136.263,230.907ZM133.257,220.4a3.712,3.712,0,0,0,.175,1.147,2.767,2.767,0,0,0,.551.984,2.68,2.68,0,0,0,.949.691,3.752,3.752,0,0,0,2.724.013,2.705,2.705,0,0,0,.954-.682,2.813,2.813,0,0,0,.56-.98,3.7,3.7,0,0,0,.184-1.145,3.353,3.353,0,0,0-.2-1.181,2.7,2.7,0,0,0-.59-.955,2.736,2.736,0,0,0-.953-.638,3.75,3.75,0,0,0-2.584-.011,2.667,2.667,0,0,0-1.562,1.579A3.358,3.358,0,0,0,133.257,220.4Z"/>
        <path class="f4c55907-ce63-4b02-b851-1f0620c614d3" d="M147.481,216.86a5.167,5.167,0,0,1,3.622,1.15,4.2,4.2,0,0,1,1.209,3.241,4.588,4.588,0,0,1-.346,1.778,4.026,4.026,0,0,1-.972,1.4,4.454,4.454,0,0,1-1.53.908,5.874,5.874,0,0,1-2.021.318l-2.54-.013-.026,5.93-.995,0,.065-14.721Zm-.035,7.938a4.526,4.526,0,0,0,1.614-.262,3.548,3.548,0,0,0,1.216-.743,3.289,3.289,0,0,0,.769-1.125,3.752,3.752,0,0,0,.271-1.42,3.428,3.428,0,0,0-.955-2.615,4.046,4.046,0,0,0-2.884-.93l-2.54-.013-.032,7.095Z"/>
        <path class="f4c55907-ce63-4b02-b851-1f0620c614d3" d="M168.616,216.956l-.065,14.721-.859,0,.055-12.546c0-.181.011-.371.032-.573l-5.426,10.263a.421.421,0,0,1-.389.269h-.155a.42.42,0,0,1-.384-.273l-5.48-10.334c.018.208.027.405.026.593l-.055,12.546-.869,0,.065-14.721.685,0a.56.56,0,0,1,.213.033.362.362,0,0,1,.154.168l5.47,10.262a4.293,4.293,0,0,1,.249.624c.039-.11.081-.221.127-.326s.094-.21.146-.307l5.407-10.2a.354.354,0,0,1,.16-.165.6.6,0,0,1,.218-.033Z"/>
      </g>
      <g>
        <path class="f4c55907-ce63-4b02-b851-1f0620c614d3" d="M95.319,189.962l-.088,19.7-3-.013.057-12.725q0-.762.083-1.648L86.8,206.436a1.268,1.268,0,0,1-1.205.8l-.48,0a1.269,1.269,0,0,1-1.2-.81l-5.541-11.251c.024.3.043.6.06.884s.023.561.022.8L78.4,209.586l-3-.013.088-19.7,2.568.011c.152,0,.282.005.392.016a.985.985,0,0,1,.3.069.667.667,0,0,1,.241.177,1.572,1.572,0,0,1,.207.329l5.428,10.965q.214.437.4.9t.356.957q.179-.5.371-.975c.128-.311.264-.613.41-.9L91.6,190.532a1.383,1.383,0,0,1,.217-.326.7.7,0,0,1,.247-.175,1.01,1.01,0,0,1,.3-.069c.109-.007.24-.011.392-.011Z"/>
        <path class="f4c55907-ce63-4b02-b851-1f0620c614d3" d="M114.978,209.753l-2.631-.013a1.061,1.061,0,0,1-.719-.241,1.471,1.471,0,0,1-.416-.6l-1.348-4.026-7.577-.034-1.384,4.013a1.317,1.317,0,0,1-.394.571,1.051,1.051,0,0,1-.723.255l-2.657-.013L104.415,190l3.466.016ZM109,202.287l-2.2-6.565c-.109-.289-.221-.635-.337-1.036s-.232-.832-.349-1.295q-.167.694-.346,1.3c-.12.405-.236.756-.346,1.056l-2.243,6.514Z"/>
        <path class="f4c55907-ce63-4b02-b851-1f0620c614d3" d="M122.867,202.159l-.034,7.63-3.39-.016.034-7.63-6.613-12.1,3,.014a1.016,1.016,0,0,1,.7.235,1.95,1.95,0,0,1,.434.588l3.311,6.6c.192.392.361.76.506,1.105s.278.691.394,1.036q.167-.515.384-1.033t.5-1.1l3.356-6.567a1.819,1.819,0,0,1,.42-.557,1,1,0,0,1,.709-.255l3.011.013Z"/>
        <path class="f4c55907-ce63-4b02-b851-1f0620c614d3" d="M146.869,206.763a1.074,1.074,0,0,1,.8.311,1.115,1.115,0,0,1,.293.812l-.009,2.017-12.549-.058.005-1.118a2.125,2.125,0,0,1,.136-.713,1.838,1.838,0,0,1,.428-.673l5.579-5.97q.7-.76,1.252-1.452a9.46,9.46,0,0,0,.923-1.373,6.727,6.727,0,0,0,.569-1.38,5.467,5.467,0,0,0,.2-1.476,3.764,3.764,0,0,0-.184-1.25,2.5,2.5,0,0,0-.534-.906,2.191,2.191,0,0,0-.832-.557,3.1,3.1,0,0,0-1.093-.188,3.023,3.023,0,0,0-1.032.165,2.773,2.773,0,0,0-.844.474,2.921,2.921,0,0,0-.623.713,3.211,3.211,0,0,0-.383.9,1.488,1.488,0,0,1-.56.828,1.451,1.451,0,0,1-.988.09l-1.642-.32a7.728,7.728,0,0,1,.744-2.483,5.907,5.907,0,0,1,1.368-1.778,5.523,5.523,0,0,1,1.876-1.069,6.994,6.994,0,0,1,2.272-.351,6.38,6.38,0,0,1,2.313.414,5.093,5.093,0,0,1,1.791,1.145,5.169,5.169,0,0,1,1.157,1.776,6.1,6.1,0,0,1,.407,2.3,6.544,6.544,0,0,1-.306,2.015,8.554,8.554,0,0,1-.806,1.767,11.775,11.775,0,0,1-1.177,1.629q-.674.789-1.411,1.6l-4.144,4.518a9.009,9.009,0,0,1,1.184-.288,6.491,6.491,0,0,1,1.12-.1Z"/>
        <path class="f4c55907-ce63-4b02-b851-1f0620c614d3" d="M159.388,189.4l-.051,11.484-1.018,0a.856.856,0,0,1-.394-.085.97.97,0,0,1-.3-.284l-5.535-7.683c.028.351.042.673.04.969l-.031,7.053-1.748-.007.051-11.486,1.04.005a1.538,1.538,0,0,1,.218.013.447.447,0,0,1,.162.049.5.5,0,0,1,.136.1,1.564,1.564,0,0,1,.146.179l5.557,7.715c-.014-.186-.025-.369-.035-.55s-.013-.345-.012-.5l.031-6.983Z"/>
        <path class="f4c55907-ce63-4b02-b851-1f0620c614d3" d="M171.206,195.19a6.643,6.643,0,0,1-.4,2.319,5.409,5.409,0,0,1-1.108,1.814,4.875,4.875,0,0,1-1.708,1.176,5.644,5.644,0,0,1-2.215.411l-4.064-.018.051-11.484,4.064.018a5.593,5.593,0,0,1,2.211.434,4.959,4.959,0,0,1,1.7,1.192,5.341,5.341,0,0,1,1.091,1.819A6.633,6.633,0,0,1,171.206,195.19Zm-2.036-.009a5.734,5.734,0,0,0-.225-1.7,3.567,3.567,0,0,0-.666-1.273,2.909,2.909,0,0,0-1.059-.8,3.384,3.384,0,0,0-1.4-.284l-2.073-.009-.036,8.084,2.073.009a3.376,3.376,0,0,0,1.406-.271,2.925,2.925,0,0,0,1.065-.792,3.611,3.611,0,0,0,.677-1.27A5.73,5.73,0,0,0,169.171,195.181Z"/>
      </g>
      <g>
        <path class="f4c55907-ce63-4b02-b851-1f0620c614d3" d="M258.8,164.409l-5.555,19.1-1.153,0-5.255-16.564c-.067-.224-.125-.459-.175-.7-.051.242-.109.477-.175.7l-5.233,16.575-1.139,0-5.607-19.087h1.065a.439.439,0,0,1,.463.362l4.49,15.689c.091.36.175.77.251,1.228.042-.233.082-.452.124-.655a5.441,5.441,0,0,1,.151-.575l5-15.7a.578.578,0,0,1,.175-.257.442.442,0,0,1,.3-.109h.351a.42.42,0,0,1,.289.1.683.683,0,0,1,.175.262l5.028,15.687a5.518,5.518,0,0,1,.156.568c.046.206.09.423.132.647.042-.224.08-.439.118-.642s.077-.392.119-.573l4.456-15.7a.478.478,0,0,1,.169-.255.466.466,0,0,1,.307-.109Z"/>
        <path class="f4c55907-ce63-4b02-b851-1f0620c614d3" d="M272.691,182.341l-.024,1.147-10.624.011-.019-19.093,10.623-.011,0,1.147-9.334.011.007,7.719,7.768-.009,0,1.119-7.768.009.008,7.961Z"/>
        <path class="f4c55907-ce63-4b02-b851-1f0620c614d3" d="M291.5,173.915a12.115,12.115,0,0,1-.609,3.982,8.743,8.743,0,0,1-1.726,3.009,7.43,7.43,0,0,1-2.673,1.9,8.678,8.678,0,0,1-3.438.666l-6.477.007-.02-19.093,6.478-.007a8.783,8.783,0,0,1,3.439.656,7.486,7.486,0,0,1,2.677,1.9,8.744,8.744,0,0,1,1.733,3.008A12.049,12.049,0,0,1,291.5,173.915Zm-1.328,0a11.38,11.38,0,0,0-.517-3.561,7.567,7.567,0,0,0-1.456-2.644,6.212,6.212,0,0,0-2.257-1.644,7.3,7.3,0,0,0-2.906-.564l-5.187.005.017,16.854,5.187-.005a7.261,7.261,0,0,0,2.905-.57,6.206,6.206,0,0,0,2.253-1.649,7.558,7.558,0,0,0,1.45-2.644A11.443,11.443,0,0,0,290.171,173.917Z"/>
      </g>
      <g>
        <path class="f4c55907-ce63-4b02-b851-1f0620c614d3" d="M243.284,231.441l0,.77-7.051-.042,0-.77,3.14.018.07-11.942c0-.237.012-.485.033-.749l-3.031,2.863a.3.3,0,0,1-.271.094.4.4,0,0,1-.212-.127l-.278-.418,3.972-3.733.724,0-.081,14.013Z"/>
        <path class="f4c55907-ce63-4b02-b851-1f0620c614d3" d="M255.4,224.917a12.848,12.848,0,0,1-.406,3.349,7.207,7.207,0,0,1-1.066,2.333,4.345,4.345,0,0,1-1.569,1.369,4.165,4.165,0,0,1-1.911.441,4.123,4.123,0,0,1-1.9-.463A4.37,4.37,0,0,1,247,230.56a7.179,7.179,0,0,1-1.034-2.347,14.881,14.881,0,0,1,.039-6.7,7.148,7.148,0,0,1,1.062-2.333,4.318,4.318,0,0,1,1.563-1.369,4.224,4.224,0,0,1,3.81.022,4.328,4.328,0,0,1,1.553,1.387,7.238,7.238,0,0,1,1.039,2.347A12.818,12.818,0,0,1,255.4,224.917Zm-.966-.005a12.636,12.636,0,0,0-.3-3.06,6.65,6.65,0,0,0-.842-2.08,3.436,3.436,0,0,0-1.25-1.19,3.242,3.242,0,0,0-3.018-.018,3.468,3.468,0,0,0-1.263,1.176,6.618,6.618,0,0,0-.872,2.069,14.856,14.856,0,0,0-.035,6.122,6.6,6.6,0,0,0,.847,2.076,3.431,3.431,0,0,0,1.25,1.183,3.235,3.235,0,0,0,1.5.378,3.276,3.276,0,0,0,1.515-.36,3.367,3.367,0,0,0,1.263-1.168,6.7,6.7,0,0,0,.866-2.065A12.628,12.628,0,0,0,254.431,224.912Z"/>
        <path class="f4c55907-ce63-4b02-b851-1f0620c614d3" d="M268.469,232.363l-.763-.005a.314.314,0,0,1-.222-.08.5.5,0,0,1-.132-.2l-1.58-4.286-6.713-.042-1.629,4.268a.462.462,0,0,1-.135.2.357.357,0,0,1-.234.081l-.752-.005,5.678-14.687.977.007ZM265.476,227l-2.738-7.457a7.982,7.982,0,0,1-.275-.875c-.039.166-.081.326-.128.474s-.1.286-.147.411l-2.825,7.41Z"/>
        <path class="f4c55907-ce63-4b02-b851-1f0620c614d3" d="M284.329,217.736l-.086,14.721-.859-.005.073-12.546c0-.181.011-.371.032-.571l-5.44,10.254a.422.422,0,0,1-.389.269l-.154,0a.42.42,0,0,1-.385-.273l-5.464-10.341c.018.208.026.405.025.593l-.073,12.546-.87-.005.086-14.72.685,0a.569.569,0,0,1,.213.033.352.352,0,0,1,.152.168l5.457,10.269a4.315,4.315,0,0,1,.248.626c.038-.11.082-.221.127-.327a3.192,3.192,0,0,1,.148-.306l5.419-10.195a.342.342,0,0,1,.161-.165.6.6,0,0,1,.217-.031Z"/>
        <path class="f4c55907-ce63-4b02-b851-1f0620c614d3" d="M287.633,225.881l4.492.027,0,.843-4.492-.027Z"/>
        <path class="f4c55907-ce63-4b02-b851-1f0620c614d3" d="M303.8,217.853l0,.447a1.124,1.124,0,0,1-.04.306,1.341,1.341,0,0,1-.09.224L297.33,232.16a.7.7,0,0,1-.207.268.524.524,0,0,1-.345.1l-.637,0,6.395-13.278a2.344,2.344,0,0,1,.3-.486l-7.882-.047a.252.252,0,0,1-.184-.085.286.286,0,0,1-.074-.2l0-.633Z"/>
        <path class="f4c55907-ce63-4b02-b851-1f0620c614d3" d="M310.251,217.891a5.164,5.164,0,0,1,3.621,1.154,4.2,4.2,0,0,1,1.2,3.243,4.566,4.566,0,0,1-.349,1.778,3.948,3.948,0,0,1-.974,1.394,4.4,4.4,0,0,1-1.532.906,5.824,5.824,0,0,1-2.02.315l-2.541-.014-.034,5.93-.995-.005.086-14.721Zm-.046,7.938a4.53,4.53,0,0,0,1.614-.26,3.527,3.527,0,0,0,1.216-.741,3.249,3.249,0,0,0,.77-1.125,3.729,3.729,0,0,0,.275-1.42,3.419,3.419,0,0,0-.951-2.615,4.058,4.058,0,0,0-2.883-.933l-2.541-.014-.041,7.095Z"/>
        <path class="f4c55907-ce63-4b02-b851-1f0620c614d3" d="M331.386,218.018l-.086,14.72-.859,0,.073-12.546c0-.181.011-.371.032-.571l-5.44,10.254a.422.422,0,0,1-.389.269l-.154,0a.423.423,0,0,1-.385-.273l-5.464-10.343c.018.21.026.407.025.6l-.073,12.546-.87-.005.086-14.721.685,0a.6.6,0,0,1,.213.034.355.355,0,0,1,.152.166l5.457,10.269a4.485,4.485,0,0,1,.248.626c.038-.11.082-.219.127-.326s.095-.21.148-.307l5.419-10.193a.348.348,0,0,1,.161-.166.605.605,0,0,1,.217-.029Z"/>
      </g>
      <g>
        <path class="f4c55907-ce63-4b02-b851-1f0620c614d3" d="M257.486,190.146l-.088,19.7-3-.013.056-12.725q0-.762.083-1.648l-5.578,11.159a1.268,1.268,0,0,1-1.205.8l-.48,0a1.269,1.269,0,0,1-1.2-.81l-5.541-11.251c.024.3.043.6.059.886s.024.557.022.8l-.056,12.725-3-.013.088-19.7,2.568.011c.152,0,.282.005.392.016a1,1,0,0,1,.3.069.657.657,0,0,1,.24.177,1.572,1.572,0,0,1,.208.329l5.428,10.965q.214.437.4.9t.356.957c.119-.336.242-.662.371-.973s.264-.615.409-.9l5.45-10.889a1.382,1.382,0,0,1,.216-.326.71.71,0,0,1,.248-.175.944.944,0,0,1,.3-.067c.109-.009.24-.013.392-.013Z"/>
        <path class="f4c55907-ce63-4b02-b851-1f0620c614d3" d="M277.143,209.937l-2.63-.013a1.058,1.058,0,0,1-.719-.241,1.481,1.481,0,0,1-.417-.6l-1.346-4.026-7.579-.034-1.384,4.013a1.3,1.3,0,0,1-.4.571,1.047,1.047,0,0,1-.722.255l-2.657-.013,7.286-19.668,3.466.016Zm-5.974-7.466-2.2-6.563c-.109-.291-.221-.637-.337-1.036s-.232-.834-.349-1.3c-.111.463-.227.9-.346,1.3s-.236.756-.346,1.054l-2.243,6.516Z"/>
        <path class="f4c55907-ce63-4b02-b851-1f0620c614d3" d="M285.035,202.343l-.033,7.63-3.391-.016.033-7.63-6.612-12.1,3,.013a1.015,1.015,0,0,1,.7.235,1.935,1.935,0,0,1,.434.588l3.311,6.6c.192.392.361.76.507,1.107s.278.689.393,1.036q.168-.518.384-1.033t.5-1.1l3.358-6.567a1.809,1.809,0,0,1,.418-.557,1.01,1.01,0,0,1,.711-.255l3.011.014Z"/>
        <path class="f4c55907-ce63-4b02-b851-1f0620c614d3" d="M298.043,195.822a7.719,7.719,0,0,1,.745-2.483,5.878,5.878,0,0,1,1.368-1.778,5.523,5.523,0,0,1,1.876-1.069,6.943,6.943,0,0,1,2.273-.349,6.352,6.352,0,0,1,2.281.4,5.129,5.129,0,0,1,1.734,1.085,4.684,4.684,0,0,1,1.1,1.619,5.173,5.173,0,0,1,.376,2,6.315,6.315,0,0,1-.2,1.655,4.1,4.1,0,0,1-.568,1.244,3.465,3.465,0,0,1-.916.9,5.482,5.482,0,0,1-1.229.608,4.745,4.745,0,0,1,2.445,1.714,4.855,4.855,0,0,1,.8,2.877,6.3,6.3,0,0,1-.518,2.6,5.545,5.545,0,0,1-1.374,1.894,5.822,5.822,0,0,1-2,1.156,7.211,7.211,0,0,1-2.4.385,7.582,7.582,0,0,1-2.4-.353,5.076,5.076,0,0,1-1.779-1.015,6.015,6.015,0,0,1-1.284-1.642,11.436,11.436,0,0,1-.9-2.239l1.381-.608a1.543,1.543,0,0,1,1.018-.123,1,1,0,0,1,.687.555c.15.318.315.633.5.942a3.775,3.775,0,0,0,.647.827,3.073,3.073,0,0,0,.889.59,3.01,3.01,0,0,0,1.22.231,3.243,3.243,0,0,0,1.392-.275,3,3,0,0,0,1.6-1.722,3.3,3.3,0,0,0,.2-1.109,5.5,5.5,0,0,0-.132-1.288,1.93,1.93,0,0,0-.578-.991,3.059,3.059,0,0,0-1.269-.647,8.655,8.655,0,0,0-2.219-.242l.01-2.4a7.347,7.347,0,0,0,1.911-.222,3.177,3.177,0,0,0,1.211-.6,2.063,2.063,0,0,0,.632-.928,3.886,3.886,0,0,0,.183-1.2,2.866,2.866,0,0,0-.713-2.116,2.6,2.6,0,0,0-1.919-.731,3.028,3.028,0,0,0-1.026.165,2.922,2.922,0,0,0-.843.474,2.881,2.881,0,0,0-.629.713,3.261,3.261,0,0,0-.383.9,1.476,1.476,0,0,1-.566.83,1.453,1.453,0,0,1-.981.089Z"/>
        <path class="f4c55907-ce63-4b02-b851-1f0620c614d3" d="M320.84,201.063l-1.792-.009a.772.772,0,0,1-.734-.432l-2.226-3.688a.8.8,0,0,0-.276-.295.91.91,0,0,0-.446-.089l-.848,0-.02,4.487-1.982-.009.051-11.486,3.252.014a6.308,6.308,0,0,1,1.862.251,3.461,3.461,0,0,1,1.271.685,2.658,2.658,0,0,1,.73,1.047,3.679,3.679,0,0,1,.23,1.34,3.732,3.732,0,0,1-.163,1.094,3.246,3.246,0,0,1-.461.935,3.167,3.167,0,0,1-.741.736,3.54,3.54,0,0,1-1,.5,2.04,2.04,0,0,1,.353.284,1.941,1.941,0,0,1,.293.387Zm-5.076-6.044a2.869,2.869,0,0,0,.978-.146,1.86,1.86,0,0,0,.687-.414,1.7,1.7,0,0,0,.4-.629,2.349,2.349,0,0,0,.137-.8,1.689,1.689,0,0,0-.53-1.346,2.43,2.43,0,0,0-1.63-.476l-1.27-.005-.017,3.812Z"/>
        <path class="f4c55907-ce63-4b02-b851-1f0620c614d3" d="M331.492,195.368a6.612,6.612,0,0,1-.4,2.317,5.352,5.352,0,0,1-1.106,1.816,4.894,4.894,0,0,1-1.708,1.174,5.617,5.617,0,0,1-2.215.412L322,201.068l.051-11.486,4.062.018a5.6,5.6,0,0,1,2.212.436,4.94,4.94,0,0,1,1.7,1.192,5.334,5.334,0,0,1,1.09,1.819A6.619,6.619,0,0,1,331.492,195.368Zm-2.035-.009a5.757,5.757,0,0,0-.224-1.7,3.608,3.608,0,0,0-.667-1.275,2.938,2.938,0,0,0-1.058-.8,3.448,3.448,0,0,0-1.4-.284l-2.071-.009L324,199.377l2.071.009a3.4,3.4,0,0,0,1.406-.273,2.91,2.91,0,0,0,1.065-.792,3.6,3.6,0,0,0,.678-1.266A5.778,5.778,0,0,0,329.458,195.359Z"/>
      </g>
      <path class="f4c55907-ce63-4b02-b851-1f0620c614d3" d="M208.1,195.187l12.908.009a2.155,2.155,0,0,1,1.709.562,2.957,2.957,0,0,1,.472,1.892l0,5.724q0,2.352-2.185,2.351l-12.908-.009-.008,14.1q0,2.455-2.28,2.454l-5.6,0q-2.277,0-2.276-2.456l.008-14.1-12.908-.007q-2.184,0-2.181-2.353l0-5.724a2.944,2.944,0,0,1,.477-1.892,2.142,2.142,0,0,1,1.708-.561l12.908.007.008-14q0-2.452,2.28-2.452l5.6,0q2.277,0,2.276,2.454Z"/>
    </g>
  </g>
</svg>
