<?xml version="1.0" encoding="utf-8"?>
<!-- Generator: Adobe Illustrator 21.0.2, SVG Export Plug-In . SVG Version: 6.00 Build 0)  -->
<svg version="1.1" id="Layer_1" xmlns="http://www.w3.org/2000/svg" xmlns:xlink="http://www.w3.org/1999/xlink" x="0px" y="0px"
	 viewBox="0 0 462 304.9" style="enable-background:new 0 0 462 304.9;" xml:space="preserve">
<style type="text/css">
	.st0{fill:#F0685D;}
	.st1{fill:#727AB0;}
	.st2{fill:#42C3D3;}
	.st3{display:none;fill:#727AB0;}
	.st4{display:none;fill:#56C4C1;}
	.st5{fill:#90D1BB;}
	.st6{fill:#FFCC67;}
	.st7{display:none;fill:#FFCC67;}
	.st8{display:none;fill:#90D1BB;}
	.st9{display:none;}
	.st10{display:inline;fill:url(#XMLID_2_);}
	.st11{display:inline;}
	.st12{fill:url(#XMLID_3_);}
	.st13{fill:#727BB0;}
</style>
<polygon class="st0" points="382.4,261 409.4,276.6 436.3,261 409.4,245.5 "/>
<polygon class="st1" points="304,15 303.8,46.1 330.7,61.7 330.8,30.6 "/>
<polygon class="st2" points="331,61.5 304.1,77 277.1,61.5 304.1,45.9 "/>
<polygon class="st0" points="409.2,276.4 382.2,291.8 382,322.9 409,307.5 "/>
<polygon class="st3" points="355.4,296.4 382.3,280.9 409.2,296.4 382.3,312 "/>
<polygon class="st3" points="-177.6,277.7 -177.7,308.8 -150.8,324.4 -150.7,293.3 "/>
<polygon class="st3" points="-204.7,324.1 -177.6,308.7 -177.5,277.6 -204.5,293 "/>
<polygon class="st4" points="-151.6,325.9 -178.6,341.4 -205.5,325.9 -178.6,310.3 "/>
<polygon class="st5" points="438.3,60.8 465.3,45.4 465.5,14.3 438.5,29.7 "/>
<polygon class="st2" points="477.4,69.4 477.4,52.3 465.3,45.3 438.3,60.9 465.2,76.4 "/>
<polygon class="st5" points="438.3,122.9 465.3,107.5 465.5,76.4 438.5,91.8 "/>
<polygon class="st1" points="477.4,131.5 477.4,114.5 465.2,107.4 438.3,123 465.2,138.5 "/>
<polygon class="st0" points="411.7,14.2 411.6,45.3 438.5,61 438.6,29.8 "/>
<polygon class="st1" points="384.5,60.7 411.5,45.3 411.7,14.2 384.7,29.6 "/>
<polygon class="st2" points="438.4,60.7 411.4,76.3 384.5,60.7 411.5,45.2 "/>
<polygon class="st2" points="357.5,14.3 357.4,45.4 384.6,61.1 384.7,30 "/>
<polygon class="st6" points="330.2,61.3 357.5,45.7 357.4,14.8 330.2,30.1 "/>
<polygon class="st6" points="382.5,230.1 409.5,214.7 409.7,183.6 382.7,199 "/>
<polygon class="st5" points="384.6,60.7 357.1,76.6 330.2,61.1 357.7,45.1 "/>
<polygon class="st1" points="465.5,76.3 438.6,91.8 411.6,76.3 438.6,60.7 "/>
<polygon class="st6" points="411.4,76.3 384.5,91.8 357.6,76.3 384.5,60.7 "/>
<polygon class="st6" points="268.3,-36.8 268.2,-5.6 295.1,10 295.2,-21.1 "/>
<polygon class="st1" points="291.2,17.4 264.2,32.9 237.3,17.4 264.2,1.8 "/>
<polygon class="st4" points="-106.9,195.2 -107,226.3 -80.2,241.9 -80,210.8 "/>
<polygon class="st7" points="-136.6,241.8 -109.6,226.4 -109.4,195.3 -136.4,210.7 "/>
<polygon class="st3" points="-30.4,219.9 -30.5,251 -3.6,266.7 -3.5,235.6 "/>
<polygon class="st4" points="-77.7,266.8 -50.7,251.4 -50.5,220.3 -77.5,235.7 "/>
<polygon class="st8" points="-3.5,269.4 -30.5,285 -57.4,269.4 -30.5,253.9 "/>
<polygon class="st0" points="322.5,-36.7 295.5,-21.2 268.6,-36.8 295.5,-52.3 "/>
<polygon class="st5" points="384.5,-31.8 384.4,-0.7 411.3,14.9 411.4,-16.2 "/>
<polygon class="st0" points="357.4,14.8 384.4,-0.6 384.6,-31.7 357.6,-16.3 "/>
<polygon class="st2" points="411.3,14.8 384.3,30.3 357.4,14.8 384.3,-0.8 "/>
<polygon class="st1" points="438.4,-31.5 438.3,-0.4 465.2,15.2 465.3,-15.9 "/>
<polygon class="st2" points="411.3,14.9 438.3,-0.5 438.5,-31.6 411.5,-16.2 "/>
<polygon class="st1" points="465.2,15 438.2,30.5 411.3,15 438.2,-0.6 "/>
<polygon class="st1" points="330.6,-31.7 330.5,-0.6 357.4,14.8 357.5,-16.1 "/>
<polygon class="st2" points="304,15.1 331,-0.3 331.2,-31.4 304.2,-16 "/>
<polygon class="st5" points="357.5,14.8 330.5,30.3 303.7,14.9 330.5,-0.8 "/>
<polygon class="st1" points="438.5,-31.7 411.6,-16.2 384.7,-31.7 411.6,-47.3 "/>
<polygon class="st6" points="384.5,-31.7 357.5,-16.2 330.6,-31.7 357.5,-47.3 "/>
<polygon class="st0" points="477.4,-22.8 477.4,-40.2 465.5,-47.1 438.6,-31.5 465.5,-16 "/>
<polygon class="st2" points="349.9,303.6 350,272.5 323.1,256.8 323,287.9 "/>
<polygon class="st2" points="436,323.1 436.1,291.9 409.2,276.3 409.1,307.4 "/>
<polygon class="st1" points="323.1,257.1 350.1,241.5 377,257.1 350,272.6 "/>
<polygon class="st8" points="-168.8,375.4 -141.8,360 -141.6,328.9 -168.6,344.3 "/>
<polygon class="st3" points="-108.3,-91.7 -135.3,-76.3 -135.5,-45.2 -108.5,-60.6 "/>
<polygon class="st8" points="-209.5,-45.9 -182.6,-61.4 -155.6,-45.8 -182.6,-30.3 "/>
<polygon class="st2" points="424.7,199.5 451.6,215 478.6,199.5 451.6,183.9 "/>
<polygon class="st5" points="23.2,83.3 -3.9,67.9 -4.1,36.8 23,52.2 "/>
<polygon class="st2" points="-15.9,92 -15.9,74.9 -3.8,67.9 23.2,83.4 -3.8,99 "/>
<polygon class="st6" points="23.2,145.4 -3.8,130 -4,98.9 23,114.3 "/>
<polygon class="st1" points="-15.9,154.1 -15.9,137 -3.7,130 23.2,145.5 -3.7,161.1 "/>
<polygon class="st1" points="49.8,36.8 49.9,67.9 23,83.5 22.9,52.4 "/>
<polygon class="st1" points="-4.1,98.8 22.9,114.4 49.8,98.8 22.9,83.3 "/>
<polygon class="st6" points="193.1,-14.2 193.2,16.9 166.3,32.6 166.2,1.4 "/>
<polygon class="st5" points="170.3,40 197.2,55.5 224.2,39.9 197.2,24.4 "/>
<polygon class="st5" points="77,-9.7 77.1,21.4 50.2,37.1 50.1,6 "/>
<polygon class="st0" points="104.1,36.7 77.1,21.3 76.9,-9.8 103.9,5.6 "/>
<polygon class="st1" points="50.2,36.9 77.2,52.4 104.1,36.8 77.1,21.3 "/>
<polygon class="st6" points="23.1,-9 23.2,22.1 -3.7,37.8 -3.8,6.7 "/>
<polygon class="st1" points="50.2,37.4 23.2,22 23,-9.1 50,6.3 "/>
<polygon class="st0" points="-3.7,37.6 23.3,53.1 50.2,37.5 23.2,22 "/>
<polygon class="st0" points="139.4,-14 166.4,1.5 193.3,-14.1 166.3,-29.6 "/>
<polygon class="st1" points="130.9,-9.2 131.2,22.1 104.1,36.7 104,6.4 "/>
<polygon class="st2" points="158.2,37.5 131.2,22.1 131,-9 158,6.4 "/>
<polygon class="st5" points="382.4,230.1 409.4,245.7 436.3,230.1 409.4,214.6 "/>
<polygon class="st1" points="22.9,-9.2 49.9,6.4 76.8,-9.2 49.9,-24.7 "/>
<polygon class="st6" points="77,-9.1 104,6.4 130.9,-9.2 103.9,-24.7 "/>
<polygon class="st0" points="-30.7,-8.9 -3.7,6.6 23.2,-9 -3.8,-24.5 "/>
<polygon class="st2" points="-3.8,-24.5 23.3,-9 50.1,-24.6 23.1,-40.1 "/>
<polygon class="st2" points="50.1,-24.6 77.1,-9.1 104,-24.7 77,-40.2 "/>
<polygon class="st5" points="104,-24.7 131,-9.2 157.9,-24.8 130.9,-40.3 "/>
<polygon class="st5" points="436.2,292.2 436.3,261.1 409.4,245.4 409.3,276.5 "/>
<polygon class="st0" points="463.3,245.8 436.3,261.2 436.1,292.3 463.1,276.9 "/>
<polygon class="st1" points="409.4,245.7 436.4,230.1 463.3,245.7 436.4,261.2 "/>
<polygon class="st5" points="104.3,67.8 77.3,52.4 77.1,21.3 104.1,36.7 "/>
<g class="st9">
	
		<linearGradient id="XMLID_2_" gradientUnits="userSpaceOnUse" x1="-59.2477" y1="1419.7449" x2="-86.2007" y2="1478.1431" gradientTransform="matrix(1 0 0 1 0 -1285.8)">
		<stop  offset="0.5919" style="stop-color:#91D0BA"/>
		<stop  offset="1" style="stop-color:#48B982"/>
	</linearGradient>
	<polygon id="XMLID_312_" class="st10" points="-95.6,208.9 -95.6,208.9 -97.6,163.8 -97.5,163.8 -60.1,139.6 -60.1,139.7 
		-58.1,184.7 -58.2,184.7 	"/>
	<g class="st11">
		
			<radialGradient id="XMLID_3_" cx="-138.7724" cy="1515.7693" r="93.341" gradientTransform="matrix(0.9338 0 0 0.9464 30.5603 -1244.6436)" gradientUnits="userSpaceOnUse">
			<stop  offset="0" style="stop-color:#0E0F1A"/>
			<stop  offset="8.470190e-03" style="stop-color:#0E0F1A"/>
			<stop  offset="0.5076" style="stop-color:#3FA0D0"/>
			<stop  offset="0.6779" style="stop-color:#3DB4D1"/>
			<stop  offset="1" style="stop-color:#42C3D2"/>
		</radialGradient>
		<polygon id="XMLID_311_" class="st12" points="-56.5,227.9 -58.8,183 -21.4,158.4 -21.4,158.4 -21.3,158.5 -21.3,158.5 -19,203.5 
			-56.3,228.1 -56.3,228 		"/>
		<polygon id="XMLID_310_" class="st13" points="-58.8,183 -56.5,227.9 -96.1,208.4 -96.1,208.4 -98.1,163.5 		"/>
	</g>
</g>
<polygon class="st0" points="357.1,76.6 330.2,92.2 303.2,76.6 330.2,61.1 "/>
<polygon class="st6" points="65.9,233.5 66,264.6 39.1,280.3 39,249.1 "/>
<polygon class="st5" points="43.1,287.7 70,303.2 97,287.6 70,272.1 "/>
<polygon class="st0" points="11.8,233.5 38.8,249.1 65.7,233.5 38.7,217.9 "/>
<polygon class="st2" points="31,285.2 4,269.8 3.8,238.7 30.8,254.1 "/>
<polygon class="st5" points="3.1,206.9 -23.8,222.6 3.1,238.1 30,222.6 "/>
<polygon class="st2" points="439.3,-62.6 466.2,-46.9 439.3,-31.4 412.4,-46.9 "/>
<polygon class="st2" points="384.5,-62.9 411.4,-47.2 384.5,-31.7 357.6,-47.2 "/>
<polygon class="st5" points="330.5,-62.9 357.4,-47.2 330.5,-31.7 303.6,-47.2 "/>
</svg>
