<svg id="1789820b-d10b-42cb-9fd8-c40ad4de8066" data-name="front_shapes" xmlns="http://www.w3.org/2000/svg" xmlns:xlink="http://www.w3.org/1999/xlink" viewBox="0 0 450 306">
  <defs>
    <style>
      .a6fe2a97-7a11-4c8a-8dc0-aeb880e46cf4 {
        fill: none;
      }

      .\37 59e5cc8-e6c1-48a3-869c-ed5dee159111 {
        clip-path: url(#e70ad72d-55ba-4f36-b6c6-6fc5908e7457);
      }

      .\35 50ccfee-43b8-4eb8-b99a-b7530b1b2094 {
        fill: #f0685d;
      }

      .\32 1b0631e-9de2-4788-aeb4-931bd81b77fb {
        fill: #727ab0;
      }

      .ba71d047-7285-47a7-8aed-f602f7cd04bc {
        fill: #42c3d3;
      }

      .fbd3a141-5b44-4857-a403-2ed5abb04a64 {
        fill: #ffcc67;
      }

      .\38 a2c57b5-d6be-404d-9796-2580ae1a1ba7 {
        fill: #90d1bb;
      }
    </style>
    <clipPath id="e70ad72d-55ba-4f36-b6c6-6fc5908e7457">
      <rect id="0c212211-0595-4f14-976c-dce570062bc2" data-name="&lt;Rectangle&gt;" class="a6fe2a97-7a11-4c8a-8dc0-aeb880e46cf4" x="-9" y="-9.472" width="468" height="324.472"/>
    </clipPath>
  </defs>
  <title>Artboard 1</title>
  <g id="d9542cc9-34a7-4c3a-a5a1-9a549f43bdce" data-name="&lt;Clip Group&gt;">
    <g class="759e5cc8-e6c1-48a3-869c-ed5dee159111">
      <g id="c26c8f96-7f40-4d33-a915-84775522da45" data-name="&lt;Group&gt;">
        <polygon class="550ccfee-43b8-4eb8-b99a-b7530b1b2094" points="373.432 281.315 400.378 296.861 427.318 281.301 400.371 265.755 373.432 281.315"/>
        <polygon class="21b0631e-9de2-4788-aeb4-931bd81b77fb" points="294.952 15.26 294.848 46.37 321.736 62.018 321.84 30.909 294.952 15.26"/>
        <polygon class="ba71d047-7285-47a7-8aed-f602f7cd04bc" points="322.034 61.783 295.086 77.328 268.148 61.768 295.095 46.222 322.034 61.783"/>
        <polygon class="550ccfee-43b8-4eb8-b99a-b7530b1b2094" points="400.237 296.721 373.2 312.111 373.004 343.22 400.041 327.83 400.237 296.721"/>
        <polygon class="21b0631e-9de2-4788-aeb4-931bd81b77fb" points="346.351 296.713 373.299 281.168 400.237 296.728 373.289 312.274 346.351 296.713"/>
        <polygon class="fbd3a141-5b44-4857-a403-2ed5abb04a64" points="105.903 332.341 106.008 301.231 79.12 285.583 79.016 316.692 105.903 332.341"/>
        <polygon class="21b0631e-9de2-4788-aeb4-931bd81b77fb" points="133.005 285.944 105.968 301.333 105.772 332.442 132.809 317.053 133.005 285.944"/>
        <polygon class="21b0631e-9de2-4788-aeb4-931bd81b77fb" points="79.119 285.818 106.067 270.273 133.005 285.833 106.057 301.379 79.119 285.818"/>
        <polygon class="ba71d047-7285-47a7-8aed-f602f7cd04bc" points="171.778 271.666 171.674 302.776 198.561 318.424 198.665 287.315 171.778 271.666"/>
        <polygon class="fbd3a141-5b44-4857-a403-2ed5abb04a64" points="138.747 315.522 165.785 300.133 165.98 269.024 138.943 284.413 138.747 315.522"/>
        <polygon class="8a2c57b5-d6be-404d-9796-2580ae1a1ba7" points="198.562 318.189 171.615 333.735 144.676 318.174 171.624 302.628 198.562 318.189"/>
        <polygon class="8a2c57b5-d6be-404d-9796-2580ae1a1ba7" points="429.309 61.066 456.346 45.677 456.542 14.568 429.504 29.957 429.309 61.066"/>
        <polygon class="ba71d047-7285-47a7-8aed-f602f7cd04bc" points="468.377 69.741 468.377 52.633 456.256 45.631 429.309 61.176 456.247 76.738 468.377 69.741"/>
        <polygon class="8a2c57b5-d6be-404d-9796-2580ae1a1ba7" points="429.257 123.153 456.295 107.763 456.49 76.654 429.453 92.044 429.257 123.153"/>
        <polygon class="21b0631e-9de2-4788-aeb4-931bd81b77fb" points="468.377 131.797 468.377 114.749 456.205 107.718 429.257 123.264 456.196 138.824 468.377 131.797"/>
        <polygon class="550ccfee-43b8-4eb8-b99a-b7530b1b2094" points="402.698 14.489 402.594 45.599 429.481 61.247 429.585 30.138 402.698 14.489"/>
        <polygon class="21b0631e-9de2-4788-aeb4-931bd81b77fb" points="375.504 61.014 402.541 45.625 402.737 14.516 375.699 29.905 375.504 61.014"/>
        <polygon class="ba71d047-7285-47a7-8aed-f602f7cd04bc" points="429.39 61.03 402.442 76.575 375.504 61.014 402.451 45.468 429.39 61.03"/>
        <polygon class="ba71d047-7285-47a7-8aed-f602f7cd04bc" points="348.482 14.603 348.378 45.713 375.559 61.361 375.663 30.252 348.482 14.603"/>
        <polygon class="fbd3a141-5b44-4857-a403-2ed5abb04a64" points="321.202 61.568 348.525 46.017 348.435 15.07 321.159 30.396 321.202 61.568"/>
        <polygon class="fbd3a141-5b44-4857-a403-2ed5abb04a64" points="373.504 250.397 400.541 235.007 400.737 203.898 373.699 219.288 373.504 250.397"/>
        <polygon class="8a2c57b5-d6be-404d-9796-2580ae1a1ba7" points="375.596 60.997 348.098 76.915 321.159 61.354 348.658 45.436 375.596 60.997"/>
        <polygon class="21b0631e-9de2-4788-aeb4-931bd81b77fb" points="456.528 76.565 429.581 92.111 402.642 76.55 429.59 61.004 456.528 76.565"/>
        <polygon class="fbd3a141-5b44-4857-a403-2ed5abb04a64" points="402.443 76.575 375.496 92.121 348.557 76.56 375.504 61.014 402.443 76.575"/>
        <polygon class="8a2c57b5-d6be-404d-9796-2580ae1a1ba7" points="25.285 222.981 25.181 254.091 52.124 269.736 52.173 238.63 25.285 222.981"/>
        <polygon class="550ccfee-43b8-4eb8-b99a-b7530b1b2094" points="-1.961 269.609 25.076 254.22 25.272 223.111 -1.766 238.5 -1.961 269.609"/>
        <polygon class="21b0631e-9de2-4788-aeb4-931bd81b77fb" points="52.124 269.736 25.177 285.163 -1.762 269.602 25.186 254.056 52.124 269.736"/>
        <polygon class="fbd3a141-5b44-4857-a403-2ed5abb04a64" points="259.348 -36.462 259.244 -5.352 286.132 10.296 286.236 -20.813 259.348 -36.462"/>
        <polygon class="21b0631e-9de2-4788-aeb4-931bd81b77fb" points="282.168 17.689 255.22 33.235 228.282 17.674 255.23 2.128 282.168 17.689"/>
        <polygon class="fbd3a141-5b44-4857-a403-2ed5abb04a64" points="25.181 222.943 -1.766 238.489 -28.705 222.929 -1.758 207.383 25.181 222.943"/>
        <polygon class="8a2c57b5-d6be-404d-9796-2580ae1a1ba7" points="375.471 -31.55 375.367 -0.44 402.255 15.208 402.359 -15.901 375.471 -31.55"/>
        <polygon class="550ccfee-43b8-4eb8-b99a-b7530b1b2094" points="348.37 15.078 375.407 -0.311 375.603 -31.42 348.566 -16.031 348.37 15.078"/>
        <polygon class="ba71d047-7285-47a7-8aed-f602f7cd04bc" points="402.256 15.093 375.308 30.639 348.37 15.078 375.318 -0.468 402.256 15.093"/>
        <polygon class="21b0631e-9de2-4788-aeb4-931bd81b77fb" points="429.371 -31.231 429.267 -0.121 456.154 15.528 456.258 -15.581 429.371 -31.231"/>
        <polygon class="ba71d047-7285-47a7-8aed-f602f7cd04bc" points="402.269 15.167 429.307 -0.223 429.502 -31.332 402.465 -15.943 402.269 15.167"/>
        <polygon class="21b0631e-9de2-4788-aeb4-931bd81b77fb" points="456.155 15.293 429.208 30.838 402.269 15.278 429.217 -0.268 456.155 15.293"/>
        <polygon class="21b0631e-9de2-4788-aeb4-931bd81b77fb" points="321.572 -31.419 321.468 -0.309 348.42 15.107 348.46 -15.769 321.572 -31.419"/>
        <polygon class="ba71d047-7285-47a7-8aed-f602f7cd04bc" points="294.96 15.393 321.998 0.003 322.193 -31.106 295.156 -15.716 294.96 15.393"/>
        <polygon class="8a2c57b5-d6be-404d-9796-2580ae1a1ba7" points="348.46 15.086 321.512 30.631 294.672 15.16 321.521 -0.475 348.46 15.086"/>
        <polygon class="ba71d047-7285-47a7-8aed-f602f7cd04bc" points="340.894 323.878 340.998 292.768 314.11 277.12 314.006 308.229 340.894 323.878"/>
        <polygon class="ba71d047-7285-47a7-8aed-f602f7cd04bc" points="426.956 343.342 427.06 312.232 400.172 296.583 400.068 327.692 426.956 343.342"/>
        <polygon class="21b0631e-9de2-4788-aeb4-931bd81b77fb" points="314.109 277.355 341.057 261.809 367.995 277.37 341.048 292.916 314.109 277.355"/>
        <polygon class="21b0631e-9de2-4788-aeb4-931bd81b77fb" points="225.438 271.644 225.334 302.754 252.221 318.403 252.326 287.294 225.438 271.644"/>
        <polygon class="8a2c57b5-d6be-404d-9796-2580ae1a1ba7" points="198.336 318.042 225.374 302.652 225.57 271.543 198.532 286.932 198.336 318.042"/>
        <polygon class="21b0631e-9de2-4788-aeb4-931bd81b77fb" points="252.223 318.168 225.275 333.713 198.337 318.152 225.284 302.606 252.223 318.168"/>
        <polygon class="ba71d047-7285-47a7-8aed-f602f7cd04bc" points="415.701 219.779 442.648 235.324 469.587 219.763 442.639 204.217 415.701 219.779"/>
        <polygon class="8a2c57b5-d6be-404d-9796-2580ae1a1ba7" points="14.156 83.619 -12.881 68.23 -13.077 37.121 13.961 52.51 14.156 83.619"/>
        <polygon class="ba71d047-7285-47a7-8aed-f602f7cd04bc" points="-24.912 92.293 -24.912 75.185 -12.791 68.184 14.156 83.729 -12.782 99.291 -24.912 92.293"/>
        <polygon class="fbd3a141-5b44-4857-a403-2ed5abb04a64" points="14.208 145.706 -12.829 130.316 -13.025 99.207 14.012 114.597 14.208 145.706"/>
        <polygon class="21b0631e-9de2-4788-aeb4-931bd81b77fb" points="-24.912 154.35 -24.912 137.301 -12.74 130.27 14.208 145.816 -12.731 161.377 -24.912 154.35"/>
        <polygon class="21b0631e-9de2-4788-aeb4-931bd81b77fb" points="40.767 37.042 40.872 68.152 13.984 83.8 13.88 52.691 40.767 37.042"/>
        <polygon class="21b0631e-9de2-4788-aeb4-931bd81b77fb" points="-13.063 99.118 13.884 114.663 40.823 99.103 13.875 83.557 -13.063 99.118"/>
        <polygon class="ba71d047-7285-47a7-8aed-f602f7cd04bc" points="78.909 223.212 79.013 254.322 52.126 269.971 52.021 238.861 78.909 223.212"/>
        <polygon class="fbd3a141-5b44-4857-a403-2ed5abb04a64" points="106.011 269.609 78.973 254.22 78.777 223.111 105.815 238.5 106.011 269.609"/>
        <polygon class="8a2c57b5-d6be-404d-9796-2580ae1a1ba7" points="52.124 269.736 79.072 285.281 106.01 269.72 79.063 254.174 52.124 269.736"/>
        <polygon class="fbd3a141-5b44-4857-a403-2ed5abb04a64" points="25.181 285.243 52.128 300.789 79.067 285.228 52.12 269.682 25.181 285.243"/>
        <polygon class="fbd3a141-5b44-4857-a403-2ed5abb04a64" points="184.117 -13.909 184.221 17.201 157.333 32.849 157.229 1.74 184.117 -13.909"/>
        <polygon class="8a2c57b5-d6be-404d-9796-2580ae1a1ba7" points="161.297 40.242 188.245 55.787 215.183 40.227 188.236 24.681 161.297 40.242"/>
        <polygon class="550ccfee-43b8-4eb8-b99a-b7530b1b2094" points="130.01 -13.902 156.956 1.644 183.896 -13.917 156.949 -29.463 130.01 -13.902"/>
        <polygon class="8a2c57b5-d6be-404d-9796-2580ae1a1ba7" points="67.994 -9.371 68.098 21.739 41.21 37.387 41.106 6.278 67.994 -9.371"/>
        <polygon class="550ccfee-43b8-4eb8-b99a-b7530b1b2094" points="95.095 37.026 68.058 21.637 67.862 -9.472 94.9 5.917 95.095 37.026"/>
        <polygon class="550ccfee-43b8-4eb8-b99a-b7530b1b2094" points="25.785 316.339 -1.252 300.949 -1.448 269.84 25.59 285.23 25.785 316.339"/>
        <polygon class="550ccfee-43b8-4eb8-b99a-b7530b1b2094" points="21.49 343.43 -5.548 328.041 -5.743 296.932 21.294 312.321 21.49 343.43"/>
        <polygon class="550ccfee-43b8-4eb8-b99a-b7530b1b2094" points="52.728 331.792 25.691 316.402 25.495 285.293 52.533 300.683 52.728 331.792"/>
        <polygon class="21b0631e-9de2-4788-aeb4-931bd81b77fb" points="41.209 37.152 68.157 52.697 95.095 37.137 68.148 21.591 41.209 37.152"/>
        <polygon class="fbd3a141-5b44-4857-a403-2ed5abb04a64" points="14.094 -8.678 14.199 22.432 -12.689 38.081 -12.793 6.972 14.094 -8.678"/>
        <polygon class="21b0631e-9de2-4788-aeb4-931bd81b77fb" points="41.196 37.719 14.159 22.33 13.963 -8.779 41 6.61 41.196 37.719"/>
        <polygon class="550ccfee-43b8-4eb8-b99a-b7530b1b2094" points="-12.69 37.846 14.258 53.391 41.196 37.83 14.248 22.284 -12.69 37.846"/>
        <polygon class="21b0631e-9de2-4788-aeb4-931bd81b77fb" points="121.893 -8.909 122.187 22.428 95.095 37.026 95.005 6.74 121.893 -8.909"/>
        <polygon class="ba71d047-7285-47a7-8aed-f602f7cd04bc" points="149.224 37.817 122.187 22.428 121.991 -8.682 149.029 6.708 149.224 37.817"/>
        <polygon class="8a2c57b5-d6be-404d-9796-2580ae1a1ba7" points="373.432 250.405 400.379 265.95 427.318 250.389 400.37 234.843 373.432 250.405"/>
        <polygon class="21b0631e-9de2-4788-aeb4-931bd81b77fb" points="13.925 -8.868 40.872 6.677 67.811 -8.883 40.863 -24.429 13.925 -8.868"/>
        <polygon class="fbd3a141-5b44-4857-a403-2ed5abb04a64" points="68.01 -8.859 94.957 6.687 121.896 -8.873 94.949 -24.419 68.01 -8.859"/>
        <polygon class="550ccfee-43b8-4eb8-b99a-b7530b1b2094" points="-24.912 0.042 -24.912 -17.393 -13.074 -24.231 13.873 -8.685 -13.066 6.875 -24.912 0.042"/>
        <polygon class="8a2c57b5-d6be-404d-9796-2580ae1a1ba7" points="427.211 312.465 427.315 281.355 400.427 265.707 400.323 296.816 427.211 312.465"/>
        <polygon class="550ccfee-43b8-4eb8-b99a-b7530b1b2094" points="454.312 266.068 427.275 281.457 427.079 312.566 454.117 297.177 454.312 266.068"/>
        <polygon class="21b0631e-9de2-4788-aeb4-931bd81b77fb" points="400.426 265.942 427.374 250.397 454.312 265.957 427.364 281.503 400.426 265.942"/>
        <polygon class="8a2c57b5-d6be-404d-9796-2580ae1a1ba7" points="95.331 68.089 68.294 52.7 68.098 21.591 95.135 36.98 95.331 68.089"/>
        <polygon class="550ccfee-43b8-4eb8-b99a-b7530b1b2094" points="348.102 76.922 321.155 92.468 294.216 76.907 321.163 61.361 348.102 76.922"/>
      </g>
    </g>
  </g>
</svg>
