<?xml version="1.0" encoding="utf-8"?>
<!-- Generator: Adobe Illustrator 19.1.0, SVG Export Plug-In . SVG Version: 6.00 Build 0)  -->
<svg version="1.1" id="Layer_1" xmlns="http://www.w3.org/2000/svg" xmlns:xlink="http://www.w3.org/1999/xlink" x="0px" y="0px"
	 viewBox="0 0 975.1 405" style="enable-background:new 0 0 975.1 405;" xml:space="preserve">
<style type="text/css">
	.st0{fill:none;stroke:#9C58A3;stroke-width:7;stroke-miterlimit:10;}
	.st1{fill:#9C58A3;}
	.st2{fill:none;stroke:#9C58A3;stroke-width:7;stroke-miterlimit:10;stroke-dasharray:12.16,12.16;}
	.st3{fill:#67B642;}
	.st4{fill:none;stroke:#9C58A3;stroke-width:7;stroke-miterlimit:10;stroke-dasharray:11.6667,11.6667;}
	.st5{fill:none;stroke:#9C58A3;stroke-width:7;stroke-miterlimit:10;stroke-dasharray:12.0909,12.0909;}
	.st6{fill:none;stroke:#9C58A3;stroke-width:7;stroke-miterlimit:10;stroke-dasharray:10.1327,10.1327;}
	.st7{fill:none;stroke:#9C58A3;stroke-width:7;stroke-miterlimit:10;stroke-dasharray:11.8776,11.8776;}
	.st8{fill:none;stroke:#9C58A3;stroke-width:8;stroke-miterlimit:10;}
	.st9{fill:#FFFFFF;stroke:#000000;stroke-width:7;stroke-miterlimit:10;}
	.st10{fill:#FFFFFF;stroke:#000000;stroke-width:4;stroke-miterlimit:10;}
	.st11{fill:#FFFFFF;}
	.st12{fill:#616161;}
	.st13{fill:#A773B0;}
	.st14{font-family:'Helvetica';}
	.st15{font-size:408.5822px;}
	.st16{font-family:'GillSans';}
	.st17{font-size:56.9727px;}
	.st18{stroke:#FFFFFF;stroke-width:20;stroke-miterlimit:10;}
	.st19{fill:none;stroke:#000000;stroke-width:6;stroke-miterlimit:10;}
	.st20{fill:#FFFFFF;stroke:#9C58A3;stroke-width:6;stroke-miterlimit:10;}
	.st21{fill:none;stroke:#9C58A3;stroke-width:7;stroke-miterlimit:10;stroke-dasharray:11.9813,11.9813;}
</style>
<polyline class="st0" points="4442.5,946.6 4328.1,946.6 4328.1,715.2 4416.1,715.2 "/>
<polyline class="st0" points="4442.5,983.6 4288.1,983.6 4288.1,197.2 4432.1,197.2 "/>
<line class="st0" x1="4538.1" y1="461" x2="4538.1" y2="617"/>
<polygon class="st1" points="4551.8,616.4 4538.6,639.2 4525.4,616.4 "/>
<line class="st0" x1="4538.1" y1="305" x2="4538.1" y2="411"/>
<polygon class="st1" points="4551.8,410.4 4538.6,433.2 4525.4,410.4 "/>
<line class="st0" x1="4538.1" y1="191" x2="4538.1" y2="267"/>
<polygon class="st1" points="4551.8,266.4 4538.6,289.2 4525.4,266.4 "/>
<polygon class="st1" points="4761.7,686.2 4784.5,699.4 4761.7,712.6 "/>
<line class="st0" x1="4448.1" y1="700.2" x2="4764.1" y2="700.2"/>
<polygon class="st1" points="4761.7,974.2 4784.5,987.4 4761.7,1000.6 "/>
<g>
	<g>
		<line class="st0" x1="4448.1" y1="988.2" x2="4454.1" y2="988.2"/>
		<line class="st2" x1="4466.3" y1="988.2" x2="4752" y2="988.2"/>
		<line class="st0" x1="4758.1" y1="988.2" x2="4764.1" y2="988.2"/>
	</g>
</g>
<polygon class="st1" points="4681,957.6 4658.1,944.4 4681,931.2 "/>
<g>
	<g>
		<line class="st0" x1="4994.5" y1="943.6" x2="4988.5" y2="943.6"/>
		<line class="st2" x1="4976.4" y1="943.6" x2="4690.6" y2="943.6"/>
		<line class="st0" x1="4684.5" y1="943.6" x2="4678.5" y2="943.6"/>
	</g>
</g>
<polygon class="st1" points="5111.7,974.2 5134.5,987.4 5111.7,1000.6 "/>
<g>
	<g>
		<line class="st0" x1="4798.1" y1="988.2" x2="4804.1" y2="988.2"/>
		<line class="st2" x1="4816.3" y1="988.2" x2="5102" y2="988.2"/>
		<line class="st0" x1="5108.1" y1="988.2" x2="5114.1" y2="988.2"/>
	</g>
</g>
<polygon class="st1" points="5031,957.6 5008.1,944.4 5031,931.2 "/>
<g>
	<g>
		<line class="st0" x1="5344.5" y1="943.6" x2="5338.5" y2="943.6"/>
		<line class="st2" x1="5326.4" y1="943.6" x2="5040.6" y2="943.6"/>
		<line class="st0" x1="5034.5" y1="943.6" x2="5028.5" y2="943.6"/>
	</g>
</g>
<line class="st0" x1="4822.1" y1="700.2" x2="5138.1" y2="700.2"/>
<line class="st0" x1="4902.1" y1="999.3" x2="4902.1" y2="834.2"/>
<polyline class="st0" points="4546.1,1025.3 4546.1,1125.2 5280.1,1125.2 5280.1,1025.2 "/>
<polyline class="st0" points="5280.1,971.2 5280.1,865.2 4546.1,865.2 4546.1,995.3 "/>
<rect x="4435.2" y="911.6" class="st3" width="222.5" height="101.4"/>
<g>
	<g>
		<line class="st0" x1="4989.1" y1="233.2" x2="4995.1" y2="233.2"/>
		<line class="st4" x1="5006.8" y1="233.2" x2="5024.3" y2="233.2"/>
		<polyline class="st0" points="5030.1,233.2 5036.1,233.2 5036.1,239.2 		"/>
		<line class="st5" x1="5036.1" y1="251.3" x2="5036.1" y2="632.2"/>
		<polyline class="st0" points="5036.1,638.2 5036.1,644.2 5030.1,644.2 		"/>
		<line class="st6" x1="5020" y1="644.2" x2="4984.5" y2="644.2"/>
		<line class="st0" x1="4979.5" y1="644.2" x2="4973.5" y2="644.2"/>
	</g>
</g>
<line class="st0" x1="5269.1" y1="701.2" x2="5269.1" y2="545.2"/>
<g>
	<g>
		<line class="st0" x1="5244.1" y1="479.2" x2="5238.1" y2="479.2"/>
		<line class="st7" x1="5226.2" y1="479.2" x2="4662.1" y2="479.2"/>
		<line class="st0" x1="4656.1" y1="479.2" x2="4650.1" y2="479.2"/>
	</g>
</g>
<polyline class="st0" points="4544.1,322.2 4332.1,322.2 4332.1,675.2 4418.1,675.2 "/>
<polyline class="st8" points="5027.4,673.2 5064.1,673.2 5064.1,206.9 4956.1,206.9 "/>
<path class="st8" d="M5016.1,206.9"/>
<line class="st8" x1="4670.1" y1="206.9" x2="4899.1" y2="206.9"/>
<polygon class="st9" points="3405.4,343 3025.6,343 3034.6,199.4 3405.4,199.4 "/>
<polygon class="st9" points="2857.9,343 2481.1,343 2481.1,199.4 2851.9,199.4 "/>
<g>
	<g>
		<path d="M2806.5,124.7h20.1v47.5h-116.4v-47.5h21v-21.8l-88,0.2V58.7l90.9-107.9l72.5,0.2V60.8l37.5-0.3v42.4h-37.6V124.7z
			 M2731.3,60.5V21.8l-31.2,38.5L2731.3,60.5z"/>
	</g>
	<g>
		<path d="M2887.2,172.2l-0.2-53.6l14.9,0.2V15.2l-27.1,0.2v-42.6l109.3-27.6l1,173.5h15.8v53.5H2887.2z"/>
	</g>
	<g>
		<path d="M3103.6,126.3c4.3,0,8.4-0.4,12.5-1.2c4-0.8,7.9-2,11.7-3.8c3.8-1.8,6.8-4.3,9.2-7.5c2.3-3.2,3.5-7.1,3.5-11.6
			c0-5.2-1.3-9.7-3.8-13.5c-2.5-3.8-5.9-6.7-10.1-8.7c-4.2-2-8.5-3.4-13-4.3c-4.5-0.9-9.2-1.3-14.2-1.3c-4.3,0-8.7,0.6-13.2,1.7
			c-4.5,1.1-7.1,1.7-7.8,1.7c-1.5,0-2.6-0.3-3.3-0.8l-0.2-0.8V50.1l56.4-48V0.4H3095c-7.9,0-13.5,2.3-16.7,6.8
			c-1.7,2.4-3.6,8-5.9,16.8l-32-0.2v-74.8h176.4v43.6c0,0.3-15.6,13.4-46.9,39.1c15.8,1.4,29.5,8.3,40.8,20.6
			c11.4,12.3,17.1,26.2,17.1,41.6c0,26-9.6,46-28.8,60.1c-19.2,14.1-45.3,21.1-78.3,21.1c-17.4,0-32.3-1-44.8-3
			c-12.5-2-23.6-6.3-33.4-12.9v-57.1C3062.5,118.3,3082.8,126.3,3103.6,126.3z"/>
	</g>
</g>
<polygon points="2089.4,641.3 1258.8,641.3 1156.6,487.8 2191.6,487.8 "/>
<polygon class="st10" points="3008.6,357.7 2939.5,376.8 2876.2,357.7 2869.6,185 3015.1,185 "/>
<rect x="1521.1" y="448.8" class="st11" width="340.5" height="193.5"/>
<rect x="1164.8" y="523.3" class="st11" width="1030.6" height="24.5"/>
<rect x="1200.8" y="585.3" class="st11" width="958.5" height="18"/>
<g id="_x33_iCTbL.tif">
	<g>
		<path class="st12" d="M-490-4.6c4.8,5,11.5,4.4,17.5,5.9c4.6,1.2,4.8,2.6,1.6,6.6c2.3,2.6,3.5,5,0.3,8.4c-1.9,2-2.2,5.6-3.1,8.4
			c4.2,3.1,8,5.9,12.9,9.5c-2.9,0.2-4.3,0.2-5.6,0.3c0.8,2.7,1.6,5.4,2.3,7.5c2.1,2.3,4.1,4.6,6.2,6.8c-0.3,0.3-0.6,0.7-1,1
			c6.1,1.1,12.1,2.3,17.7,3.3c-0.8-8.5-7.9-9.8-13.1-13.1c1.9-1.3,3.6-2.5,5.8-4c4.2,4.7,11.5,6,15,12.1c0.8,1.4,1,3.2,1.8,5.9
			c1.1,0.7,3.3,2,6.3,3.8c-6.6,0.4-11.3-6-18.2-1.9c3.5,2.3,6.5,4.5,9.7,6.4c3,1.9,6.2,3.6,10.5,6c-22.6,0-43.7,0-65.3,0
			c0.2,3.3,0,6.6,0.7,9.8c0.3,1.5,2,3.3,3.5,3.8c6.6,2.2,13.4,4,20.1,5.9c10,2.8,13,6.7,10.2,16.7c-4,14.7-8.6,29.3-13.5,43.7
			c-18.7,54.8-37.5,109.6-56.4,164.4c-0.2,0.4-0.5,0.8-0.4,0.6c-25.3-82.2-50.8-164.7-76.4-248c-8.4,3-16.5,5.7-24.5,8.7
			c-1.2,0.5-2,2.5-2.5,3.9c-7.6,21.1-15.1,42.2-22.6,63.3c-3.8,10.6-7.6,21.3-11.6,32.5c-0.4-1.6-0.7-2.7-1.1-4.2
			c-3.9,3.1-7.7,5-9.2,10.2c-7.6,26.1-15.8,52-23.5,78c-4.1,13.8-7.8,27.8-11.5,41.7c-1.3,4.8-2,9.7-3.3,15.9
			c-3.5-12.5-6.8-23.6-9.8-34.7c-2.1-7.8-3.8-15.8-6.2-23.5c-2-6.6-5.3-12.8-7-19.4c-4-15.4-7.1-31.1-11.2-46.4
			c-1.5-5.4-4.8-10.4-7.3-15.5c-0.5-1-1.4-2.1-1.3-3.2c0.8-8.9-3.4-16.4-6.4-24.3c-0.6-1.5-0.9-3.2-1.2-4.8
			c-0.9-5.2,0.4-10.8-6.1-14.2c-2.2-1.1-1.9-6.9-2.8-10.6c-0.6-2.5-0.7-5.2-1.9-7.3c-6-10-2.1-20.7,8.9-23.9
			c7.8-2.2,15.6-4.4,23.9-6.7c-0.5-4.3-1-8.4-1.5-12.6c-2.7,0-5,0-7.7,0c0.1-1.8,0.2-3.3,0.3-5.3c-8.5,0.6-16.9,1.3-25.3,1.6
			c-8.6,0.4-17.3,0.5-26,0.4c-2.2,0-4.4-1.5-7.6-2.7c0.2-0.3-0.3,0.6-0.7,1.4c-5.7-0.7-11.4-1.4-17.2-2.1c-3.5-0.4-5.7-1.9-7.7-5.2
			c-2.7-4.3-7.2-7.4-10.9-11c-0.4,0.4-0.7,0.8-1.1,1.1c0.8,1.1,1.6,2.2,2.3,3.3c-0.5,0.3-0.9,0.7-1.4,1c-3.4-5-6.8-10-10.6-15.6
			c4,0.2,8,0.5,12.8,0.8c-2.6-1.7-4.6-3-6.6-4.3c0.1-0.3,0.3-0.7,0.4-1c0.8,0,1.6,0.1,2.8,0.2c-0.7-4-1.3-7.9-2.1-12.7
			c0-0.5,0-2,0-4.7c4,3.1,7.4,5.7,10.7,8.3c0.2-0.3,0.3-0.5,0.5-0.8c-1.5-2.4-3-4.8-4.4-7.1c0.4-0.4,0.8-0.8,1.2-1.2
			c1.7,0.7,3.5,1.4,5.5,2.3c0-0.7,0-1.4,0-3.5c5.1,6.4,11,4.1,16.8,3.9c5.7-0.2,11.5,1.2,17.2,1.5c2.7,0.1,7.1,2.1,6.7-4.1
			c-0.1-2,2.8-1.7,5.4-1.1c5.2,1.2,10.6,1.4,16,2c0.2-0.9,0.5-1.7,0.7-2.6c-5.3-2.4-10.7-4.8-16.4-7.4c6.2-0.5,12.2-1.1,18.2-1.4
			c0.9,0,1.8,1.5,2.9,1.9c1.2,0.5,2.7,1,4,0.8c3.6-0.7,7.1-1.7,10.6-2.8c1.3-0.4,2.3-1.6,3.4-2.5c-0.2-0.5-0.3-0.9-0.5-1.4
			c-3,0-6.1,0-8.8,0c1.2-1.9,2.1-3.4,3.1-4.9c-2.5,0.2-5,0.5-7.7,0.7c-0.7-1-1.7-2.5-3.3-4.8c-0.7,1.9-1,2.8-1,2.7
			c-4.5-0.7-8.8-1.7-13.1-1.9c-4.4-0.2-8.8,0.5-13.2,0.8c-0.1-0.5-0.3-1-0.4-1.5c1.6-0.9,3.3-2.6,4.9-2.5c7.4,0.2,14.8,0.8,22.2,1.5
			c7.6,0.7,15.1,2.7,22.4-1.2c-1.4-3.2-4.1-3.5-9.7-2.5c-4.3,0.7-8.7,0.1-13.2-0.6c4-4.7,9.4-2.6,14.4-3.3c-0.6-0.8-1.2-1.6-2.1-2.9
			c2.5-0.5,4.6-0.8,7.9-1.4c-3-0.4-4.9-0.6-6.7-0.8c0-0.5,0-1,0-1.5c5.2,0,10.4,0,15.5,0c2.6,0,5.3,0,7.8-0.5c0.9-0.2,1.9-2,2.1-3.2
			c0.2-1-0.5-2.2-1-3.2c-1.2-2.7-2.5-5.4-3.5-8.2c-0.2-0.4,0.6-1.7,1.2-1.8c1-0.3,2.5-0.5,3.3,0c1.9,1.1,3.4,2.6,5.3,4.1
			c-3.2,2.8-2.2,5.1,2.8,6.7c2.4-7.9,9.2-6.2,15.3-6.4c-2.6,1.4-5.3,2.8-7.9,4.2c0.1,0.2,0.1,0.5,0.2,0.7c3.4-0.3,6.9-0.6,10.3-0.9
			c0.1,0.3,0.1,0.7,0.2,1c-2,0.7-4.1,1.3-6.2,2c-0.2,0.9-0.4,2.2-0.9,4.5c4.6-0.4,9.5,0.2,13.4-1.4c4.9-1.9,0.9-7.8,3.1-11.2
			c10.1-1.5,18.9,1.3,26,8.3c-0.9,0.3-2.3,0.7-3.7,1.2c0,0.4,0.1,0.7,0.1,1.1c1.6-0.1,3.2-0.4,4.8-0.3c3.4,0.2,6.8,0,10,0.9
			c3.7,1,7,3.2,10.7,4.4c1.9,0.6,4.1-0.2,6.2-0.3c0-0.5,0-0.9,0-1.4c-1-0.2-2-0.4-3.9-0.7c2-1.7,3.6-3,5.1-4.4
			c1.1,1.3,2.1,2.6,3.5,4.3c-0.2,0.2-1.1,0.9-2.1,1.7c2.5-0.6,6.1,4.1,7.8-2.3c4.5,0,9.5,0,13.4,0c0.8,1.8,0.9,3.2,1.7,3.7
			c3.2,2.1,8.3,1.1,10.3-1.3c-2.7-2.5-5.3-4.9-7.9-7.3c0.9-6.2,6.7-2.6,9.6-5.2c-0.8,7,11.6,11.7,20.4,9.4c2.2-0.6,4.2-2.2,7-2.3
			c-3,2.2-6.1,4.2-9,6.6c-1.3,1.1-1.9,2.9-2.8,4.4c1.2,0.6,2.5,1.1,3.9,1.8c-1.1,1-2.3,2.1-3.5,3.1c0.1,0.4,0.3,0.9,0.4,1.3
			c2.5-0.5,5-1,7.8-1.5c-0.2-1.4-0.4-2.8-0.8-4.9c2.5,1.2,4.8,2.1,7,3.3c1.3,0.7,2.4,2.6,3.5,2.6c4.2-0.2,8.4,0.4,12.3-2.5
			c1.8-1.3,5.1-0.8,7.7-0.8c1.8,0,3.5,0.7,3.8,0.7c1.7,1.8,2.6,2.8,4.1,4.3c-3.2,0.2-6.4,0.4-9.6,0.7c0,0.4-0.1,0.8-0.1,1.2
			c3.1,0,6.8,1.1,9.1-0.2c5.5-3.2,9.9-0.9,16.1,1.7c-5.2,3.4-9.5,6.2-13.8,9.1c0.1,0.4,0.2,0.8,0.4,1.2c2.7,0,5.4,0.2,8.1-0.1
			c2.6-0.2,5.1-1,7.7-1.5c3.2-0.6,6.3-1.1,9.5-1.5c3.2-0.4,6.4-0.7,9.7-0.3c-0.8,0.2-1.6,0.3-2.3,0.5c2,3.6,1.9,3.4,4.6,1.4
			c2.8-2,5.8-3.6,8.7-5.4L-490-4.6z M-649.6,124c-2.2,5.3-4.2,10.6-6.6,15.8c-0.8,1.9-2.8,3.3-3.4,5.2c-1.1,3.9-3.9,7.7-0.5,13.4
			C-654.1,146.8-652.1,135.3-649.6,124z"/>
		<path class="st12" d="M-524.9,433.1c-0.1,7.1-0.2,6.9-7.5,8.4c-3.3,0.7-7.6,1.4-6.8,6.8c0.2,1.2-0.6,2.5-1.1,4.1
			c-1.7-0.3-3.3-0.6-4.8-0.9c-0.2,2.7,0.4,6.2-1,8.3c-1.2,1.9-4.7,2.4-7.5,3.6c0.2,0.8,0.8,2.5,1.3,4.2l0,0c-6.9-0.1-9.4,2-10.4,9.4
			c-1.5-1.6-2.7-2.9-3.9-4.1c-1.1-1.1-2.2-2.1-3.3-3.2c-0.4,0.3-0.8,0.6-1.1,0.9c1.3,2.3,2.5,4.6,3.8,7c-0.3,0.3-0.7,0.5-1,0.8
			c-2.2-3.2-4.4-6.4-6.6-9.5c-0.6,0.3-1.3,0.5-1.9,0.8c0.3,1.4,0.4,2.9,1.1,4.1c1,1.7,2.8,2.9,3.6,4.7c0.6,1.2,0.5,3.1-0.1,4.3
			c-0.4,0.8-2.9,1.4-3.3,1c-1.1-1.2-2.8-3.6-2.3-4.4c2.1-3.3-0.6-4.7-1.9-6.8c-2.6-4.2-5.2-8.5-8-13.1c4.2-0.7,5.3-3.2,3.6-7.1
			c2.7,0.4,4.9,0.6,8.6,1.1c-2.8-2.3-4.4-3.6-5.5-4.4c0.7-2.8,1.3-5.1,2.3-9c-2.6,1.7-4,2.7-5.4,3.6c-0.9,0.6-1.9,1.6-2.8,1.5
			c-2.5-0.1-4.1-0.4-5.5,2.7c-1.4,3.1-2.9,3.8-2.8,6.2c-5,1.3-5.6,0.9-6.9-4.7c-0.3,1.2-0.9,2.4-0.7,3.5c0.2,1.4,1.3,2.8,1.5,4.2
			c0.1,1.2-0.6,2.6-0.9,3.9c-1.2-0.9-3.1-1.5-3.5-2.7c-0.6-1.6-0.2-3.5-0.2-5.7c-2.4,0.6-4.4,1.1-6.5,1.6c-0.4-0.6-0.9-1.1-1.3-1.7
			c1.3-0.6,2.5-1.1,3.8-1.7c-0.5,0.1-1,0.3-1.5,0.4c-1.8-3.4-4.7-6.8-5.1-10.4c-0.2-2.1,3.5-4.7,5.4-7.1c-3.7-3.1-4.1-4.8-1.4-8.1
			c-5.2-1.3-9.3,0.7-8.9,4.5c-1.4-0.3-2.8-0.6-4.6-1c0.4,2.6,0.7,4.8,1.1,7.1c-0.3,0.1-0.6,0.2-0.9,0.3c-0.9-1.8-1.8-3.7-2.7-5.5
			c0.4-0.3,0.8-0.6,1.2-0.9c-1.5-0.1-3-0.2-4.9-0.4c0.5,1.8,0.8,3.2,1.3,4.9c-1.8-0.4-3.4-0.8-5.6-1.4c1.4,2.9,2.6,5.5,3.8,8
			c-0.2,0.2-0.5,0.4-0.7,0.6c-2.2-1.3-4.3-2.6-6.5-3.9c-0.3,0.3-0.6,0.6-0.9,0.9c1,1.3,2.2,2.5,3.1,3.8c0.6,1,0.9,2.1,1.4,3.2
			c-0.9-0.2-1.9-0.4-2.8-0.6c-1.7-0.4-3.5-0.7-5.9-1.2c-0.1,0.2-0.5,1.5-0.9,2.9c-1.6,0.1-3.3,0.2-4.3,0.2c-1,2.5-1.9,4.7-2.9,7.2
			c-1-1.2-1.9-2.2-2.9-3.3c-0.3,0.2-0.7,0.4-0.7,0.6c-0.6,4.4-0.9,8.8-7.3,8.6c-1.3,0-2.5,2.4-3.9,3.6c-2.6,2.2-5.3,4.4-8.3,6.8
			c0.7,1.2,2,3,3.3,5.2c-6.4-1.9-10.3-5.7-10.7-10.6c1.3,0.2,2.4,0.4,4,0.6c-0.7-1.6-1.3-2.9-2.1-4.7c3.7,0.2,7,0.4,10.8,0.6
			c0.7-6.4-4.1-11.2-6.3-17.5c3.1,2,5.8,3.7,9.2,5.8c-1.8,0.5-2.9,0.8-4.6,1.3c2.6,2.8,4.8,5.1,7.1,7.6c0.8-2.1,1.4-3.8,2.4-6.5
			c-10.4-8.8-15.9-22-24.5-33.1c0.2-0.4,0.5-0.8,0.7-1.2c2.9,1.1,5.8,2.1,9,3.3c-2-3.3-3.5-6.6-5.8-9.4c-2.1-2.6-4.5-1.9-6.5,0.7
			c-1.3,1.6-3.1,2.9-5,4.5c0,0.7-0.1,2.4-0.2,4c-0.3,0-0.6,0.1-0.9,0.1c-1.4-3-2.9-6-4.3-9.1c-0.3,0.1-0.5,0.2-0.8,0.3
			c0.8,2.6,1.6,5.3,2.3,7.8c-1.1,1.9-2.3,4-3.4,5.9c-1.4-1.7-3-3.8-5.3-6.5c-1.1,4.2-1.8,7-2.6,10.2c-5-4.9-4.6-9.2,0.6-13.5
			c1.7,0.7,3.4,1.4,5.3,2.3c-1.2-11.2,3.4-20.5,6.1-30.3c1.2-4.1,3.2-8,4.3-12.2c0.7-2.7,0.6-5.7,0.8-7.8c1.9-2.9,4.3-5.3,5.3-8.2
			c2.4-6.6,4.1-13.5,6.4-21.4c-1.7,1.9-2.7,3-3.7,4.1c-0.2-0.1-0.4-0.2-0.7-0.3c1.7-5.3,3.4-10.5,5.2-16.3c-1.6,0.8-2.7,1.3-5.2,2.5
			c16.2-46.3,31.9-91.3,48.1-137.6c2.3,7.5,4.1,13.9,6.1,20.3c6.3,20,12.6,39.9,18.8,59.8c0.9,3,3.9,6.1,0.2,9.4
			c-0.4,0.4,0.3,2.1,0.7,3.2c4.5,14.4,9.6,28.6,13.4,43.2c3,11.6,4.5,23.7,6.6,35.6c0.6,3.4,1.2,6.8,1.2,10.5
			c-1.1-2.4-2.2-4.9-3.2-7.3c-0.4,0.1-0.8,0.1-1.1,0.2c0.1,1.4-0.2,3,0.3,4.3c2.3,5.4,4.9,10.8,7.4,16.1c0.7,1.5,1.6,3,1.6,4.5
			c0,3.6-0.3,7.2-0.9,10.7c-0.2,1.1-1.5,1.9-2.6,3.3c9.9,1.1,3.5,13.3,11.9,16.2c-1.6,1.2-2.6,1.9-3.7,2.7c3.9,1.5,5.2,0.8,5-2.5
			c-0.1-2.7-0.1-2.5,2.4-2.5c1.5,0,2.9-1,5.1-0.5c0.7-1.4,1.4-2.8,2.3-4.5c1.4,2,2.1,3.7,3.3,4.6c1.3,0.9,3.6,1.9,4.6,1.3
			c6.6-3.8,7.5-3.5,8.7,3.9c-1,0.2-2,0.3-3.1,0.5c-0.3,0.4-0.5,0.8-0.8,1.2c2.5,2.1,5,4.4,7.7,6.2c2.7,1.8,5.7,3.2,8.3,5.3
			c4.9,0.4,1-3.2,2-5.5c1.7-1,3.3-2.4,5.6,0.3c0.9,1.1,3.3,0.8,5.1,1.2L-524.9,433.1z M-567.5,452.4c0.4-0.3,0.8-0.6,1.3-0.8
			c-1.8-3-3.6-6-6-9.9c2.1,1.1,3.2,1.7,4.6,2.5c-0.4-2.1-0.7-3.7-1-5.3c0.6-0.4,1.2-0.7,1.8-1.1c0.3,1.2,0.6,2.4,0.8,3.6
			c0.1-0.3,0.2-0.6,0.4-0.9c0-2.4,0-4.7,0-7.2c-3.8,2-8,4.3-12.9,6.9c1.1,2,2.1,3.8,3.2,5.7c3.1-2.6,3.2,0.9,4.3,2.2
			C-569.8,449.4-568.6,450.9-567.5,452.4z M-664.1,445.9c-1.6-1.8-3.4-3.8-5.2-5.9c-0.3,0.2-0.6,0.5-0.9,0.7
			c2.4,3.3,4.8,6.6,7.3,10.1c1.9-3.6,3.3-6.3,4.7-9c-0.6-0.4-1.3-0.8-1.9-1.2C-661.4,442.3-662.6,443.9-664.1,445.9z M-658.5,408.5
			c-2.7-1.7-5.2-3.1-8.1-4.9c1.3,3.8,2.3,6.7,3.1,9C-661.9,411.3-660.3,410-658.5,408.5z M-673.3,406.8c-0.7,0.5-1.4,1-2,1.5
			c2,2.6,4,5.2,6,7.8c0.5-0.4,1.1-0.8,1.6-1.2C-669.6,412.2-671.5,409.5-673.3,406.8z"/>
		<path class="st12" d="M-468.8,334.3c-1.2-3.5-4.2-3.4-7-3.4c-2.6,0-5.3,0.4-7.3,0.6c0.7,1.7,2,3.7,2.2,5.7
			c0.1,0.7-2.2,2.2-3.6,2.5c-2.4,0.6-4.9,0.6-7.7,0.8c0.6,2.8,1.1,5.3,1.7,8.2c-1.5,0.2-2.7,0.3-4,0.4c-1.5,2.9,0.6,9.1-6.5,7.3
			c0.8,1.4,1.4,2.6,2.1,3.9c-0.2,0.3-0.5,0.5-0.7,0.8c-2.4-1.5-5-2.7-7-4.7c-0.8-0.8-0.8-3.6-0.1-4.8c11.1-18,16.2-38.5,23.9-57.9
			c2.7-6.8,5.2-13.6,8.1-20.4c3.7-8.7,7.7-17.2,11.5-25.8c3.2-7.2,6.4-14.5,9.4-21.8c0.7-1.6,0.1-3.7,0.1-5.6c0-1.2-0.4-2.7,0.2-3.4
			c7.2-9,7.5-20.9,12.9-30.7c3.1-5.8,6.4-11.6,8.7-17.7c3.2-8.2,5.5-16.7,8.2-25c0.6-1.8,1.4-3.5,2.8-5c-0.7,2.7-1.4,5.5-2.1,8.2
			c0.3,0.1,0.6,0.2,0.9,0.3c1.5-3.4,3-6.9,4.5-10.4c-4.4-1.3-4.3-3.6,0-12c0.3,0.3,0.6,0.6,0.8,0.8c0.2,0.3,0.3,0.6,0.4,0.9
			c4.6-5.8-5.5-3.5-4.3-7.6c-1.8,3-3.5,5.9-5.3,8.9c-0.3-0.1-0.5-0.2-0.8-0.3c1.6-4.3,3-8.7,4.9-12.8c0.5-1.1,3.2-1,3.8-2.1
			c2.7-4.7,5.5-9.5,7.4-14.6c1.3-3.5,3.3-5.7,6.5-6.8c6.3-2.1,12.6-4.2,19-5.9c1.3-0.3,3.2,0.8,4.5,1.7c5.2,3.4,7.2,10.3,14.2,12
			c1.8,0.4,2.6,4.8,3,7.9c-4.7-1.2-9.7,0.2-12.2-5.7c-0.9-2.2-6.2-2.5-9.5-3.7c-0.3,0.6-0.5,1.2-0.8,1.8c5.8,5.2,11.6,10.4,18,16
			c0.9-2.5,1.6-4.5,2.4-6.7c3.8,1.4,5.1,4,4.6,7.4c-1.3,8.8-1.3,8.8,6.2,14c-2.7,1.9-5.3,3.7-7.9,5.5c6.1,12.7,5.3,18-4.8,29.5
			c4.8-1.6,5.5,0.1,4.6,4.2c-0.8,3.3-0.5,6.9-0.7,11.7c-3.1-0.3-6.5-0.7-10.7-1.2c3.2,2.1,5.8,3.8,8.4,5.5c-1.4,1.3-3.3,2.1-3.5,3.3
			c-0.2,1.2,1,2.8,1.9,4.9c-2.1,1.9-4.6,4.1-7.3,6.6c0,2,0.6,5.2-0.1,8.1c-0.9,3.9-3.1,6.9-8.2,5.6c-1.6-0.4-3.5,0.2-6.3,0.5
			c2.5,2.2,4.1,3.5,5.6,4.9c-1.6,4.9-3.9,6.3-8.9,4.9c-1.3-0.3-2.5-1.1-3.7-1.3c-0.8-0.1-1.6,0.5-2.5,0.8c0.5,0.7,0.8,1.6,1.5,2.1
			c2.8,2,5.7,3.9,8.2,5.5c-2.6,1.9-4.7,3.6-7.4,5.6c-2.2-0.8-5.2-2-8.1-3.1c-0.2,0.3-0.5,0.7-0.7,1c2.8,2,5.6,3.9,8.5,6
			c-2.3,0.3-5.2-0.2-5.8,0.9c-0.9,1.4,0.2,3.9,0,5.9c-0.2,1.7-0.9,3.4-1.5,5c-0.6,1.7-1.3,3.3-1.5,3.8c-2.8,1.7-5.7,2.5-6.6,4.3
			c-1.3,2.5-2.6,5.9,0.8,8.6c2.4,1.9,2.4,4.4,0.5,7c-0.8,1.1-0.9,2.7-1.5,4.5c-2.1-0.5-5.8,0.6-2.7-4.2c0.9-1.4,0.2-4-0.4-5.9
			c-0.2-0.6-2.2-0.6-2.9-0.8c-0.8,6.5-7.4,7.3-9.8,10.6c0,4.7,0,8.6,0,12.9c-2,0.2-4.2,0.5-6.5,0.8c0.6,1.5,1.2,2.7,1.7,3.9
			c-2.7-0.6-5.4-1.1-8.8-1.8c-0.8,2.9-5.7,4.9-3.2,10c0.3,0.5-0.4,2-1.1,2.4c-1.9,1.3-4,2.3-6.6,3.7c-1.2-0.8-2.9-2-4.4-3.1
			c-1.9,1.7-3.7,3.3-5,4.4c0.8,4.8,1.6,9.8,2.5,14.7c-0.6,0.3-1.2,0.6-1.9,1c-2-1.1-3.9-2.2-5.9-3.4c-0.3,0.1-0.6,0.2-0.8,0.3
			c1.4,1.5,2.7,3,4.2,4.7c-1.4,1.1-3.1,2.5-4.7,3.8L-468.8,334.3z"/>
		<path class="st12" d="M-902,285c0.9-4.6,1.7-9.2,2.6-13.7c0.4,0,0.7-0.1,1.1-0.1c1.1,2.7,2.2,5.4,3.3,8.1c0.4-0.1,0.9-0.1,1.3-0.2
			c-0.8-5.5-1.6-11-2.5-17.1c1.5,0.9,2.3,1.4,3.6,2.2c-0.9-1.9-1.5-3.2-1.6-3.6c1-2.6,1.7-4.5,2.5-6.5c0.2,0.2,1.2,0.8,2.3,1.6
			c4.7-6.5,5.1-15.9,13.4-19.7c-0.5-1.1-0.9-2-1.3-2.9c0.3-0.3,0.5-0.7,0.7-0.7c7.4-1.7,9-8.8,12.4-14.1c0.5-0.8-2-3.7-3.3-6
			c1-0.5,2.2-1,3.5-1.5c1.1,1.3,2.3,2.8,3.8,4.6c1.4-1,2.7-1.9,4.5-3.1c-2.7-2.6-5.1-5-7.6-7.3c0.3-0.4,0.7-0.7,1-1.1
			c1.3,1,2.5,1.9,3.8,2.9c0.3-0.3,0.7-0.6,1-0.9c-2.9-3-5.3-6.8-8.8-8.9c-4.1-2.5-6-4.6-2.9-9.2c0.7,0.5,1.5,1.2,2.4,1.9
			c0.4-2.2,0.2-4.6,1.3-5.9c1.2-1.5,3.6-2.7,5.5-2.8c2-0.2,4.4,0.3,3.9,4c-0.2,1.4,2.7,3.2,4.1,4.8c1.3-1.1,2.1-1.9,2.9-2.6
			c-2.7-3.4-5.2-6.7-8.2-10.5c1.4,0.5,2.2,0.8,3.2,1.2c0-0.8-0.1-1.5-0.1-2.9c1.6,1.7,2.9,3,4.9,5.2c0-2.8,0-4.6,0-7.6
			c4,1.4,7.7,2.8,11.4,4.1c-0.1-0.4-0.3-1.7-0.7-3.5c2.4,1.2,5.5,3.5,4.8-2.8c4.8,7.3,37.6,111.7,36.6,115.4c-0.8-0.5-1.6-1-2.8-1.8
			c-0.4,1.4-0.8,2.7-1.3,4.4c-1.2-1.3-2.1-2.4-3.6-4.1c0.2,2.9,0.4,5.1,0.6,7.8c-1.7-2.1-3.1-3.9-4.5-5.7c-0.4,0.2-0.9,0.5-1.3,0.7
			c1.5,2.7,3,5.4,4.5,8.1c-0.3,0.2-0.6,0.3-0.8,0.5c-1.2-1.5-2.3-3-3.7-4.9c-0.1,4.9,6.4,15.3,11.4,17.2c-1.5,1.9-2.8,3.5-4.1,5.1
			c-0.7-0.7-1.4-1.4-2.1-2.1c-1.2-3-2-6.2-3.5-9c-3.1-5.4-3.6-5.6-6.6-1.5c-1.6,2.3-1.9,5.7-2.2,8.7c-0.1,0.5,2.9,1.3,4.4,2
			c0.7,0.6,1.4,1.2,2,1.7c6.7,1,6.6,6.5,7.7,10.6c-3.3,1.1-6.3,2-8.9,2.9c2.2,4.2,3.9,7.6,5.6,11c-3.1,0.7-8.5-3.5-9.7-7.6
			c-1-3.4-2.3-6.9-3.9-10c-0.8-1.5-1.9-4-4.9-1.3c-1.2,1.1-4.4-0.1-6.8-0.2c1.1,3.2,2.1,6.3,3.5,10.3c4.3,1.3,5.9,6.9,9.7,10.4
			c-0.3,0.3-0.6,0.6-0.9,0.9c-1.6-1.9-3.3-3.7-5.2-5.8c-0.9,3-2.7,5.7,2.4,6c1.3,0.1,2.6,2.2,3.6,3.7c0.2,0.2-1.2,1.5-2.5,3.1
			c4.1,7,8.6,14.8,13,22.6c-0.3,0.2-0.6,0.4-0.9,0.6c-2-3.2-4.2-6.3-6.1-9.5c-1.9-3.3-3.2-7.3-8.1-3.5c-0.2,0.2-0.9-0.3-1.4-0.4
			c0.7,8.2,2.9,10.4,9.4,9c0.6,1.2,1.3,2.5,2.6,5.1c-3-0.6-4.8-1-7.5-1.6c1.1,2.9,2.3,6,4,10.3c1-2.2,1.4-3.1,2-4.3
			c1.3,2.1,2,3.2,2.6,4.1c-1.2,1-2.3,1.9-4.2,3.5c-4-1.3-4-1.3-6,5.1c-1.6-1.4-3-2.6-4.4-3.8l0.1,0.1c-1.1-1.5-2.1-2.9-3.2-4.4
			c-1-7.1,0.2-8.4,7-5.7c-5-6.6-9.1-12.1-13.7-18.2c1.6,7.5-5,6.8-8.2,10.3c-1.1-1.6-2-2.9-3.3-4.8c-1.1,1.8-1.7,3-2.4,4.2
			c-1.8-1.8-2.3-5.9-6.2-3.5c-0.6-1.1-1.6-2.2-1.7-3.4c-0.2-1.5,0.4-3,0.7-5c3.3,0.6,3.6-1.7,1.9-4c-2.4-3.3-4.8-6.7-7.5-10.4
			c-0.3,1.3-0.5,2.4-0.8,3.7c-3.1-4.3-6-8.4-8.9-12.5c0.2-0.2,0.4-0.4,0.6-0.6c1.1,0.9,2.1,1.7,3.4,2.7c-0.4-1.9-0.7-3.8-1.2-6.6
			c1.5,1.4,2.3,2.1,3.1,2.8c0.4-0.4,0.7-0.7,1.1-1.1c-2.7-2.7-5.7-5.1-8.1-8c-2.9-3.5-5.3-7.5-8.4-12.1c2.2,1,3.5,1.7,5.5,2.6
			c-2.1-3.5-4-6.5-5.9-9.6c0.3-0.2,0.5-0.4,0.8-0.5c1,1,2,1.9,3.9,3.7c-1.2-2.8-1.9-4.5-3.1-7.2c1.7,1,2.5,1.4,4.1,2.4
			c-1.9-3.8-3.4-6.8-4.9-9.8c-0.3,0.2-0.7,0.3-1,0.5c-0.1,0.7-0.2,1.4-0.3,3c-3.2-4.4-6-8.2-9.4-12.9c0.9,3.2,1.6,5.3,2.6,8.7
			c-2.4-2.7-4-4.5-6.2-7.1c0.3,1.9,0.4,3,0.5,4c-1.9,0.6-3.7,1.1-5.6,1.7C-901.2,286.5-901.6,285.8-902,285z M-842.9,194.5
			c-1.8,0.3-3.6,0.6-5.4,0.8c0.4,1.9,0.6,3.9,1.2,5.7c0.5,1.3,1.3,2.6,2.2,3.6c0.5,0.6,1.6,0.8,1.8,1c0-3.5,0-6.7,0-9.8
			c1.4,2.7,2.9,5.4,4.3,8.2c0.3-0.1,0.5-0.2,0.8-0.3c-0.4-1.8-0.7-3.7-1.1-5.7c1.2,0.3,2.1,0.6,4,1.1c-2.1-2.8-3.5-4.8-4.9-6.6
			C-841.1,193.2-842,193.9-842.9,194.5z M-875.7,285.8c-0.7,1.6-1.8,2.9-1.5,3.4c2.3,4.3,4.8,8.5,7.3,12.7c0.4-0.2,0.8-0.5,1.2-0.7
			c-1.2-7.1-1.4-14.6-9.1-18.7C-876.9,283.9-876,285.2-875.7,285.8z M-855.2,306c1.5,0,3.1,0,4.3,0c-0.4-2.8-0.5-5.4-1.1-7.9
			c-0.5-2.2-1.6-4.4-2.4-6.6c-0.5,0.2-1.1,0.4-1.6,0.6c0.2,2.2,0.4,4.4,0.7,6.6c-0.8-0.1-1.8-0.3-3.5-0.6
			C-857.4,301.1-856.3,303.5-855.2,306z M-846.1,275c-2.5-12.5-2.5-12.5-6.4-13.9C-855.1,266.2-853.5,270-846.1,275z M-838.7,328.6
			c-0.2-1.4-0.2-3.1-0.7-4.7c-0.3-1.2-1.2-2.2-1.8-3.3c-1.3,0.8-2.7,1.4-3.7,2.5c-2.9,3.1-1.4,6,0.6,8.8
			C-842.3,330.6-840.5,329.6-838.7,328.6z M-868.7,319.7c0-2.4,0-3.4,0-4.3c4.7,0.6,1.8-2.6,1.3-3.4c-1.8-2.8-4-5.4-5.7-7.5
			c-1.2,0.4-2.3,0.9-3.1,1.2C-874,309.8-871.7,314.1-868.7,319.7z M-861.6,289.7c-1-3.4-2.1-6.7-3.1-10.2
			C-869.1,281.6-868.9,282.5-861.6,289.7z M-851.5,201.5c-0.9,0-2.1,0-3.6,0c2.3,2.7,1.4,8.1,7.1,7.3
			C-849.2,206.3-850.3,204-851.5,201.5z"/>
		<path class="st12" d="M-816.2,459.6c-1.4-1.3-2.8-2.6-3.5-3.3c-3.2-0.7-5.7-1.3-8.2-1.8c-0.1-0.7-0.2-1.3-0.2-2
			c1.7-1.1,3.4-2.2,5.1-3.2c1.9-3.1-0.5-5.3-4.6-3.7c-1.7,0.7-3.2,1.5-4.4,2.1c0,2.7,0,5.2,0,7.8c1.8,1.4,3.7,2.9,5.3,4.1
			c-1.9,2.5-3,4-4.4,5.8c-3.2-2.2-5.5-7.8-12.5-8.7c2.4,4.5,10,4.7,5.6,11.2c-1.4-2-2.8-4.1-4.2-6.1c-0.3,0.2-0.6,0.4-0.9,0.5
			c1.1,2,2.1,4,2.9,5.3c-2.5-0.6-5.1-1.2-8-1.9c0.1,1.4,0.2,2.2,0.3,3.1c-3.3-3.7-6.3-7.2-9.1-10.3c-1.8,4.7-3.3,8.5-5.2,13.4
			c-1.3-2.5-1.9-4-2.9-6c-1.8,2.7-3.1,5.4-5.1,7.4c-2,2-4.5,4.4-7.1,4.8c-4.9,0.7-5.3,2.3-2.8,6c0.4,0.6,0.2,1.5-0.6,2.6
			c-0.7-1.2-1.1-2.6-2-3.6c-0.6-0.6,0-4.4-2.6-1.3c-0.4-1.3-1.6-3.6-1.2-3.8c3.6-2.5,1.2-4.4-0.2-6.6c-0.9-1.4-1.5-2.9-2.6-5
			c3.7-0.1,5.4-0.1,5.1,3.6c-0.1,1.4,2.3,3,3.5,4.6c0.3-0.3,0.7-0.6,1-0.8c-1.2-2.2-2.3-4.4-3.5-6.5c0.3-0.3,0.5-0.5,0.8-0.8
			c1.1,0.7,2.1,1.4,3.2,2.1c0.2-0.3,0.5-0.6,0.7-0.8c-2-1.7-3.9-3.3-5.9-5c-0.3-0.2-0.8-0.1-1.2-0.2c0.2-0.7,0.2-1.6,0.4-1.6
			c8.2-1.7,10.6-9.8,16.3-14.5c0.7,0.7,1.3,1.4,2,2.1c0.2-0.2,0.6-0.5,0.6-0.7c-1.1-4.9,2.6-6.4,5.7-8.9c5.5-4.5,10.4-9.8,15.7-14.6
			c2-1.8,4.4-3,6.4-4.8c0.9-0.8,0.9-2.5,0.3-4.4c-0.3,0.6-0.6,1.2-0.6,1.2c-2.3-3-5-5.8-7-9.1c-1.6-2.5-3.3-5.4-0.3-9.8
			c1.2,2.2,2,3.7,2.9,5.3c0.5,0.8,1.1,1.6,1.7,2.3c0.7,0.9,1.6,1.6,2.1,2.6c1.1,2.5,2,5,3,7.5c0.5-0.1,1-0.2,1.6-0.3
			c1.3-2.3,2.7-4.6,4.1-7c0.1,0.1,0.9,0.7,2.5,2.1c-1.9-7,2.5-9.1,7-11.4c0.7,1,1.4,2.1,2.5,3.6c0.8-1.7,1.4-2.9,2.1-4.2
			c1,0.4,1.9,0.7,2.9,1.1c-0.4-3.1-0.8-6.1-1.1-8.8c1.9,0.1,4,0.3,7.2,0.5c0.2,0.2,1.3,1.5,2.5,2.7c0.3-0.2,0.6-0.4,0.8-0.5
			c-0.6-1.4-1.1-2.8-1.8-4.3c0.9,0,1.6,0,2.5,0c-0.4-1.1-0.7-2-1.2-3.4c1.4,0.8,2.5,1.3,3.6,1.9c1.5-2.4,3.1-4.8,4.7-7.4
			c0.6,0.2,1.7,0.6,2.9,1.1c0.3-1.3,0.5-2.3,0.8-3.8c1,0.7,1.9,1.2,1.9,1.2c3-1,5.2-1.7,7.9-2.6c0.4,2.7,0.7,4.3,1,5.9
			c0.2,0,0.4,0,0.6,0c0.1-1.5,0.3-3,0.4-5.4c1.6,2.3,3,4.1,4.3,5.9c-2.2,1.5-4.5,3-6.8,4.5c3,5.6,5.1,2.5,7.8-1
			c1.6,4.4,3.1,8.4,4.5,12.3c0.7,1.9-1.2,4.5,1.7,6c0.4,0.2-0.5,3-0.8,4.6c-0.5,0-1,0-1.5-0.1c1.3,2.9,2.7,5.9,4.4,9.6
			c0.6-1.8,0.9-2.7,1.2-3.6c0.5,0.3,1.5,0.8,1.5,0.9c-0.7,2.1-1.5,4.1-2.6,6.7c0.2,0.1,1.3,1,3,2.3c0.6-2.5,0.9-4.1,1.3-5.9
			c1.8,4.1,3.8,7.3,8.9,4.1c0.5-0.3,2.5,0.4,2.7,1c2.3,6.2,7,6.8,12.5,5.8c1.6-0.3,3.3-0.2,5.7-0.3c-0.6,2.2-1.1,3.8-1.8,6.3
			c-1.8-2-3-3.3-3.9-4.2c-1.4,4.4-2.8,8.7-4.6,14.6c-1.7-2.3-2.6-3.5-3.8-5.2c-0.4,1.2-1,2.1-0.8,2.6c2.8,5.4-0.4,12.4,4.6,17.4
			c0.3,0.3-1.7,3-2.6,4.5c-0.4-0.2-0.8-0.4-1.2-0.5c0.5,1.3,1,2.6,2,5.4c-2-2.3-3.1-3.4-4.7-5.2c-0.3,3-0.6,5.5-1,8.9
			c-1.4-0.3-3.3-0.6-4.8-0.9c-0.5,1-1.3,2.5-2.8,5.2c0.7,2.6,1.9,6.9,3.2,11.4c4.5-0.1,8.3-1,8.6-7.5c2.3,3,4,5.1,5.6,7.2
			c0.4-0.2,0.8-0.4,1.1-0.5c-0.7-2.1-1.4-4.2-2.2-6.3c0.4-0.2,0.9-0.3,1.3-0.5c0.8,2.2,1.4,4.4,2.5,6.4c0.5,0.9,1.9,1.3,2.9,1.9
			c0-1.1,0.4-2.4,0-3.4c-0.7-1.8-2.2-3.3-2.8-5.2c-0.3-0.9,0.4-2.5,1.1-3.4c0.4-0.5,2.2-0.8,2.6-0.4c0.9,0.8,2.1,2.7,1.8,3.2
			c-2.8,4,0.6,6.7,1.8,9.8c1.2,3.1,2.5,6.1,3.6,8.8c-1.7,1.9-3.3,3.6-5.5,6c-0.6-0.1-2.3-0.5-4.8-1.1c1.4,1.7,2.2,2.8,3.2,4
			c-2.1,1.1-3.9,2-6.5,3.3c-2.4-4.9-4.8-9.8-7.5-15.3c-0.2,6.6,3.3,11.5,5.4,17.2c-1-0.8-2-1.6-3-2.4c-1.7,0.7,3,5.1-2.3,4.2
			c0.1,0.9,0.3,2,0.5,2.8c-2.9,1.8-5.6,3.5-8.8,5.5c-0.9-0.7-2-1.7-3.4-2.9c-0.1,1.2-0.2,2.1-0.3,3.9c-4.6-5.6-13-6.9-13.4-14.6
			c1.3-2.1,2.9-3.5,3.3-5.3c0.8-3.6,2.3-5.1,5.8-2.8c1.4-9.3,1.8-9.7,10.1-8.3c-1.9-2.5-2.9-4.4-4.3-5.8c-1.6-1.5-3.7-2.4-5.5-3.6
			c0.6-0.3,1.1-0.5,1.7-0.8c-0.2-1.2,0.1-3.1-0.6-3.5c-3.3-1.8-6.6-2.6-8.7,1.9c-0.7,1.4-1.9,2.5-3.4,4.5c-0.8-1.9-2-3.5-1.7-4.1
			c4-6-2-9.2-3.6-13.5c-1.1-2.8-2.5-5.5-3.8-8.2c0.4-0.2,0.8-0.4,1.2-0.6c3,4.6,6,9.3,9.1,14.2c3-3.1,3.6-5.7,1.5-8.7
			c-3.3-4.8-6.3-9.7-9.7-14.4c-1.1-1.5-3-2.3-5.3-4c0.2,6.2-2.9,7.9-7.6,8.5c-5.7,0.7-4.5,5.5-4.7,9.2c-2.3-0.6-4.7-2-6.6-1.5
			c-1.9,0.5-3.4,2.8-5.4,4.7c-1.5-3.1-2.6-5.7-3.8-8.2c1.3,0.5,3.3,1.7,3.7,1.2c2.6-2.6,4.8-5.5,7.5-8.6c2.2,0.8,6.9-2.9,6.8-6.1
			c3-0.7,5.7-1.3,9.5-2.2c-4.1-4.4-7.9-8.3-12.5-13.2c1.1,3.5,1.8,5.8,2.5,8.1c-0.4,0.2-0.8,0.4-1.2,0.6c-2.2-3-4.3-6-5.6-7.7
			c-3.1,1.3-5.1,2.2-7.2,3.1c0.3,1.4,0.7,3.2,1.4,6.1c-3.1-3.3-5.3-5.7-7.5-8c3.8,3.8,1.2,13.3,10,12c0.6,6.3-0.2,7.1-5,6.5
			C-814.6,454.2-815.4,456.9-816.2,459.6z M-768.9,447.3c-0.3-4.4-3.6-7.6-9-7c3,2.3,6.1,4.6,9.1,6.9c-1,2.4-2.1,4.9-3.6,8.5
			c-0.8-2.6-1.3-4.6-1.9-6.6c-0.8,3.4-4.9,7.6,2.5,8.6c0.3,0,0.6,0.8,0.9,1.1c2,1.9,4.1,3.7,6.2,5.5c0.2-0.2,0.5-0.4,0.7-0.7
			c-1.1-1.9-2.2-3.9-3.7-6.7c3.2,0.3,5.3,0.5,8.2,0.7C-763,453.8-765.9,450.6-768.9,447.3z M-739.1,493.8c0.2-0.4,0.4-0.8,0.6-1.2
			c-1.5-0.7-2.9-1.8-4.4-2c-0.9-0.1-2,1.2-3,1.9c1.1,1.1,2.2,2.3,3.3,3.4c0.7,0.7,1.3,1.5,2,2.1c1.6,1.2,3.3,2.3,4.9,3.4
			c0.2-0.3,0.4-0.6,0.6-0.9c-2.3-2.2-4.5-4.4-6.8-6.7c0.2-0.3,0.5-0.5,0.7-0.8C-740.5,493.3-739.8,493.5-739.1,493.8z M-788.4,398.8
			c3.9-5.5-1-6.7-3.6-9c0.3,2.5,0.6,5,1,8.2C-790.9,398-789.7,398.4-788.4,398.8z"/>
		<path class="st12" d="M-700.1,470.4c-5.8,1.2-11,3.4-13.4,8.6c0,2.5,0,5.1,0,7.6c-0.4,0-0.8,0-1.2,0c-0.3-4.3-4.1-7.2-8.2-5.8
			c-0.5,0.2-0.8,2.6-0.4,3.6c1.1,2.4,2.8,4.5,4.1,6.8c0.9,1.7,1.6,3.6,2.3,5.4c-0.4,0.3-0.7,0.5-1.1,0.8c-2.4-3.5-4.7-7.1-7.8-11.7
			c0.4,3.2,0.6,5.1,1,8c-2.7-3.8-4.8-6.8-6.4-9c2-2.7,4.2-5,5.7-7.7c1.9-3.5,4.1-5.2,7.9-3.2c2.7-10.7,4.1-11.5,13.4-7.9
			c-1-1.8-1.7-3-2.6-4.5c6.3-0.3,6.1-6,9.3-9.9c0.7,3.9,1.5,7.8,2.2,11.8c-4.1,0.4-4.9,3.2-4.7,6.7
			C-699.8,470.1-700,470.3-700.1,470.4z"/>
		<path class="st12" d="M-699.7,470c1.8,0.6,3.6,1.4,5.4,1.7c2,0.3,4,0.1,6.4,0.1c-0.3-2-0.5-3.7-0.7-5.3c0.3-0.2,0.6-0.4,0.9-0.6
			c3,4.1,6,8.3,9,12.4c-0.4,0.4-0.8,0.9-1.2,1.3c-1.9-1.4-3.8-2.8-6.7-5c-1,3.8-1.9,7.3-2.9,11.5c-1.9,0.8-4.8,2-6.9,2.9
			c-1.9-2.9-3.8-5-4.6-7.4c-0.6-1.7,0.5-3.9,0.7-5.9c0.2-1.8,0.1-3.6,0.2-5.4C-700,470.3-699.8,470.1-699.7,470z"/>
		<path class="st12" d="M-481.4,378.8c-12,2.4-23.9,4.7-35.9,7.1c-0.2-0.6-0.5-1.3-0.7-1.9c2.6-1.1,5.2-3,7.8-3.1
			c4.7-0.2,9.1-2.9,10.3-7.5c1.9,0.4,3.9,0.7,6.7,1.2c0.4,0.5,1.5,2.1,3.2,4.5c0.8-1.9,1.2-2.9,1.6-4c2.1,0.8,4.5,1.6,6.8,2.4
			C-481.5,377.9-481.5,378.4-481.4,378.8z"/>
		<path class="st12" d="M-552.3,467.7c1.3-0.2,2.5-0.3,3.8-0.7c2.1-0.5,4.2-1.2,6.1-1.8c3.5,1,7.4,2.2,11.1,3.3
			c-5.5,10.3-6.6,10.9-14.4,7.1c0.3-1.7,0.5-3.4,0.8-5.6C-547.4,469.3-549.9,468.5-552.3,467.7L-552.3,467.7z"/>
		<path class="st12" d="M-730.3,437.8c1.5-2.3,2.4-3.8,3.4-5.3c0.8-1.2,1.7-2.3,2.5-3.4c1.1,0.9,2.4,1.7,3.2,2.8
			c1.6,2.1,2.8,4.4,4.7,7.4c-2,1-3.7,1.9-6.5,3.3c0.7,1.7,1.9,4.5,3.1,7.3c-0.5,0.3-1.1,0.6-1.6,1
			C-724.7,446.2-727.8,441.5-730.3,437.8z"/>
		<path class="st12" d="M-556.8-38.8c-5.1-0.2-10.1-0.6-14.8-3.2c-1.3-0.7-3.7,0.6-5.7,1.1c-2.6,0.6-5.2,1.3-7.8,2
			c-0.2-0.6-0.3-1.1-0.5-1.7c2.5-0.6,5-1.2,7.5-1.8c0-0.3,0-0.5,0-0.8c-1.5-0.2-3-0.4-5.5-0.7c1.2-1.5,2-2.6,3.1-3.5
			c0.1-0.1,1.4,1.1,2.5,1.9c0.9-0.6,2.3-1.5,4-2.6c1.2,3.4,3.4,4.1,6.7,2.9c0.9-0.3,2.4,1.1,3.2,2.3c2.8,2.2,9-5.9,9.5,3.7
			C-555.3-39-556.1-38.9-556.8-38.8z"/>
		<path class="st12" d="M-541.7-20.9c-5.6,4.1-11.7-0.5-18.3,1c5.8-4.6,10.9-8.7,16.2-12.9c0.9,4.3-0.4,9.5,6,10
			C-539.1-22.2-540.4-21.5-541.7-20.9z"/>
		<path class="st12" d="M-642.8,460.9c4.3,5.3,8.7,10.6,13,15.8c-3.6,5.4-6.8,5.6-9.6-0.1c-2.3-4.6-3.6-9.8-5.4-14.7
			C-644,461.6-643.4,461.3-642.8,460.9z"/>
		<path class="st12" d="M-493.4,391.1c0.5,1.3,1,2.5,2.1,5.1c0.5-2.4,0.7-3.5,0.9-4.8c1.4-0.3,3-0.7,4.9-1.1
			c0.4,1.8,0.7,3.3,1.3,5.9c0.8-2.7,1.4-4.5,2-6.3c2.6,0.4,5.2,0.6,7.6,1.3c1.3,0.4,3.3,1.5,3.4,2.5c0.2,1.1-1.4,2.5-2.5,4.3
			c-1-1.6-1.6-2.5-1.8-2.9c-3.8,1-7.2,1.8-11.1,2.8c0-2.2,0-3.4,0-3.8c-2.1,1.2-4.2,2.4-6.2,3.6c-0.9-2-1.8-4.1-2.7-6.1
			C-494.8,391.4-494.1,391.3-493.4,391.1z"/>
		<path class="st12" d="M-699.5,444.7c0.4-0.3,1.6-1.2,2.9-2.1c0.7,1.8,1.4,3.3,2.2,5.3c1.7-3.9,1.6-3.8-1.1-7.1
			c-1.6-2-2.8-4.2-5-7.5c5,4.7,9.2,8.1,12.6,12.1c0.9,1-0.5,4-2,6c0.6,1.3,1.3,2.6,1.9,3.9c-2.1,3.1-3.5,1.9-5-0.5
			C-694.8,451.7-696.9,448.8-699.5,444.7z"/>
		<path class="st12" d="M-483,363.9c2.7,1.9,4.4,4,1.4,7.2c-3.3,3.4-8.5,3-12.8-1.2c-0.8-0.8-0.7-2.6-0.9-4c0.4-0.1,0.8-0.2,1.2-0.3
			c-0.8-1.2-1.7-2.4-2.5-3.6c0.1-0.3,0.3-0.5,0.4-0.8c2.2,1.3,4.3,2.9,6.7,3.7c1.9,0.6,4.2,0.3,6.3,0.4
			C-483.2,364.8-483.1,364.4-483,363.9z"/>
		<path class="st12" d="M-524.8,433.2c-1.4-2.6-2.7-5.3-4.2-7.9c-0.7-1.3-1.3-2.8-2.4-3.7c-4-3.3-3.9-4.1,1.2-6.4
			c1,1.2,2.1,2.3,3.2,3.6c-0.6,0.4-1.7,1-3.2,1.8c2.8,1.7,9.8,0,5.3,6.8c1.7,2.4,7.6,3,3.5,8.3c-1.3-1-2.4-1.8-3.6-2.7
			C-524.9,433.1-524.8,433.2-524.8,433.2z"/>
		<path class="st12" d="M-553-53.2c-6.6,6.5-14,5.3-21.7,3.5C-570.7-53.3-570.7-53.3-553-53.2z"/>
		<path class="st12" d="M-911.9,294.2c0.9,6.1-3.2,6.6-7.7,6.7c0.2-5.2,0.5-10.3,0.7-15.4c0.3-0.2,0.7-0.3,1-0.5
			c1.7,2.4,3.5,4.9,5.2,7.3C-912.4,292.9-912.1,293.6-911.9,294.2z"/>
		<path class="st12" d="M-652.8,529.2c1.6-0.2,3-0.3,5.1-0.5c-0.9-2.5-1.7-4.5-3.1-8.1c5,0.2,9.3,0.4,13.6,0.7
			c0.1,0.6,0.2,1.2,0.3,1.8c-2.5,3.4-6.8-0.4-11,2.4c3.2,1,5.5,1.7,8,2.4C-643.7,532-646.8,532.3-652.8,529.2z"/>
		<path class="st12" d="M-513.6,439.6c2.2,2,5.1,3.8,6.6,6.5c0.9,1.6-0.6,4.4-1,6.5c-1.9,0.7-3.7,1.3-7.1,2.5
			C-514.5,449.5-514,444.5-513.6,439.6z"/>
		<path class="st12" d="M-911.9,294.2c-0.3-0.6-0.5-1.3-0.8-1.9c-0.6-4-1.2-8.1-1.7-12.1c0.6-0.2,1.3-0.4,1.9-0.6
			c2.1,2.8,4.2,5.5,6.3,8.3c0,0-0.1-0.1-0.1-0.1c0.2,3,0.4,6,0.7,10.5c-1.7-2.8-2.7-4.3-3.1-5.1
			C-909.9,293.6-910.9,293.9-911.9,294.2z"/>
		<path class="st12" d="M-484.2,407.5c-5.5,3-10.9,3.5-16.4,1.8c2.5-2.5,4.7-5,7.4-6.9c0.8-0.6,3,0.3,4.3,1
			C-487.4,404.4-486.2,405.8-484.2,407.5z"/>
		<path class="st12" d="M-741.6,460.9c-1.4-3.5-4.1-7,1.6-9.3c0.9-0.4,0.7-3.3,1.3-6.5c2,3.8,5.1,7,4.5,9.4
			C-734.9,457-738.9,458.7-741.6,460.9z"/>
		<path class="st12" d="M-568.7-34.1c-4.4,4.9-10-1.8-15,1.3c1-4.5,6.9-8.5,9.3-6.6C-572.3-37.9-570.6-35.9-568.7-34.1z"/>
		<path class="st12" d="M-556.8-38.8c0.8-0.1,1.5-0.2,2.3-0.3c5.9-2.2,5.9-2.2,10-0.1c-2,0.8-3.7,1.4-5.4,2.1
			c0.1,0.4,0.1,0.8,0.2,1.2c2.2-0.3,4.5-0.5,7.8-0.9c-4.3,2.8-7.1,5.1-11.6,2.3c-2.1-1.4-5.3-1.1-8.3-1.7
			C-560-37.2-558.4-38-556.8-38.8z"/>
		<path class="st12" d="M-784.6,515.5c1.8,4,3.6,8,5.2,12c0.3,0.8,0.3,2.3-0.1,2.6c-1,0.7-2.4,0.8-4.6,1.5c1-2.5,1.5-3.7,2.1-5.2
			c-2.6-1.4-8.1-1.3-3.9-6.6c-1.7-2.2-5.5-3.7-1.7-7.5c1,1.1,2.1,2.2,3.1,3.3L-784.6,515.5z"/>
		<path class="st12" d="M-683.5,492.4c0.4,3.4,0.6,6.9,5.3,8c0.9,0.2,1.2,2.8,1.8,4.4c-0.7,0.4-1.4,0.7-2,1.1
			c-3.4-5.3-6.9-10.6-10.3-15.8c2.9-4.2,5.5-4.2,8.1,0.5C-681.5,491-682.3,491.6-683.5,492.4z"/>
		<path class="st12" d="M-784.4,515.6c0.4-2,0.3-4.2,1.3-5.8c0.6-1,2.8-1.4,4.3-1.2c1,0.1,2.4,1.5,2.6,2.5c0.6,3.6,0.8,7.4,1.2,11
			c-2.3-2.5-3.8-7.8-9.5-6.5C-784.6,515.5-784.4,515.6-784.4,515.6z"/>
		<path class="st12" d="M-844.1,152.6c7.1,2.1,9,7.7,10,13.8C-837.8,166.9-844.9,157.1-844.1,152.6z"/>
		<path class="st12" d="M-793.7,508.7c-7.9-9.9-7.7-10.8,1.9-13.4C-788.7,500.3-795.1,503.4-793.7,508.7z"/>
		<path class="st12" d="M-541.7-20.9c1.3-0.7,2.6-1.3,3.9-2c3.3,0.6,6.6,1.1,10.7,1.8c-3.5,2.9-6,4.8-8.4,6.8
			c-0.3-0.2-0.6-0.4-0.9-0.6c1.4-2.2,2.8-4.4,4.5-7.1c-4,1.8-7.8,3.5-11.6,5.2c-0.2-0.5-0.4-1-0.6-1.4
			C-543.3-19.1-542.5-20-541.7-20.9z"/>
		<path class="st12" d="M-709.2,488.1c2.1,3.1,4.3,6.3,6.4,9.4c-1,0.7-2.6,1.9-4.9,3.5c-0.9-0.8-2.2-2-4.3-4c2-0.1,2.8-0.1,3-0.2
			c-0.5-2.8-0.9-5.7-1.4-8.5C-710,488.3-709.6,488.2-709.2,488.1z"/>
		<path class="st12" d="M-848.1,483.8c1.7,5.4,10.6,7.3,6,15.7c-2.4-5.1-4.8-10.1-7.2-15.2C-849,484.2-848.5,484-848.1,483.8z"/>
		<path class="st12" d="M-418.8,289.6c-1.1-1.2-2.5-2.2-3.3-3.5c-1-1.7-1.4-3.8-2-5.7c1.5-0.1,3.3-0.7,4.6-0.2
			c1.6,0.7,2.9,2.3,4.3,3.5c-0.3,0.4-0.6,0.9-1,1.3c-1-0.2-2.1-0.4-3.6-0.8c0.7,1.7,1.3,3.2,2,4.6
			C-418.1,289.2-418.5,289.4-418.8,289.6z"/>
		<path class="st12" d="M-541.5-51.3c5.1,0.3,9.7,0.5,14.3,0.7C-530.1-44.8-535.9-44.8-541.5-51.3z"/>
		<path class="st12" d="M-848.1,163.5c8.8,0,10.4,1.1,8.4,6.8c-3.2-1.8-6.3-3.5-9.4-5.2C-848.8,164.6-848.5,164-848.1,163.5z"/>
		<path class="st12" d="M-476.6,355.4c-2.4-2-4.3-3.5-7.1-5.7c3.6-1.1,6.8-2.1,11.6-3.5C-474,350.1-475.3,352.8-476.6,355.4z"/>
		<path class="st12" d="M-598.1-37.2c3.6-3.7,7.2-4.8,11.4-2.1c-1.6,1.9-3,3.6-4.4,5.3C-593.3-34.9-595.5-35.9-598.1-37.2z"/>
		<path class="st12" d="M-609.9,463.7c1.9,3.7,3.7,7.3,5.5,10.8c-0.7,0.5-1.3,1.1-2,1.6c-2.1-4.2-4.2-8.4-6.2-12.6
			c-1.1,0.8-2.1,1.7-3.2,2.5C-614.2,465.4-612.6,464.8-609.9,463.7z"/>
		<path class="st12" d="M-687.6,434.8c2.6,1.1,4.9,2,7.2,2.9c-0.2,2.1-0.2,4.3-0.7,6.3c-0.2,0.9-1.7,1.4-2.5,2.1
			c-0.2-0.9-0.4-1.9-0.7-2.7C-685.4,440.6-686.4,437.9-687.6,434.8z"/>
		<path class="st12" d="M-842,482.5c5.8-0.1,7.6,2.4,7.8,5.7c0.1,0.8-2.7,1.8-4.1,2.7C-839.5,488.3-840.6,485.6-842,482.5z"/>
		<path class="st12" d="M-440.3,315.1c2.2,1.6,5.7,3.4,5.4,4c-0.8,2.6-2.7,4.8-4.2,7.2c-0.6-0.2-1.2-0.4-1.8-0.6
			C-440.7,322.6-440.5,319.5-440.3,315.1z"/>
		<path class="st12" d="M-489.9-4.8c-2.8,0.2-5.6,0.5-8.4,0.7c1.9-5,1.9-5,10.4-6.3c-0.7,1.9-1.4,3.8-2.1,5.8
			C-490-4.6-489.9-4.8-489.9-4.8z"/>
		<path class="st12" d="M-726.3,512.6c5.9-0.5,8.2,1,9,4.8c-2.1,0.2-4.3,0.4-7.8,0.7C-725.3,517.2-725.7,515.1-726.3,512.6z"/>
		<path class="st12" d="M-886.3,317.6c-1.5-0.2-3.1-0.3-4.7-0.5c-0.3,1.1-0.6,2.3-1.1,4.4c-1.7-4-3.3-7.4,0-9.7
			c1-0.7,4.4,2.4,6.7,3.7C-885.7,316.3-886,316.9-886.3,317.6z"/>
		<path class="st12" d="M-849.5,478.7c-2.1-4-3.3-6.3-4.5-8.6c0.3-0.4,0.5-0.9,0.8-1.3c2.4,1.2,4.8,2.4,7.2,3.7
			C-846.9,474.1-847.9,475.8-849.5,478.7z"/>
		<path class="st12" d="M-870.3,369.6c0.7,3.8,1.2,6.8,1.7,9.8c-1.6-0.1-4.1,0.5-4.7-0.3C-875.9,375.7-873.6,373.1-870.3,369.6z"/>
		<path class="st12" d="M-945.5,280.8c3,4.7,3,4.7-2.9,8.9c-0.7-1.3-1.4-2.6-2-3.6C-948.7,284.3-947.3,282.7-945.5,280.8z"/>
		<path class="st12" d="M-902,285c0.4,0.7,0.7,1.5,1.1,2.2c0.1,0.8,0.2,1.6,0.4,3.3c-2.3-1.1-4.1-1.9-5.9-2.8c0,0,0.1,0.1,0.1,0.1
			c0-2.4,0-4.8,0-7.3c0.5-0.1,0.9-0.2,1.4-0.3C-903.9,281.9-902.9,283.5-902,285z"/>
		<path class="st12" d="M-810.8,313c-0.7-0.6-1.4-1.2-2-1.7c0.2-2.7,0.5-5.4,0.7-8.1c0.8-0.1,1.5-0.1,2.3-0.2c1,2.4,1.9,4.8,2.9,7.2
			l0.1-0.1c-1.2-0.4-2.4-0.8-4-1.3C-810.8,310.3-810.8,311.7-810.8,313z"/>
		<path class="st12" d="M-825.9,384.1c0.6,2.5,1.1,5,2,8.6c-3.2-1.7-5.8-3.1-8.4-4.5c0.2-0.5,0.4-1,0.5-1.5c2-0.8,4-1.6,6-2.4
			C-825.8,384.2-825.9,384.1-825.9,384.1z"/>
		<path class="st12" d="M-639.5,455.1c4.5-1.6,7.1-2,8.3,1.3c0.4,1-1,2.6-1.6,3.9C-634.7,458.8-636.6,457.3-639.5,455.1z"/>
		<path class="st12" d="M-615.5,470.2c1.5,3.6,2.9,7.2,4.4,10.8c-0.5,0.2-1,0.4-1.4,0.6c-2.8-3.1-5.2-6.3-5.1-10.6
			C-617,470.8-616.3,470.5-615.5,470.2z"/>
		<path class="st12" d="M-710.8,434.3c-2.1,0.7-3.1,1.1-3.2,1.1c-2-3.2-4-6.4-5.9-9.5c0.5-0.3,0.9-0.6,1.4-1
			C-716.1,427.8-713.7,430.8-710.8,434.3z"/>
		<path class="st12" d="M-513.4,429.7c-2.7-1.7-6.9-4.5-11.2-7.3c0.7-0.7,1.3-1.3,2-2C-517.1,422.2-515.5,427.7-513.4,429.7z"/>
		<path class="st12" d="M-520.8,469.4c-5.9-2.2-4.1-6-3.8-9.6c0.5-0.1,1.1-0.2,1.6-0.4C-522.2,462.7-521.5,466-520.8,469.4z"/>
		<path class="st12" d="M-510.7,435.8c5.2,0.4,5.9,5.5,8.8,8.4c-0.4,0.4-0.7,0.8-1.1,1.2c-2.9-2.8-5.8-5.6-8.8-8.3
			C-511.5,436.7-511.1,436.2-510.7,435.8z"/>
		<path class="st12" d="M-710.1,517.3c-2.7,0.8-2.8,0.6-5.2-6.8c1.8-0.5,3.5-0.9,4.6-1.2C-710.5,511.9-710.4,514.4-710.1,517.3z"/>
		<path class="st12" d="M-652.5,534.5c-1.1,0.9-2.2,2.7-3.2,2.6c-1.9-0.2-3.6-1.4-5.4-2.3c0.2-0.5,0.3-1.1,0.5-1.6
			c2.5,0,5.1,0,7.6,0C-652.9,533.6-652.7,534-652.5,534.5z"/>
		<path class="st12" d="M-468.9,334.2c2.7,3.8-1.2,5.3-3.1,8.3c-0.9-2.4-1.5-4.4-2.2-6.4c2.1-0.7,3.8-1.3,5.5-1.8
			C-468.8,334.3-468.9,334.2-468.9,334.2z"/>
		<path class="st12" d="M-805,311.2c0.7,0.7,1.4,1.4,2.1,2.1c2.1,2.2,4.3,4.4,6.4,6.6c0.1,0.1-0.2,0.6-0.3,0.9
			c-4.8-2.2-8.7-5.2-10.1-10.6l-0.1,0.1C-806.3,310.6-805.6,310.9-805,311.2z"/>
		<path class="st12" d="M-623.1-46c4.7-0.3,9.3-0.5,14-0.8c0,0.5,0,1.1,0,1.6c-4.6,0-9.3,0-13.9,0C-623-45.5-623.1-45.8-623.1-46z"
			/>
		<path class="st12" d="M-687.3,503.9c1,2,1.9,3.9,2.9,5.9c-1.3,0.1-3.4,0.8-3.7,0.3c-0.9-1.6-1.2-3.5-1.7-5.4
			C-688.9,504.5-688.1,504.2-687.3,503.9z"/>
		<path class="st12" d="M-783.9,493.1c0-4,0-6.8,0-10C-779.6,486-779.5,488.2-783.9,493.1z"/>
		<path class="st12" d="M-701.6,494c-0.9-3.3-1.9-6.5-2.8-9.8c0.6-0.2,1.2-0.4,1.8-0.6c1.1,3.2,2.3,6.4,3.4,9.7
			C-700,493.5-700.8,493.8-701.6,494z"/>
		<path class="st12" d="M-686.4,427c2,2.1,4,4.2,6.1,6.5c-3.1,1.5-2.9,1.5-4.2-1.3c-0.6-1.4-2.1-2.5-3.2-3.7
			C-687.2,428-686.8,427.5-686.4,427z"/>
		<path class="st12" d="M-482.7,407.6c0-2.1,0-3.5,0-3.7c2.9,0.1,5.7,0.3,8.5,0.4c0.1,0.6,0.2,1.2,0.3,1.8
			C-476.7,406.6-479.6,407.1-482.7,407.6z"/>
		<path class="st12" d="M-645.3,509.9c3.6,3.3,6.3,5.7,8.9,8.1c-0.3,0.3-0.7,0.7-1,1C-640,516.5-644.5,516.1-645.3,509.9z"/>
		<path class="st12" d="M-580.5,480.4c1.9,3.3,3.1,5.5,4.5,8C-580.8,488.4-582.1,486.3-580.5,480.4z"/>
		<path class="st12" d="M-935.5,297.9c-0.2,2.1-0.5,4.1-0.7,6.2c-0.5,0.1-1.1,0.2-1.6,0.3c-0.7-1.6-1.8-3.2-1.8-4.8
			c0-0.8,1.9-1.7,2.9-2.5C-936.3,297.3-935.9,297.6-935.5,297.9z"/>
		<path class="st12" d="M-814.9,343.5c0.5,3,1,6,1.5,9c-0.8,0.1-1.6,0.3-2.3,0.4c-0.4-3-0.9-6-1.3-9
			C-816.4,343.7-815.6,343.6-814.9,343.5z"/>
		<path class="st12" d="M-861.3,377.4c-2.1-3.8-4.2-7.7-6.4-11.5c0.3-0.2,0.7-0.4,1-0.7c2.3,3.7,4.5,7.5,6.8,11.2
			C-860.4,376.7-860.8,377.1-861.3,377.4z"/>
		<path class="st12" d="M-797.5,511.6c-1.9-2.9-3.9-5.7-5.8-8.6c0.4-0.3,0.8-0.6,1.2-1c2.1,2.7,4.2,5.5,6.3,8.2
			C-796.4,510.7-797,511.1-797.5,511.6z"/>
		<path class="st12" d="M-632.4-39.5c2.5,0.2,4.9,0.4,7.4,0.6c-0.1,0.8-0.1,1.7-0.2,2.5c-2.4-0.2-4.9-0.4-7.3-0.5
			C-632.5-37.8-632.5-38.6-632.4-39.5z"/>
	</g>
</g>
<rect x="310.1" y="66.6" class="st13" width="74.5" height="244.8"/>
<polygon class="st13" points="385,53.2 282.9,53.2 243.2,128.1 385,128.1 "/>
<path class="st13" d="M234.3,178.2H157c0,74,60.1,133.1,133.1,133.1V234C259.1,234,234.3,209.2,234.3,178.2z"/>
<polygon class="st13" points="586.1,211.1 504.7,52.8 406.8,53.6 538,308.6 "/>
<polygon class="st13" points="710.9,211.5 630.8,52.2 532.9,52.2 662,308.4 "/>
<polygon class="st13" points="693.7,52.9 675.8,88.4 724.5,184.9 791.1,52.9 "/>
<text transform="matrix(1 0 0 1 810.6283 309.0127)" class="st13 st14 st15">}</text>
<text transform="matrix(1 0 0 1 221.3783 386.6984)" class="st13 st16 st17">Design &amp; Development</text>
<g>
	<g>
		<polygon points="1466.3,651.9 1466.3,592.8 1409.1,592.9 1409.1,541.4 1492,443 1568.4,443.2 1568.4,536.8 1600.4,536.5 
			1600.4,592.8 1585.5,592.8 1585.5,651.9 		"/>
		<path class="st11" d="M1496.7,453l61.8,0.1v93.7l31.9-0.3v36.2h-32.1v18.6h17.2v40.5h-99.2v-40.5h17.9v-18.6l-75,0.1v-37.9
			L1496.7,453 M1494.1,546.6v-32.9l-26.6,32.8L1494.1,546.6 M1487.4,433l-6,7.1l-77.5,92l-4.7,5.6v7.3v37.9v20l20,0l37.1-0.1v39v20
			h20h99.2h20v-20v-39.1h14.9v-20v-36.2v-20.2l-20.2,0.2l-11.8,0.1v-73.5v-20l-20,0l-61.8-0.1L1487.4,433L1487.4,433z"/>
	</g>
	<g>
		<polygon points="1617.2,651.9 1617,586 1629.7,586.2 1629.7,518.1 1606.6,518.2 1606.6,464.1 1719.7,435.6 1720.5,586.3 
			1734.1,586.3 1734.1,651.9 		"/>
		<path class="st11" d="M1709.7,448.4l0.8,147.9h13.5v45.6h-97l-0.1-45.7l12.7,0.1V508l-23.1,0.1v-36.3L1709.7,448.4 M1729.6,422.7
			l-24.7,6.2l-93.2,23.5l-15.1,3.8v15.6v36.3v20.1l20.1-0.1l3,0v47.9l-12.7-0.1l0.1,20.3l0.1,45.7l0.1,19.9h19.9h97h20v-20v-45.6
			v-20h-13.6l-0.7-128L1729.6,422.7L1729.6,422.7z"/>
	</g>
	<g>
		<path d="M1826.3,654.4c-15.3,0-28.7-0.9-39.8-2.7c-12-1.9-23-6.1-32.5-12.6l-4.4-3v-74.9l16.3,13.1c15.1,12.2,30.5,18.3,45.8,18.3
			c3,0,6-0.3,8.7-0.8c2.6-0.5,5.2-1.3,7.7-2.5c1.7-0.8,2.9-1.8,3.9-3.1c0.5-0.7,1.1-1.8,1.1-4.1c0-2.4-0.5-4.4-1.6-5.9
			c-1.2-1.7-2.6-3-4.5-3.9c-2.8-1.3-5.7-2.3-8.8-2.9c-3.2-0.6-6.6-0.9-10.2-0.9c-2.8,0-5.8,0.4-8.9,1.1c-6.2,1.5-7.6,1.7-9,1.7
			c-3.7,0-6.8-1-9.2-3l-2.7-2.3l-1-5.1v-27.8l8.9-7.6l-38.4-0.2v-83.7h170.4v47.2c0,4.7-2.6,7-6,9.8c-1.7,1.4-4.2,3.6-7.6,6.4
			c-3.9,3.2-8.9,7.4-15.1,12.5c7.7,3.5,14.6,8.7,20.9,15.4c11.4,12.4,17.2,26.6,17.2,42.3c0,25.4-9.6,45.3-28.6,59.3
			C1880.9,647.7,1856.5,654.4,1826.3,654.4z M1798.3,506.8c-0.2,0.4-1.4,2.8-3.6,11.2l0,0.2l15.1-12.8h-5.4
			C1801.3,505.4,1799.1,505.9,1798.3,506.8z"/>
		<path class="st11" d="M1908.2,451.6v37.2c0,0.3-13.3,11.4-40,33.4c13.5,1.2,25.1,7.1,34.8,17.6c9.7,10.5,14.6,22.3,14.6,35.5
			c0,22.1-8.2,39.2-24.6,51.2c-16.4,12-38.6,18-66.8,18c-14.8,0-27.6-0.8-38.2-2.5c-10.6-1.7-20.1-5.3-28.5-11v-48.7
			c17,13.7,34.3,20.5,52.1,20.5c3.7,0,7.2-0.3,10.6-1c3.4-0.7,6.8-1.7,10-3.2c3.2-1.5,5.8-3.6,7.8-6.4c2-2.8,3-6.1,3-9.9
			c0-4.4-1.1-8.2-3.2-11.5c-2.2-3.2-5-5.7-8.6-7.4c-3.6-1.7-7.3-2.9-11.1-3.7c-3.8-0.8-7.9-1.1-12.1-1.1c-3.7,0-7.4,0.5-11.3,1.4
			c-3.8,0.9-6.1,1.4-6.6,1.4c-1.3,0-2.3-0.2-2.8-0.7l-0.1-0.7v-22.2l48.1-41v-1.4h-31c-6.8,0-11.5,1.9-14.2,5.8
			c-1.4,2.1-3.1,6.8-5.1,14.4l-27.3-0.1v-63.8H1908.2 M1928.2,431.6h-20h-150.4h-20v20v63.8v19.9l19.9,0.1l9.5,0v2.3V560v2l0.2,0.8
			l-27.7-22.4v41.8v48.7v10.6l8.8,5.9c10.7,7.2,23,12,36.5,14.1c11.6,1.8,25.5,2.8,41.3,2.8c32.4,0,58.8-7.4,78.6-21.9
			c10.8-7.9,19.1-17.8,24.6-29.3c5.4-11.2,8.1-24,8.1-38.1c0-18.3-6.7-34.8-19.9-49c-3.5-3.7-7.1-7.1-11-9.9c1.5-1.3,3-2.5,4.2-3.5
			c3.4-2.9,5.9-5,7.7-6.5c1-0.8,1.7-1.5,2.2-1.9c4.8-4.3,7.3-9.5,7.3-15.5v-37.2V431.6L1928.2,431.6z M1796.8,580.5
			c1.3-0.3,2.8-0.6,4.6-1.1c2.3-0.6,4.5-0.8,6.5-0.8c2.9,0,5.7,0.3,8.3,0.8c2,0.4,3.9,1,5.8,1.8c-1.2,0.4-2.3,0.8-3.5,1
			c-2.2,0.4-4.5,0.6-6.9,0.6C1806.7,582.8,1801.8,582,1796.8,580.5L1796.8,580.5z"/>
	</g>
</g>
<g>
	<path d="M2085.1,783.9c-135-41.7-270.8-31.3-406.6-10.5c-134.7,20.7-259.4,51.9-393.4,10.5c0,0-20-91.5-20-137.2
		c130.4,40.3,271.6,43.4,402.8,23.3c139.3-21.3,268.7-66.1,407.2-23.3C2075.1,646.7,2085.1,738.1,2085.1,783.9z"/>
</g>
<g>
	<g>
		<g>
			<path class="st11" d="M1367.3,693.1c-1-0.4-2.2-0.6-3.5-0.8c-4.2-0.6-7.8-0.5-10.7,0.5c-2.9,1-5.4,2.4-7.3,4.3
				c-1.9,1.9-3.4,4.1-4.4,6.6c-1,2.5-1.7,4.9-2.2,7.3c-0.4,2.4-0.6,4.6-0.5,6.5c0.1,2,0.3,3.3,0.6,4.1c-3.4-0.5-6-1.9-7.9-4
				c-1.9-2.1-3-4.5-3.2-7.2c-0.2-2.7,0.4-5.4,1.8-8.2c1.5-2.8,3.9-5.1,7.2-7.1c3.3-2,7.6-3.4,12.9-4.2c5.3-0.9,11.6-0.7,18.9,0.3
				c0.8,0.1,1.6,0.2,2.4,0.3c0.8,0.1,1.5,0.2,2.3,0.4C1371.1,692.3,1369.8,692.6,1367.3,693.1z M1333.9,734.4c0.5-1,1.2-2.4,2.1-4.1
				c0.9-1.7,2-3.7,3.2-5.9c1.2-2.2,2.5-4.5,3.8-7c1.3-2.5,2.7-5,4.1-7.4c3.1-5.7,6.6-11.8,10.3-18.5c6.5,0.2,9.8,0.2,16.3,0.2
				c-3.6,6.6-7,12.9-10.2,18.8c-1.4,2.5-2.8,5.1-4.2,7.7c-1.4,2.6-2.8,5.1-4.1,7.5c-1.3,2.4-2.5,4.6-3.6,6.6c-1.1,2.1-2,3.8-2.7,5.1
				c-2.9,5.6-5,9.7-6.2,12.2c-1.2,2.6-1.2,4,0.1,4.2c1.8,0.4,3.8-0.2,6-1.7c2.2-1.5,4.4-3.5,6.7-6.2c2.3-2.6,4.6-5.7,7-9.3
				c2.4-3.6,4.6-7.2,6.8-11.1c2.2-3.8,4.2-7.6,6-11.4c1.8-3.8,3.4-7.1,4.8-10.2c1.3-3,2.3-5.5,3-7.5c0.7-2,0.9-3.1,0.7-3.3
				c3.9-1.1,6.7-1,8.4,0.4c1.8,1.3,2.7,3.5,2.8,6.5c0.1,3-0.6,6.6-2,10.7c-1.4,4.2-3.4,8.5-5.9,12.9c-2.5,4.4-5.5,8.8-8.9,13.1
				c-3.4,4.2-7.1,8-11,11.1c-3.9,3.1-7.9,5.5-12.1,7.1c-4.2,1.6-8.3,2-12.4,1.2c-6.4-1.3-10.3-3.7-11.6-7.1
				C1329.6,746,1330.6,741,1333.9,734.4z"/>
			<path class="st11" d="M1384.5,742.5c1-2.1,2-4.1,3-6.2c1-2,1.9-3.9,2.7-5.6c0.9-1.9,1.8-3.8,2.7-5.6c6.5-0.3,9.7-0.5,16.2-0.9
				c-0.8,1.7-1.6,3.6-2.6,5.7c-0.8,1.8-1.9,3.9-3.1,6.3c-1.2,2.4-2.5,5.1-4,8.1c-1.5,2.9-2.7,5.4-3.5,7.3c-0.9,1.9-1.5,3.5-1.9,4.6
				c-0.4,1.2-0.5,2-0.3,2.5c0.2,0.5,0.5,0.8,1.2,0.8c1.2,0.1,2.5-0.5,4.1-2c1.5-1.4,3-3.1,4.3-4.9c1.6-2.1,3.2-4.5,4.8-7.2
				c-1.4,3.6-3.1,6.8-5.1,9.5c-0.9,1.2-1.8,2.3-2.9,3.4c-1.1,1.1-2.3,2-3.6,2.8c-1.3,0.8-2.7,1.4-4.3,1.8c-1.5,0.4-3.2,0.5-4.9,0.3
				c-3.2-0.4-5.4-1.3-6.5-2.7c-1.1-1.4-1.5-3.1-1.3-5.1c0.2-2,0.8-4.1,1.8-6.4C1382.5,746.8,1383.5,744.6,1384.5,742.5z
				 M1397.8,715.6c1.3-2.6,2.4-4.7,3.3-6.4c0.9-1.7,1.8-3.1,2.7-4.1c0.9-1,1.9-1.8,2.9-2.4c1-0.5,2.2-0.9,3.7-1.2
				c1.4-0.2,3.2-0.4,5.2-0.5c2-0.1,4.5-0.2,7.3-0.4c-1.2,2.4-2.2,4.4-3,6c-0.8,1.6-1.6,2.9-2.4,3.9c-0.8,1-1.7,1.8-2.7,2.3
				c-1,0.5-2.2,0.9-3.7,1.3c-1.5,0.3-3.3,0.6-5.4,0.8C1403.6,715,1400.9,715.3,1397.8,715.6z"/>
			<path class="st11" d="M1397.9,764.4c6-12.5,12-25,18-37.5c6.5-0.5,9.7-0.8,16.2-1.5c-6.3,13.4-12.7,26.8-19,40.2
				C1407,765.2,1404,764.9,1397.9,764.4z M1441.7,725.6c4.8,0.1,7.7,1.8,8.7,5.2c1,3.4-0.5,8.7-4.2,15.8c-3,5.7-5,9.7-6,12.1
				c-1,2.3-0.9,3.5,0.4,3.6c1.2,0,2.5-0.7,4.1-2.3c1.5-1.6,3-3.3,4.4-5.2c1.6-2.2,3.3-4.8,4.9-7.6c-1.4,3.7-3.1,7-5.1,9.9
				c-0.9,1.2-1.8,2.4-2.9,3.6c-1.1,1.2-2.3,2.2-3.6,3.1c-1.3,0.9-2.7,1.6-4.3,2.1c-1.5,0.5-3.2,0.7-4.9,0.7
				c-2.1-0.1-3.8-0.4-4.9-1.1c-1.1-0.7-1.9-1.5-2.2-2.6c-0.4-1-0.5-2.2-0.3-3.6c0.2-1.4,0.6-2.8,1.2-4.3c0.6-1.5,1.2-3,2-4.5
				c0.7-1.5,1.5-3,2.2-4.4c1-2.1,2-4,2.9-5.9s1.5-3.4,2-4.7c0.4-1.3,0.6-2.3,0.6-3.1c-0.1-0.8-0.5-1.1-1.3-1.2
				c-0.8,0-1.6,0.4-2.5,1.1c-0.9,0.8-1.9,1.8-3,3c-1,1.3-2.1,2.7-3.1,4.3c-1.1,1.6-2.1,3.2-3.1,4.9c-2.3,3.9-4.6,8.4-7,13.3
				c0.1-0.7,0.4-1.7,0.9-3c0.4-1.1,1.1-2.7,2-4.6c0.9-1.9,2-4.5,3.5-7.6c1-2.1,2.1-4.1,3.3-6.2c1.2-2,2.5-3.9,4-5.5
				c1.5-1.6,3.2-2.9,5-3.9C1437.3,726,1439.4,725.6,1441.7,725.6z"/>
			<path class="st11" d="M1453,746.3c0.4-1.1,1.1-2.5,1.8-4.1c0.8-1.6,1.6-3.4,2.5-5.4c0.9-1.9,1.8-3.9,2.8-6c1-2.1,1.9-4.2,2.9-6.3
				c2.2-4.8,4.6-9.9,7.1-15.3c7.4-3,11-4.6,18.4-7.8c-2.8,6.2-5.6,12.1-8.1,17.8c-1.1,2.4-2.2,4.9-3.4,7.5c-1.2,2.5-2.3,5-3.4,7.4
				c-1.1,2.4-2.2,4.7-3.2,6.8c-1,2.1-1.8,3.9-2.5,5.5c-1.5,3.1-2.7,5.7-3.5,7.7c-0.9,2-1.5,3.7-1.9,4.9c-0.4,1.2-0.5,2-0.3,2.5
				c0.2,0.5,0.5,0.7,1.2,0.7c1.2,0,2.5-0.8,4-2.4c1.5-1.6,3-3.4,4.3-5.3c1.6-2.3,3.2-4.9,4.8-7.8c-1.4,3.7-3.1,7.1-5.2,10
				c-0.9,1.3-1.8,2.5-2.9,3.7c-1.1,1.2-2.3,2.3-3.6,3.2c-1.3,0.9-2.7,1.7-4.3,2.3c-1.5,0.6-3.2,0.8-4.9,0.9c-3.2,0-5.4-0.7-6.4-2
				c-1.1-1.3-1.5-3-1.3-4.9c0.2-2,0.8-4.2,1.9-6.6C1450.9,750.8,1451.9,748.5,1453,746.3z M1457.1,725.7c0.9-1.6,1.3-2.4,2.1-4
				c10.6-0.1,15.9-0.3,26.4-0.7c-0.8,1.6-1.2,2.5-2,4.1C1473.1,725.5,1467.7,725.6,1457.1,725.7z"/>
			<path class="st11" d="M1487.3,761.3c0.6,0,1.3-0.4,2.1-1.2c0.8-0.8,1.6-1.7,2.4-2.9c0.8-1.2,1.7-2.5,2.6-4
				c0.9-1.5,1.7-3.1,2.6-4.7c2-3.7,4-8,6.1-12.7c-0.2,1.1-0.6,2.6-1.2,4.5c-0.5,1.9-1.2,4-2.1,6.2c-0.9,2.2-1.9,4.5-3,6.8
				c-1.1,2.3-2.4,4.4-3.9,6.3c-1.5,1.9-3.1,3.5-5,4.7c-1.8,1.2-3.8,1.9-6,1.9c-3.4,0.1-5.8-0.8-7.4-2.8c-1.6-2-2.4-4.5-2.4-7.6
				c0-3.1,0.7-6.4,2-9.9c1.4-3.6,3.3-6.9,5.8-10.1c2.5-3.1,5.6-5.8,9.1-8c3.6-2.2,7.5-3.4,11.8-3.7c2.4-0.1,4.4,0.2,6.1,1
				c1.7,0.8,3,1.8,4,2.9c1.2,1.2,2.1,2.7,2.7,4.3c-0.7,0.3-1,0.4-1.6,0.7c-0.5-1.2-1.2-2.3-1.9-3.2c-0.6-0.8-1.4-1.5-2.3-2.1
				c-0.9-0.6-1.8-0.9-2.8-0.8c-1.8,0.1-3.6,1.1-5.6,2.8c-1.9,1.8-3.8,3.9-5.6,6.5c-1.8,2.6-3.4,5.3-4.8,8.3
				c-1.4,2.9-2.5,5.7-3.2,8.2c-0.7,2.5-1,4.6-0.9,6.2C1485.1,760.6,1485.9,761.4,1487.3,761.3z M1498.8,744.9c1-2.2,1.9-4.5,2.9-6.7
				c1-2.2,1.9-4.3,2.8-6.1c1-2.1,1.9-4.1,2.7-6.1c6.5-1.3,9.7-2.1,16.2-3.5c-0.8,1.8-1.7,3.9-2.7,6.1c-0.9,1.9-1.9,4.2-3,6.8
				c-1.1,2.6-2.4,5.5-3.9,8.8c-1.5,3.2-2.7,5.8-3.5,7.9c-0.9,2.1-1.5,3.7-1.9,5c-0.4,1.2-0.5,2.1-0.3,2.5c0.2,0.5,0.5,0.7,1.1,0.6
				c1.2-0.1,2.5-1,4-2.7c1.5-1.7,2.9-3.6,4.3-5.6c1.6-2.4,3.2-5.1,4.8-8c-1.4,3.8-3.1,7.3-5.2,10.3c-0.9,1.3-1.8,2.6-2.9,3.8
				c-1.1,1.2-2.2,2.4-3.6,3.4c-1.3,1-2.7,1.9-4.3,2.5c-1.5,0.7-3.1,1-4.9,1.1c-3.2,0.2-5.4-0.3-6.4-1.6c-1.1-1.2-1.5-2.9-1.3-4.9
				c0.2-2,0.8-4.2,1.9-6.7C1496.8,749.5,1497.8,747.1,1498.8,744.9z"/>
			<path class="st11" d="M1536.6,756.6c2.1-4.8,4-9.4,5.9-13.6c1.9-4.2,3.5-7.9,4.8-11c1.6-3.7,3.1-7.1,4.3-10.2
				c6.4-1.6,9.6-2.4,16-4.1c-1.1,2.6-2.4,5.7-4,9.2c-1.3,3-3,6.8-5,11.3c-2,4.5-4.3,9.8-7,15.9c-2.7,6-5.3,10.9-7.7,14.7
				c-2.4,3.8-4.9,6.9-7.4,9.1c-2.5,2.2-5.3,3.8-8.2,4.8c-2.9,1-6.2,1.6-9.9,1.9c-3.4,0.3-6.1-0.3-8.2-1.6c-2-1.3-3.4-3-4.1-5
				s-0.7-4.2-0.2-6.5c0.6-2.3,1.7-4.3,3.5-6s4.2-2.8,7.2-3.5c3-0.7,6.5-0.4,10.6,0.7c-1.8,1-3.5,2.6-4.9,4.9
				c-1.4,2.3-2.6,4.6-3.5,6.8c-0.9,2.3-1.3,4.3-1.4,6c-0.1,1.7,0.3,2.5,1.3,2.5c0.7-0.1,1.6-0.6,2.8-1.5c1.2-1,2.5-2.5,4-4.6
				c1.5-2.1,3.1-4.8,5-8.1C1532.5,765.5,1534.5,761.4,1536.6,756.6z M1533.7,753.7c0.5-0.1,1.2-0.4,1.9-1.1c0.7-0.7,1.4-1.5,2.2-2.5
				c0.8-1,1.5-2.2,2.3-3.5c0.8-1.3,1.5-2.6,2.2-4c1.7-3.1,3.4-6.7,5-10.7c-0.4,1.7-1,4-1.8,6.8c-0.8,2.9-1.9,5.8-3.4,8.7
				c-1.5,2.9-3.3,5.5-5.5,7.7c-2.2,2.2-5,3.5-8.3,3.8c-3.4,0.3-5.9-0.4-7.5-2.1c-1.7-1.7-2.6-3.9-2.8-6.6c-0.2-2.7,0.3-5.7,1.5-9
				c1.2-3.3,3-6.4,5.3-9.3c2.4-2.9,5.2-5.4,8.7-7.6c3.4-2.1,7.3-3.4,11.6-3.9c2.4-0.3,4.4,0,6.1,0.7c1.7,0.7,3,1.7,4,2.7
				c1.1,1.2,2.1,2.6,2.7,4.2c-0.6,0.3-1,0.5-1.6,0.8c-0.5-1.2-1.2-2.2-1.9-3.1c-0.6-0.7-1.4-1.4-2.3-2c-0.9-0.6-1.8-0.8-2.7-0.7
				c-1.8,0.2-3.6,1.1-5.4,2.7c-1.8,1.6-3.6,3.6-5.2,5.9c-1.6,2.3-3,4.8-4.3,7.4c-1.2,2.7-2.1,5.1-2.7,7.3c-0.6,2.2-0.8,4-0.5,5.4
				C1531.5,753.2,1532.3,753.9,1533.7,753.7z"/>
			<path class="st11" d="M1577.9,756.2c4.6-0.5,8.9-2.3,12.7-5.3c3.8-3,7.5-6.9,11-11.6c-1.2,2.3-2.8,4.5-4.7,6.7
				c-1.9,2.2-4,4.1-6.3,5.9c-2.3,1.8-4.8,3.3-7.4,4.4c-2.6,1.2-5.4,1.9-8.3,2.3c-4.4,0.5-7.8-0.1-10.1-1.9c-2.3-1.8-3.7-4.2-4.1-7.2
				s0.1-6.4,1.4-10.1c1.3-3.7,3.4-7.2,6.2-10.7c2.8-3.4,6.2-6.4,10.2-8.8c4-2.5,8.6-4,13.7-4.6c3.4-0.4,6,0,7.9,1.1
				c1.8,1.1,2.9,2.6,3.2,4.6c0.3,2-0.1,4.2-1.3,6.7c-1.2,2.5-3,5.1-5.7,7.6c-2.6,2.5-5.9,4.9-9.8,7c-3.9,2.2-8.5,3.9-13.7,5.1
				c-0.9-0.2-1.2-0.6-0.8-0.9c0.4-0.4,0.8-0.6,1.3-0.8c1.8-0.4,3.7-1.4,5.5-3c1.8-1.6,3.6-3.5,5.1-5.7c1.6-2.2,3-4.4,4.3-6.8
				c1.3-2.4,2.3-4.6,3.1-6.5c0.7-2,1.2-3.6,1.3-4.9c0.1-1.3-0.2-1.9-0.9-1.8c-1,0.1-2.3,1.2-4,3.2c-1.7,2-3.5,4.6-5.3,7.6
				c-1.8,3-3.5,6.2-5.1,9.7c-1.6,3.4-2.7,6.6-3.4,9.5c-0.7,2.9-0.8,5.2-0.3,7C1573.9,755.7,1575.4,756.5,1577.9,756.2z"/>
		</g>
		<g>
			<path class="st11" d="M1765.3,737.6c9.5-21.8,19-43.6,28.5-65.4c6.4-1.6,9.6-2.4,16-3.9c-9.8,22.5-19.6,45-29.3,67.5
				C1774.4,736.5,1771.4,736.9,1765.3,737.6z M1776.5,702.2c-3.3,0.5-6,0-7.9-1.5c-1.9-1.5-3-3.6-3.2-6.2c-0.2-2.6,0.4-5.6,1.8-8.9
				c1.5-3.3,3.8-6.5,7.1-9.5c3.3-3.1,7.6-5.8,12.8-8.2c5.2-2.4,11.5-4,18.8-4.7c6.9-0.7,12.3-0.2,16.2,1.4c3.9,1.6,6.5,3.8,7.7,6.6
				c1.2,2.8,1.3,5.9,0.2,9.3c-1.1,3.4-3.3,6.6-6.5,9.8c-3.2,3.1-7.3,5.9-12.4,8.2c-5,2.4-10.8,3.9-17.2,4.5
				c-1.5,0.2-2.4,0.1-2.7-0.1c-0.3-0.2-0.3-0.4,0-0.7c0.3-0.3,0.8-0.6,1.5-0.9c0.7-0.3,1.3-0.5,1.9-0.6c2.6-0.3,5.2-1.4,7.8-3.3
				c2.6-1.9,5-4.3,7.1-7.1c2.1-2.8,3.8-5.7,5.2-8.8c1.3-3.1,2-5.9,1.9-8.5c0-2.6-0.9-4.6-2.5-6.2c-1.6-1.5-4.3-2.1-8.1-1.8
				c-4.2,0.4-7.8,1.5-11,3.3c-3.2,1.8-5.9,4-8.2,6.5c-2.3,2.5-4.2,5.2-5.7,8.1c-1.5,2.9-2.6,5.6-3.4,8.2c-0.8,2.6-1.3,4.9-1.5,6.9
				C1776.1,700.2,1776.1,701.5,1776.5,702.2z M1812.5,732.5c-4.4,0.4-7.8,0.4-10.3,0.1c-2.5-0.3-4.3-1-5.5-1.9
				c-1.2-0.9-1.8-2-1.9-3.4c-0.1-1.3,0.1-2.8,0.6-4.4c0.5-1.6,1.1-3.2,1.9-4.9c0.8-1.7,1.5-3.3,2.1-4.9c0.6-1.6,1-3.1,1.1-4.4
				c0.1-1.3-0.3-2.5-1.1-3.4c-0.8-0.9-2.3-1.6-4.4-2c-2.1-0.4-5.1-0.3-8.9,0.1c6.1-1.1,9.1-1.6,15.2-2.6c4.2-0.4,7.3-0.2,9.3,0.5
				c2,0.7,3.4,1.9,4.1,3.3c0.7,1.5,0.8,3.2,0.4,5.2c-0.4,2-1.1,4-1.9,6.2c-0.9,2.1-1.8,4.2-2.7,6.2c-0.9,2-1.6,3.9-2,5.4
				c-0.4,1.6-0.3,2.8,0.3,3.7C1809,732.4,1810.3,732.7,1812.5,732.5z"/>
			<path class="st11" d="M1834.6,728.9c4.7-0.3,8.9-1.9,12.7-4.7c3.8-2.8,7.5-6.5,11.1-10.9c-1.2,2.2-2.8,4.3-4.7,6.3
				c-1.9,2-4,3.9-6.3,5.5c-2.3,1.6-4.8,3-7.4,4c-2.6,1.1-5.4,1.7-8.3,1.9c-4.5,0.3-7.8-0.4-10.1-2.3c-2.3-1.8-3.7-4.3-4.1-7.3
				c-0.4-3.1,0.1-6.4,1.4-10.1c1.3-3.7,3.4-7.1,6.2-10.5c2.8-3.3,6.2-6.1,10.3-8.4c4.1-2.3,8.6-3.6,13.7-3.9c3.4-0.2,6,0.4,7.9,1.6
				c1.8,1.2,2.9,2.8,3.2,4.8c0.3,2-0.1,4.2-1.3,6.6c-1.2,2.5-3.1,4.8-5.7,7.2c-2.6,2.4-5.9,4.5-9.8,6.4c-3.9,1.9-8.5,3.5-13.8,4.5
				c-0.9-0.3-1.2-0.6-0.8-1c0.4-0.4,0.8-0.6,1.3-0.7c1.8-0.3,3.7-1.3,5.5-2.8c1.8-1.5,3.6-3.3,5.1-5.4c1.6-2.1,3-4.3,4.3-6.6
				c1.3-2.3,2.3-4.4,3.1-6.3c0.7-1.9,1.2-3.5,1.3-4.8c0.1-1.3-0.2-1.9-0.9-1.9c-1,0.1-2.3,1-4,3c-1.7,2-3.5,4.4-5.4,7.3
				c-1.8,2.9-3.6,6.1-5.1,9.4c-1.6,3.3-2.7,6.4-3.4,9.3c-0.7,2.9-0.8,5.2-0.3,7C1830.6,728.2,1832.1,729,1834.6,728.9z"/>
			<path class="st11" d="M1883.3,688.2c-1.1,2.3-2.3,4.9-3.5,7.8c-1.3,2.9-2.6,5.8-4,8.9c-1.4,3.1-2.8,6.2-4.2,9.4
				c-1.4,3.2-2.8,6.2-4.2,9.1c-3.1,6.9-6.3,14-9.5,21.3c-6.4,1.1-9.6,1.7-16.1,3c3-6.8,6-13.6,9.1-20.5c1.3-2.9,2.7-6,4.1-9.3
				c1.5-3.2,2.9-6.5,4.4-9.7c1.5-3.2,3-6.5,4.4-9.7c1.5-3.2,2.9-6.3,4.2-9.2c2.6-5.8,5.2-10.5,7.6-14.1c2.4-3.6,4.9-6.4,7.5-8.4
				c2.6-2,5.3-3.4,8.3-4.1c2.9-0.7,6.2-1,10-1c3.4,0.1,6,0.7,7.8,1.9c1.9,1.2,3,2.7,3.5,4.3c0.5,1.7,0.4,3.4-0.4,5.2
				c-0.7,1.8-2,3.4-3.7,4.7c-1.7,1.3-3.9,2.2-6.6,2.8c-2.6,0.5-5.6,0.3-8.9-0.6c1.7-1.6,3.2-3.4,4.5-5.4c1.3-1.9,2.3-3.7,3-5.4
				c0.7-1.7,1.1-3.1,1.2-4.2c0.1-1.2-0.2-1.8-0.9-1.8c-0.7,0-1.6,0.4-2.7,1.2c-1.1,0.8-2.5,2.2-3.9,4.1c-1.5,1.9-3.2,4.4-5,7.6
				C1887.5,679.7,1885.5,683.6,1883.3,688.2z M1863.9,688c0.9-1.6,1.3-2.5,2.1-4.1c10.2-0.3,15.4-0.4,25.6-0.4c-0.8,1.6-1.2,2.4-2,4
				C1879.3,687.6,1874.2,687.6,1863.9,688z"/>
			<path class="st11" d="M1880.2,708.2c1-2.2,2.1-4.4,3.1-6.6c1-2.2,2-4.2,2.9-5.9c1-2,1.9-4,2.9-5.9c6.5-0.9,9.7-1.3,16.2-2.1
				c-0.8,1.7-1.8,3.6-2.8,5.8c-0.9,1.8-2,4-3.2,6.5c-1.2,2.5-2.5,5.3-4,8.4c-1.5,3.1-2.7,5.6-3.6,7.5c-0.9,2-1.5,3.5-1.9,4.6
				c-0.3,1.1-0.4,1.9-0.3,2.4c0.1,0.4,0.5,0.7,1.2,0.7c1,0,2.3-1,4-3c1.7-2,3.6-4.5,5.5-7.5c1.9-3,3.8-6.2,5.7-9.7
				c1.9-3.5,3.4-6.7,4.6-9.8c-2.2,5.5-4.3,10.4-6.2,14.7c-2,4.3-4,8-6,11c-2,3-4.1,5.3-6.4,6.9c-2.3,1.6-4.8,2.4-7.5,2.4
				c-3.2,0-5.5-0.4-6.9-1.4c-1.4-0.9-2.1-2.3-2.2-4.1c-0.1-1.8,0.4-3.9,1.3-6.5C1877.6,714.2,1878.8,711.3,1880.2,708.2z
				 M1903.5,708.3c1-2.1,2-4.3,3-6.5c1-2.1,1.9-4.1,2.8-5.8c1-2,1.9-3.9,2.7-5.8c6.5-0.7,9.7-1,16.2-1.5c-0.8,1.7-1.7,3.6-2.7,5.7
				c-0.9,1.8-1.9,3.9-3.1,6.4c-1.1,2.5-2.4,5.2-3.9,8.2c-1.5,3-2.7,5.5-3.5,7.5c-0.9,2-1.5,3.6-1.9,4.8c-0.4,1.2-0.5,2-0.3,2.5
				c0.2,0.5,0.5,0.7,1.2,0.8c1.2,0,2.5-0.7,4.1-2.2c1.5-1.5,3-3.2,4.3-5c1.6-2.2,3.2-4.6,4.8-7.3c-1.4,3.6-3.1,6.8-5.2,9.6
				c-0.9,1.2-1.8,2.3-2.9,3.5c-1.1,1.1-2.3,2.1-3.6,3c-1.3,0.9-2.7,1.6-4.3,2.1c-1.5,0.5-3.2,0.7-4.9,0.7c-3.2-0.1-5.4-0.8-6.4-2.1
				c-1.1-1.3-1.5-3-1.3-5c0.2-2,0.8-4.2,1.9-6.6C1901.4,712.7,1902.5,710.4,1903.5,708.3z"/>
			<path class="st11" d="M1916.6,729.2c6-12.6,12-25.2,18.1-37.8c6.5-0.4,9.7-0.6,16.2-0.9c-6.4,13.1-12.7,26.3-19.1,39.5
				C1925.7,729.6,1922.7,729.5,1916.6,729.2z M1959.2,691.5c3.5,0.4,5.9,1.3,7.2,2.7c1.3,1.4,2,2.9,1.9,4.7c0,1.8-0.5,3.6-1.4,5.6
				c-0.9,2-1.9,3.8-2.8,5.4c-0.9,1.7-1.7,3.1-2.2,4.2c-0.6,1.1-0.4,1.7,0.3,1.8c1.2,0.1,2.4-0.2,3.7-1c1.3-0.8,2.6-1.8,3.7-2.8
				c1.3-1.2,2.5-2.7,3.8-4.4c-1.4,2.5-3,4.6-4.8,6.4c-1.6,1.6-3.6,2.9-5.9,4.1s-5.1,1.6-8.2,1.3c-2.8-0.3-4.7-1-5.7-2.2
				c-1-1.2-1.3-2.6-1.1-4.3c0.2-1.7,0.7-3.4,1.6-5.3s1.7-3.6,2.6-5.2c0.8-1.6,1.4-2.9,1.8-4c0.3-1.1,0.1-1.6-0.8-1.7
				c-1.2-0.1-2.5,0.3-3.7,1.4c-1.2,1-2.3,2.2-3.2,3.5c-1.1,1.5-2.1,3.3-3,5.2c-0.5,0.7-1.1,1.4-1.7,2c-0.6,0.6-1.1,1.1-1.6,1.6
				c-0.4,0.4-0.8,0.7-1.1,0.9c-0.3,0.2-0.3,0.1-0.2-0.2c1.2-2.7,2.5-5.3,4.1-7.8c1.6-2.5,3.3-4.6,5.1-6.5c1.8-1.8,3.7-3.3,5.6-4.3
				C1955.1,691.6,1957.1,691.2,1959.2,691.5z"/>
			<path class="st11" d="M1960.8,732.7c10.2-20.7,20.5-41.4,31-61.9c6.5,0.3,9.8,0.5,16.3,1c-10.5,20.2-20.8,40.5-31,60.8
				C1970.6,732.5,1967.3,732.5,1960.8,732.7z M1998.2,703.1c-0.8-0.1-1.6,0.1-2.6,0.7c-0.9,0.6-1.9,1.5-3,2.6
				c-1,1.1-2.1,2.4-3.1,3.8c-1.1,1.5-2.1,2.9-3.1,4.5c-2.3,3.6-4.7,7.8-7.1,12.5c0.1-0.7,0.4-1.6,0.9-2.9c0.4-1.1,1.1-2.6,1.9-4.4
				c0.8-1.8,2-4.3,3.5-7.2c1-1.9,2.2-3.8,3.4-5.7c1.2-1.9,2.6-3.5,4.1-4.8c1.5-1.4,3.2-2.4,5-3c1.8-0.7,3.9-0.8,6.3-0.3
				c3.2,0.7,5.5,2.2,7,4.5c1.5,2.3,2.2,5,2.2,8c0,3-0.7,6.1-2.1,9.3c-1.4,3.2-3.3,6-5.8,8.6c-2.5,2.5-5.5,4.4-8.9,5.8
				c-3.5,1.4-7.3,1.7-11.4,1c-3.2-0.5-5.7-1.4-7.6-2.5c-1.9-1.2-3.4-2.5-4.5-3.7c-1.2-1.4-2.1-3-2.6-4.8c0.7-0.2,1-0.3,1.6-0.5
				c0.5,1.3,1.2,2.5,2,3.6c0.7,0.9,1.6,1.8,2.6,2.6c1,0.8,2.2,1.3,3.7,1.5c1.7,0.3,3.5-0.2,5.4-1.5c1.9-1.3,3.7-3,5.4-5
				c1.7-2.1,3.2-4.3,4.6-6.9c1.4-2.5,2.4-4.9,3.1-7.1c0.7-2.2,1.1-4.1,1-5.7C2000,704.3,1999.4,703.3,1998.2,703.1z"/>
		</g>
	</g>
</g>
<rect x="1521.1" y="-163.2" class="st11" width="340.5" height="193.5"/>
<g>
	<path d="M2085.1,171.8c-135-41.7-270.8-31.3-406.6-10.5c-134.7,20.7-259.4,51.9-393.4,10.5c0,0-20-91.5-20-137.2
		c130.4,40.3,271.6,43.4,402.8,23.3c139.3-21.3,268.7-66.1,407.2-23.3C2075.1,34.6,2085.1,126.1,2085.1,171.8z"/>
</g>
<g>
	<g>
		<g>
			<path class="st11" d="M1356.2,80c-1.1-0.4-2.3-0.7-3.7-0.9c-4.4-0.7-8.1-0.5-11.1,0.5c-3,1-5.5,2.5-7.6,4.4c-2,2-3.5,4.2-4.6,6.8
				c-1.1,2.6-1.8,5.1-2.2,7.6c-0.4,2.5-0.6,4.8-0.6,6.8c0.1,2,0.3,3.4,0.7,4.2c-3.5-0.6-6.2-2-8.2-4.2c-2-2.2-3.1-4.7-3.4-7.5
				c-0.3-2.8,0.4-5.6,1.9-8.5c1.5-2.9,4-5.3,7.5-7.4c3.5-2,7.9-3.5,13.4-4.4c5.4-0.9,12-0.8,19.6,0.3c0.9,0.1,1.7,0.2,2.5,0.3
				c0.8,0.1,1.6,0.2,2.4,0.4C1360.1,79.2,1358.8,79.4,1356.2,80z M1321.5,122.8c0.5-1,1.2-2.4,2.2-4.3c1-1.8,2.1-3.8,3.3-6.1
				c1.3-2.3,2.6-4.7,4-7.3c1.4-2.6,2.8-5.1,4.2-7.6c3.2-5.9,6.8-12.3,10.7-19.1c6.7,0.2,10.1,0.3,16.9,0.3
				c-3.7,6.9-7.2,13.4-10.5,19.5c-1.4,2.6-2.9,5.3-4.3,8c-1.5,2.7-2.9,5.3-4.2,7.8c-1.4,2.5-2.6,4.8-3.8,6.9
				c-1.1,2.1-2.1,3.9-2.8,5.3c-3,5.8-5.2,10-6.4,12.7c-1.2,2.7-1.2,4.1,0.1,4.4c1.9,0.4,3.9-0.2,6.2-1.7c2.3-1.5,4.6-3.7,7-6.4
				c2.4-2.7,4.8-6,7.2-9.6c2.5-3.7,4.8-7.5,7-11.5c2.2-4,4.3-7.9,6.2-11.8c1.9-3.9,3.6-7.4,4.9-10.5c1.4-3.1,2.4-5.7,3.1-7.8
				c0.7-2,0.9-3.2,0.7-3.4c4-1.1,6.9-1,8.8,0.4c1.8,1.4,2.8,3.6,2.9,6.7c0.1,3.1-0.6,6.8-2.1,11.1s-3.5,8.8-6.1,13.4
				c-2.6,4.6-5.7,9.1-9.3,13.5c-3.6,4.4-7.4,8.2-11.4,11.5c-4,3.3-8.2,5.7-12.6,7.4c-4.4,1.7-8.7,2.1-12.9,1.2
				c-6.7-1.3-10.7-3.8-12-7.3C1317.1,134.8,1318.1,129.7,1321.5,122.8z"/>
			<path class="st11" d="M1374,131.2c1.1-2.1,2.1-4.3,3.1-6.4c1-2.1,2-4.1,2.8-5.8c1-2,1.9-4,2.8-5.8c6.7-0.3,10.1-0.5,16.8-1
				c-0.8,1.7-1.7,3.7-2.7,5.9c-0.9,1.8-1.9,4-3.2,6.6c-1.2,2.5-2.6,5.3-4.2,8.4c-1.5,3.1-2.8,5.6-3.7,7.6c-0.9,2-1.6,3.6-1.9,4.8
				c-0.4,1.2-0.5,2.1-0.4,2.6c0.2,0.5,0.6,0.8,1.2,0.9c1.2,0.1,2.6-0.6,4.2-2.1c1.6-1.5,3.1-3.2,4.4-5.1c1.6-2.2,3.3-4.7,5-7.5
				c-1.5,3.7-3.2,7-5.3,9.8c-0.9,1.2-1.9,2.4-3,3.5c-1.1,1.1-2.3,2.1-3.7,2.9c-1.4,0.8-2.8,1.5-4.4,1.9c-1.6,0.4-3.3,0.5-5.1,0.3
				c-3.4-0.4-5.6-1.3-6.7-2.8c-1.1-1.5-1.6-3.2-1.4-5.3c0.2-2,0.8-4.2,1.9-6.6C1371.9,135.6,1373,133.4,1374,131.2z M1387.8,103.2
				c1.3-2.6,2.5-4.9,3.4-6.7c0.9-1.8,1.9-3.2,2.8-4.3c0.9-1.1,1.9-1.9,3-2.4c1.1-0.6,2.3-1,3.8-1.2c1.5-0.3,3.3-0.4,5.4-0.5
				c2.1-0.1,4.6-0.2,7.6-0.4c-1.2,2.5-2.2,4.6-3.1,6.2c-0.8,1.6-1.7,3-2.5,4c-0.8,1.1-1.7,1.9-2.8,2.4c-1,0.5-2.3,1-3.8,1.3
				c-1.5,0.3-3.4,0.6-5.6,0.8C1393.8,102.7,1391,103,1387.8,103.2z"/>
			<path class="st11" d="M1387.9,153.9c6.2-12.9,12.5-25.9,18.6-38.8c6.7-0.6,10.1-0.9,16.8-1.6c-6.5,13.9-13.1,27.8-19.7,41.7
				C1397.3,154.7,1394.2,154.4,1387.9,153.9z M1433.3,113.7c5,0.1,8,1.8,9,5.4c1,3.5-0.5,9-4.3,16.3c-3.1,5.9-5.2,10.1-6.2,12.5
				c-1,2.4-0.9,3.7,0.4,3.7c1.2,0,2.6-0.8,4.2-2.4c1.6-1.6,3.1-3.4,4.5-5.4c1.7-2.3,3.4-5,5.1-7.9c-1.5,3.8-3.2,7.2-5.3,10.2
				c-0.9,1.3-1.9,2.5-3,3.7c-1.1,1.2-2.3,2.3-3.7,3.2c-1.4,0.9-2.8,1.7-4.4,2.2c-1.6,0.5-3.3,0.8-5,0.7c-2.2-0.1-3.9-0.5-5-1.1
				c-1.2-0.7-1.9-1.6-2.3-2.6c-0.4-1.1-0.5-2.3-0.3-3.7c0.2-1.4,0.6-2.9,1.2-4.4c0.6-1.5,1.3-3.1,2.1-4.7c0.8-1.6,1.5-3.1,2.3-4.6
				c1.1-2.2,2.1-4.2,3-6.1c0.9-1.9,1.6-3.5,2-4.8c0.5-1.3,0.7-2.4,0.6-3.2c-0.1-0.8-0.5-1.2-1.4-1.2c-0.8,0-1.7,0.4-2.6,1.2
				c-1,0.8-2,1.8-3.1,3.1c-1.1,1.3-2.1,2.8-3.2,4.5c-1.1,1.7-2.1,3.4-3.2,5.1c-2.4,4.1-4.8,8.7-7.3,13.8c0.1-0.7,0.4-1.8,1-3.1
				c0.5-1.2,1.1-2.8,2.1-4.8c0.9-2,2.1-4.7,3.7-7.9c1-2.1,2.2-4.3,3.4-6.4c1.2-2.1,2.6-4,4.2-5.6c1.6-1.7,3.3-3,5.2-4
				C1428.7,114.1,1430.9,113.6,1433.3,113.7z"/>
			<path class="st11" d="M1445,135.1c0.5-1.1,1.1-2.6,1.9-4.3c0.8-1.7,1.7-3.6,2.6-5.6c0.9-2,1.9-4.1,2.9-6.3c1-2.2,2-4.3,3-6.5
				c2.3-5,4.7-10.3,7.3-15.8c7.6-3.1,11.5-4.7,19.1-8.1c-3,6.4-5.8,12.6-8.4,18.5c-1.1,2.5-2.3,5.1-3.5,7.8
				c-1.2,2.6-2.4,5.2-3.6,7.7c-1.2,2.5-2.3,4.8-3.3,7c-1,2.2-1.9,4.1-2.6,5.7c-1.5,3.2-2.8,5.9-3.7,8c-0.9,2.1-1.5,3.8-1.9,5
				c-0.4,1.2-0.5,2.1-0.4,2.6c0.2,0.5,0.6,0.7,1.2,0.7c1.2,0,2.6-0.9,4.2-2.5c1.6-1.7,3.1-3.5,4.4-5.5c1.6-2.4,3.3-5.1,5-8
				c-1.5,3.9-3.2,7.4-5.4,10.4c-0.9,1.3-1.9,2.6-3,3.8c-1.1,1.2-2.3,2.3-3.7,3.3c-1.4,1-2.8,1.8-4.4,2.3c-1.6,0.6-3.3,0.9-5,0.9
				c-3.3,0-5.6-0.7-6.7-2c-1.1-1.4-1.5-3.1-1.3-5.1c0.2-2.1,0.9-4.3,1.9-6.9C1442.8,139.7,1443.9,137.3,1445,135.1z M1449.3,113.7
				c0.9-1.7,1.3-2.5,2.2-4.2c11-0.1,16.4-0.3,27.4-0.7c-0.8,1.7-1.3,2.6-2.1,4.3C1465.8,113.5,1460.3,113.7,1449.3,113.7z"/>
			<path class="st11" d="M1480.5,150.7c0.6,0,1.4-0.4,2.2-1.2c0.8-0.8,1.6-1.8,2.5-3c0.9-1.2,1.7-2.6,2.7-4.2
				c0.9-1.6,1.8-3.2,2.7-4.9c2-3.9,4.1-8.3,6.3-13.2c-0.3,1.2-0.7,2.7-1.2,4.7c-0.5,2-1.3,4.1-2.2,6.4c-0.9,2.3-1.9,4.7-3.1,7.1
				c-1.2,2.4-2.5,4.6-4.1,6.5c-1.5,2-3.3,3.6-5.1,4.8c-1.9,1.3-4,1.9-6.2,2c-3.5,0.1-6-0.8-7.7-2.9c-1.6-2.1-2.4-4.7-2.5-7.8
				c0-3.2,0.7-6.6,2.1-10.3c1.4-3.7,3.4-7.2,6.1-10.4c2.6-3.3,5.8-6,9.5-8.3c3.7-2.3,7.8-3.5,12.3-3.8c2.5-0.2,4.6,0.2,6.3,1
				c1.7,0.8,3.1,1.9,4.1,3c1.2,1.3,2.2,2.8,2.8,4.5c-0.7,0.3-1,0.5-1.7,0.8c-0.5-1.2-1.2-2.3-2-3.3c-0.7-0.8-1.4-1.5-2.4-2.2
				c-0.9-0.6-1.9-0.9-2.9-0.9c-1.8,0.1-3.8,1.1-5.8,2.9c-2,1.8-3.9,4.1-5.8,6.7c-1.8,2.7-3.5,5.5-5,8.6c-1.5,3.1-2.6,5.9-3.3,8.5
				c-0.7,2.6-1.1,4.7-0.9,6.4C1478.3,149.9,1479.1,150.8,1480.5,150.7z M1492.5,133.6c1-2.3,2-4.7,3.1-7c1-2.3,2-4.4,2.9-6.3
				c1-2.2,1.9-4.3,2.8-6.3c6.7-1.4,10.1-2.1,16.8-3.6c-0.9,1.9-1.8,4-2.8,6.3c-0.9,2-2,4.4-3.2,7.1c-1.2,2.7-2.5,5.8-4.1,9.1
				c-1.5,3.3-2.8,6.1-3.7,8.2c-0.9,2.2-1.5,3.9-1.9,5.2c-0.4,1.3-0.5,2.2-0.4,2.6c0.2,0.5,0.6,0.7,1.2,0.7c1.2-0.1,2.6-1,4.2-2.8
				c1.6-1.8,3.1-3.7,4.4-5.8c1.6-2.5,3.3-5.2,5-8.3c-1.5,4-3.2,7.5-5.4,10.7c-0.9,1.4-1.9,2.7-3,4c-1.1,1.3-2.3,2.5-3.7,3.5
				c-1.4,1.1-2.8,1.9-4.4,2.6c-1.6,0.7-3.3,1.1-5,1.2c-3.3,0.2-5.6-0.4-6.7-1.6c-1.1-1.3-1.5-3-1.3-5.1c0.2-2.1,0.9-4.4,1.9-7
				C1490.4,138.4,1491.5,136,1492.5,133.6z"/>
			<path class="st11" d="M1531.7,145.7c2.1-5,4.2-9.7,6.1-14.1c1.9-4.3,3.6-8.2,5-11.4c1.6-3.8,3.2-7.3,4.5-10.5
				c6.7-1.7,10-2.5,16.6-4.2c-1.1,2.7-2.5,5.9-4.1,9.6c-1.4,3.1-3.1,7.1-5.2,11.8c-2,4.7-4.5,10.2-7.3,16.5
				c-2.8,6.2-5.5,11.3-7.9,15.3c-2.5,4-5,7.1-7.7,9.4c-2.6,2.3-5.5,4-8.5,5c-3,1-6.5,1.7-10.3,2c-3.5,0.3-6.4-0.3-8.5-1.7
				c-2.1-1.4-3.5-3.1-4.2-5.2c-0.7-2.1-0.8-4.3-0.2-6.7s1.8-4.4,3.7-6.2s4.3-2.9,7.4-3.6c3.1-0.7,6.7-0.4,11,0.8
				c-1.9,1-3.6,2.7-5.1,5.1c-1.5,2.4-2.7,4.7-3.6,7.1c-0.9,2.3-1.4,4.4-1.5,6.2c-0.1,1.8,0.4,2.6,1.4,2.6c0.7-0.1,1.7-0.6,2.9-1.6
				c1.2-1,2.6-2.6,4.1-4.7c1.5-2.2,3.3-5,5.2-8.4C1527.4,155,1529.5,150.8,1531.7,145.7z M1528.6,142.8c0.6-0.1,1.2-0.4,1.9-1.1
				c0.7-0.7,1.5-1.5,2.3-2.6c0.8-1.1,1.6-2.3,2.4-3.6c0.8-1.3,1.5-2.7,2.3-4.1c1.8-3.2,3.5-7,5.2-11.1c-0.4,1.8-1,4.1-1.8,7.1
				c-0.8,3-2,6-3.5,9c-1.5,3-3.4,5.7-5.7,7.9c-2.3,2.3-5.2,3.6-8.6,3.9c-3.5,0.3-6.1-0.4-7.8-2.2c-1.7-1.7-2.7-4-2.9-6.8
				c-0.2-2.8,0.3-5.9,1.6-9.3c1.3-3.4,3.1-6.6,5.5-9.7c2.4-3,5.4-5.6,9-7.9c3.6-2.2,7.6-3.6,12-4c2.5-0.3,4.6,0,6.3,0.8
				c1.7,0.8,3.1,1.8,4.1,2.8c1.2,1.2,2.2,2.7,2.8,4.4c-0.7,0.3-1,0.5-1.7,0.8c-0.5-1.2-1.2-2.3-2-3.2c-0.7-0.8-1.4-1.5-2.4-2.1
				c-0.9-0.6-1.9-0.9-2.8-0.8c-1.8,0.2-3.7,1.1-5.6,2.8c-1.9,1.7-3.7,3.7-5.4,6.1c-1.7,2.4-3.2,4.9-4.4,7.7
				c-1.3,2.8-2.2,5.3-2.8,7.5c-0.6,2.3-0.8,4.1-0.5,5.6C1526.4,142.3,1527.2,143,1528.6,142.8z"/>
			<path class="st11" d="M1574.4,145.4c4.8-0.5,9.2-2.4,13.1-5.5c3.9-3.1,7.7-7.2,11.4-12.1c-1.3,2.4-2.9,4.7-4.9,6.9
				c-2,2.2-4.1,4.3-6.5,6.1c-2.4,1.8-5,3.4-7.7,4.6c-2.7,1.2-5.6,2-8.6,2.3c-4.6,0.5-8.1-0.1-10.5-2c-2.4-1.8-3.8-4.3-4.2-7.5
				c-0.4-3.2,0.1-6.7,1.5-10.5c1.4-3.8,3.5-7.5,6.4-11c2.9-3.5,6.4-6.6,10.6-9.2c4.2-2.6,8.9-4.1,14.2-4.7c3.5-0.4,6.3,0,8.1,1.1
				c1.9,1.1,3,2.7,3.3,4.8c0.3,2-0.1,4.4-1.3,7c-1.2,2.6-3.2,5.2-5.9,7.9c-2.7,2.6-6.1,5-10.1,7.3c-4.1,2.2-8.8,4-14.2,5.3
				c-0.9-0.3-1.2-0.6-0.8-1c0.4-0.4,0.8-0.7,1.3-0.8c1.9-0.4,3.8-1.5,5.7-3.2c1.9-1.7,3.7-3.6,5.3-5.9c1.6-2.2,3.1-4.6,4.5-7.1
				c1.4-2.5,2.4-4.7,3.2-6.8c0.8-2,1.2-3.7,1.4-5.1c0.1-1.3-0.2-2-1-1.9c-1,0.1-2.4,1.2-4.2,3.3c-1.8,2.1-3.6,4.8-5.5,7.9
				c-1.9,3.1-3.7,6.5-5.3,10c-1.6,3.5-2.8,6.8-3.6,9.8c-0.7,3-0.8,5.4-0.3,7.3C1570.4,144.8,1571.9,145.6,1574.4,145.4z"/>
		</g>
		<g>
			<path class="st11" d="M1768.7,126.1c9.9-22.6,19.7-45.2,29.6-67.8c6.7-1.6,10-2.5,16.6-4c-10.2,23.3-20.3,46.7-30.3,70
				C1778.2,125,1775,125.3,1768.7,126.1z M1780.4,89.3c-3.5,0.5-6.2,0-8.2-1.5c-2-1.6-3.1-3.7-3.3-6.4c-0.3-2.7,0.4-5.8,1.9-9.2
				c1.5-3.4,4-6.7,7.4-9.9c3.4-3.2,7.8-6,13.3-8.5c5.4-2.5,11.9-4.1,19.5-4.9c7.2-0.7,12.8-0.2,16.8,1.5c4,1.6,6.7,3.9,8,6.8
				c1.3,2.9,1.3,6.1,0.2,9.6c-1.2,3.5-3.4,6.9-6.8,10.1s-7.6,6.1-12.8,8.5c-5.2,2.4-11.2,4-17.8,4.7c-1.6,0.2-2.5,0.1-2.8-0.1
				c-0.3-0.2-0.3-0.5,0-0.7c0.3-0.3,0.8-0.6,1.6-0.9s1.4-0.5,2-0.6c2.7-0.3,5.4-1.4,8.1-3.5c2.7-2,5.2-4.5,7.4-7.3
				c2.2-2.9,4-5.9,5.3-9.1c1.4-3.2,2-6.1,2-8.8c0-2.7-0.9-4.8-2.6-6.4c-1.7-1.6-4.5-2.2-8.4-1.8c-4.3,0.4-8.1,1.6-11.4,3.4
				c-3.3,1.9-6.1,4.1-8.5,6.7c-2.4,2.6-4.3,5.4-5.9,8.4c-1.6,3-2.7,5.8-3.5,8.5c-0.8,2.7-1.3,5.1-1.5,7.1
				C1779.9,87.3,1780,88.7,1780.4,89.3z M1817.6,120.8c-4.5,0.4-8.1,0.5-10.7,0.1c-2.6-0.3-4.5-1-5.7-1.9c-1.2-0.9-1.9-2.1-2-3.5
				c-0.1-1.4,0.1-2.9,0.6-4.6c0.5-1.7,1.1-3.3,1.9-5.1c0.8-1.7,1.5-3.4,2.2-5.1c0.6-1.7,1-3.2,1.1-4.6c0.1-1.4-0.3-2.6-1.2-3.6
				c-0.9-1-2.4-1.7-4.6-2c-2.2-0.4-5.3-0.3-9.2,0.1c6.3-1.1,9.4-1.6,15.7-2.6c4.3-0.4,7.5-0.3,9.7,0.5c2.1,0.8,3.5,1.9,4.2,3.5
				c0.7,1.5,0.8,3.3,0.4,5.4c-0.4,2.1-1.1,4.2-2,6.4c-0.9,2.2-1.8,4.3-2.8,6.5c-1,2.1-1.6,4-2,5.6c-0.4,1.6-0.3,2.9,0.3,3.8
				C1814,120.6,1815.4,121,1817.6,120.8z"/>
			<path class="st11" d="M1840.6,117c4.8-0.3,9.2-2,13.1-4.9c3.9-2.9,7.8-6.7,11.5-11.3c-1.3,2.3-2.9,4.4-4.9,6.6
				c-2,2.1-4.2,4-6.6,5.7c-2.4,1.7-5,3.1-7.7,4.2c-2.7,1.1-5.6,1.8-8.6,2c-4.6,0.3-8.1-0.4-10.5-2.3c-2.4-1.9-3.8-4.4-4.2-7.6
				c-0.4-3.2,0.1-6.6,1.5-10.4c1.4-3.8,3.5-7.4,6.4-10.8c2.9-3.4,6.4-6.4,10.6-8.7c4.2-2.4,8.9-3.7,14.2-4c3.6-0.2,6.3,0.4,8.2,1.6
				c1.9,1.3,3,2.9,3.3,5c0.3,2-0.1,4.3-1.3,6.9c-1.2,2.5-3.2,5-5.9,7.5c-2.7,2.4-6.1,4.7-10.2,6.7c-4.1,2-8.8,3.6-14.3,4.7
				c-0.9-0.3-1.2-0.6-0.8-1c0.4-0.4,0.8-0.6,1.3-0.7c1.9-0.4,3.8-1.3,5.7-2.9c1.9-1.6,3.7-3.5,5.3-5.6c1.6-2.2,3.1-4.4,4.5-6.8
				c1.4-2.4,2.4-4.6,3.2-6.6c0.8-2,1.2-3.7,1.4-5c0.1-1.3-0.2-2-1-1.9c-1,0.1-2.4,1.1-4.2,3.1c-1.8,2-3.6,4.6-5.5,7.6
				c-1.9,3-3.7,6.3-5.3,9.8c-1.6,3.5-2.8,6.7-3.6,9.7c-0.7,3-0.8,5.4-0.3,7.3C1836.5,116.4,1838,117.2,1840.6,117z"/>
			<path class="st11" d="M1891.1,74.9c-1.1,2.4-2.4,5.1-3.7,8.1c-1.3,3-2.7,6-4.1,9.2c-1.4,3.2-2.9,6.4-4.4,9.7
				c-1.5,3.3-2.9,6.4-4.3,9.5c-3.2,7.1-6.5,14.5-9.8,22.1c-6.7,1.2-10,1.8-16.7,3.1c3.1-7,6.2-14.1,9.4-21.2
				c1.3-3.1,2.8-6.3,4.3-9.6c1.5-3.3,3-6.7,4.6-10.1c1.5-3.4,3.1-6.7,4.6-10c1.5-3.3,3-6.5,4.4-9.5c2.7-6,5.4-10.8,7.9-14.6
				c2.5-3.7,5.1-6.7,7.8-8.7c2.7-2.1,5.5-3.5,8.6-4.2c3-0.7,6.5-1.1,10.3-1c3.5,0.1,6.2,0.8,8.1,2c1.9,1.3,3.1,2.8,3.6,4.5
				c0.5,1.7,0.4,3.5-0.4,5.4c-0.8,1.9-2.1,3.5-3.9,4.9c-1.8,1.4-4.1,2.3-6.8,2.9c-2.7,0.5-5.8,0.3-9.2-0.6c1.7-1.7,3.3-3.5,4.6-5.5
				c1.4-2,2.4-3.9,3.1-5.6c0.7-1.7,1.1-3.2,1.2-4.4c0.1-1.2-0.2-1.8-1-1.8c-0.7,0-1.7,0.4-2.8,1.3c-1.2,0.9-2.5,2.3-4.1,4.3
				c-1.5,2-3.3,4.6-5.2,7.9C1895.4,66.1,1893.3,70.1,1891.1,74.9z M1870.9,74.7c0.9-1.7,1.3-2.5,2.2-4.2c10.6-0.3,15.9-0.4,26.6-0.4
				c-0.8,1.7-1.3,2.5-2.1,4.2C1886.9,74.2,1881.6,74.3,1870.9,74.7z"/>
			<path class="st11" d="M1887.8,95.6c1-2.3,2.1-4.6,3.2-6.8c1-2.2,2.1-4.3,3-6.1c1-2.1,2-4.2,3-6.1c6.7-0.9,10.1-1.4,16.8-2.1
				c-0.9,1.8-1.8,3.8-2.9,6c-0.9,1.9-2,4.2-3.3,6.8c-1.2,2.6-2.6,5.5-4.2,8.7c-1.5,3.2-2.8,5.8-3.7,7.8c-0.9,2-1.6,3.6-1.9,4.8
				c-0.4,1.2-0.5,2-0.3,2.5c0.2,0.5,0.6,0.7,1.2,0.7c1,0,2.4-1,4.2-3.1c1.8-2.1,3.7-4.7,5.7-7.8c2-3.1,4-6.4,5.9-10.1
				c1.9-3.6,3.5-7,4.8-10.1c-2.3,5.7-4.4,10.8-6.5,15.2c-2,4.5-4.1,8.3-6.2,11.4c-2.1,3.1-4.3,5.5-6.6,7.1c-2.3,1.6-4.9,2.5-7.8,2.5
				c-3.3,0-5.7-0.4-7.1-1.4c-1.4-1-2.2-2.4-2.3-4.2c-0.1-1.8,0.4-4.1,1.4-6.7C1885.1,101.8,1886.4,98.8,1887.8,95.6z M1912,95.7
				c1-2.2,2-4.5,3.1-6.7c1-2.2,2-4.2,2.9-6c1-2.1,1.9-4.1,2.8-6c6.7-0.7,10.1-1,16.8-1.5c-0.9,1.7-1.8,3.8-2.8,5.9
				c-0.9,1.8-2,4.1-3.2,6.6c-1.2,2.6-2.5,5.4-4.1,8.5c-1.5,3.1-2.8,5.7-3.7,7.8c-0.9,2.1-1.5,3.7-1.9,4.9c-0.4,1.2-0.5,2.1-0.4,2.6
				c0.2,0.5,0.6,0.8,1.2,0.8c1.2,0,2.6-0.7,4.2-2.3c1.6-1.6,3.1-3.3,4.4-5.2c1.6-2.3,3.3-4.8,5-7.6c-1.5,3.7-3.3,7.1-5.4,9.9
				c-0.9,1.2-1.9,2.4-3,3.6c-1.1,1.2-2.3,2.2-3.7,3.1c-1.4,0.9-2.8,1.6-4.4,2.1c-1.6,0.5-3.3,0.8-5,0.7c-3.3-0.1-5.6-0.8-6.7-2.2
				c-1.1-1.4-1.5-3.1-1.3-5.1c0.2-2.1,0.9-4.3,1.9-6.8C1909.8,100.3,1910.9,97.9,1912,95.7z"/>
			<path class="st11" d="M1925.6,117.4c6.2-13.1,12.5-26.1,18.7-39.2c6.7-0.5,10.1-0.6,16.8-0.9c-6.6,13.6-13.2,27.2-19.8,40.9
				C1935.1,117.8,1931.9,117.7,1925.6,117.4z M1969.7,78.3c3.6,0.4,6.1,1.4,7.5,2.8c1.4,1.4,2,3,2,4.9c0,1.8-0.5,3.8-1.5,5.8
				c-1,2-2,3.9-2.9,5.6c-1,1.7-1.8,3.2-2.3,4.3c-0.6,1.2-0.5,1.8,0.3,1.9c1.2,0.1,2.5-0.2,3.9-1.1c1.4-0.9,2.7-1.8,3.8-3
				c1.3-1.3,2.6-2.8,3.9-4.6c-1.4,2.6-3.1,4.8-4.9,6.6c-1.6,1.6-3.7,3-6.1,4.3c-2.4,1.2-5.3,1.7-8.6,1.3c-2.9-0.3-4.9-1.1-5.9-2.3
				c-1-1.2-1.4-2.7-1.2-4.4c0.2-1.7,0.8-3.5,1.7-5.5c0.9-1.9,1.8-3.7,2.7-5.4c0.9-1.6,1.5-3,1.9-4.1c0.4-1.1,0.1-1.7-0.8-1.8
				c-1.3-0.1-2.6,0.3-3.8,1.4c-1.3,1.1-2.4,2.3-3.3,3.6c-1.2,1.6-2.2,3.4-3.2,5.4c-0.5,0.7-1.1,1.4-1.8,2c-0.6,0.6-1.2,1.2-1.6,1.6
				c-0.4,0.5-0.8,0.8-1.1,0.9c-0.3,0.2-0.4,0.1-0.2-0.2c1.2-2.8,2.6-5.5,4.3-8.1c1.6-2.6,3.4-4.8,5.3-6.7c1.9-1.9,3.8-3.4,5.8-4.4
				C1965.5,78.4,1967.6,78,1969.7,78.3z"/>
			<path class="st11" d="M1971.4,121c10.6-21.5,21.3-42.9,32.1-64.2c6.8,0.3,10.1,0.5,16.9,1c-10.9,21-21.6,42-32.1,63.1
				C1981.6,120.8,1978.2,120.8,1971.4,121z M2010.2,90.3c-0.8-0.2-1.7,0.1-2.6,0.7c-1,0.6-2,1.5-3.1,2.7c-1.1,1.1-2.2,2.5-3.2,4
				c-1.1,1.5-2.2,3.1-3.2,4.7c-2.4,3.8-4.8,8.1-7.3,12.9c0.1-0.7,0.4-1.7,1-3c0.5-1.1,1.1-2.7,2-4.6c0.9-1.9,2.1-4.5,3.6-7.5
				c1-2,2.3-4,3.5-5.9c1.3-1.9,2.7-3.6,4.2-5c1.6-1.4,3.3-2.5,5.2-3.2c1.9-0.7,4.1-0.8,6.5-0.3c3.3,0.7,5.7,2.3,7.2,4.7
				c1.5,2.4,2.3,5.2,2.3,8.3c0,3.1-0.7,6.4-2.2,9.7c-1.4,3.3-3.5,6.3-6,8.9c-2.6,2.6-5.7,4.6-9.3,6c-3.6,1.4-7.5,1.7-11.8,1
				c-3.3-0.5-5.9-1.4-7.9-2.6c-2-1.2-3.5-2.6-4.6-3.9c-1.2-1.5-2.2-3.1-2.7-4.9c0.7-0.2,1-0.3,1.7-0.5c0.5,1.3,1.2,2.6,2,3.7
				c0.7,1,1.6,1.8,2.7,2.7c1.1,0.8,2.3,1.4,3.8,1.6c1.8,0.3,3.7-0.3,5.6-1.6c2-1.3,3.8-3.1,5.6-5.2c1.8-2.1,3.3-4.5,4.8-7.1
				c1.4-2.6,2.5-5.1,3.3-7.4c0.8-2.3,1.1-4.3,1-6C2012,91.5,2011.4,90.6,2010.2,90.3z"/>
		</g>
	</g>
</g>
<polygon class="st18" points="1742,202.4 1686.5,220 1636.4,202.4 1636.4,44 1742,44 "/>
<rect x="2448.5" y="499.6" width="970.7" height="164.4"/>
<polygon points="2993.7,341.6 2940.1,356.8 2892,341.6 2886.8,205.1 2997.9,205.1 "/>
<polygon class="st18" points="2995.3,683.4 2921,705.1 2853.7,683.4 2853.7,488.1 2995.3,488.1 "/>
<text transform="matrix(1 0 0 1 2496.2402 616.1926)" class="st11" style="font-family:'LighthousePersonalUse'; font-size:110.9343px;">Vintage</text>
<text transform="matrix(1 0 0 1 3075.5022 616.1926)" class="st11" style="font-family:'LighthousePersonalUse'; font-size:110.9343px;">Refurb</text>
<text transform="matrix(1 0 0 1 2526.0051 308.5976)" style="font-family:'LighthousePersonalUse'; font-size:113.8869px;">Vintage</text>
<text transform="matrix(1 0 0 1 3069.1418 308.5976)" style="font-family:'LighthousePersonalUse'; font-size:113.8869px;">Refurb</text>
<text transform="matrix(0.9998 1.979000e-02 -1.979000e-02 0.9998 2912.3611 302.9075)" class="st11" style="font-family:'LighthousePersonalUse'; font-size:107.403px;">&amp;</text>
<g>
	<g>
		<path d="M1535.8-50.5h20.7v48.8H1437v-48.8h21.5v-22.4l-90.4,0.2v-45.6l93.4-110.9l74.4,0.2v112.9l38.5-0.3v43.6h-38.7V-50.5z
			 M1458.5-116.4v-39.7l-32,39.5L1458.5-116.4z"/>
	</g>
	<g>
		<path d="M1618.7-1.6l-0.2-55.1l15.3,0.2v-106.3l-27.8,0.2v-43.7l112.2-28.3l1,178.2h16.3v54.9H1618.7z"/>
	</g>
	<g>
		<path d="M1841-48.8c4.4,0,8.7-0.4,12.8-1.2c4.1-0.8,8.1-2.1,12-3.9c3.9-1.8,7-4.4,9.4-7.7c2.4-3.3,3.6-7.3,3.6-12
			c0-5.3-1.3-9.9-3.9-13.8c-2.6-3.9-6-6.9-10.3-8.9c-4.3-2-8.8-3.5-13.4-4.4c-4.6-0.9-9.5-1.4-14.6-1.4c-4.4,0-8.9,0.6-13.6,1.7
			c-4.6,1.1-7.3,1.7-8,1.7c-1.6,0-2.7-0.3-3.4-0.8l-0.2-0.8v-26.8l58-49.3v-1.7h-37.3c-8.1,0-13.8,2.3-17.1,7
			c-1.7,2.5-3.7,8.3-6.1,17.3l-32.9-0.2v-76.8h181.2v44.8c0,0.3-16,13.7-48.1,40.2c16.3,1.5,30.3,8.5,42,21.2
			c11.7,12.7,17.5,26.9,17.5,42.7c0,26.7-9.9,47.2-29.6,61.7c-19.7,14.5-46.5,21.7-80.4,21.7c-17.9,0-33.2-1-46-3.1
			c-12.8-2-24.3-6.4-34.3-13.2v-58.7C1798.7-57,1819.6-48.8,1841-48.8z"/>
	</g>
</g>
<polygon class="st18" points="1729.2,347.4 1665.6,363.2 1607.3,347.4 1601.2,205.3 1735.2,205.3 "/>
<polygon class="st19" points="3008.6,357.7 2939.5,376.8 2876.2,357.7 2869.6,185 3015.1,185 "/>
<circle class="st1" cx="4899.1" cy="206.1" r="74.4"/>
<text transform="matrix(1 0 0 1 4843.8984 222.3726)" class="st11" style="font-family:'Bevan'; font-size:42.566px;">User</text>
<circle class="st1" cx="4899.1" cy="1134.1" r="74.4"/>
<text transform="matrix(1 0 0 1 4843.8984 1150.3726)" class="st11" style="font-family:'Bevan'; font-size:42.566px;">User</text>
<circle class="st1" cx="4899.1" cy="704.1" r="116.4"/>
<text transform="matrix(1 0 0 1 4825.7397 729.5635)" class="st11" style="font-family:'Bevan'; font-size:66.6041px;">Site</text>
<rect x="4430.1" y="171.4" class="st3" width="222.5" height="67"/>
<text transform="matrix(1 0 0 1 4497.5508 219.6972)" class="st11" style="font-family:'Bevan'; font-size:32.3814px;">Ebay</text>
<rect x="4430.1" y="286.9" class="st3" width="222.5" height="67"/>
<text transform="matrix(1 0 0 1 4479.2095 335.2441)" class="st11" style="font-family:'Bevan'; font-size:32.3814px;">Listing</text>
<rect x="4430.1" y="433.7" class="st3" width="222.5" height="91"/>
<text transform="matrix(1 0 0 1 4504.7842 494.0058)" class="st11" style="font-family:'Bevan'; font-size:32.3814px;">Sale</text>
<rect x="5157.2" y="433.7" class="st3" width="222.5" height="91"/>
<text transform="matrix(1 0 0 1 5225.4868 494.0058)" class="st11" style="font-family:'Bevan'; font-size:32.3814px;">Sale</text>
<rect x="4430.1" y="638.9" class="st3" width="222.5" height="103"/>
<text transform="matrix(1 0 0 1 4481.2256 705.1738)" class="st11" style="font-family:'Bevan'; font-size:32.3814px;">Profile</text>
<text transform="matrix(1 0 0 1 4505.314 977.1738)" class="st11" style="font-family:'Bevan'; font-size:32.3814px;">SEO</text>
<rect x="4785.2" y="911.6" class="st3" width="222.5" height="101.4"/>
<rect x="5155.2" y="911.6" class="st3" width="222.5" height="101.4"/>
<text transform="matrix(1 0 0 1 4862.1289 960.873)"><tspan x="0" y="0" class="st11" style="font-family:'Bevan'; font-size:22.5748px;">Word</tspan><tspan x="-24.4" y="27.1" class="st11" style="font-family:'Bevan'; font-size:22.5748px;"> of Mouth</tspan></text>
<text transform="matrix(1 0 0 1 5188.2681 977.1738)" class="st11" style="font-family:'Bevan'; font-size:26px;">Marketing</text>
<rect x="5151.2" y="638.9" class="st3" width="222.5" height="103"/>
<text transform="matrix(1 0 0 1 5239.6235 689.3204)"><tspan x="0" y="0" class="st11" style="font-family:'Bevan'; font-size:21.3877px;">Site </tspan><tspan x="-48" y="25.7" class="st11" style="font-family:'Bevan'; font-size:21.3877px;">Ebay Listing</tspan></text>
<polygon class="st20" points="5050.1,429 5133.2,479.2 5050.1,529.4 4967,479.2 "/>
<polygon class="st20" points="5048.1,267.6 5120.3,311.2 5048.1,354.8 4975.9,311.2 "/>
<text transform="matrix(1 0 0 1 5015.2183 489.1407)" class="st1" style="font-family:'Bevan'; font-size:22.3611px;">Email</text>
<text transform="matrix(1 0 0 1 5018.5864 321.721)" class="st1" style="font-family:'Bevan'; font-size:25.6487px;">Info</text>
<polyline class="st8" points="4836.1,233.2 4720.1,233.2 4720.1,671.2 4772.1,671.2 "/>
<polygon class="st1" points="4675.5,220.6 4652.7,207.4 4675.5,194.2 "/>
<polygon class="st1" points="4996,246.1 4973.2,232.9 4996,219.7 "/>
<polygon class="st1" points="4762.7,657.7 4785.5,670.9 4762.7,684.1 "/>
<polygon class="st1" points="5034.9,686.6 5012,673.4 5034.9,660.2 "/>
<polygon class="st1" points="4408.7,662.2 4431.5,675.4 4408.7,688.6 "/>
<polygon class="st1" points="4408.7,702.2 4431.5,715.4 4408.7,728.6 "/>
<polygon class="st1" points="5129.7,686.2 5152.5,699.4 5129.7,712.6 "/>
<polygon class="st1" points="5255.4,545.8 5268.6,523 5281.8,545.8 "/>
<polygon class="st1" points="4888.4,839.8 4901.6,817 4914.8,839.8 "/>
<polygon class="st1" points="4888.4,1034.8 4901.6,1012 4914.8,1034.8 "/>
<polygon class="st1" points="5266.4,1034.8 5279.6,1012 5292.8,1034.8 "/>
<polygon class="st1" points="4533,1034.8 4546.2,1012 4559.4,1034.8 "/>
<line class="st0" x1="4902.1" y1="1085.3" x2="4902.1" y2="1029.3"/>
<polygon class="st1" points="4410.1,184.2 4433,197.4 4410.1,210.6 "/>
<text transform="matrix(-1 0 0 -1 168.261 93.6973)" class="st13 st14 st15">}</text>
<rect x="310.1" y="1058.6" class="st13" width="74.5" height="244.8"/>
<polygon class="st13" points="385,1045.2 282.9,1045.2 243.2,1120.1 385,1120.1 "/>
<path class="st13" d="M234.3,1170.2H157c0,74,60.1,133.1,133.1,133.1V1226C259.1,1226,234.3,1201.2,234.3,1170.2z"/>
<g>
	<polygon class="st13" points="1295.1,1203.1 1213.7,1044.8 1115.8,1045.6 1247,1300.6 	"/>
	<polygon class="st13" points="1419.9,1203.5 1339.8,1044.2 1241.9,1044.2 1371,1300.4 	"/>
	<polygon class="st13" points="1402.7,1044.9 1384.8,1080.4 1433.5,1176.9 1500.1,1044.9 	"/>
</g>
<text transform="matrix(1 0 0 1 2697.8169 1301.0127)" class="st13 st14 st15">}</text>
<text transform="matrix(1 0 0 1 221.3783 1378.6984)" class="st13 st16 st17">Design &amp; Development</text>
<text transform="matrix(-1 0 0 -1 168.261 1085.6973)" class="st13 st14 st15">}</text>
<g>
	<g>
		<path class="st0" d="M4798.7,1405.4c-409.4-21.7-734.7-360.6-734.7-775.4c0-428.8,347.6-776.5,776.5-776.5S5617,201.2,5617,630.1
			s-347.6,776.5-776.5,776.5"/>
		<g>
			<polygon class="st1" points="4779.9,1378.7 4790.1,1404.9 4778.2,1430.5 4840.5,1406.5 			"/>
		</g>
	</g>
</g>
<g>
	<g>
		<path class="st0" d="M4274.4,47.2c1.4-1.4,2.9-2.8,4.3-4.2"/>
		<path class="st21" d="M4287.4,34.8c322.6-300,827.4-288.4,1135.9,29.1c312.6,321.9,305.1,836.3-16.8,1148.9
			c-321.9,312.6-836.3,305.1-1148.9-16.8C3959.4,889.1,3952.5,406.8,4232,91.6"/>
		<path class="st0" d="M4236,87.2c1.3-1.5,2.7-3,4-4.4"/>
		<g>
			<polygon class="st1" points="4274.4,47.2 4246.7,117.2 4237.6,85.5 4205.6,77.7 			"/>
		</g>
	</g>
</g>
<g>
	<g>
		<path class="st0" d="M4065.1,588.3c21.7-409.4,360.6-734.7,775.4-734.7c428.8,0,776.5,347.6,776.5,776.5s-347.6,776.5-776.5,776.5
			S4064,1058.9,4064,630.1"/>
		<g>
			<polygon class="st1" points="4091.9,569.5 4065.6,579.7 4040,567.8 4064,630.1 			"/>
		</g>
	</g>
</g>
<g>
	<g>
		<path class="st0" d="M5615.9,671.8c-21.7,409.4-360.6,734.7-775.4,734.7c-428.8,0-776.5-347.6-776.5-776.5
			s347.6-776.5,776.5-776.5S5617,201.2,5617,630.1"/>
		<g>
			<polygon class="st1" points="5589.1,690.7 5615.4,680.5 5640.9,692.3 5617,630.1 			"/>
		</g>
	</g>
</g>
<g>
	<g>
		<path class="st0" d="M4882.3-145.3c409.4,21.7,734.7,360.6,734.7,775.4c0,428.8-347.6,776.5-776.5,776.5S4064,1058.9,4064,630.1
			s347.6-776.5,776.5-776.5"/>
		<g>
			<polygon class="st1" points="4901.1,-118.6 4890.9,-144.8 4902.7,-170.4 4840.5,-146.4 			"/>
		</g>
	</g>
</g>
<g>
	<g>
		<path class="st0" d="M5423.3,64c1.4,1.4,2.8,2.9,4.2,4.3"/>
		<path class="st21" d="M5435.7,77c300,322.6,288.4,827.4-29.1,1135.9c-321.9,312.6-836.3,305.1-1148.9-16.8
			C3945,874.2,3952.5,359.9,4274.4,47.2c307.1-298.2,789.3-305.1,1104.5-25.7"/>
		<path class="st0" d="M5383.4,25.6c1.5,1.3,3,2.7,4.4,4"/>
		<g>
			<polygon class="st1" points="5423.3,64 5353.4,36.3 5385,27.2 5392.8,-4.8 			"/>
		</g>
	</g>
</g>
<g>
	<g>
		<path class="st0" d="M5406.6,1212.9c-1.4,1.4-2.9,2.8-4.3,4.2"/>
		<path class="st21" d="M5393.5,1225.3c-322.6,300-827.4,288.4-1135.9-29.1C3945,874.2,3952.5,359.9,4274.4,47.2
			c321.9-312.6,836.3-305.1,1148.9,16.8c298.2,307.1,305.1,789.3,25.7,1104.5"/>
		<path class="st0" d="M5445,1173c-1.3,1.5-2.7,3-4,4.4"/>
		<g>
			<polygon class="st1" points="5406.6,1212.9 5434.3,1143 5443.4,1174.6 5475.3,1182.4 			"/>
		</g>
	</g>
</g>
<g>
	<g>
		<path class="st0" d="M4257.7,1196.1c-1.4-1.4-2.8-2.9-4.2-4.3"/>
		<path class="st21" d="M4245.3,1183.1c-300-322.6-288.4-827.4,29.1-1135.9c321.9-312.6,836.3-305.1,1148.9,16.8
			c312.6,321.9,305.1,836.3-16.8,1148.9c-307.1,298.2-789.3,305.1-1104.5,25.7"/>
		<path class="st0" d="M4297.6,1234.6c-1.5-1.3-3-2.7-4.4-4"/>
		<g>
			<polygon class="st1" points="4257.7,1196.1 4327.6,1223.9 4296,1232.9 4288.2,1264.9 			"/>
		</g>
	</g>
</g>
<rect x="410.2" y="1263.7" class="st13" width="142.5" height="39.1"/>
<rect x="410.2" y="1189.2" class="st13" width="142.5" height="39.1"/>
<rect x="410.2" y="1115.2" class="st13" width="142.5" height="39.1"/>
</svg>
