<?xml version="1.0" encoding="utf-8"?>
<!-- Generator: Adobe Illustrator 19.1.0, SVG Export Plug-In . SVG Version: 6.00 Build 0)  -->
<!DOCTYPE svg PUBLIC "-//W3C//DTD SVG 1.1//EN" "http://www.w3.org/Graphics/SVG/1.1/DTD/svg11.dtd">
<svg version="1.1" id="Layer_1" xmlns="http://www.w3.org/2000/svg" xmlns:xlink="http://www.w3.org/1999/xlink" x="0px" y="0px"
	 viewBox="0 0 462 304.9" style="enable-background:new 0 0 462 304.9;" xml:space="preserve">
<style type="text/css">
	.st0{clip-path:url(#XMLID_2_);}
	.st1{fill:#F0685D;}
	.st2{fill:#727AB0;}
	.st3{fill:#42C3D3;}
	.st4{fill:#FFCC67;}
	.st5{fill:#56C4C1;}
	.st6{fill:#90D1BB;}
	.st7{fill:url(#XMLID_3_);}
	.st8{fill:url(#XMLID_4_);}
	.st9{fill:#727BB0;}
</style>
<g id="XMLID_336_">
	<defs>
		<rect id="XMLID_314_" y="-19.6" width="468" height="324.5"/>
	</defs>
	<clipPath id="XMLID_2_">
		<use xlink:href="#XMLID_314_"  style="overflow:visible;"/>
	</clipPath>
	<g id="XMLID_313_" class="st0">
		<polygon class="st1" points="382.4,14.1 409.4,-1.4 436.3,14.1 409.4,29.7 		"/>
		<polygon class="st2" points="304,280.2 303.8,249.1 330.7,233.4 330.8,264.5 		"/>
		<polygon class="st3" points="331,233.7 304.1,218.1 277.1,233.7 304.1,249.2 		"/>
		<polygon class="st1" points="409.2,-1.3 382.2,-16.7 382,-47.8 409,-32.4 		"/>
		<polygon class="st2" points="355.4,-1.3 382.3,14.3 409.2,-1.3 382.3,-16.8 		"/>
		<polygon class="st4" points="114.9,-36.9 115,-5.8 88.1,9.9 88,-21.3 		"/>
		<polygon class="st2" points="142,9.5 115,-5.9 114.8,-37 141.8,-21.6 		"/>
		<polygon class="st2" points="88.1,9.6 115.1,25.2 142,9.6 115.1,-5.9 		"/>
		<polygon class="st2" points="-177.6,17.5 -177.7,-13.7 -150.8,-29.3 -150.7,1.8 		"/>
		<polygon class="st2" points="-204.7,-28.9 -177.6,-13.5 -177.5,17.6 -204.5,2.2 		"/>
		<polygon class="st5" points="-151.6,-30.8 -178.6,-46.3 -205.5,-30.7 -178.6,-15.2 		"/>
		<polygon class="st3" points="180.8,23.8 180.7,-7.3 207.6,-23 207.7,8.1 		"/>
		<polygon class="st4" points="147.7,-20.1 174.8,-4.7 175,26.4 147.9,11 		"/>
		<polygon class="st6" points="207.6,-22.8 180.6,-38.3 153.7,-22.7 180.6,-7.2 		"/>
		<polygon class="st6" points="438.3,234.4 465.3,249.8 465.5,280.9 438.5,265.5 		"/>
		<polygon class="st3" points="477.4,225.7 477.4,242.8 465.3,249.8 438.3,234.3 465.2,218.7 		"/>
		<polygon class="st6" points="438.3,172.3 465.3,187.7 465.5,218.8 438.5,203.4 		"/>
		<polygon class="st2" points="477.4,163.6 477.4,180.7 465.2,187.7 438.3,172.2 465.2,156.6 		"/>
		<polygon class="st1" points="411.7,280.9 411.6,249.8 438.5,234.2 438.6,265.3 		"/>
		<polygon class="st2" points="384.5,234.4 411.5,249.8 411.7,280.9 384.7,265.5 		"/>
		<polygon class="st3" points="438.4,234.4 411.4,218.9 384.5,234.4 411.5,250 		"/>
		<polygon class="st3" points="357.5,280.8 357.4,249.7 384.6,234.1 384.7,265.2 		"/>
		<polygon class="st4" points="330.2,233.9 357.5,249.4 357.4,280.4 330.2,265 		"/>
		<polygon class="st4" points="382.5,45 409.5,60.4 409.7,91.5 382.7,76.1 		"/>
		<polygon class="st6" points="384.6,234.4 357.1,218.5 330.2,234.1 357.7,250 		"/>
		<polygon class="st2" points="465.5,218.9 438.6,203.3 411.6,218.9 438.6,234.4 		"/>
		<polygon class="st4" points="411.4,218.9 384.5,203.3 357.6,218.9 384.5,234.4 		"/>
		<polygon class="st6" points="34.3,72.5 34.2,41.3 61.1,25.7 61.2,56.8 		"/>
		<polygon class="st1" points="7,25.8 34.1,41.2 34.3,72.3 7.2,56.9 		"/>
		<polygon class="st2" points="61.1,25.7 34.2,10.3 7.2,25.8 34.2,41.4 		"/>
		<polygon class="st4" points="268.3,331.9 268.2,300.8 295.1,285.1 295.2,316.2 		"/>
		<polygon class="st2" points="291.2,277.7 264.2,262.2 237.3,277.8 264.2,293.3 		"/>
		<polygon class="st5" points="-106.9,100 -107,68.9 -80.2,53.2 -80,84.3 		"/>
		<polygon class="st4" points="-136.6,53.3 -109.6,68.7 -109.4,99.8 -136.4,84.5 		"/>
		<polygon class="st6" points="8,87.3 -15.4,100.8 -22.5,100.8 -45.9,87.3 -19,71.7 		"/>
		<polygon class="st2" points="-30.4,75.2 -30.5,44.1 -3.6,28.5 -3.5,59.6 		"/>
		<polygon class="st5" points="-77.7,28.3 -50.7,43.7 -50.5,74.8 -77.5,59.4 		"/>
		<polygon class="st6" points="-3.5,25.7 -30.5,10.2 -57.4,25.7 -30.5,41.3 		"/>
		<polygon class="st4" points="34.2,72.5 7.2,56.9 -19.7,72.5 7.2,88.1 		"/>
		<polygon class="st1" points="322.5,331.9 295.5,316.3 268.6,331.9 295.5,347.5 		"/>
		<polygon class="st3" points="465.2,342.2 439.8,356.9 436.7,356.9 411.3,342.2 438.3,326.7 		"/>
		<polygon class="st6" points="384.5,327 384.4,295.9 411.3,280.2 411.4,311.3 		"/>
		<polygon class="st1" points="357.4,280.4 384.4,295.7 384.6,326.9 357.6,311.5 		"/>
		<polygon class="st3" points="411.3,280.3 384.3,264.8 357.4,280.4 384.3,295.9 		"/>
		<polygon class="st2" points="438.4,326.7 438.3,295.6 465.2,279.9 465.3,311 		"/>
		<polygon class="st3" points="411.3,280.3 438.3,295.7 438.5,326.8 411.5,311.4 		"/>
		<polygon class="st2" points="465.2,280.1 438.2,264.6 411.3,280.2 438.2,295.7 		"/>
		<polygon class="st3" points="411.5,342.4 386.5,356.9 382.6,356.9 357.6,342.4 384.5,326.9 		"/>
		<polygon class="st6" points="358.1,342.8 333.7,356.9 328.5,356.9 304.2,342.8 331.1,327.3 		"/>
		<polygon class="st2" points="330.6,326.9 330.5,295.7 357.4,280.3 357.5,311.2 		"/>
		<polygon class="st3" points="304,280 331,295.4 331.2,326.5 304.2,311.2 		"/>
		<polygon class="st6" points="357.5,280.4 330.5,264.8 303.7,280.3 330.5,295.9 		"/>
		<polygon class="st2" points="438.5,326.9 411.6,311.3 384.7,326.9 411.6,342.4 		"/>
		<polygon class="st4" points="384.5,326.8 357.5,311.3 330.6,326.9 357.5,342.4 		"/>
		<polygon class="st1" points="477.4,317.9 477.4,335.4 465.5,342.2 438.6,326.7 465.5,311.1 		"/>
		<polygon class="st3" points="349.9,-28.4 350,2.7 323.1,18.3 323,-12.8 		"/>
		<polygon class="st3" points="436,-47.9 436.1,-16.8 409.2,-1.1 409.1,-32.3 		"/>
		<polygon class="st2" points="323.1,18.1 350.1,33.6 377,18.1 350,2.5 		"/>
		<polygon class="st2" points="234.4,23.8 234.3,-7.3 261.2,-23 261.3,8.1 		"/>
		<polygon class="st6" points="207.3,-22.6 234.4,-7.2 234.6,23.9 207.5,8.5 		"/>
		<polygon class="st2" points="261.2,-22.7 234.3,-38.3 207.3,-22.7 234.3,-7.2 		"/>
		<polygon class="st6" points="-168.8,-80.2 -141.8,-64.9 -141.6,-33.7 -168.6,-49.1 		"/>
		<polygon class="st2" points="-108.3,386.8 -135.3,371.4 -135.5,340.3 -108.5,355.7 		"/>
		<polygon class="st6" points="-209.5,341 -182.6,356.5 -155.6,341 -182.6,325.4 		"/>
		<polygon class="st3" points="424.7,75.7 451.6,60.1 478.6,75.7 451.6,91.2 		"/>
		<polygon class="st6" points="23.2,211.8 -3.9,227.2 -4.1,258.3 23,242.9 		"/>
		<polygon class="st3" points="-15.9,203.1 -15.9,220.3 -3.8,227.3 23.2,211.7 -3.8,196.1 		"/>
		<polygon class="st4" points="23.2,149.7 -3.8,165.1 -4,196.2 23,180.8 		"/>
		<polygon class="st2" points="-15.9,141.1 -15.9,158.1 -3.7,165.2 23.2,149.6 -3.7,134.1 		"/>
		<polygon class="st2" points="49.8,258.4 49.9,227.3 23,211.6 22.9,242.7 		"/>
		<polygon class="st2" points="-4.1,196.3 22.9,180.8 49.8,196.3 22.9,211.9 		"/>
		<polygon class="st3" points="87.9,72.2 88,41.1 61.1,25.5 61,56.6 		"/>
		<polygon class="st4" points="115,25.8 88,41.2 87.8,72.3 114.8,56.9 		"/>
		<polygon class="st6" points="61.1,25.7 88.1,10.2 115,25.7 88.1,41.3 		"/>
		<polygon class="st4" points="34.2,10.2 61.1,-5.4 88.1,10.2 61.1,25.8 		"/>
		<polygon class="st4" points="193.1,309.3 193.2,278.2 166.3,262.6 166.2,293.7 		"/>
		<polygon class="st6" points="170.3,255.2 197.2,239.6 224.2,255.2 197.2,270.8 		"/>
		<polygon class="st1" points="139,309.3 166,293.8 192.9,309.4 165.9,324.9 		"/>
		<polygon class="st3" points="-3.7,319.7 21.6,334.3 24.8,334.3 50.1,319.7 23.2,304.1 		"/>
		<polygon class="st6" points="77,304.8 77.1,273.7 50.2,258 50.1,289.2 		"/>
		<polygon class="st1" points="104.1,258.4 77.1,273.8 76.9,304.9 103.9,289.5 		"/>
		<polygon class="st1" points="34.8,-20.9 7.7,-5.5 7.6,25.6 34.6,10.2 		"/>
		<polygon class="st1" points="30.5,-48 3.5,-32.6 3.3,-1.5 30.3,-16.9 		"/>
		<polygon class="st1" points="61.7,-36.4 34.7,-21 34.5,10.1 61.5,-5.2 		"/>
		<polygon class="st2" points="50.2,258.3 77.2,242.7 104.1,258.3 77.1,273.8 		"/>
		<polygon class="st4" points="23.1,304.1 23.2,273 -3.7,257.4 -3.8,288.5 		"/>
		<polygon class="st2" points="50.2,257.7 23.2,273.1 23,304.2 50,288.8 		"/>
		<polygon class="st1" points="-3.7,257.6 23.3,242 50.2,257.6 23.2,273.2 		"/>
		<polygon class="st3" points="50,319.9 75,334.3 78.8,334.3 103.9,319.9 76.9,304.3 		"/>
		<polygon class="st6" points="103.4,320.3 127.7,334.3 132.9,334.3 157.3,320.3 130.3,304.7 		"/>
		<polygon class="st2" points="130.9,304.3 131.2,273 104.1,258.4 104,288.7 		"/>
		<polygon class="st3" points="158.2,257.6 131.2,273 131,304.1 158,288.7 		"/>
		<polygon class="st6" points="382.4,45 409.4,29.5 436.3,45 409.4,60.6 		"/>
		<polygon class="st2" points="22.9,304.3 49.9,288.8 76.8,304.3 49.9,319.9 		"/>
		<polygon class="st4" points="77,304.3 104,288.7 130.9,304.3 103.9,319.9 		"/>
		<polygon class="st1" points="-15.9,295.4 -15.9,312.8 -4.1,319.7 22.9,304.1 -4.1,288.6 		"/>
		<polygon class="st6" points="436.2,-17 436.3,14.1 409.4,29.7 409.3,-1.4 		"/>
		<polygon class="st1" points="463.3,29.4 436.3,14 436.1,-17.1 463.1,-1.7 		"/>
		<polygon class="st2" points="409.4,29.5 436.4,45 463.3,29.5 436.4,13.9 		"/>
		<polygon class="st6" points="104.3,227.3 77.3,242.7 77.1,273.8 104.1,258.5 		"/>
		<g>
			
				<linearGradient id="XMLID_3_" gradientUnits="userSpaceOnUse" x1="-59.2501" y1="162.1438" x2="-86.2031" y2="220.542" gradientTransform="matrix(1 0 0 -1 0 323.3457)">
				<stop  offset="0.5919" style="stop-color:#91D0BA"/>
				<stop  offset="1" style="stop-color:#48B982"/>
			</linearGradient>
			<polygon id="XMLID_312_" class="st7" points="-95.6,86.3 -95.6,86.3 -97.6,131.3 -97.5,131.3 -60.1,155.5 -60.1,155.5 
				-58.1,110.4 -58.2,110.4 			"/>
			<g>
				
					<radialGradient id="XMLID_4_" cx="-130.3361" cy="230.6053" r="93.341" gradientTransform="matrix(0.9338 0 0 -0.9464 22.6825 323.5095)" gradientUnits="userSpaceOnUse">
					<stop  offset="0" style="stop-color:#0E0F1A"/>
					<stop  offset="8.470190e-03" style="stop-color:#0E0F1A"/>
					<stop  offset="0.5076" style="stop-color:#3FA0D0"/>
					<stop  offset="0.6779" style="stop-color:#3DB4D1"/>
					<stop  offset="1" style="stop-color:#42C3D2"/>
				</radialGradient>
				<polygon id="XMLID_311_" class="st8" points="-56.5,67.2 -58.8,112.2 -21.4,136.7 -21.4,136.7 -21.3,136.7 -21.3,136.7 
					-19,91.6 -56.3,67.1 -56.3,67.1 				"/>
				<polygon id="XMLID_310_" class="st9" points="-58.8,112.2 -56.5,67.2 -96.1,86.7 -96.1,86.7 -98.1,131.7 -58.8,112.2 				"/>
			</g>
		</g>
		<polygon class="st1" points="357.1,218.5 330.2,203 303.2,218.5 330.2,234.1 		"/>
	</g>
</g>
</svg>
