<?xml version="1.0" encoding="utf-8"?>
<!-- Generator: Adobe Illustrator 19.1.0, SVG Export Plug-In . SVG Version: 6.00 Build 0)  -->
<!DOCTYPE svg PUBLIC "-//W3C//DTD SVG 1.1//EN" "http://www.w3.org/Graphics/SVG/1.1/DTD/svg11.dtd">
<svg version="1.1" id="Layer_1" xmlns="http://www.w3.org/2000/svg" xmlns:xlink="http://www.w3.org/1999/xlink" x="0px" y="0px"
	 viewBox="131 -127.9 462 304.9" style="enable-background:new 131 -127.9 462 304.9;" xml:space="preserve">
<style type="text/css">
	.st0{clip-path:url(#SVGID_2_);}
	.st1{fill:#F0685D;}
	.st2{fill:#727AB0;}
	.st3{fill:#42C3D3;}
	.st4{fill:#56C4C1;}
	.st5{fill:#FFCC67;}
	.st6{fill:#90D1BB;}
	.st7{fill:url(#XMLID_2_);}
	.st8{fill:url(#XMLID_3_);}
	.st9{fill:#727BB0;}
</style>
<g id="XMLID_336_">
	<g>
		<defs>
			<polyline id="SVGID_1_" points="131,186.8 131,-137.7 599,-137.7 599,186.8 			"/>
		</defs>
		<clipPath id="SVGID_2_">
			<use xlink:href="#SVGID_1_"  style="overflow:visible;"/>
		</clipPath>
		<g id="XMLID_313_" class="st0">
			<polygon class="st1" points="513.4,153.1 540.4,168.7 567.3,153.1 540.4,137.6 			"/>
			<polygon class="st2" points="435,-112.9 434.8,-81.8 461.7,-66.2 461.8,-97.3 			"/>
			<polygon class="st3" points="462,-66.4 435.1,-50.9 408.1,-66.4 435.1,-82 			"/>
			<polygon class="st1" points="540.2,168.5 513.2,183.9 513,215 540,199.6 			"/>
			<polygon class="st2" points="486.4,168.5 513.3,153 540.2,168.5 513.3,184.1 			"/>
			<polygon class="st2" points="-46.6,149.8 -46.7,180.9 -19.8,196.5 -19.7,165.4 			"/>
			<polygon class="st2" points="-73.7,196.2 -46.6,180.8 -46.5,149.7 -73.5,165.1 			"/>
			<polygon class="st4" points="-20.6,198 -47.6,213.5 -74.5,198 -47.6,182.4 			"/>
			<path class="st5" d="M305.8,171.9"/>
			<line class="st6" x1="338.6" y1="190" x2="311.6" y2="205.5"/>
			<path class="st6" d="M311.6,174.4"/>
			<polygon class="st6" points="569.3,-67.1 596.3,-82.5 596.5,-113.6 569.5,-98.2 			"/>
			<polygon class="st3" points="608.4,-58.5 608.4,-75.6 596.3,-82.6 569.3,-67 596.2,-51.5 			"/>
			<polygon class="st6" points="569.3,-5 596.3,-20.4 596.5,-51.5 569.5,-36.1 			"/>
			<polygon class="st2" points="608.4,3.6 608.4,-13.4 596.2,-20.5 569.3,-4.9 596.2,10.6 			"/>
			<polygon class="st1" points="542.7,-113.7 542.6,-82.6 569.5,-66.9 569.6,-98.1 			"/>
			<polygon class="st2" points="515.5,-67.2 542.5,-82.6 542.7,-113.7 515.7,-98.3 			"/>
			<polygon class="st3" points="569.4,-67.2 542.4,-51.6 515.5,-67.2 542.5,-82.7 			"/>
			<polygon class="st3" points="488.5,-113.6 488.4,-82.5 515.6,-66.8 515.7,-97.9 			"/>
			<polygon class="st5" points="461.2,-66.6 488.5,-82.2 488.4,-113.1 461.2,-97.8 			"/>
			<polygon class="st5" points="513.5,122.2 540.5,106.8 540.7,75.7 513.7,91.1 			"/>
			<polygon class="st6" points="515.6,-67.2 488.1,-51.3 461.2,-66.8 488.7,-82.8 			"/>
			<polygon class="st2" points="596.5,-51.6 569.6,-36.1 542.6,-51.6 569.6,-67.2 			"/>
			<polygon class="st5" points="542.4,-51.6 515.5,-36.1 488.6,-51.6 515.5,-67.2 			"/>
			<polygon class="st5" points="399.3,-164.7 399.2,-133.5 426.1,-117.9 426.2,-149 			"/>
			<polygon class="st2" points="422.2,-110.5 395.2,-95 368.3,-110.5 395.2,-126.1 			"/>
			<polygon class="st4" points="24.1,67.3 24,98.4 50.8,114 51,82.9 			"/>
			<polygon class="st5" points="-5.6,113.9 21.4,98.5 21.6,67.4 -5.4,82.8 			"/>
			<polygon class="st2" points="100.6,92 100.5,123.1 127.4,138.8 127.5,107.7 			"/>
			<polygon class="st4" points="53.3,138.9 80.3,123.5 80.5,92.4 53.5,107.8 			"/>
			<polygon class="st6" points="127.5,141.5 100.5,157.1 73.6,141.5 100.5,126 			"/>
			<polygon class="st1" points="453.5,-164.6 426.5,-149.1 399.6,-164.7 426.5,-180.2 			"/>
			<polygon class="st3" points="596.2,-175 570.8,-189.6 567.7,-189.6 542.3,-175 569.3,-159.4 			"/>
			<polygon class="st6" points="515.5,-159.7 515.4,-128.6 542.3,-113 542.4,-144.1 			"/>
			<polygon class="st1" points="488.4,-113.1 515.4,-128.5 515.6,-159.6 488.6,-144.2 			"/>
			<polygon class="st3" points="542.3,-113.1 515.3,-97.6 488.4,-113.1 515.3,-128.7 			"/>
			<polygon class="st2" points="569.4,-159.4 569.3,-128.3 596.2,-112.7 596.3,-143.8 			"/>
			<polygon class="st3" points="542.3,-113 569.3,-128.4 569.5,-159.5 542.5,-144.1 			"/>
			<polygon class="st2" points="596.2,-112.9 569.2,-97.4 542.3,-112.9 569.2,-128.5 			"/>
			<polygon class="st3" points="542.5,-175.2 517.5,-189.6 513.6,-189.6 488.6,-175.2 515.5,-159.6 			"/>
			<polygon class="st6" points="489.1,-175.6 464.7,-189.6 459.5,-189.6 435.2,-175.6 462.1,-160 			"/>
			<polygon class="st2" points="461.6,-159.6 461.5,-128.5 488.4,-113.1 488.5,-144 			"/>
			<polygon class="st3" points="435,-112.8 462,-128.2 462.2,-159.3 435.2,-143.9 			"/>
			<polygon class="st6" points="488.5,-113.1 461.5,-97.6 434.7,-113 461.5,-128.7 			"/>
			<polygon class="st2" points="569.5,-159.6 542.6,-144.1 515.7,-159.6 542.6,-175.2 			"/>
			<polygon class="st5" points="515.5,-159.6 488.5,-144.1 461.6,-159.6 488.5,-175.2 			"/>
			<polygon class="st1" points="608.4,-150.7 608.4,-168.1 596.5,-175 569.6,-159.4 596.5,-143.9 			"/>
			<polygon class="st3" points="480.9,195.7 481,164.6 454.1,148.9 454,180 			"/>
			<polygon class="st3" points="567,215.2 567.1,184 540.2,168.4 540.1,199.5 			"/>
			<polygon class="st2" points="454.1,149.2 481.1,133.6 508,149.2 481,164.7 			"/>
			<polygon class="st6" points="-37.8,247.5 -10.8,232.1 -10.6,201 -37.6,216.4 			"/>
			<polygon class="st2" points="22.7,-219.6 -4.3,-204.2 -4.5,-173.1 22.5,-188.5 			"/>
			<polygon class="st6" points="-78.5,-173.8 -51.6,-189.3 -24.6,-173.7 -51.6,-158.2 			"/>
			<polygon class="st3" points="555.7,91.6 582.6,107.1 609.6,91.6 582.6,76 			"/>
			<polygon class="st6" points="154.2,-44.6 127.1,-60 126.9,-91.1 154,-75.7 			"/>
			<polygon class="st3" points="115.1,-35.9 115.1,-53 127.2,-60 154.2,-44.5 127.2,-28.9 			"/>
			<polygon class="st5" points="154.2,17.5 127.2,2.1 127,-29 154,-13.6 			"/>
			<polygon class="st2" points="115.1,26.2 115.1,9.1 127.3,2.1 154.2,17.6 127.3,33.2 			"/>
			<polygon class="st2" points="180.8,-91.1 180.9,-60 154,-44.4 153.9,-75.5 			"/>
			<polygon class="st2" points="126.9,-29.1 153.9,-13.5 180.8,-29.1 153.9,-44.6 			"/>
			<polygon class="st5" points="324.1,-142.1 324.2,-111 297.3,-95.3 297.2,-126.5 			"/>
			<polygon class="st6" points="301.3,-87.9 328.2,-72.4 355.2,-88 328.2,-103.5 			"/>
			<polygon class="st1" points="270,-142.1 297,-126.5 323.9,-142.1 296.9,-157.7 			"/>
			<polygon class="st3" points="127.3,-152.4 152.6,-167.1 155.8,-167.1 181.1,-152.4 154.2,-136.9 			"/>
			<polygon class="st6" points="208,-137.6 208.1,-106.5 181.2,-90.8 181.1,-121.9 			"/>
			<polygon class="st1" points="235.1,-91.2 208.1,-106.6 207.9,-137.7 234.9,-122.3 			"/>
			<polygon class="st2" points="181.2,-91 208.2,-75.5 235.1,-91.1 208.1,-106.6 			"/>
			<polygon class="st5" points="154.1,-136.9 154.2,-105.8 127.3,-90.1 127.2,-121.2 			"/>
			<polygon class="st2" points="181.2,-90.5 154.2,-105.9 154,-137 181,-121.6 			"/>
			<polygon class="st1" points="127.3,-90.3 154.3,-74.8 181.2,-90.4 154.2,-105.9 			"/>
			<polygon class="st3" points="181,-152.6 206,-167.1 209.8,-167.1 234.9,-152.6 207.9,-137.1 			"/>
			<polygon class="st6" points="234.4,-153 258.7,-167.1 263.9,-167.1 288.3,-153 261.3,-137.5 			"/>
			<polygon class="st2" points="261.9,-137.1 262.2,-105.8 235.1,-91.2 235,-121.5 			"/>
			<polygon class="st3" points="289.2,-90.4 262.2,-105.8 262,-136.9 289,-121.5 			"/>
			<polygon class="st6" points="513.4,122.2 540.4,137.8 567.3,122.2 540.4,106.7 			"/>
			<polygon class="st2" points="153.9,-137.1 180.9,-121.5 207.8,-137.1 180.9,-152.6 			"/>
			<polygon class="st5" points="208,-137 235,-121.5 261.9,-137.1 234.9,-152.6 			"/>
			<polygon class="st1" points="115.1,-128.1 115.1,-145.6 126.9,-152.4 153.9,-136.9 126.9,-121.3 			"/>
			<polygon class="st6" points="567.2,184.3 567.3,153.2 540.4,137.5 540.3,168.6 			"/>
			<polygon class="st1" points="594.3,137.9 567.3,153.3 567.1,184.4 594.1,169 			"/>
			<polygon class="st2" points="540.4,137.8 567.4,122.2 594.3,137.8 567.4,153.3 			"/>
			<polygon class="st6" points="235.3,-60.1 208.3,-75.5 208.1,-106.6 235.1,-91.2 			"/>
			<g>
				
					<linearGradient id="XMLID_2_" gradientUnits="userSpaceOnUse" x1="71.7523" y1="42.1551" x2="44.7993" y2="-16.2431" gradientTransform="matrix(1 0 0 -1 0 48.2)">
					<stop  offset="0.5919" style="stop-color:#91D0BA"/>
					<stop  offset="1" style="stop-color:#48B982"/>
				</linearGradient>
				<polygon id="XMLID_312_" class="st7" points="35.4,81 35.4,81 33.4,35.9 33.5,35.9 70.9,11.7 70.9,11.8 72.9,56.8 72.8,56.8 
									"/>
				<g>
					
						<radialGradient id="XMLID_3_" cx="-8.6231" cy="-17.5148" r="93.341" gradientTransform="matrix(0.9338 0 0 -0.9464 40.0269 45.4044)" gradientUnits="userSpaceOnUse">
						<stop  offset="0" style="stop-color:#0E0F1A"/>
						<stop  offset="8.470190e-03" style="stop-color:#0E0F1A"/>
						<stop  offset="0.5076" style="stop-color:#3FA0D0"/>
						<stop  offset="0.6779" style="stop-color:#3DB4D1"/>
						<stop  offset="1" style="stop-color:#42C3D2"/>
					</radialGradient>
					<polygon id="XMLID_311_" class="st8" points="74.5,100 72.2,55.1 109.6,30.5 109.6,30.5 109.7,30.6 109.7,30.6 112,75.6 
						74.7,100.2 74.7,100.1 					"/>
					<polygon id="XMLID_310_" class="st9" points="72.2,55.1 74.5,100 34.9,80.5 34.9,80.5 32.9,35.6 					"/>
				</g>
			</g>
			<polygon class="st1" points="488.1,-51.3 461.2,-35.7 434.2,-51.3 461.2,-66.8 			"/>
		</g>
	</g>
</g>
</svg>
