<?xml version="1.0" encoding="utf-8"?>
<!-- Generator: Adobe Illustrator 19.1.0, SVG Export Plug-In . SVG Version: 6.00 Build 0)  -->
<!DOCTYPE svg PUBLIC "-//W3C//DTD SVG 1.1//EN" "http://www.w3.org/Graphics/SVG/1.1/DTD/svg11.dtd">
<svg version="1.1" id="Layer_1" xmlns="http://www.w3.org/2000/svg" xmlns:xlink="http://www.w3.org/1999/xlink" x="0px" y="0px"
	 viewBox="0 0 462 304.9" style="enable-background:new 0 0 462 304.9;" xml:space="preserve">
<style type="text/css">
	.st0{clip-path:url(#XMLID_2_);}
	.st1{fill:#F0685D;}
	.st2{fill:#727AB0;}
	.st3{fill:#42C3D3;}
	.st4{fill:#FFCC67;}
	.st5{fill:#56C4C1;}
	.st6{fill:#90D1BB;}
	.st7{fill:url(#XMLID_3_);}
	.st8{fill:url(#XMLID_4_);}
	.st9{fill:#727BB0;}
</style>
<g id="XMLID_336_">
	<defs>
		<rect id="XMLID_314_" y="-0.6" width="468" height="324.5"/>
	</defs>
	<clipPath id="XMLID_2_">
		<use xlink:href="#XMLID_314_"  style="overflow:visible;"/>
	</clipPath>
	<g id="XMLID_313_" class="st0">
		<polygon class="st1" points="382.4,290.2 409.4,305.8 436.3,290.2 409.4,274.7 		"/>
		<polygon class="st2" points="304,24.2 303.8,55.3 330.7,70.9 330.8,39.8 		"/>
		<polygon class="st3" points="331,70.7 304.1,86.2 277.1,70.7 304.1,55.1 		"/>
		<polygon class="st1" points="409.2,305.6 382.2,321 382,352.1 409,336.7 		"/>
		<polygon class="st2" points="355.4,305.6 382.3,290.1 409.2,305.6 382.3,321.2 		"/>
		<polygon class="st4" points="114.9,341.3 115,310.1 88.1,294.5 88,325.6 		"/>
		<polygon class="st2" points="142,294.9 115,310.2 114.8,341.4 141.8,326 		"/>
		<polygon class="st2" points="88.1,294.7 115.1,279.2 142,294.7 115.1,310.3 		"/>
		<polygon class="st2" points="-177.6,286.9 -177.7,318 -150.8,333.6 -150.7,302.5 		"/>
		<polygon class="st2" points="-204.7,333.3 -177.6,317.9 -177.5,286.8 -204.5,302.2 		"/>
		<polygon class="st5" points="-151.6,335.1 -178.6,350.6 -205.5,335.1 -178.6,319.5 		"/>
		<polygon class="st3" points="180.8,280.6 180.7,311.7 207.6,327.3 207.7,296.2 		"/>
		<polygon class="st4" points="147.7,324.4 174.8,309 175,277.9 147.9,293.3 		"/>
		<polygon class="st6" points="207.6,327.1 180.6,342.6 153.7,327.1 180.6,311.5 		"/>
		<polygon class="st6" points="438.3,70 465.3,54.6 465.5,23.5 438.5,38.9 		"/>
		<polygon class="st3" points="477.4,78.6 477.4,61.5 465.3,54.5 438.3,70.1 465.2,85.6 		"/>
		<polygon class="st6" points="438.3,132.1 465.3,116.7 465.5,85.6 438.5,101 		"/>
		<polygon class="st2" points="477.4,140.7 477.4,123.7 465.2,116.6 438.3,132.2 465.2,147.7 		"/>
		<polygon class="st1" points="411.7,23.4 411.6,54.5 438.5,70.2 438.6,39 		"/>
		<polygon class="st2" points="384.5,69.9 411.5,54.5 411.7,23.4 384.7,38.8 		"/>
		<polygon class="st3" points="438.4,69.9 411.4,85.5 384.5,69.9 411.5,54.4 		"/>
		<polygon class="st3" points="357.5,23.5 357.4,54.6 384.6,70.3 384.7,39.2 		"/>
		<polygon class="st4" points="330.2,70.5 357.5,54.9 357.4,24 330.2,39.3 		"/>
		<polygon class="st4" points="382.5,259.3 409.5,243.9 409.7,212.8 382.7,228.2 		"/>
		<polygon class="st6" points="384.6,69.9 357.1,85.8 330.2,70.3 357.7,54.3 		"/>
		<polygon class="st2" points="465.5,85.5 438.6,101 411.6,85.5 438.6,69.9 		"/>
		<polygon class="st4" points="411.4,85.5 384.5,101 357.6,85.5 384.5,69.9 		"/>
		<polygon class="st6" points="34.3,231.9 34.2,263 61.1,278.6 61.2,247.5 		"/>
		<polygon class="st1" points="7,278.5 34.1,263.1 34.3,232 7.2,247.4 		"/>
		<polygon class="st2" points="61.1,278.6 34.2,294.1 7.2,278.5 34.2,263 		"/>
		<polygon class="st4" points="268.3,-27.6 268.2,3.6 295.1,19.2 295.2,-11.9 		"/>
		<polygon class="st2" points="291.2,26.6 264.2,42.1 237.3,26.6 264.2,11 		"/>
		<polygon class="st5" points="-106.9,204.4 -107,235.5 -80.2,251.1 -80,220 		"/>
		<polygon class="st4" points="-136.6,251 -109.6,235.6 -109.4,204.5 -136.4,219.9 		"/>
		<polygon class="st6" points="8,217.1 -15.4,203.6 -22.5,203.6 -45.9,217.1 -19,232.6 		"/>
		<polygon class="st2" points="-30.4,229.1 -30.5,260.2 -3.6,275.9 -3.5,244.8 		"/>
		<polygon class="st5" points="-77.7,276 -50.7,260.6 -50.5,229.5 -77.5,244.9 		"/>
		<polygon class="st6" points="-3.5,278.6 -30.5,294.2 -57.4,278.6 -30.5,263.1 		"/>
		<polygon class="st4" points="34.2,231.9 7.2,247.4 -19.7,231.8 7.2,216.3 		"/>
		<polygon class="st1" points="322.5,-27.5 295.5,-12 268.6,-27.6 295.5,-43.1 		"/>
		<polygon class="st3" points="465.2,-37.9 439.8,-52.5 436.7,-52.5 411.3,-37.9 438.3,-22.3 		"/>
		<polygon class="st6" points="384.5,-22.6 384.4,8.5 411.3,24.1 411.4,-7 		"/>
		<polygon class="st1" points="357.4,24 384.4,8.6 384.6,-22.5 357.6,-7.1 		"/>
		<polygon class="st3" points="411.3,24 384.3,39.5 357.4,24 384.3,8.4 		"/>
		<polygon class="st2" points="438.4,-22.3 438.3,8.8 465.2,24.4 465.3,-6.7 		"/>
		<polygon class="st3" points="411.3,24.1 438.3,8.7 438.5,-22.4 411.5,-7 		"/>
		<polygon class="st2" points="465.2,24.2 438.2,39.7 411.3,24.2 438.2,8.6 		"/>
		<polygon class="st3" points="411.5,-38.1 386.5,-52.5 382.6,-52.5 357.6,-38.1 384.5,-22.5 		"/>
		<polygon class="st6" points="358.1,-38.5 333.7,-52.5 328.5,-52.5 304.2,-38.5 331.1,-22.9 		"/>
		<polygon class="st2" points="330.6,-22.5 330.5,8.6 357.4,24 357.5,-6.9 		"/>
		<polygon class="st3" points="304,24.3 331,8.9 331.2,-22.2 304.2,-6.8 		"/>
		<polygon class="st6" points="357.5,24 330.5,39.5 303.7,24.1 330.5,8.4 		"/>
		<polygon class="st2" points="438.5,-22.5 411.6,-7 384.7,-22.5 411.6,-38.1 		"/>
		<polygon class="st4" points="384.5,-22.5 357.5,-7 330.6,-22.5 357.5,-38.1 		"/>
		<polygon class="st1" points="477.4,-13.6 477.4,-31 465.5,-37.9 438.6,-22.3 465.5,-6.8 		"/>
		<polygon class="st3" points="349.9,332.8 350,301.7 323.1,286 323,317.1 		"/>
		<polygon class="st3" points="436,352.3 436.1,321.1 409.2,305.5 409.1,336.6 		"/>
		<polygon class="st2" points="323.1,286.3 350.1,270.7 377,286.3 350,301.8 		"/>
		<polygon class="st2" points="234.4,280.6 234.3,311.7 261.2,327.3 261.3,296.2 		"/>
		<polygon class="st6" points="207.3,327 234.4,311.6 234.6,280.5 207.5,295.8 		"/>
		<polygon class="st2" points="261.2,327.1 234.3,342.6 207.3,327.1 234.3,311.5 		"/>
		<polygon class="st6" points="-168.8,384.6 -141.8,369.2 -141.6,338.1 -168.6,353.5 		"/>
		<polygon class="st2" points="-108.3,-82.5 -135.3,-67.1 -135.5,-36 -108.5,-51.4 		"/>
		<polygon class="st6" points="-209.5,-36.7 -182.6,-52.2 -155.6,-36.6 -182.6,-21.1 		"/>
		<polygon class="st3" points="424.7,228.7 451.6,244.2 478.6,228.7 451.6,213.1 		"/>
		<polygon class="st6" points="23.2,92.5 -3.9,77.1 -4.1,46 23,61.4 		"/>
		<polygon class="st3" points="-15.9,101.2 -15.9,84.1 -3.8,77.1 23.2,92.6 -3.8,108.2 		"/>
		<polygon class="st4" points="23.2,154.6 -3.8,139.2 -4,108.1 23,123.5 		"/>
		<polygon class="st2" points="-15.9,163.3 -15.9,146.2 -3.7,139.2 23.2,154.7 -3.7,170.3 		"/>
		<polygon class="st2" points="49.8,46 49.9,77.1 23,92.7 22.9,61.6 		"/>
		<polygon class="st2" points="-4.1,108 22.9,123.6 49.8,108 22.9,92.5 		"/>
		<polygon class="st3" points="87.9,232.1 88,263.2 61.1,278.9 61,247.8 		"/>
		<polygon class="st4" points="115,278.5 88,263.1 87.8,232 114.8,247.4 		"/>
		<polygon class="st6" points="61.1,278.6 88.1,294.2 115,278.6 88.1,263.1 		"/>
		<polygon class="st4" points="34.2,294.2 61.1,309.7 88.1,294.1 61.1,278.6 		"/>
		<polygon class="st4" points="193.1,-5 193.2,26.1 166.3,41.8 166.2,10.6 		"/>
		<polygon class="st6" points="170.3,49.2 197.2,64.7 224.2,49.1 197.2,33.6 		"/>
		<polygon class="st1" points="139,-5 166,10.6 192.9,-5 165.9,-20.6 		"/>
		<polygon class="st3" points="-3.7,-15.3 21.6,-30 24.8,-30 50.1,-15.3 23.2,0.2 		"/>
		<polygon class="st6" points="77,-0.5 77.1,30.6 50.2,46.3 50.1,15.2 		"/>
		<polygon class="st1" points="104.1,45.9 77.1,30.5 76.9,-0.6 103.9,14.8 		"/>
		<polygon class="st1" points="34.8,325.2 7.7,309.9 7.6,278.7 34.6,294.1 		"/>
		<polygon class="st1" points="30.5,352.3 3.5,337 3.3,305.8 30.3,321.2 		"/>
		<polygon class="st1" points="61.7,340.7 34.7,325.3 34.5,294.2 61.5,309.6 		"/>
		<polygon class="st2" points="50.2,46.1 77.2,61.6 104.1,46 77.1,30.5 		"/>
		<polygon class="st4" points="23.1,0.2 23.2,31.3 -3.7,47 -3.8,15.9 		"/>
		<polygon class="st2" points="50.2,46.6 23.2,31.2 23,0.1 50,15.5 		"/>
		<polygon class="st1" points="-3.7,46.8 23.3,62.3 50.2,46.7 23.2,31.2 		"/>
		<polygon class="st3" points="50,-15.5 75,-30 78.8,-30 103.9,-15.5 76.9,0 		"/>
		<polygon class="st6" points="103.4,-15.9 127.7,-30 132.9,-30 157.3,-15.9 130.3,-0.4 		"/>
		<polygon class="st2" points="130.9,0 131.2,31.3 104.1,45.9 104,15.6 		"/>
		<polygon class="st3" points="158.2,46.7 131.2,31.3 131,0.2 158,15.6 		"/>
		<polygon class="st6" points="382.4,259.3 409.4,274.9 436.3,259.3 409.4,243.8 		"/>
		<polygon class="st2" points="22.9,0 49.9,15.6 76.8,0 49.9,-15.5 		"/>
		<polygon class="st4" points="77,0.1 104,15.6 130.9,0 103.9,-15.5 		"/>
		<polygon class="st1" points="-15.9,9 -15.9,-8.5 -4.1,-15.3 22.9,0.2 -4.1,15.8 		"/>
		<polygon class="st6" points="436.2,321.4 436.3,290.3 409.4,274.6 409.3,305.7 		"/>
		<polygon class="st1" points="463.3,275 436.3,290.4 436.1,321.5 463.1,306.1 		"/>
		<polygon class="st2" points="409.4,274.9 436.4,259.3 463.3,274.9 436.4,290.4 		"/>
		<polygon class="st6" points="104.3,77 77.3,61.6 77.1,30.5 104.1,45.9 		"/>
		<g>
			<linearGradient id="XMLID_3_" gradientUnits="userSpaceOnUse" x1="-59.2501" y1="143.1438" x2="-86.2031" y2="201.542">
				<stop  offset="0.5919" style="stop-color:#91D0BA"/>
				<stop  offset="1" style="stop-color:#48B982"/>
			</linearGradient>
			<polygon id="XMLID_312_" class="st7" points="-95.6,218.1 -95.6,218.1 -97.6,173 -97.5,173 -60.1,148.8 -60.1,148.9 -58.1,193.9 
				-58.2,193.9 			"/>
			<g>
				
					<radialGradient id="XMLID_4_" cx="-130.3361" cy="210.5286" r="93.341" gradientTransform="matrix(0.9338 0 0 0.9464 22.6825 -0.1638)" gradientUnits="userSpaceOnUse">
					<stop  offset="0" style="stop-color:#0E0F1A"/>
					<stop  offset="8.470190e-03" style="stop-color:#0E0F1A"/>
					<stop  offset="0.5076" style="stop-color:#3FA0D0"/>
					<stop  offset="0.6779" style="stop-color:#3DB4D1"/>
					<stop  offset="1" style="stop-color:#42C3D2"/>
				</radialGradient>
				<polygon id="XMLID_311_" class="st8" points="-56.5,237.1 -58.8,192.2 -21.4,167.6 -21.4,167.6 -21.3,167.7 -21.3,167.7 
					-19,212.7 -56.3,237.3 -56.3,237.2 				"/>
				<polygon id="XMLID_310_" class="st9" points="-58.8,192.2 -56.5,237.1 -96.1,217.6 -96.1,217.6 -98.1,172.7 -58.8,192.2 				"/>
			</g>
		</g>
		<polygon class="st1" points="357.1,85.8 330.2,101.4 303.2,85.8 330.2,70.3 		"/>
	</g>
</g>
</svg>
