<?xml version="1.0" encoding="utf-8"?>
<!-- Generator: Adobe Illustrator 19.1.0, SVG Export Plug-In . SVG Version: 6.00 Build 0)  -->
<!DOCTYPE svg PUBLIC "-//W3C//DTD SVG 1.1//EN" "http://www.w3.org/Graphics/SVG/1.1/DTD/svg11.dtd">
<svg version="1.1" id="Layer_1" xmlns="http://www.w3.org/2000/svg" xmlns:xlink="http://www.w3.org/1999/xlink" x="0px" y="0px"
	 viewBox="0 0 702.1 160.2" style="enable-background:new 0 0 702.1 160.2;" xml:space="preserve">
<style type="text/css">
	.st0{fill:#231F20;}
</style>
<g>
	<g>
		<polygon class="st0" points="481.8,32.6 459.2,38.6 436.6,32.4 459.2,25.5 		"/>
	</g>
	<polygon class="st0" points="38.1,19.2 18.1,25.3 0,19.4 18.1,12.2 	"/>
	<path class="st0" d="M94.6,77.4C87,69,75.3,63.3,63.9,63.3c-9.6,0-19.4,3.9-25.7,11.3V23.8l-20,6.1V152l22.3-9.5
		c6.2,6.2,15.2,9.5,24,9.5c12.2,0,22.7-5.6,30.1-14c7.1-8.1,11.3-19,11.3-30.1S102.1,85.8,94.6,77.4z M61.5,132.5
		c-13.8,0-24.7-11.3-24.7-25c0-13.8,11.3-24.7,25-24.7c12.8,0,24.1,11.4,24.1,24.2C85.8,120.9,75.5,132.5,61.5,132.5z"/>
	<path class="st0" d="M597.2,126.8c1.4,4.4,4.4,5.7,9.6,5.7c4.8,0,9.3-2.7,9.3-8c0-6.9-8.9-9-14.1-10.8c-6.2-2-9.9-3-15-7.2
		c-5.4-4.5-8.1-10.4-8.1-17.4c0-15.5,13.4-25.7,28.1-25.7c13.8,0,26.9,11.3,26.9,25.6h-19.6c-0.6-3.9-3.9-6-7.7-6
		c-4.4,0-8,2.6-7.8,7.1c-0.1,5.6,7.2,6.9,11.3,8.1c13.4,4.1,26,8.6,26,25.3c0,7.8-2.9,14.6-8.4,20c-5.6,5.1-14,8.7-21.7,8.7
		c-13.8,0-24.5-7.2-28.4-19.3"/>
	<path class="st0" d="M282.1,63.6v73.5l-18.4,5.5v-2.1h-0.3c-4.2,8.1-12,11.6-21.2,11.6c-9.9,0-19.4-3.8-26.3-11.6
		c-7.5-8-8-16.7-8-27.4V63.3h20V107c0,5.1,0.1,12.2,2.6,17c2.7,5.4,8.1,8.6,14.3,8.6c15.2,0,17.3-13.7,17.3-25.6V70.7L282.1,63.6z"
		/>
	<path class="st0" d="M288.2,64l18.5,6.7v3.4h0.3c5-6.9,14-10.4,22.7-10.4c8.7,0,17.7,3.9,23.8,10.4c0.8,0.8,1.5,1.5,2.1,2.4
		c6.5,9,6.6,19.4,6.6,30.1v45.3h-20v-41.4c0-6.5,0-14.7-3.5-20.3c-2.9-4.4-8.1-6.9-13.2-6.9c-5.4,0-11.3,2.9-14,7.4
		c-3.6,5.7-3.3,14.7-3.3,21.4v30.5l-20-5.4V64z"/>
	<path class="st0" d="M462.3,43.3l20-6.3v111.8l-20,11.3V43.3z"/>
	<path class="st0" d="M575.5,107.1c0-23.3-19-43.8-42.7-43.8c-25,0-44.2,20.3-44.2,45c0,24.2,19.7,43.8,43.9,43.8
		c14.4,0,28.7-8,36.2-19.1c1.6-2.4,2.9-5,3.8-7.7h-22.1c-3.9,4.4-11.1,7.2-18.7,7.2c-8.9,0-16.9-5-20.7-12.8l0,0
		c-3.4-5.9-2.6-14.3-1.8-18.8c0.5-2.8,1.5-5.5,3.2-7.9c4.5-6.3,12.5-10.2,20.3-10.2c10.2,0,19.4,6,22.7,15.9h-37.8
		c-1.6,2.6-3.4,11.5,0.1,17.8h56.8C574.9,113.4,575.5,110.2,575.5,107.1z"/>
	<path class="st0" d="M610.3,132c-1.1,0.3-2.2,0.5-3.4,0.5c-5.9,0-9-1.9-10.1-7.2h-20.5c0.6,17.1,12.8,26.8,29.8,26.8
		c7.5,0,15.8-3.5,21.3-8.4C621.7,139.8,616.2,135.6,610.3,132z"/>
	<path class="st0" d="M456.1,159.4l-18.4-7.6v-13.7h-0.3c-5.9,9.2-16.8,14-27.7,14c-12.2,0-22.7-5.6-30.1-14
		c-7.1-8.1-11.3-19-11.3-30.1s3.8-22.1,11.3-30.5c7.5-8.4,19.3-14.1,30.7-14.1c9.6,0,19.4,3.9,25.7,11.3V37l20,5.3V159.4z
		 M412.5,82.9c-12.8,0-24.1,11.4-24.1,24.2c0,13.8,10.4,25.4,24.4,25.4c13.8,0,24.7-11.3,24.7-25C437.4,93.7,426.2,82.9,412.5,82.9z
		"/>
	<path class="st0" d="M663.1,126.8c1.4,4.4,4.4,5.7,9.6,5.7c4.8,0,9.3-2.7,9.3-8c0-6.9-8.9-9-14.1-10.8c-6.2-2-9.9-3-15-7.2
		c-5.4-4.5-8.1-10.4-8.1-17.4c0-15.5,13.4-25.7,28.1-25.7c13.8,0,26.9,11.3,26.9,25.6h-19.6c-0.6-3.9-3.9-6-7.7-6
		c-4.4,0-8,2.6-7.8,7.1c-0.1,5.6,7.2,6.9,11.3,8.1c13.4,4.1,26,8.6,26,25.3c0,7.8-2.9,14.6-8.4,20c-5.6,5.1-14,8.7-21.7,8.7
		c-13.8,0-24.5-7.2-28.4-19.3"/>
	<path class="st0" d="M676.2,132c-1.1,0.3-2.2,0.5-3.4,0.5c-5.9,0-9-1.9-10.1-7.2h-20.5c0.6,17.1,12.8,26.8,29.8,26.8
		c7.5,0,15.8-3.5,21.3-8.4C687.6,139.8,682.1,135.6,676.2,132z"/>
	<g>
		<path class="st0" d="M288.2,64l18.5,6.7v3.4h0.3c5-6.9,14-10.4,22.7-10.4c8.7,0,17.7,3.9,23.8,10.4c0.8,0.8,1.5,1.5,2.1,2.4
			c6.5,9,6.6,19.4,6.6,30.1v45.3h-20v-41.4c0-6.5,0-14.7-3.5-20.3c-2.9-4.4-8.1-6.9-13.2-6.9c-5.4,0-11.3,2.9-14,7.4
			c-3.6,5.7-3.3,14.7-3.3,21.4v30.5l-20-5.4V64z"/>
	</g>
	<path class="st0" d="M462.3,42.3l20-5.3v115l-20,8.1V42.3z"/>
	<path class="st0" d="M112,107.4c0-21.4,15.7-44.1,44.9-44.1s44.9,22.8,44.9,44.3c0,21.7-15.7,44.5-44.9,44.5S112,129.3,112,107.6
		V107.4z M132,107.7c0,14.7,11.2,25.5,24.9,25.5s24.7-10.8,24.7-25.7c0-14.8-11-25.7-24.7-25.7S132,92.8,132,107.6V107.7z"/>
	<path class="st0" d="M575.5,107.1c0-23.3-19-43.8-42.7-43.8c-25,0-44.2,20.3-44.2,45c0,24.2,19.7,43.8,43.9,43.8
		c14.4,0,28.7-8,36.2-19.1c1.6-2.4,2.9-5,3.8-7.7h-22.1c-3.9,4.4-11.1,7.2-18.7,7.2c-8.9,0-16.9-5-20.7-12.8l0,0
		c-3.4-5.9-2.6-14.3-1.8-18.8c0.5-2.8,1.5-5.5,3.2-7.9c4.5-6.3,12.5-10.2,20.3-10.2c10.2,0,19.4,6,22.7,15.9h-38.6
		c-1.6,2.6-3.4,11.5,0.1,17.8h57.6C574.9,113.4,575.5,110.2,575.5,107.1z"/>
	<path class="st0" d="M456.1,160.1l-18.4-8v-14h-0.3c-5.9,9.2-16.8,14-27.7,14c-12.2,0-22.7-5.6-30.1-14c-7.1-8.1-11.3-19-11.3-30.1
		s3.8-22.1,11.3-30.5c7.5-8.4,19.3-14.1,30.7-14.1c9.6,0,19.4,3.9,25.7,11.3V37l20,5.3V160.1z M412.5,82.9
		c-12.8,0-24.1,11.4-24.1,24.2c0,13.8,10.4,25.4,24.4,25.4c13.8,0,24.7-11.3,24.7-25C437.4,93.7,426.2,82.9,412.5,82.9z"/>
	<g>
		<polygon class="st0" points="308.1,147.1 285.2,154.1 262.5,147.7 285.2,140.8 		"/>
	</g>
</g>
</svg>
