<?xml version="1.0" encoding="utf-8"?>
<!-- Generator: Adobe Illustrator 19.1.0, SVG Export Plug-In . SVG Version: 6.00 Build 0)  -->
<!DOCTYPE svg PUBLIC "-//W3C//DTD SVG 1.1//EN" "http://www.w3.org/Graphics/SVG/1.1/DTD/svg11.dtd">
<svg version="1.1" id="Layer_1" xmlns="http://www.w3.org/2000/svg" xmlns:xlink="http://www.w3.org/1999/xlink" x="0px" y="0px"
	 viewBox="0 0 408 65" style="enable-background:new 0 0 408 65;" xml:space="preserve">
<style type="text/css">
	.st0{fill:url(#SVGID_1_);}
	.st1{fill:url(#XMLID_3_);}
	.st2{fill:#41C2D2;}
	.st3{fill:#7972AF;}
</style>
<linearGradient id="SVGID_1_" gradientUnits="userSpaceOnUse" x1="317.6799" y1="25.5708" x2="699.5456" y2="25.5708" gradientTransform="matrix(1 0 0 1 -317.6799 0)">
	<stop  offset="0.7168" style="stop-color:#91D0BA"/>
	<stop  offset="1" style="stop-color:#48B982"/>
</linearGradient>
<polyline class="st0" points="381.9,2.6 0,2.6 0,48.6 381.7,48.6 "/>
<linearGradient id="XMLID_3_" gradientUnits="userSpaceOnUse" x1="698.3666" y1="-17.8626" x2="680.1625" y2="21.5797" gradientTransform="matrix(0.9983 5.839451e-02 -5.839451e-02 0.9983 -314.8495 -24.1598)">
	<stop  offset="0.5919" style="stop-color:#91D0BA"/>
	<stop  offset="1" style="stop-color:#48B982"/>
</linearGradient>
<polygon id="XMLID_236_" class="st1" points="355.9,47.9 355.9,47.9 356.3,17.4 356.4,17.4 382.6,2.6 382.6,2.6 382.1,33.1 
	382.1,33.1 "/>
<polygon id="XMLID_235_" class="st2" points="381.5,62.3 381.7,31.9 407.9,16.8 407.9,16.8 408,16.8 408,16.8 407.8,47.3 
	381.6,62.4 381.6,62.3 "/>
<polygon id="XMLID_1_" class="st3" points="381.7,31.9 381.5,62.3 355.6,47.5 355.6,47.6 356,17.2 381.7,31.9 "/>
</svg>
