<?xml version="1.0" encoding="utf-8"?>
<!-- Generator: Adobe Illustrator 21.0.2, SVG Export Plug-In . SVG Version: 6.00 Build 0)  -->
<svg version="1.1" id="Layer_1" xmlns="http://www.w3.org/2000/svg" xmlns:xlink="http://www.w3.org/1999/xlink" x="0px" y="0px"
	 viewBox="0 0 792 1224" style="enable-background:new 0 0 792 1224;" xml:space="preserve">
<style type="text/css">
	.st0{display:none;}
	.st1{display:inline;fill:none;}
	.st2{display:inline;}
</style>
<g>
	<path d="M775.6,464.3c0-0.6-0.5-1-1.1-1.1c-0.6,0-1.1,0.5-1.1,1.1l1,76.1l-40.3,0.5c-0.1,0-0.2,0-0.3,0.1l-11.4,0.2l-0.8-61.1
		l10.8,10.5l0.4,26.1l0,0l0.2,12.5c0,0.6,0.5,1.1,1.1,1.1l28.7-0.4c0.1,0,0.2,0,0.2-0.1c0.1,0,0.1,0,0.2,0c0.1,0,0.2-0.1,0.2-0.2
		c0,0,0.1,0,0.1-0.1c0,0,0,0,0,0l0,0c0.1-0.1,0.1-0.1,0.1-0.2c0,0,0.1-0.1,0.1-0.1c0.1-0.1,0.1-0.3,0.1-0.4l-0.9-64.4
		c0-0.3-0.1-0.6-0.3-0.8c-0.2-0.2-0.5-0.3-0.8-0.3l-54.1,0.7c-0.3,0-0.6,0.1-0.8,0.3c-0.2,0.2-0.3,0.5-0.3,0.8l1,76l-53.5,0.7
		c-0.3,0-0.6,0.1-0.8,0.3c-0.2,0.2-0.3,0.5-0.3,0.8l1,76.2L601,620c-0.3,0-0.6,0.1-0.8,0.3c-0.2,0.2-0.3,0.5-0.3,0.8l1,76.3
		l-53.1,0.7c-0.3,0-0.6,0.1-0.8,0.3c-0.2,0.2-0.3,0.5-0.3,0.8l1,76.2l-53.1,0.7c-0.3,0-0.6,0.1-0.8,0.3c-0.2,0.2-0.3,0.5-0.3,0.8
		l1,76l-53.5,0.7c-0.3,0-0.6,0.1-0.8,0.3c-0.2,0.2-0.3,0.5-0.3,0.8l1,76.2l-53.1,0.7c-0.3,0-0.6,0.1-0.8,0.3
		c-0.2,0.2-0.3,0.5-0.3,0.8l1,76.3l-53.1,0.7c-0.3,0-0.6,0.1-0.8,0.3c-0.2,0.2-0.3,0.5-0.3,0.8l1,77.4c0,0.6,0.5,1.1,1.1,1.1
		c0,0,0,0,0,0c0.6,0,1.1-0.5,1.1-1.1l-1-76.3l51.9-0.7l0.8,60.8l-10.6-10.3l-0.4-26.1l-0.2-12.8c0-0.3-0.1-0.6-0.3-0.8
		c-0.2-0.2-0.5-0.3-0.8-0.3l-29,0.4c0,0,0,0-0.1,0c-0.1,0-0.1,0-0.2,0c-0.1,0-0.1,0-0.2,0c0,0,0,0-0.1,0c0,0,0,0,0,0c0,0,0,0,0,0
		c0,0,0,0-0.1,0c0,0-0.1,0.1-0.1,0.1c0,0-0.1,0-0.1,0.1c0,0,0,0-0.1,0.1c0,0-0.1,0.1-0.1,0.1c0,0-0.1,0.1-0.1,0.1c0,0,0,0,0,0.1
		c0,0,0,0,0,0c0,0,0,0,0,0c0,0,0,0,0,0.1c0,0.1,0,0.1,0,0.2c0,0.1,0,0.1,0,0.2c0,0,0,0,0,0.1l0.9,64.8c0,0.6,0.5,1.1,1.1,1.1
		c0,0,0,0,0,0l12.8-0.2c0.1,0,0.2,0,0.3-0.1l41.2-0.6c0.3,0,0.6-0.1,0.8-0.3c0.2-0.2,0.3-0.5,0.3-0.8l-1-76.3l11.6-0.2
		c0.1,0,0.2,0,0.3-0.1l41.2-0.6c0.3,0,0.6-0.1,0.8-0.3c0.2-0.2,0.3-0.5,0.3-0.8l-1-76.2l11.6-0.2c0.1,0,0.2,0,0.3-0.1l41.2-0.6
		c0.6,0,1.1-0.5,1.1-1.1l-1-75.9l12.1-0.2c0.1,0,0.2,0,0.3-0.1l41.2-0.6c0.3,0,0.6-0.1,0.8-0.3c0.2-0.2,0.3-0.5,0.3-0.8l-1-76.1
		l11.7-0.2c0.1,0,0.2,0,0.3-0.1l41.2-0.6c0.6,0,1.1-0.5,1.1-1.1l-1-76.3l11.6-0.2c0.1,0,0.2,0,0.3-0.1l41.2-0.6
		c0.6,0,1.1-0.5,1.1-1.1l-1-76.2l11.6-0.2c0.1,0,0.2,0,0.3-0.1l41.2-0.6c0.3,0,0.6-0.1,0.8-0.3c0.2-0.2,0.3-0.5,0.3-0.8l-1-75.9
		l12.1-0.2c0.1,0,0.2,0,0.3-0.1l41.2-0.6c0.6,0,1.1-0.5,1.1-1.1L775.6,464.3z M733.8,489.1l-10.8-10.5l25.2-0.3l0.1,10.6l-6.3,0.1
		L733.8,489.1z M734.5,491.3l7.4-0.1l6.6-0.1l0.1,4.4l0.3,20l-13.9,0.2L734.5,491.3z M735,528.2l-0.1-10.3l14.6-0.2l10.4,10.1
		L735,528.2z M376.5,1063.9l10.4,10.1l-24.8,0.3l-0.1-10.3L376.5,1063.9z M375.9,1061.7l-13.9,0.2l-0.3-24.4l7.4-0.1l6.6-0.1
		L375.9,1061.7z M375.4,1024.4l0.1,10.6l-6.4,0.1l-8.2,0.1l-10.8-10.5L375.4,1024.4z M401.5,1086.7l-40.3,0.5c-0.1,0-0.2,0-0.3,0.1
		l-11.4,0.2l-0.8-61.1l10.8,10.5l0.4,26.1c0,0,0,0,0,0l0.2,12.5c0,0.3,0.1,0.6,0.3,0.8c0.2,0.2,0.5,0.3,0.8,0.3l28.6-0.4
		c0,0,0,0,0,0l0.2,0c0.1,0,0.2,0,0.3-0.1c0.1,0,0.1,0,0.2,0c0.1,0,0.1-0.1,0.2-0.1c0.1,0,0.1-0.1,0.2-0.1c0,0,0.1-0.1,0.1-0.2
		c0-0.1,0.1-0.1,0.1-0.2c0.1-0.1,0.1-0.3,0.1-0.4l-0.9-64c0.1-0.2,0.1-0.3,0.1-0.5l-1-76.3l51.9-0.7l0.8,60.8l-10.6-10.3l-0.3-21.2
		l-0.2-17.7c0-0.3-0.1-0.6-0.3-0.8c-0.2-0.2-0.5-0.3-0.8-0.3l-29,0.4c0,0,0,0-0.1,0c-0.1,0-0.1,0-0.2,0c-0.1,0-0.1,0-0.2,0
		c0,0,0,0-0.1,0c0,0,0,0,0,0c0,0,0,0,0,0c0,0,0,0-0.1,0c0,0-0.1,0.1-0.1,0.1c0,0-0.1,0-0.1,0.1c0,0,0,0-0.1,0.1c0,0-0.1,0.1-0.1,0.1
		c0,0-0.1,0.1-0.1,0.1c0,0,0,0,0,0.1c0,0,0,0,0,0c0,0,0,0,0,0c0,0,0,0,0,0.1c0,0.1,0,0.1,0,0.2c0,0.1,0,0.1,0,0.2c0,0,0,0,0,0.1
		l0.9,64.8c0,0.2,0,0.3,0.1,0.4L401.5,1086.7z M422.1,959.2l6.6-0.1l0.1,4.4l0.3,20l-13.9,0.2L415,978l-0.3-18.7L422.1,959.2z
		 M414.1,957.1l-10.8-10.5l25.2-0.3l0.1,10.6l-6.4,0.1L414.1,957.1z M429.7,985.7l10.4,10.1l-24.8,0.3l-0.1-10.3L429.7,985.7z
		 M454.7,1008.5l-40.3,0.5c-0.1,0-0.2,0-0.3,0.1l-11.4,0.2l-0.8-61.1l10.8,10.5l0.3,19.1l0.3,19.5c0,0.3,0.1,0.6,0.3,0.8
		c0.2,0.2,0.5,0.3,0.8,0.3l28.6-0.4c0,0,0,0,0,0l0.2,0c0.1,0,0.2,0,0.3-0.1c0.1,0,0.1,0,0.2,0c0.1,0,0.1-0.1,0.2-0.1
		c0.1,0,0.1-0.1,0.2-0.1c0,0,0.1-0.1,0.1-0.2c0-0.1,0.1-0.1,0.1-0.2c0.1-0.1,0.1-0.3,0.1-0.4l-0.9-63.9c0.1-0.1,0.1-0.3,0.1-0.5
		l-1-76.3l51.9-0.7l0.8,60.8L484.3,906l-0.4-26.1l-0.2-12.8c0-0.1,0-0.3-0.1-0.4c-0.1-0.3-0.3-0.5-0.6-0.6c-0.1-0.1-0.3-0.1-0.4-0.1
		l-29,0.4c0,0,0,0-0.1,0c-0.1,0-0.1,0-0.2,0c-0.1,0-0.1,0-0.2,0c0,0,0,0-0.1,0c0,0,0,0,0,0c0,0,0,0,0,0c0,0,0,0-0.1,0
		c0,0-0.1,0.1-0.1,0.1c0,0-0.1,0-0.1,0.1c0,0,0,0-0.1,0.1c0,0-0.1,0.1-0.1,0.1c0,0-0.1,0.1-0.1,0.1c0,0,0,0,0,0.1c0,0,0,0,0,0
		c0,0,0,0,0,0c0,0,0,0,0,0.1c0,0.1,0,0.1,0,0.2c0,0.1,0,0.1,0,0.2c0,0,0,0,0,0.1l0.9,64.8c0,0.2,0,0.3,0.1,0.4L454.7,1008.5z
		 M475.3,881.1l6.6-0.1l0.3,24.4l-13.9,0.2l-0.3-24.4L475.3,881.1z M467.2,879l-10.8-10.5l25.2-0.3l0.1,10.6l-6.4,0.1L467.2,879z
		 M482.8,907.6l10.4,10.1l-24.8,0.3l-0.1-10.3L482.8,907.6z M507.8,930.4l-40.3,0.5c-0.1,0-0.2,0-0.3,0.1l-11.4,0.2l-0.8-61.1
		l10.8,10.5l0.4,26.1c0,0,0,0,0,0l0.2,12.5c0,0.3,0.1,0.6,0.3,0.8c0.2,0.2,0.5,0.3,0.8,0.3l28.6-0.4c0,0,0,0,0,0l0.2,0
		c0.1,0,0.2,0,0.3-0.1c0.1,0,0.1,0,0.2,0c0.1,0,0.1-0.1,0.2-0.1c0.1,0,0.1-0.1,0.2-0.1c0,0,0.1-0.1,0.1-0.2c0-0.1,0.1-0.1,0.1-0.2
		c0.1-0.1,0.1-0.3,0.1-0.4l-0.9-63.1c0.3-0.2,0.6-0.5,0.6-1l-1-76.3l51.9-0.7l0.8,60.8l-10.6-10.3l-0.2-13.2l-0.3-25.8
		c0-0.3-0.1-0.6-0.3-0.8c-0.2-0.2-0.5-0.3-0.8-0.3l-29,0.4c0,0,0,0,0,0c-0.1,0-0.1,0-0.2,0c-0.1,0-0.1,0-0.2,0c0,0,0,0-0.1,0
		c0,0,0,0,0,0c0,0,0,0,0,0c0,0,0,0-0.1,0c0,0-0.1,0.1-0.1,0.1c0,0-0.1,0-0.1,0.1c0,0,0,0-0.1,0.1c0,0-0.1,0.1-0.1,0.1
		c0,0-0.1,0.1-0.1,0.1c0,0,0,0,0,0.1c0,0,0,0,0,0c0,0,0,0,0,0c0,0,0,0,0,0.1c0,0.1,0,0.1,0,0.2c0,0.1,0,0.1,0,0.2c0,0,0,0,0,0.1
		l0.9,63.8c-0.2,0.2-0.4,0.5-0.3,0.8L507.8,930.4z M528.8,803.3l6.6-0.1l0.1,10.1l0.2,14.3l-13.9,0.2l-0.3-24.4L528.8,803.3z
		 M520.8,801.2L510,790.7l25.2-0.3l0.1,10.6l-6.3,0.1L520.8,801.2z M536.4,829.8l10.4,10.1l-24.8,0.3l-0.1-10.3L536.4,829.8z
		 M561.4,852.6l-40.3,0.5c-0.1,0-0.2,0-0.3,0.1l-11.4,0.2l-0.8-61.1l10.8,10.5l0.4,26.1l0,0l0.2,12.5c0,0.6,0.5,1,1.1,1.1l28.6-0.4
		c0,0,0,0,0,0l0.2,0c0.1,0,0.1,0,0.1,0c0.1,0,0.2,0,0.3-0.1c0.1,0,0.2-0.1,0.3-0.2c0,0,0.1,0,0.1-0.1c0,0,0,0,0,0
		c0.1-0.1,0.2-0.2,0.2-0.4c0.1-0.1,0.1-0.3,0.1-0.4l-0.9-63.8c0.1-0.2,0.2-0.3,0.2-0.5l-1-76.3l51.9-0.7l0.8,60.8l-10.6-10.3
		l-0.4-26.1l-0.2-12.8c0-0.6-0.5-1.1-1.1-1.1l-29,0.4c0,0,0,0-0.1,0c-0.1,0-0.1,0-0.2,0c-0.1,0-0.1,0-0.2,0c0,0,0,0-0.1,0
		c0,0,0,0,0,0c0,0,0,0,0,0c0,0,0,0-0.1,0c0,0-0.1,0.1-0.1,0.1c0,0-0.1,0-0.1,0.1c0,0,0,0-0.1,0.1c0,0-0.1,0.1-0.1,0.1
		c0,0-0.1,0.1-0.1,0.1c0,0,0,0,0,0.1c0,0,0,0,0,0c0,0,0,0,0,0c0,0,0,0,0,0.1c0,0.1,0,0.1,0,0.2c0,0.1,0,0.1,0,0.2c0,0,0,0,0,0.1
		l0.9,64.8c0,0.1,0,0.2,0.1,0.3L561.4,852.6z M582,725.3l6.6-0.1l0.3,24.4l-13.9,0.2l-0.3-24.4L582,725.3z M574,723.2l-10.8-10.5
		l25.2-0.3l0.1,10.6l-6.4,0.1L574,723.2z M589.6,751.8l10.4,10.1l-24.8,0.3L575,752L589.6,751.8z M614.6,774.6l-40.3,0.5
		c-0.1,0-0.2,0-0.3,0.1l-11.4,0.2l-0.8-61.1l10.8,10.5l0.4,26.1l0,0l0.2,12.5c0,0.6,0.5,1.1,1.1,1.1l28.7-0.4c0.1,0,0.2,0,0.2-0.1
		c0.1,0,0.1,0,0.2,0c0.1,0,0.2-0.1,0.2-0.2c0,0,0.1,0,0.1-0.1c0,0,0,0,0,0l0,0c0.1-0.1,0.1-0.1,0.1-0.2c0,0,0.1-0.1,0.1-0.1
		c0.1-0.1,0.1-0.3,0.1-0.4l-0.9-64c0.1-0.2,0.1-0.3,0.1-0.5l-1-76.3l51.9-0.7l0.8,60.8L644.2,672l-0.4-26.1l-0.2-12.8
		c0-0.3-0.1-0.6-0.3-0.8c-0.2-0.2-0.5-0.3-0.8-0.3l-29,0.4c0,0,0,0-0.1,0c-0.1,0-0.1,0-0.2,0c-0.1,0-0.1,0-0.2,0c0,0,0,0-0.1,0
		c0,0,0,0,0,0c0,0,0,0,0,0c0,0,0,0-0.1,0c0,0-0.1,0.1-0.1,0.1c0,0-0.1,0-0.1,0.1c0,0,0,0-0.1,0.1c0,0-0.1,0.1-0.1,0.1
		c0,0-0.1,0.1-0.1,0.1c0,0,0,0,0,0.1c0,0,0,0,0,0c0,0,0,0,0,0c0,0,0,0,0,0.1c0,0.1,0,0.1,0,0.2c0,0.1,0,0.1,0,0.2c0,0,0,0,0,0.1
		l0.9,64.8c0,0.1,0,0.3,0.1,0.4L614.6,774.6z M635,647.1l6.7-0.1l0.3,24.4l-13.9,0.2l-0.1-5.7l-0.3-18.7L635,647.1z M627.1,645
		l-10.8-10.5l25.2-0.3l0.1,10.6l-7.1,0.1L627.1,645z M642.7,673.6l10.4,10.1l-24.8,0.3l-0.1-10.3L642.7,673.6z M667.7,696.4
		l-40.3,0.5c-0.1,0-0.2,0-0.3,0.1l-11.4,0.2l-0.8-61.1l10.8,10.5l0.3,19.1l0.3,19.5c0,0.6,0.5,1.1,1.1,1.1l28.7-0.4
		c0.1,0,0.2,0,0.2-0.1c0.1,0,0.1,0,0.2,0c0.1,0,0.2-0.1,0.2-0.2c0,0,0.1,0,0.1-0.1l0,0c0,0,0,0,0,0c0.1-0.1,0.1-0.1,0.1-0.2
		c0,0,0.1-0.1,0.1-0.1c0.1-0.1,0.1-0.3,0.1-0.4l-0.9-63.9c0.1-0.1,0.1-0.3,0.1-0.5l-1-76.3l51.9-0.7l0.8,60.8L697.4,594l-0.4-26.1
		l-0.2-12.8c0-0.6-0.5-1-1.1-1.1l-29,0.4c0,0,0,0-0.1,0c-0.1,0-0.1,0-0.2,0c-0.1,0-0.1,0-0.2,0c0,0,0,0-0.1,0c0,0,0,0,0,0
		c0,0,0,0,0,0c0,0,0,0-0.1,0c0,0-0.1,0.1-0.1,0.1c0,0-0.1,0-0.1,0.1c0,0,0,0-0.1,0.1c0,0-0.1,0.1-0.1,0.1c0,0-0.1,0.1-0.1,0.1
		c0,0,0,0,0,0.1c0,0,0,0,0,0c0,0,0,0,0,0c0,0,0,0,0,0.1c0,0.1,0,0.1,0,0.2c0,0.1,0,0.1,0,0.2c0,0,0,0,0,0.1l0.9,64.8
		c0,0.2,0,0.3,0.1,0.4L667.7,696.4z M688.3,569l6.6-0.1l0.3,24.4l-13.9,0.2l-0.3-24.4L688.3,569z M680.2,566.9l-10.8-10.5l25.2-0.3
		l0.1,10.6l-6.4,0.1L680.2,566.9z M695.9,595.5l10.4,10.1l-24.8,0.3l-0.1-10.3L695.9,595.5z M720.8,618.3l-40.3,0.5
		c-0.1,0-0.2,0-0.3,0.1l-11.4,0.2l-0.8-61.1l10.8,10.5l0.4,26.1l0,0l0.2,12.5c0,0.6,0.5,1.1,1.1,1.1l28.7-0.4c0.1,0,0.2,0,0.2-0.1
		c0.1,0,0.1,0,0.2,0c0.1,0,0.2-0.1,0.2-0.2c0,0,0.1,0,0.1-0.1l0,0c0,0,0,0,0,0c0.1-0.1,0.1-0.1,0.1-0.2c0,0,0.1-0.1,0.1-0.1
		c0.1-0.1,0.1-0.3,0.1-0.4l-0.9-63.1c0.3-0.2,0.6-0.5,0.6-1l-1-76.3l51.9-0.7l0.8,60.8L751,516.1l-0.3-21.2l-0.2-17.7
		c0-0.3-0.1-0.6-0.3-0.8c-0.2-0.2-0.5-0.3-0.8-0.3l-29,0.4c0,0,0,0,0,0c-0.1,0-0.1,0-0.2,0c-0.1,0-0.1,0-0.2,0c0,0,0,0-0.1,0
		c0,0,0,0,0,0c0,0,0,0,0,0c0,0,0,0-0.1,0c0,0-0.1,0.1-0.1,0.1c0,0-0.1,0-0.1,0.1c0,0,0,0-0.1,0.1c0,0-0.1,0.1-0.1,0.1
		c0,0-0.1,0.1-0.1,0.1c0,0,0,0,0,0.1c0,0,0,0,0,0c0,0,0,0,0,0c0,0,0,0,0,0.1c0,0.1,0,0.1,0,0.2c0,0.1,0,0.1,0,0.2c0,0,0,0,0,0.1
		l0.9,63.8c-0.2,0.2-0.4,0.5-0.3,0.8L720.8,618.3z"/>
	<path d="M334.8,999.5L376,999c0.3,0,0.6-0.1,0.8-0.3c0.2-0.2,0.3-0.5,0.3-0.8l-1-76.3l11.6-0.2c0.1,0,0.2,0,0.3-0.1l41.2-0.6
		c0.3,0,0.6-0.1,0.8-0.3c0.2-0.2,0.3-0.5,0.3-0.8l-1-76.2l11.6-0.2c0.1,0,0.2,0,0.3-0.1l41.2-0.6c0.3,0,0.6-0.1,0.8-0.3
		c0.2-0.2,0.3-0.5,0.3-0.8l-1-75.9l12.1-0.2c0.1,0,0.2,0,0.3-0.1l41.2-0.6c0.6,0,1.1-0.5,1.1-1.1l-1-76.1l11.7-0.2
		c0.1,0,0.2,0,0.3-0.1l41.2-0.6c0.6,0,1.1-0.5,1.1-1.1l-1-76.3l11.6-0.2c0.1,0,0.2,0,0.3-0.1l41.2-0.6c0.3,0,0.6-0.1,0.8-0.3
		c0.2-0.2,0.3-0.5,0.3-0.8l-1-76.2l11.6-0.2c0.1,0,0.2,0,0.3-0.1l41.2-0.6c0.6,0,1.1-0.5,1.1-1.1l-1-75.9l12.1-0.2
		c0.1,0,0.2,0,0.3-0.1l41.2-0.6c0.3,0,0.6-0.1,0.8-0.3c0.2-0.2,0.3-0.5,0.3-0.8l-1-77.2c0-0.6-0.5-1.1-1.1-1.1
		c-0.6,0-1.1,0.5-1.1,1.1l1,76.1l-40.3,0.5c-0.1,0-0.2,0-0.3,0.1l-11.4,0.2l-0.8-61.1l10.8,10.5l0.3,19.1l0.3,19.5
		c0,0.3,0.1,0.6,0.3,0.8c0.2,0.2,0.5,0.3,0.8,0.3l28.6-0.4c0,0,0,0,0,0l0.2,0c0.1,0,0.2,0,0.3-0.1c0.1,0,0.1,0,0.2,0
		c0.1,0,0.1-0.1,0.2-0.1c0.1,0,0.1-0.1,0.2-0.1c0,0,0.1-0.1,0.1-0.2c0-0.1,0.1-0.1,0.1-0.2c0.1-0.1,0.1-0.3,0.1-0.4l-0.9-64.4
		c0-0.6-0.5-1.1-1.1-1.1l-54.1,0.7c-0.3,0-0.6,0.1-0.8,0.3c-0.2,0.2-0.3,0.5-0.3,0.8l1,76l-53.5,0.7c-0.3,0-0.6,0.1-0.8,0.3
		c-0.2,0.2-0.3,0.5-0.3,0.8l1,76.2l-53.1,0.7c-0.3,0-0.6,0.1-0.8,0.3c-0.2,0.2-0.3,0.5-0.3,0.8l1,76.3l-53.1,0.7
		c-0.3,0-0.6,0.1-0.8,0.3c-0.2,0.2-0.3,0.5-0.3,0.8l1,76.2l-53.1,0.7c-0.3,0-0.6,0.1-0.8,0.3c-0.2,0.2-0.3,0.5-0.3,0.8l1,76
		l-53.5,0.7c-0.3,0-0.6,0.1-0.8,0.3c-0.2,0.2-0.3,0.5-0.3,0.8l1,76.2l-53.1,0.7c-0.6,0-1.1,0.5-1.1,1.1l1,76.3l-53.1,0.7
		c-0.3,0-0.6,0.1-0.8,0.3c-0.2,0.2-0.3,0.5-0.3,0.8l1,77.4c0,0.6,0.5,1.1,1.1,1.1c0,0,0,0,0,0c0.6,0,1.1-0.5,1.1-1.1l-1-76.3
		l51.9-0.7l0.8,60.8l-10.6-10.3l-0.4-26.1l-0.2-12.8c0-0.6-0.5-1.1-1.1-1.1l-29,0.4c0,0,0,0-0.1,0c-0.1,0-0.1,0-0.2,0
		c-0.1,0-0.1,0-0.2,0c0,0,0,0-0.1,0c0,0,0,0,0,0c0,0,0,0,0,0c0,0,0,0-0.1,0c0,0-0.1,0.1-0.1,0.1c0,0-0.1,0-0.1,0.1c0,0,0,0-0.1,0.1
		c0,0-0.1,0.1-0.1,0.1c0,0-0.1,0.1-0.1,0.1c0,0,0,0,0,0.1c0,0,0,0,0,0c0,0,0,0,0,0c0,0,0,0,0,0.1c0,0.1,0,0.1,0,0.2
		c0,0.1,0,0.1,0,0.2c0,0,0,0,0,0.1l0.9,64.8c0,0.3,0.1,0.6,0.3,0.8c0.2,0.2,0.5,0.3,0.7,0.3c0,0,0,0,0,0l12.8-0.2
		C334.6,999.6,334.7,999.5,334.8,999.5z M707.2,399.3l-10.8-10.5l25.2-0.3l0.1,10.6l-6.4,0.1L707.2,399.3z M708.1,420.2l-0.3-18.7
		l7.4-0.1l6.6-0.1l0.3,24.4l-13.9,0.2L708.1,420.2z M708.3,438.3l-0.1-10.3l14.6-0.2l10.4,10.1L708.3,438.3z M682.2,376.5l51.9-0.7
		l0.8,60.8l-10.6-10.3l-0.4-26.1l-0.2-12.8c0-0.3-0.1-0.6-0.3-0.8c-0.2-0.2-0.5-0.3-0.8-0.3l-29,0.4c0,0,0,0-0.1,0
		c-0.1,0-0.1,0-0.2,0c-0.1,0-0.1,0-0.2,0c0,0,0,0-0.1,0c0,0,0,0,0,0c0,0,0,0,0,0c0,0,0,0-0.1,0c0,0-0.1,0.1-0.1,0.1
		c0,0-0.1,0-0.1,0.1c0,0,0,0-0.1,0.1c0,0-0.1,0.1-0.1,0.1c0,0-0.1,0.1-0.1,0.1c0,0,0,0,0,0.1c0,0,0,0,0,0c0,0,0,0,0,0c0,0,0,0,0,0.1
		c0,0.1,0,0.1,0,0.2c0,0.1,0,0.1,0,0.2c0,0,0,0,0,0.1l0.9,63.8c-0.2,0.2-0.4,0.5-0.3,0.8l1,76.1l-40.3,0.5c-0.1,0-0.2,0-0.3,0.1
		l-11.4,0.2l-0.8-61.1l10.8,10.5l0.4,26.1l0,0l0.2,12.5c0,0.3,0.1,0.6,0.3,0.8c0.2,0.2,0.5,0.3,0.8,0.3l28.6-0.4c0,0,0,0,0,0l0.2,0
		c0.1,0,0.2,0,0.3-0.1c0.1,0,0.1,0,0.2,0c0.1,0,0.1-0.1,0.2-0.1c0.1,0,0.1-0.1,0.2-0.1c0,0,0.1-0.1,0.1-0.2c0-0.1,0.1-0.1,0.1-0.2
		c0.1-0.1,0.1-0.3,0.1-0.4l-0.9-63.1c0.3-0.2,0.6-0.5,0.6-1L682.2,376.5z M654.6,503.7l-0.3-24.4l7.4-0.1l6.6-0.1l0.1,10.1l0.2,14.3
		L654.6,503.7z M669.2,505.7l10.4,10.1l-24.8,0.3l-0.1-10.3L669.2,505.7z M661.8,476.9l-8.2,0.1l-10.8-10.5l25.2-0.3l0.1,10.6
		L661.8,476.9z M628.6,454.3l51.9-0.7l0.8,60.8l-10.6-10.3l-0.2-13.2l-0.3-25.8c0-0.3-0.1-0.6-0.3-0.8c-0.2-0.2-0.5-0.3-0.8-0.3
		l-29,0.4c0,0,0,0-0.1,0c-0.1,0-0.1,0-0.2,0c-0.1,0-0.1,0-0.2,0c0,0,0,0-0.1,0c0,0,0,0,0,0c0,0,0,0,0,0c0,0,0,0-0.1,0
		c0,0-0.1,0.1-0.1,0.1c0,0-0.1,0-0.1,0.1c0,0,0,0-0.1,0.1c0,0-0.1,0.1-0.1,0.1c0,0-0.1,0.1-0.1,0.1c0,0,0,0,0,0.1c0,0,0,0,0,0
		c0,0,0,0,0,0c0,0,0,0,0,0.1c0,0.1,0,0.1,0,0.2c0,0.1,0,0.1,0,0.2c0,0,0,0,0,0.1l0.9,64.8c0,0.2,0,0.3,0.1,0.4l1,75.7l-40.3,0.5
		c-0.1,0-0.2,0-0.3,0.1l-11.4,0.2l-0.8-61.1l10.8,10.5l0.4,26.1l0,0l0.2,12.5c0,0.3,0.1,0.6,0.3,0.8c0.2,0.2,0.5,0.3,0.8,0.3
		l28.6-0.4c0,0,0,0,0,0l0.2,0c0.1,0,0.2,0,0.3-0.1c0.1,0,0.1,0,0.2,0c0.1,0,0.1-0.1,0.2-0.1c0.1,0,0.1-0.1,0.2-0.1
		c0,0,0.1-0.1,0.1-0.2c0-0.1,0.1-0.1,0.1-0.2c0.1-0.1,0.1-0.3,0.1-0.4l-0.9-63.9c0.1-0.1,0.1-0.3,0.1-0.5L628.6,454.3z M601.5,581.7
		l-0.3-24.4l7.4-0.1l6.6-0.1l0.3,24.4L601.5,581.7z M616.1,583.7l10.4,10.1l-24.8,0.3l-0.1-10.3L616.1,583.7z M608.7,555l-8.2,0.1
		l-10.8-10.5l25.2-0.3l0.1,10.6L608.7,555z M575.5,532.3l51.9-0.7l0.8,60.8l-10.6-10.3l-0.4-26.1l-0.2-12.8c0-0.1,0-0.3-0.1-0.4
		c0,0,0,0-0.1-0.1c-0.1-0.1-0.1-0.2-0.2-0.3c0,0,0,0-0.1,0c-0.2-0.2-0.4-0.3-0.7-0.3l-29,0.4c0,0,0,0-0.1,0c-0.1,0-0.1,0-0.2,0
		c-0.1,0-0.1,0-0.2,0c0,0,0,0-0.1,0c0,0,0,0,0,0c0,0,0,0,0,0c0,0,0,0-0.1,0c0,0-0.1,0.1-0.1,0.1c0,0-0.1,0-0.1,0.1c0,0,0,0-0.1,0.1
		c0,0-0.1,0.1-0.1,0.1c0,0-0.1,0.1-0.1,0.1c0,0,0,0,0,0.1c0,0,0,0,0,0c0,0,0,0,0,0c0,0,0,0,0,0.1c0,0.1,0,0.1,0,0.2
		c0,0.1,0,0.1,0,0.2c0,0,0,0,0,0.1l0.9,64.8c0,0.1,0,0.3,0.1,0.4l1,75.9l-40.3,0.5c-0.1,0-0.2,0-0.3,0.1l-11.4,0.2l-0.8-61.1
		l10.8,10.5l0.4,26.1c0,0,0,0,0,0l0.2,12.5c0,0.3,0.1,0.6,0.3,0.8c0.2,0.2,0.5,0.3,0.8,0.3l28.6-0.4c0,0,0,0,0,0l0.2,0
		c0.1,0,0.2,0,0.3-0.1c0.1,0,0.1,0,0.2,0c0.1,0,0.1-0.1,0.2-0.1c0.1,0,0.1-0.1,0.2-0.1c0,0,0.1-0.1,0.1-0.2c0-0.1,0.1-0.1,0.1-0.2
		c0.1-0.1,0.1-0.3,0.1-0.4l-0.9-64c0.1-0.2,0.1-0.3,0.1-0.5L575.5,532.3z M548.3,659.9l-0.3-24.4l7.4-0.1l6.6-0.1l0.3,24.4
		L548.3,659.9z M562.9,661.9l10.4,10.1l-24.8,0.3l-0.1-10.3L562.9,661.9z M555.5,633.2l-8.2,0.1l-10.8-10.5l25.2-0.3l0.1,10.6
		L555.5,633.2z M522.3,610.5l51.9-0.7l0.8,60.8l-10.6-10.3l-0.4-26.1l-0.2-12.8c0-0.3-0.1-0.6-0.3-0.8c-0.2-0.2-0.5-0.3-0.8-0.3
		l-29,0.4c0,0,0,0-0.1,0c-0.1,0-0.1,0-0.2,0c-0.1,0-0.1,0-0.2,0c0,0,0,0-0.1,0c0,0,0,0,0,0c0,0,0,0,0,0c0,0,0,0-0.1,0
		c0,0-0.1,0.1-0.1,0.1c0,0-0.1,0-0.1,0.1c0,0,0,0-0.1,0.1c0,0-0.1,0.1-0.1,0.1c0,0-0.1,0.1-0.1,0.1c0,0,0,0,0,0.1c0,0,0,0,0,0
		c0,0,0,0,0,0c0,0,0,0,0,0.1c0,0.1,0,0.1,0,0.2c0,0.1,0,0.1,0,0.2c0,0,0,0,0,0.1l0.9,64.8c0,0.1,0,0.2,0.1,0.3l1,75.8l-40.3,0.5
		c-0.1,0-0.2,0-0.3,0.1l-11.4,0.2l-0.8-61.1l10.8,10.5l0.3,19.1l0.3,19.5c0,0.6,0.5,1.1,1.1,1.1l28.7-0.4c0.1,0,0.2,0,0.2-0.1
		c0.1,0,0.1,0,0.2,0c0.1,0,0.2-0.1,0.2-0.2c0,0,0.1,0,0.1-0.1l0,0c0,0,0,0,0,0c0.1-0.1,0.1-0.1,0.1-0.2c0,0,0.1-0.1,0.1-0.1
		c0.1-0.1,0.1-0.3,0.1-0.4l-0.9-63.8c0.1-0.2,0.2-0.3,0.2-0.5L522.3,610.5z M495.1,737.9l-0.1-5.7l-0.3-18.7l7.2-0.1l6.7-0.1
		l0.1,10.9l0.2,13.5L495.1,737.9z M509.7,739.9l10.4,10.1l-24.8,0.3l-0.1-10.3L509.7,739.9z M501.6,711.2l-7.4,0.1l-10.8-10.5
		l25.2-0.3l0.1,10.6L501.6,711.2z M469.2,688.6l51.9-0.7l0.8,60.8l-10.6-10.3l-0.3-18.7l-0.3-20.3c0-0.3-0.1-0.6-0.3-0.8
		c-0.2-0.2-0.5-0.3-0.8-0.3l-29,0.4c0,0,0,0,0,0c-0.1,0-0.1,0-0.2,0c-0.1,0-0.1,0-0.2,0c0,0,0,0-0.1,0c0,0,0,0,0,0c0,0,0,0,0,0
		c0,0,0,0-0.1,0c0,0-0.1,0.1-0.1,0.1c0,0-0.1,0-0.1,0.1c0,0,0,0-0.1,0.1c0,0-0.1,0.1-0.1,0.1c0,0-0.1,0.1-0.1,0.1c0,0,0,0,0,0.1
		c0,0,0,0,0,0c0,0,0,0,0,0c0,0,0,0,0,0.1c0,0.1,0,0.1,0,0.2c0,0.1,0,0.1,0,0.2c0,0,0,0,0,0.1l0.9,63.8c-0.2,0.2-0.4,0.5-0.3,0.8
		l1,76.1l-40.3,0.5c-0.1,0-0.2,0-0.3,0.1l-11.4,0.2l-0.8-61.1l10.8,10.5l0.4,26.1l0,0l0.2,12.5c0,0.6,0.5,1.1,1.1,1.1l28.7-0.4
		c0.1,0,0.2,0,0.2-0.1c0.1,0,0.1,0,0.2,0c0.1,0,0.2-0.1,0.2-0.2c0,0,0.1,0,0.1-0.1c0,0,0,0,0,0s0,0,0,0c0.1-0.1,0.1-0.1,0.1-0.2
		c0,0,0.1-0.1,0.1-0.1c0.1-0.1,0.1-0.3,0.1-0.4l-0.9-63.1c0.3-0.2,0.6-0.5,0.6-1L469.2,688.6z M441.6,815.8l-0.3-24.4l7.4-0.1
		l6.6-0.1l0.1,10.1l0.2,14.3L441.6,815.8z M456.1,817.8l10.4,10.1l-24.8,0.3l-0.1-10.3L456.1,817.8z M448.8,789l-8.2,0.1l-10.8-10.5
		l25.2-0.3l0.1,10.6L448.8,789z M415.6,766.4l51.9-0.7l0.8,60.8l-10.6-10.3l-0.2-13.2l-0.3-25.8c0-0.6-0.5-1.1-1.1-1.1l-29,0.4
		c0,0,0,0-0.1,0c-0.1,0-0.1,0-0.2,0c-0.1,0-0.1,0-0.2,0c0,0,0,0-0.1,0c0,0,0,0,0,0c0,0,0,0,0,0c0,0,0,0-0.1,0c0,0-0.1,0.1-0.1,0.1
		c0,0-0.1,0-0.1,0.1c0,0,0,0-0.1,0.1c0,0-0.1,0.1-0.1,0.1c0,0-0.1,0.1-0.1,0.1c0,0,0,0,0,0.1c0,0,0,0,0,0c0,0,0,0,0,0c0,0,0,0,0,0.1
		c0,0.1,0,0.1,0,0.2c0,0.1,0,0.1,0,0.2c0,0,0,0,0,0.1l0.9,64.8c0,0.2,0,0.3,0.1,0.4l1,75.7l-40.3,0.5c-0.1,0-0.2,0-0.3,0.1
		l-11.4,0.2l-0.8-61.1l10.8,10.5l0.4,26.1c0,0,0,0,0,0l0.2,12.5c0,0.6,0.5,1.1,1.1,1.1l28.7-0.4c0.1,0,0.2,0,0.2-0.1
		c0.1,0,0.1,0,0.2,0c0.1,0,0.2-0.1,0.2-0.2c0,0,0.1,0,0.1-0.1c0,0,0,0,0,0l0,0c0.1-0.1,0.1-0.1,0.1-0.2c0,0,0.1-0.1,0.1-0.1
		c0.1-0.1,0.1-0.3,0.1-0.4l-0.9-63.9c0.1-0.1,0.1-0.3,0.1-0.5L415.6,766.4z M388.4,893.8l-0.3-24.4l7.4-0.1l6.6-0.1l0.3,24.4
		L388.4,893.8z M403,895.8l10.4,10.1l-24.8,0.3l-0.1-10.3L403,895.8z M395.6,867.1l-8.2,0.1l-10.8-10.5l25.2-0.3L402,867
		L395.6,867.1z M349.9,974l10.4,10.1l-24.8,0.3l-0.1-10.3L349.9,974z M349.2,971.8l-13.9,0.2l-0.3-24.4l7.4-0.1l6.6-0.1L349.2,971.8
		z M348.7,934.6l0.1,10.6l-6.4,0.1l-8.2,0.1l-10.8-10.5L348.7,934.6z M334.2,997.4l-11.4,0.2l-0.8-61.1l10.8,10.5l0.4,26.1l0,0
		l0.2,12.5c0,0.6,0.5,1.1,1.1,1.1l28.7-0.4c0.1,0,0.2,0,0.2-0.1c0.1,0,0.1,0,0.2,0c0.1,0,0.2-0.1,0.2-0.2c0,0,0.1,0,0.1-0.1
		c0,0,0,0,0,0l0,0c0.1-0.1,0.1-0.1,0.1-0.2c0,0,0.1-0.1,0.1-0.1c0.1-0.1,0.1-0.3,0.1-0.4l-0.9-64c0.1-0.2,0.1-0.3,0.1-0.5l-1-76.3
		l51.9-0.7l0.8,60.8l-10.6-10.3l-0.4-26.1l-0.2-12.8c0-0.6-0.5-1.1-1.1-1.1l-29,0.4c0,0,0,0-0.1,0c-0.1,0-0.1,0-0.2,0
		c-0.1,0-0.1,0-0.2,0c0,0,0,0-0.1,0c0,0,0,0,0,0c0,0,0,0,0,0c0,0,0,0-0.1,0c0,0-0.1,0.1-0.1,0.1c0,0-0.1,0-0.1,0.1c0,0,0,0-0.1,0.1
		c0,0-0.1,0.1-0.1,0.1c0,0-0.1,0.1-0.1,0.1c0,0,0,0,0,0.1c0,0,0,0,0,0c0,0,0,0,0,0c0,0,0,0,0,0.1c0,0.1,0,0.1,0,0.2
		c0,0.1,0,0.1,0,0.2c0,0,0,0,0,0.1l0.9,64.8c0,0.1,0,0.3,0.1,0.4l1,75.9l-40.3,0.5C334.4,997.3,334.3,997.4,334.2,997.4z"/>
	<path d="M307.9,909.5c0.1,0,0.2,0,0.3-0.1l41.2-0.6c0.3,0,0.6-0.1,0.8-0.3c0.2-0.2,0.3-0.5,0.3-0.8l-1-76.2l11.6-0.2
		c0.1,0,0.2,0,0.3-0.1l41.2-0.6c0.3,0,0.6-0.1,0.8-0.3c0.2-0.2,0.3-0.5,0.3-0.8l-1-75.9l12.1-0.2c0.1,0,0.2,0,0.3-0.1L456,753
		c0.3,0,0.6-0.1,0.8-0.3c0.2-0.2,0.3-0.5,0.3-0.8l-1-76.1l11.7-0.2c0.1,0,0.2,0,0.3-0.1l41.2-0.6c0.6,0,1.1-0.5,1.1-1.1l-1-76.3
		l11.6-0.2c0.1,0,0.2,0,0.3-0.1l41.2-0.6c0.6,0,1.1-0.5,1.1-1.1l-1-76.2l11.6-0.2c0.1,0,0.2,0,0.3-0.1l41.2-0.6
		c0.6,0,1.1-0.5,1.1-1.1l-1-75.9l12.1-0.2c0.1,0,0.2,0,0.3-0.1l41.2-0.6c0.6,0,1.1-0.5,1.1-1.1l-1-77.2c0-0.6-0.5-1.1-1.1-1.1
		c-0.6,0-1.1,0.5-1.1,1.1l1,76.1l-40.3,0.5c-0.1,0-0.2,0-0.3,0.1l-11.4,0.2l-0.8-61.1l10.8,10.5l0.4,26.1c0,0,0,0,0,0l0.2,12.5
		c0,0.3,0.1,0.6,0.3,0.8c0.2,0.2,0.5,0.3,0.8,0.3l28.6-0.4c0,0,0,0,0,0l0.2,0c0.1,0,0.2,0,0.3-0.1c0.1,0,0.1,0,0.2,0
		c0.1,0,0.1-0.1,0.2-0.1c0.1,0,0.1-0.1,0.2-0.1c0,0,0.1-0.1,0.1-0.2c0-0.1,0.1-0.1,0.1-0.2c0.1-0.1,0.1-0.3,0.1-0.4l-0.9-64.4
		c0-0.6-0.5-1.1-1.1-1.1l-54.1,0.7c-0.3,0-0.6,0.1-0.8,0.3c-0.2,0.2-0.3,0.5-0.3,0.8l1,76l-53.5,0.7c-0.3,0-0.6,0.1-0.8,0.3
		c-0.2,0.2-0.3,0.5-0.3,0.8l1,76.2l-53.1,0.7c-0.3,0-0.6,0.1-0.8,0.3c-0.2,0.2-0.3,0.5-0.3,0.8l1,76.3l-53.1,0.7
		c-0.6,0-1.1,0.5-1.1,1.1l1,76.2l-53.1,0.7c-0.3,0-0.6,0.1-0.8,0.3c-0.2,0.2-0.3,0.5-0.3,0.8l1,76l-53.5,0.7c-0.3,0-0.6,0.1-0.8,0.3
		c-0.2,0.2-0.3,0.5-0.3,0.8l1,76.2l-53.1,0.7c-0.3,0-0.6,0.1-0.8,0.3c-0.2,0.2-0.3,0.5-0.3,0.8l1,76.3l-53.1,0.7
		c-0.3,0-0.6,0.1-0.8,0.3c-0.2,0.2-0.3,0.5-0.3,0.8l1,77.4c0,0.6,0.5,1.1,1.1,1.1c0,0,0,0,0,0c0.6,0,1.1-0.5,1.1-1.1l-1-76.3
		l51.9-0.7l0.8,60.8l-10.6-10.3l-0.4-26.1l-0.2-12.8c0-0.3-0.1-0.6-0.3-0.8c-0.2-0.2-0.5-0.3-0.8-0.3l-29,0.4c0,0,0,0,0,0
		c-0.1,0-0.1,0-0.2,0c-0.1,0-0.1,0-0.1,0c0,0,0,0-0.1,0c0,0,0,0,0,0c0,0,0,0,0,0c0,0,0,0-0.1,0c0,0-0.1,0.1-0.1,0.1
		c0,0-0.1,0-0.1,0.1c0,0,0,0-0.1,0.1c0,0-0.1,0.1-0.1,0.1c0,0-0.1,0.1-0.1,0.1c0,0,0,0,0,0.1c0,0,0,0,0,0c0,0,0,0,0,0c0,0,0,0,0,0.1
		c0,0.1,0,0.1,0,0.2c0,0.1,0,0.1,0,0.2c0,0,0,0,0,0.1l0.9,64.8c0,0.6,0.5,1.1,1.1,1.1c0,0,0,0,0,0l12.8-0.2c0.1,0,0.2,0,0.3-0.1
		l41.2-0.6c0.3,0,0.6-0.1,0.8-0.3c0.2-0.2,0.3-0.5,0.3-0.8l-1-76.3L307.9,909.5z M627.4,387.4l-10.8-10.5l25.2-0.3l0.1,10.6
		l-6.4,0.1L627.4,387.4z M628,389.6l7.4-0.1l6.6-0.1l0.3,24.4l-13.9,0.2L628,389.6z M628.5,426.4l-0.1-10.3L643,416l10.4,10.1
		L628.5,426.4z M602.4,364.6l51.9-0.7l0.8,60.8l-10.6-10.3l-0.4-26.1l-0.2-12.8c0-0.1,0-0.3-0.1-0.4c0,0,0,0,0-0.1
		c-0.1-0.1-0.1-0.2-0.2-0.3c-0.2-0.2-0.5-0.3-0.8-0.3l-29,0.4c0,0,0,0-0.1,0c-0.1,0-0.1,0-0.2,0c-0.1,0-0.1,0-0.2,0c0,0,0,0-0.1,0
		c0,0,0,0,0,0c0,0,0,0,0,0c0,0,0,0-0.1,0c0,0-0.1,0.1-0.1,0.1c0,0-0.1,0-0.1,0.1c0,0,0,0-0.1,0.1c0,0-0.1,0.1-0.1,0.1
		c0,0-0.1,0.1-0.1,0.1c0,0,0,0,0,0.1c0,0,0,0,0,0c0,0,0,0,0,0c0,0,0,0,0,0.1c0,0.1,0,0.1,0,0.2c0,0.1,0,0.1,0,0.2c0,0,0,0,0,0.1
		l0.9,63.8c-0.2,0.2-0.4,0.5-0.3,0.8l1,76.1l-40.3,0.5c-0.1,0-0.2,0-0.3,0.1l-11.4,0.2l-0.8-61.1l10.8,10.5l0.4,26.1c0,0,0,0,0,0
		l0.2,12.5c0,0.6,0.5,1.1,1.1,1.1l28.7-0.4c0.1,0,0.2,0,0.2-0.1c0.1,0,0.1,0,0.2,0c0.1,0,0.2-0.1,0.2-0.2c0,0,0.1,0,0.1-0.1
		c0,0,0,0,0,0c0,0,0,0,0,0c0.1-0.1,0.1-0.1,0.1-0.2c0,0,0.1-0.1,0.1-0.1c0.1-0.1,0.1-0.3,0.1-0.4l-0.9-63.1c0.3-0.2,0.6-0.5,0.6-1
		L602.4,364.6z M574.8,491.8l-0.3-24.4l7.2-0.1l6.7-0.1l0.1,6.2l0.2,18.2L574.8,491.8z M589.4,493.8l10.4,10.1l-24.8,0.3l-0.1-10.3
		L589.4,493.8z M581.2,465.1l-7.5,0.1L563,454.7l25.2-0.3l0.1,10.6L581.2,465.1z M548.8,442.4l51.9-0.7l0.8,60.8l-10.6-10.3
		l-0.3-18.7l-0.3-20.3c0-0.3-0.1-0.6-0.3-0.8c-0.2-0.2-0.5-0.3-0.8-0.3l-29,0.4c0,0,0,0-0.1,0c-0.1,0-0.1,0-0.2,0
		c-0.1,0-0.1,0-0.2,0c0,0,0,0-0.1,0c0,0,0,0,0,0c0,0,0,0,0,0c0,0,0,0-0.1,0c0,0-0.1,0.1-0.1,0.1c0,0-0.1,0-0.1,0.1c0,0,0,0-0.1,0.1
		c0,0-0.1,0.1-0.1,0.1c0,0-0.1,0.1-0.1,0.1c0,0,0,0,0,0.1c0,0,0,0,0,0c0,0,0,0,0,0c0,0,0,0,0,0.1c0,0.1,0,0.1,0,0.2
		c0,0.1,0,0.1,0,0.2c0,0,0,0,0,0.1l0.9,64.8c0,0.2,0,0.3,0.1,0.4l1,75.7l-40.3,0.5c-0.1,0-0.2,0-0.3,0.1l-11.4,0.2l-0.8-61.1
		l10.8,10.5l0.4,26.1l0,0l0.2,12.5c0,0.3,0.1,0.6,0.3,0.8c0.2,0.2,0.5,0.3,0.8,0.3l28.6-0.4c0,0,0,0,0,0l0.2,0c0.1,0,0.2,0,0.3-0.1
		c0.1,0,0.1,0,0.2,0c0.1,0,0.1-0.1,0.2-0.1c0.1,0,0.1-0.1,0.2-0.1c0,0,0.1-0.1,0.1-0.2c0-0.1,0.1-0.1,0.1-0.2
		c0.1-0.1,0.1-0.3,0.1-0.4l-0.9-63.9c0.1-0.1,0.1-0.3,0.1-0.5L548.8,442.4z M521.6,569.8l-0.3-24.4l7.4-0.1l6.6-0.1l0.3,24.4
		L521.6,569.8z M536.2,571.8l10.4,10.1l-24.8,0.3l-0.1-10.3L536.2,571.8z M528.8,543.1l-8.2,0.1l-10.8-10.5l25.2-0.3l0.1,10.6
		L528.8,543.1z M495.6,520.5l51.9-0.7l0.8,60.8l-10.6-10.3l-0.4-26.1l-0.2-12.8c0-0.1,0-0.3-0.1-0.4c0,0,0,0,0,0
		c-0.1-0.1-0.1-0.2-0.2-0.3c-0.2-0.2-0.5-0.3-0.8-0.3l-29,0.4c0,0,0,0,0,0c-0.1,0-0.1,0-0.2,0c-0.1,0-0.1,0-0.2,0c0,0,0,0-0.1,0
		c0,0,0,0,0,0c0,0,0,0,0,0c0,0,0,0-0.1,0c0,0-0.1,0.1-0.1,0.1c0,0-0.1,0-0.1,0.1c0,0,0,0-0.1,0.1c0,0-0.1,0.1-0.1,0.1
		c0,0-0.1,0.1-0.1,0.1c0,0,0,0,0,0.1c0,0,0,0,0,0c0,0,0,0,0,0c0,0,0,0,0,0.1c0,0.1,0,0.1,0,0.2c0,0.1,0,0.1,0,0.2c0,0,0,0,0,0.1
		l0.9,64.8c0,0.1,0,0.3,0.1,0.4l1,75.9l-40.3,0.5c-0.1,0-0.2,0-0.3,0.1l-11.4,0.2l-0.8-61.1L466,623l0.4,26.1c0,0,0,0,0,0l0.2,12.5
		c0,0.6,0.5,1.1,1.1,1.1l28.7-0.4c0.1,0,0.2,0,0.2-0.1c0.1,0,0.1,0,0.2,0c0.1,0,0.2-0.1,0.2-0.2c0,0,0.1,0,0.1-0.1c0,0,0,0,0,0
		c0,0,0,0,0,0c0.1-0.1,0.1-0.1,0.1-0.2c0,0,0.1-0.1,0.1-0.1c0.1-0.1,0.1-0.3,0.1-0.4l-0.9-64c0.1-0.2,0.1-0.3,0.1-0.5L495.6,520.5z
		 M468.5,648l-0.3-24.4l7.4-0.1l6.6-0.1l0.1,10.1l0.2,14.3L468.5,648z M483.1,650l10.4,10.1l-24.8,0.3l-0.1-10.3L483.1,650z
		 M475.7,621.3l-8.2,0.1l-10.8-10.5l25.2-0.3l0.1,10.6L475.7,621.3z M442.5,598.6l51.9-0.7l0.8,60.8l-10.6-10.3l-0.2-13.2l-0.3-25.8
		c0-0.3-0.1-0.6-0.3-0.8c-0.2-0.2-0.5-0.3-0.8-0.3l-29,0.4c0,0,0,0,0,0c-0.1,0-0.1,0-0.2,0c-0.1,0-0.1,0-0.2,0c0,0,0,0-0.1,0
		c0,0,0,0,0,0c0,0,0,0,0,0c0,0,0,0-0.1,0c0,0-0.1,0.1-0.1,0.1c0,0-0.1,0-0.1,0.1c0,0,0,0-0.1,0.1c0,0-0.1,0.1-0.1,0.1
		c0,0-0.1,0.1-0.1,0.1c0,0,0,0,0,0.1c0,0,0,0,0,0c0,0,0,0,0,0c0,0,0,0,0,0.1c0,0.1,0,0.1,0,0.2c0,0.1,0,0.1,0,0.2c0,0,0,0,0,0.1
		l0.9,64.8c0,0.1,0,0.2,0.1,0.3l1,75.8l-40.3,0.5c-0.1,0-0.2,0-0.3,0.1l-11.4,0.2l-0.8-61.1l10.8,10.5l0.3,20.9l0.2,17.7
		c0,0.6,0.5,1.1,1.1,1.1l28.7-0.4c0.1,0,0.2,0,0.2-0.1c0.1,0,0.1,0,0.2,0c0.1,0,0.2-0.1,0.2-0.2c0,0,0.1,0,0.1-0.1c0,0,0,0,0,0
		s0,0,0,0c0.1-0.1,0.1-0.1,0.1-0.2c0,0,0.1-0.1,0.1-0.1c0.1-0.1,0.1-0.3,0.1-0.4l-0.9-63.8c0.1-0.2,0.2-0.3,0.2-0.5L442.5,598.6z
		 M415.3,726.1l-0.1-4.5l-0.3-19.9l7.4-0.1l6.6-0.1l0.3,24.4L415.3,726.1z M429.9,728.1l10.4,10.1l-24.8,0.3l-0.1-10.3L429.9,728.1z
		 M422.5,699.4l-8.2,0.1L403.5,689l25.2-0.3l0.1,10.6L422.5,699.4z M389.3,676.7l51.9-0.7l0.8,60.8l-10.6-10.3l-0.4-26.1l-0.2-12.8
		c0-0.6-0.5-1.1-1.1-1.1l-29,0.4c0,0,0,0-0.1,0c-0.1,0-0.1,0-0.2,0c-0.1,0-0.1,0-0.2,0c0,0,0,0-0.1,0c0,0,0,0,0,0c0,0,0,0,0,0
		c0,0,0,0-0.1,0c0,0-0.1,0.1-0.1,0.1c0,0-0.1,0-0.1,0.1c0,0,0,0-0.1,0.1c0,0-0.1,0.1-0.1,0.1c0,0-0.1,0.1-0.1,0.1c0,0,0,0,0,0.1
		c0,0,0,0,0,0c0,0,0,0,0,0c0,0,0,0,0,0.1c0,0.1,0,0.1,0,0.2c0,0.1,0,0.1,0,0.2c0,0,0,0,0,0.1l0.9,63.8c-0.2,0.2-0.4,0.5-0.3,0.8
		l1,76.1l-40.3,0.5c-0.1,0-0.2,0-0.3,0.1l-11.4,0.2l-0.8-61.1l10.8,10.5l0.4,26.1l0,0l0.2,12.5c0,0.3,0.1,0.6,0.3,0.8
		c0.2,0.2,0.5,0.3,0.8,0.3l28.6-0.4c0,0,0,0,0,0l0.2,0c0.1,0,0.2,0,0.3-0.1c0.1,0,0.1,0,0.2,0c0.1,0,0.1-0.1,0.2-0.1
		c0.1,0,0.1-0.1,0.2-0.1c0,0,0.1-0.1,0.1-0.2c0-0.1,0.1-0.1,0.1-0.2c0.1-0.1,0.1-0.3,0.1-0.4l-0.9-63.1c0.3-0.2,0.6-0.5,0.6-1
		L389.3,676.7z M361.7,803.9l-0.3-24.4l7.4-0.1l6.6-0.1l0.1,10.1l0.2,14.3L361.7,803.9z M376.3,805.9l10.4,10.1l-24.8,0.3l-0.1-10.3
		L376.3,805.9z M369,777.2l-8.2,0.1L350,766.8l25.2-0.3l0.1,10.6L369,777.2z M335.7,754.5l51.9-0.7l0.8,60.8l-10.6-10.3l-0.2-13.2
		l-0.3-25.8c0-0.3-0.1-0.6-0.3-0.8c-0.2-0.2-0.5-0.3-0.8-0.3l-29,0.4c0,0,0,0-0.1,0c-0.1,0-0.1,0-0.2,0c-0.1,0-0.1,0-0.2,0
		c0,0,0,0-0.1,0c0,0,0,0,0,0c0,0,0,0,0,0c0,0,0,0-0.1,0c0,0-0.1,0.1-0.1,0.1c0,0-0.1,0-0.1,0.1c0,0,0,0-0.1,0.1c0,0-0.1,0.1-0.1,0.1
		c0,0-0.1,0.1-0.1,0.1c0,0,0,0,0,0.1c0,0,0,0,0,0c0,0,0,0,0,0c0,0,0,0,0,0.1c0,0.1,0,0.1,0,0.2c0,0.1,0,0.1,0,0.2c0,0,0,0,0,0.1
		l0.9,64.8c0,0.2,0,0.3,0.1,0.4l1,75.7l-40.3,0.5c-0.1,0-0.2,0-0.3,0.1l-11.4,0.2l-0.8-61.1l10.8,10.5l0.4,26.1c0,0,0,0,0,0
		l0.2,12.5c0,0.6,0.5,1.1,1.1,1.1l28.6-0.4c0,0,0,0,0,0l0.2,0c0.1,0,0.1,0,0.1,0c0.1,0,0.2,0,0.3-0.1c0.1,0,0.2-0.1,0.3-0.2
		c0,0,0.1,0,0.1-0.1l0,0c0.1-0.1,0.2-0.2,0.2-0.4c0.1-0.1,0.1-0.3,0.1-0.4l-0.9-63.9c0.1-0.1,0.1-0.3,0.1-0.5L335.7,754.5z
		 M308.6,881.9l-0.3-24.4l7.4-0.1l6.6-0.1l0.3,24.4L308.6,881.9z M323.2,883.9l10.4,10.1l-24.8,0.3l-0.1-10.3L323.2,883.9z
		 M315.8,855.2l-8.2,0.1l-10.8-10.5l25.2-0.3l0.1,10.6L315.8,855.2z M270.1,962.1l10.4,10.1l-24.8,0.3l-0.1-10.3L270.1,962.1z
		 M269.4,959.9l-13.9,0.2l-0.3-24.4l7.4-0.1l6.6-0.1L269.4,959.9z M268.9,922.7l0.1,10.6l-6.4,0.1l-8.2,0.1L243.7,923L268.9,922.7z
		 M295,984.9l-40.3,0.5c-0.1,0-0.2,0-0.3,0.1l-11.4,0.2l-0.8-61.1l10.8,10.5l0.4,26.1c0,0,0,0,0,0l0.2,12.5c0,0.3,0.1,0.6,0.3,0.8
		c0.2,0.2,0.5,0.3,0.8,0.3l28.6-0.4c0,0,0,0,0,0l0.2,0c0.1,0,0.2,0,0.3-0.1c0.1,0,0.1,0,0.2,0c0.1,0,0.1-0.1,0.2-0.1
		c0.1,0,0.1-0.1,0.2-0.1c0,0,0.1-0.1,0.1-0.2c0-0.1,0.1-0.1,0.1-0.2c0.1-0.1,0.1-0.3,0.1-0.4l-0.9-64c0.1-0.2,0.1-0.3,0.1-0.5
		l-1-76.3l51.9-0.7l0.8,60.8l-10.6-10.3l-0.4-26.1l-0.2-12.8c0-0.6-0.5-1.1-1.1-1.1l-29,0.4c0,0,0,0-0.1,0c-0.1,0-0.1,0-0.2,0
		c-0.1,0-0.1,0-0.2,0c0,0,0,0-0.1,0c0,0,0,0,0,0c0,0,0,0,0,0c0,0,0,0-0.1,0c0,0-0.1,0.1-0.1,0.1c0,0-0.1,0-0.1,0.1c0,0,0,0-0.1,0.1
		c0,0-0.1,0.1-0.1,0.1c0,0-0.1,0.1-0.1,0.1c0,0,0,0,0,0.1c0,0,0,0,0,0c0,0,0,0,0,0c0,0,0,0,0,0.1c0,0.1,0,0.1,0,0.2
		c0,0.1,0,0.1,0,0.2c0,0,0,0,0,0.1l0.9,64.8c0,0.2,0,0.3,0.1,0.4L295,984.9z"/>
	<path d="M228.2,897.8l41.2-0.6c0.3,0,0.6-0.1,0.8-0.3c0.2-0.2,0.3-0.5,0.3-0.8l-1-76.3l11.6-0.2c0.1,0,0.2,0,0.3-0.1l41.2-0.6
		c0.3,0,0.6-0.1,0.8-0.3c0.2-0.2,0.3-0.5,0.3-0.8l-1-76.2l11.6-0.2c0.1,0,0.2,0,0.3-0.1l41.2-0.6c0.3,0,0.6-0.1,0.8-0.3
		c0.2-0.2,0.3-0.5,0.3-0.8l-1-75.9l12.1-0.2c0.1,0,0.2,0,0.3-0.1l41.2-0.6c0.6,0,1.1-0.5,1.1-1.1l-1-76.1l11.7-0.2
		c0.1,0,0.2,0,0.3-0.1l41.2-0.6c0.6,0,1.1-0.5,1.1-1.1l-1-76.3l11.6-0.2c0.1,0,0.2,0,0.3-0.1l41.2-0.6c0.6,0,1.1-0.5,1.1-1.1
		l-1-76.2l11.6-0.2c0.1,0,0.2,0,0.3-0.1l41.2-0.6c0.6,0,1.1-0.5,1.1-1.1l-1-75.9l12.1-0.2c0.1,0,0.2,0,0.3-0.1l41.2-0.6
		c0.3,0,0.6-0.1,0.8-0.3c0.2-0.2,0.3-0.5,0.3-0.8l-1-77.2c0-0.6-0.5-1.1-1.1-1.1c-0.6,0-1.1,0.5-1.1,1.1l1,76.1l-40.3,0.5
		c-0.1,0-0.2,0-0.3,0.1l-11.4,0.2l-0.8-61.1l10.8,10.5l0.3,19.1l0.3,19.5c0,0.3,0.1,0.6,0.3,0.8c0.2,0.2,0.5,0.3,0.8,0.3l28.6-0.4
		c0,0,0,0,0,0l0.2,0c0.1,0,0.2,0,0.3-0.1c0.1,0,0.1,0,0.2,0c0.1,0,0.1-0.1,0.2-0.1c0.1,0,0.1-0.1,0.2-0.1c0,0,0.1-0.1,0.1-0.2
		c0-0.1,0.1-0.1,0.1-0.2c0.1-0.1,0.1-0.3,0.1-0.4l-0.9-64.4c0-0.6-0.5-1.1-1.1-1.1l-54.1,0.7c-0.3,0-0.6,0.1-0.8,0.3
		c-0.2,0.2-0.3,0.5-0.3,0.8l1,76l-53.5,0.7c-0.3,0-0.6,0.1-0.8,0.3c-0.2,0.2-0.3,0.5-0.3,0.8l1,76.2l-53.1,0.7
		c-0.3,0-0.6,0.1-0.8,0.3c-0.2,0.2-0.3,0.5-0.3,0.8l1,76.3l-53.1,0.7c-0.3,0-0.6,0.1-0.8,0.3c-0.2,0.2-0.3,0.5-0.3,0.8l1,76.2
		l-53.1,0.7c-0.3,0-0.6,0.1-0.8,0.3c-0.2,0.2-0.3,0.5-0.3,0.8l1,76l-53.5,0.7c-0.3,0-0.6,0.1-0.8,0.3c-0.2,0.2-0.3,0.5-0.3,0.8
		l1,76.2l-53.1,0.7c-0.3,0-0.6,0.1-0.8,0.3c-0.2,0.2-0.3,0.5-0.3,0.8l1,76.3l-53.1,0.7c-0.3,0-0.6,0.1-0.8,0.3
		c-0.2,0.2-0.3,0.5-0.3,0.8l1,77.4c0,0.6,0.5,1.1,1.1,1.1c0,0,0,0,0,0c0.6,0,1.1-0.5,1.1-1.1l-1-76.3l51.9-0.7l0.8,60.8l-10.6-10.3
		l-0.4-26.1l-0.2-12.8c0-0.6-0.5-1.1-1.1-1.1l-29,0.4c0,0,0,0,0,0c-0.1,0-0.1,0-0.2,0c-0.1,0-0.1,0-0.2,0c0,0,0,0-0.1,0c0,0,0,0,0,0
		c0,0,0,0,0,0c0,0,0,0-0.1,0c0,0-0.1,0.1-0.1,0.1c0,0-0.1,0-0.1,0.1c0,0,0,0-0.1,0.1c0,0-0.1,0.1-0.1,0.1c0,0-0.1,0.1-0.1,0.1
		c0,0,0,0,0,0.1c0,0,0,0,0,0c0,0,0,0,0,0c0,0,0,0,0,0.1c0,0.1,0,0.1,0,0.2c0,0.1,0,0.1,0,0.2c0,0,0,0,0,0.1l0.9,64.8
		c0,0.3,0.1,0.6,0.3,0.8c0.2,0.2,0.5,0.3,0.7,0.3c0,0,0,0,0,0l12.8-0.2C228.1,897.9,228.1,897.8,228.2,897.8z M600.6,297.5
		L589.8,287l25.2-0.3l0.1,10.6l-6.4,0.1L600.6,297.5z M601.5,318.4l-0.3-18.7l7.4-0.1l6.6-0.1l0.3,24.4l-13.9,0.2L601.5,318.4z
		 M601.8,336.6l-0.1-10.3l14.6-0.2l10.4,10.1L601.8,336.6z M575.6,274.7l51.9-0.7l0.8,60.8l-10.6-10.3l-0.4-26.1l-0.2-12.8
		c0-0.3-0.1-0.6-0.3-0.8c-0.2-0.2-0.5-0.3-0.8-0.3l-29,0.4c0,0,0,0-0.1,0c-0.1,0-0.1,0-0.2,0s-0.1,0-0.2,0c0,0,0,0-0.1,0
		c0,0,0,0,0,0c0,0,0,0,0,0c0,0,0,0-0.1,0c0,0-0.1,0.1-0.1,0.1c0,0-0.1,0-0.1,0.1c0,0,0,0-0.1,0.1c0,0-0.1,0.1-0.1,0.1
		c0,0-0.1,0.1-0.1,0.1c0,0,0,0,0,0.1c0,0,0,0,0,0c0,0,0,0,0,0c0,0,0,0,0,0.1c0,0.1,0,0.1,0,0.2c0,0.1,0,0.1,0,0.2c0,0,0,0,0,0.1
		l0.9,63.8c-0.2,0.2-0.4,0.5-0.3,0.8l1,76.1l-40.3,0.5c-0.1,0-0.2,0-0.3,0.1l-11.4,0.2l-0.8-61.1l10.8,10.5l0.4,26.1l0,0l0.2,12.5
		c0,0.3,0.1,0.6,0.3,0.8c0.2,0.2,0.5,0.3,0.8,0.3l28.6-0.4c0,0,0,0,0,0l0.2,0c0.1,0,0.2,0,0.3-0.1c0.1,0,0.1,0,0.2,0
		c0.1,0,0.1-0.1,0.2-0.1c0.1,0,0.1-0.1,0.2-0.1c0,0,0.1-0.1,0.1-0.2c0-0.1,0.1-0.1,0.1-0.2c0.1-0.1,0.1-0.3,0.1-0.4l-0.9-63.1
		c0.3-0.2,0.6-0.5,0.6-1L575.6,274.7z M548,401.9l-0.3-24.4l7.4-0.1l6.6-0.1l0.1,10.1l0.2,14.3L548,401.9z M562.6,403.9L573,414
		l-24.8,0.3l-0.1-10.3L562.6,403.9z M555.3,375.2l-8.2,0.1l-10.8-10.5l25.2-0.3l0.1,10.6L555.3,375.2z M522,352.5l51.9-0.7l0.8,60.8
		l-10.6-10.3l-0.2-13.2l-0.3-25.8c0-0.3-0.1-0.6-0.3-0.8c-0.2-0.2-0.5-0.3-0.8-0.3l-29,0.4c0,0,0,0,0,0c-0.1,0-0.1,0-0.2,0
		c-0.1,0-0.1,0-0.2,0c0,0,0,0-0.1,0c0,0,0,0,0,0c0,0,0,0,0,0c0,0,0,0-0.1,0c0,0-0.1,0.1-0.1,0.1c0,0-0.1,0-0.1,0.1c0,0,0,0-0.1,0.1
		c0,0-0.1,0.1-0.1,0.1c0,0-0.1,0.1-0.1,0.1c0,0,0,0,0,0.1c0,0,0,0,0,0c0,0,0,0,0,0c0,0,0,0,0,0.1c0,0.1,0,0.1,0,0.2
		c0,0.1,0,0.1,0,0.2c0,0,0,0,0,0.1l0.9,64.8c0,0.2,0,0.3,0.1,0.4l1,75.7l-40.3,0.5c-0.1,0-0.2,0-0.3,0.1l-11.4,0.2l-0.8-61.1
		l10.8,10.5l0.4,26.1l0,0l0.2,12.5c0,0.3,0.1,0.6,0.3,0.8c0.2,0.2,0.5,0.3,0.8,0.3l28.6-0.4c0,0,0,0,0,0l0.2,0c0.1,0,0.2,0,0.3-0.1
		c0.1,0,0.1,0,0.2,0c0.1,0,0.1-0.1,0.2-0.1c0.1,0,0.1-0.1,0.2-0.1c0,0,0.1-0.1,0.1-0.2c0-0.1,0.1-0.1,0.1-0.2
		c0.1-0.1,0.1-0.3,0.1-0.4l-0.9-63.9c0.1-0.1,0.1-0.3,0.1-0.5L522,352.5z M494.9,480l-0.3-24.4l7.4-0.1l6.6-0.1l0.3,24.4L494.9,480z
		 M509.5,482l10.4,10.1l-24.8,0.3l-0.1-10.3L509.5,482z M502.1,453.3l-8.2,0.1l-10.8-10.5l25.2-0.3l0.1,10.6L502.1,453.3z
		 M468.9,430.6l51.9-0.7l0.8,60.8L511,480.4l-0.4-26.1l-0.2-12.8c0-0.3-0.1-0.6-0.3-0.8c-0.2-0.2-0.5-0.3-0.8-0.3l-29,0.4
		c0,0,0,0-0.1,0c-0.1,0-0.1,0-0.2,0c-0.1,0-0.1,0-0.2,0c0,0,0,0-0.1,0c0,0,0,0,0,0c0,0,0,0,0,0c0,0,0,0-0.1,0c0,0-0.1,0.1-0.1,0.1
		c0,0-0.1,0-0.1,0.1c0,0,0,0-0.1,0.1c0,0-0.1,0.1-0.1,0.1c0,0-0.1,0.1-0.1,0.1c0,0,0,0,0,0.1c0,0,0,0,0,0c0,0,0,0,0,0c0,0,0,0,0,0.1
		c0,0.1,0,0.1,0,0.2c0,0.1,0,0.1,0,0.2c0,0,0,0,0,0.1l0.9,64.8c0,0.1,0,0.3,0.1,0.4l1,75.9l-40.3,0.5c-0.1,0-0.2,0-0.3,0.1
		l-11.4,0.2l-0.8-61.1l10.8,10.5l0.4,26.1l0,0l0.2,12.5c0,0.3,0.1,0.6,0.3,0.8c0.2,0.2,0.5,0.3,0.8,0.3l28.6-0.4c0,0,0,0,0,0l0.2,0
		c0.1,0,0.2,0,0.3-0.1c0.1,0,0.1,0,0.2,0c0.1,0,0.1-0.1,0.2-0.1c0.1,0,0.1-0.1,0.2-0.1c0,0,0.1-0.1,0.1-0.2c0-0.1,0.1-0.1,0.1-0.2
		c0.1-0.1,0.1-0.3,0.1-0.4l-0.9-64c0.1-0.2,0.1-0.3,0.1-0.5L468.9,430.6z M441.7,558.2l-0.3-24.4l7.4-0.1l6.6-0.1l0.1,10.1l0.2,14.3
		L441.7,558.2z M456.3,560.2l10.4,10.1l-24.8,0.3l-0.1-10.3L456.3,560.2z M449,531.5l-8.2,0.1L430,521.1l25.2-0.3l0.1,10.6
		L449,531.5z M415.8,508.8l51.9-0.7l0.8,60.8l-10.6-10.3l-0.2-13.2l-0.3-25.8c0-0.3-0.1-0.6-0.3-0.8c-0.2-0.2-0.5-0.3-0.8-0.3
		l-29,0.4c0,0,0,0-0.1,0c-0.1,0-0.1,0-0.2,0c-0.1,0-0.1,0-0.2,0c0,0,0,0-0.1,0c0,0,0,0,0,0c0,0,0,0,0,0c0,0,0,0-0.1,0
		c0,0-0.1,0.1-0.1,0.1c0,0-0.1,0-0.1,0.1c0,0,0,0-0.1,0.1c0,0-0.1,0.1-0.1,0.1c0,0-0.1,0.1-0.1,0.1c0,0,0,0,0,0.1c0,0,0,0,0,0
		c0,0,0,0,0,0c0,0,0,0,0,0.1c0,0.1,0,0.1,0,0.2c0,0.1,0,0.1,0,0.2c0,0,0,0,0,0.1l0.9,64.8c0,0.1,0,0.2,0.1,0.3l1,75.8l-40.3,0.5
		c-0.1,0-0.2,0-0.3,0.1l-11.4,0.2l-0.8-61.1l10.8,10.5l0.3,19.1l0.3,19.5c0,0.6,0.5,1.1,1.1,1.1l28.7-0.4c0.1,0,0.2,0,0.2-0.1
		c0.1,0,0.1,0,0.2,0c0.1,0,0.2-0.1,0.2-0.2c0,0,0.1,0,0.1-0.1l0,0c0,0,0,0,0,0c0.1-0.1,0.1-0.1,0.1-0.2c0,0,0.1-0.1,0.1-0.1
		c0.1-0.1,0.1-0.3,0.1-0.4l-0.9-63.8c0.1-0.2,0.2-0.3,0.2-0.5L415.8,508.8z M388.6,636.2l-0.1-5.7l-0.3-18.7l7.2-0.1l6.7-0.1
		l0.3,24.4L388.6,636.2z M403.2,638.2l10.4,10.1l-24.8,0.3l-0.1-10.3L403.2,638.2z M395,609.5l-7.4,0.1l-10.8-10.5l24.4-0.3l0.9,0
		l0.1,10.6L395,609.5z M362.6,586.8l51.9-0.7l0.8,60.8l-10.6-10.3l-0.4-26.1l-0.2-12.8c0-0.3-0.1-0.6-0.3-0.8
		c-0.1-0.1-0.2-0.2-0.4-0.2c-0.1,0-0.3-0.1-0.4-0.1c0,0,0,0,0,0h0h0l-29,0.4c0,0,0,0-0.1,0c-0.1,0-0.1,0-0.2,0c-0.1,0-0.1,0-0.2,0
		c0,0,0,0-0.1,0c0,0,0,0,0,0c0,0,0,0,0,0c0,0,0,0-0.1,0c0,0-0.1,0.1-0.1,0.1c0,0-0.1,0-0.1,0.1c0,0,0,0-0.1,0.1c0,0-0.1,0.1-0.1,0.1
		c0,0-0.1,0.1-0.1,0.1c0,0,0,0,0,0.1c0,0,0,0,0,0c0,0,0,0,0,0c0,0,0,0,0,0.1c0,0.1,0,0.1,0,0.2c0,0.1,0,0.1,0,0.2c0,0,0,0,0,0.1
		l0.9,63.8c-0.2,0.2-0.4,0.5-0.3,0.8l1,76.1l-40.3,0.5c-0.1,0-0.2,0-0.3,0.1l-11.4,0.2l-0.8-61.1l10.8,10.5l0.4,26.1l0,0l0.2,12.5
		c0,0.6,0.5,1.1,1.1,1.1l28.7-0.4c0.1,0,0.2,0,0.2-0.1c0.1,0,0.1,0,0.2,0c0.1,0,0.2-0.1,0.2-0.2c0,0,0.1,0,0.1-0.1l0,0c0,0,0,0,0,0
		c0.1-0.1,0.1-0.1,0.1-0.2c0,0,0.1-0.1,0.1-0.1c0.1-0.1,0.1-0.3,0.1-0.4l-0.9-63.1c0.3-0.2,0.6-0.5,0.6-1L362.6,586.8z M335,714
		l-0.3-24.4l7.4-0.1l6.6-0.1l0.1,10.1l0.2,14.3L335,714z M349.6,716l10.4,10.1l-24.8,0.3l-0.1-10.3L349.6,716z M342.2,687.3
		l-8.2,0.1l-10.8-10.5l25.2-0.3l0.1,10.6L342.2,687.3z M309,664.6l51.9-0.7l0.8,60.8l-10.6-10.3l-0.2-13.2l-0.3-25.8
		c0-0.6-0.5-1.1-1.1-1.1l-29,0.4c0,0,0,0-0.1,0c-0.1,0-0.1,0-0.2,0c-0.1,0-0.1,0-0.2,0c0,0,0,0-0.1,0c0,0,0,0,0,0c0,0,0,0,0,0
		c0,0,0,0-0.1,0c0,0-0.1,0.1-0.1,0.1c0,0-0.1,0-0.1,0.1c0,0,0,0-0.1,0.1c0,0-0.1,0.1-0.1,0.1c0,0-0.1,0.1-0.1,0.1c0,0,0,0,0,0.1
		c0,0,0,0,0,0c0,0,0,0,0,0c0,0,0,0,0,0.1c0,0.1,0,0.1,0,0.2c0,0.1,0,0.1,0,0.2c0,0,0,0,0,0.1l0.9,64.8c0,0.2,0,0.3,0.1,0.4l1,75.7
		l-40.3,0.5c-0.1,0-0.2,0-0.3,0.1l-11.4,0.2l-0.8-61.1l10.8,10.5l0.4,26.1l0,0l0.2,12.5c0,0.6,0.5,1.1,1.1,1.1l28.7-0.4
		c0.1,0,0.2,0,0.2-0.1c0.1,0,0.1,0,0.2,0c0.1,0,0.2-0.1,0.2-0.2c0,0,0.1,0,0.1-0.1c0,0,0,0,0,0c0,0,0,0,0,0c0.1-0.1,0.1-0.1,0.1-0.2
		c0,0,0.1-0.1,0.1-0.1c0.1-0.1,0.1-0.3,0.1-0.4l-0.9-63.9c0.1-0.1,0.1-0.3,0.1-0.5L309,664.6z M281.8,792.1l-0.3-24.4l7.4-0.1
		l6.6-0.1l0.3,24.4L281.8,792.1z M296.4,794.1l10.4,10.1l-24.8,0.3l-0.1-10.3L296.4,794.1z M289.1,765.4l-8.2,0.1L270.1,755
		l25.2-0.3l0.1,10.6L289.1,765.4z M243.3,872.3l10.4,10.1l-24.8,0.3l-0.1-10.3L243.3,872.3z M242.6,870.1l-13.9,0.2l-0.3-24.4
		l7.4-0.1l6.6-0.1L242.6,870.1z M242.1,832.8l0.1,10.6l-6.4,0.1l-8.2,0.1l-10.8-10.5L242.1,832.8z M227.7,895.7l-11.4,0.2l-0.8-61.1
		l10.8,10.5l0.4,26.1l0,0l0.2,12.5c0,0.6,0.5,1.1,1.1,1.1l28.7-0.4c0.1,0,0.2,0,0.2-0.1c0.1,0,0.1,0,0.2,0c0.1,0,0.2-0.1,0.2-0.2
		c0,0,0.1,0,0.1-0.1l0,0c0,0,0,0,0,0c0.1-0.1,0.1-0.1,0.1-0.2c0,0,0.1-0.1,0.1-0.1c0.1-0.1,0.1-0.3,0.1-0.4l-0.9-64
		c0.1-0.2,0.1-0.3,0.1-0.5l-1-76.3l51.9-0.7l0.8,60.8L298,792.5l-0.4-26.1l-0.2-12.8c0-0.6-0.5-1.1-1.1-1.1l-29,0.4c0,0,0,0,0,0
		c-0.1,0-0.1,0-0.2,0c-0.1,0-0.1,0-0.2,0c0,0,0,0-0.1,0c0,0,0,0,0,0c0,0,0,0,0,0c0,0,0,0-0.1,0c0,0-0.1,0.1-0.1,0.1
		c0,0-0.1,0-0.1,0.1c0,0,0,0-0.1,0.1c0,0-0.1,0.1-0.1,0.1c0,0-0.1,0.1-0.1,0.1c0,0,0,0,0,0.1c0,0,0,0,0,0c0,0,0,0,0,0c0,0,0,0,0,0.1
		c0,0.1,0,0.1,0,0.2c0,0.1,0,0.1,0,0.2c0,0,0,0,0,0.1l0.9,64.8c0,0.1,0,0.3,0.1,0.4l1,75.9l-40.3,0.5
		C227.8,895.6,227.8,895.6,227.7,895.7z"/>
	<path d="M201.3,807.8c0.1,0,0.2,0,0.3-0.1l41.2-0.6c0.3,0,0.6-0.1,0.8-0.3c0.2-0.2,0.3-0.5,0.3-0.8l-1-76.2l11.6-0.2
		c0.1,0,0.2,0,0.3-0.1l41.2-0.6c0.3,0,0.6-0.1,0.8-0.3c0.2-0.2,0.3-0.5,0.3-0.8l-1-75.9l12.1-0.2c0.1,0,0.2,0,0.3-0.1l41.2-0.6
		c0.3,0,0.6-0.1,0.8-0.3c0.2-0.2,0.3-0.5,0.3-0.8l-1-76.1l11.7-0.2c0.1,0,0.2,0,0.3-0.1l41.2-0.6c0.6,0,1.1-0.5,1.1-1.1l-1-76.3
		l11.6-0.2c0.1,0,0.2,0,0.3-0.1l41.2-0.6c0.6,0,1.1-0.5,1.1-1.1l-1-76.2l11.6-0.2c0.1,0,0.2,0,0.3-0.1l41.2-0.6
		c0.6,0,1.1-0.5,1.1-1.1l-1-75.9l12.1-0.2c0.1,0,0.2,0,0.3-0.1l41.2-0.6c0.6,0,1.1-0.5,1.1-1.1l-1-77.2c0-0.6-0.5-1.1-1.1-1.1
		c-0.6,0-1.1,0.5-1.1,1.1l1,76.1l-40.3,0.5c-0.1,0-0.2,0-0.3,0.1l-11.4,0.2l-0.8-61.1l10.8,10.5l0.4,26.1c0,0,0,0,0,0l0.2,12.5
		c0,0.3,0.1,0.6,0.3,0.8c0.2,0.2,0.5,0.3,0.8,0.3l28.6-0.4c0,0,0,0,0,0l0.2,0c0.1,0,0.2,0,0.3-0.1c0.1,0,0.1,0,0.2,0
		c0.1,0,0.1-0.1,0.2-0.1c0.1,0,0.1-0.1,0.2-0.1c0,0,0.1-0.1,0.1-0.2c0-0.1,0.1-0.1,0.1-0.2c0.1-0.1,0.1-0.3,0.1-0.4l-0.9-64.4
		c0-0.6-0.5-1.1-1.1-1.1l-54.1,0.7c-0.3,0-0.6,0.1-0.8,0.3c-0.2,0.2-0.3,0.5-0.3,0.8l1,76l-53.5,0.7c-0.3,0-0.6,0.1-0.8,0.3
		c-0.2,0.2-0.3,0.5-0.3,0.8l1,76.2l-53.1,0.7c-0.3,0-0.6,0.1-0.8,0.3c-0.2,0.2-0.3,0.5-0.3,0.8l1,76.3l-53.1,0.7
		c-0.3,0-0.6,0.1-0.8,0.3c-0.2,0.2-0.3,0.5-0.3,0.8l1,76.2l-53.1,0.7c-0.3,0-0.6,0.1-0.8,0.3c-0.2,0.2-0.3,0.5-0.3,0.8l1,76
		l-53.5,0.7c-0.3,0-0.6,0.1-0.8,0.3c-0.2,0.2-0.3,0.5-0.3,0.8l1,76.2l-53.1,0.7c-0.3,0-0.6,0.1-0.8,0.3c-0.2,0.2-0.3,0.5-0.3,0.8
		l1,76.3l-53.1,0.7c-0.3,0-0.6,0.1-0.8,0.3c-0.2,0.2-0.3,0.5-0.3,0.8l1,77.4c0,0.6,0.5,1.1,1.1,1.1c0,0,0,0,0,0
		c0.6,0,1.1-0.5,1.1-1.1l-1-76.3l51.9-0.7l0.8,60.8L165,858.8l-0.2-13.2l-0.3-25.8c0-0.3-0.1-0.6-0.3-0.8c-0.2-0.2-0.5-0.3-0.8-0.3
		l-29,0.4c0,0,0,0-0.1,0c-0.1,0-0.1,0-0.2,0c-0.1,0-0.1,0-0.2,0c0,0,0,0-0.1,0c0,0,0,0,0,0c0,0,0,0,0,0c0,0,0,0-0.1,0
		c0,0-0.1,0.1-0.1,0.1c0,0-0.1,0-0.1,0.1c0,0,0,0-0.1,0.1c0,0-0.1,0.1-0.1,0.1c0,0-0.1,0.1-0.1,0.1c0,0,0,0,0,0.1c0,0,0,0,0,0
		c0,0,0,0,0,0c0,0,0,0,0,0.1c0,0.1,0,0.1,0,0.2c0,0.1,0,0.1,0,0.2c0,0,0,0,0,0.1l0.9,64.8c0,0.6,0.5,1.1,1.1,1.1c0,0,0,0,0,0
		l12.8-0.2c0.1,0,0.2,0,0.3-0.1l41.2-0.6c0.3,0,0.6-0.1,0.8-0.3c0.2-0.2,0.3-0.5,0.3-0.8l-1-76.3L201.3,807.8z M520.8,285.6
		L510,275.1l25.2-0.3l0.1,10.6l-6.4,0.1L520.8,285.6z M521.5,287.8l7.4-0.1l6.6-0.1l0.3,24.4l-13.9,0.2L521.5,287.8z M522,324.7
		l-0.1-10.3l14.6-0.2l10.4,10.1L522,324.7z M495.8,262.9l51.9-0.7l0.8,60.8l-10.6-10.3l-0.4-26.1l-0.2-12.8c0-0.3-0.1-0.6-0.3-0.8
		c-0.2-0.2-0.5-0.3-0.8-0.3l-29,0.4c0,0,0,0-0.1,0c-0.1,0-0.1,0-0.2,0c-0.1,0-0.1,0-0.2,0c0,0,0,0-0.1,0c0,0,0,0,0,0c0,0,0,0,0,0
		c0,0,0,0-0.1,0c0,0-0.1,0.1-0.1,0.1c0,0-0.1,0-0.1,0.1c0,0,0,0-0.1,0.1c0,0-0.1,0.1-0.1,0.1c0,0-0.1,0.1-0.1,0.1c0,0,0,0,0,0.1
		c0,0,0,0,0,0c0,0,0,0,0,0c0,0,0,0,0,0.1c0,0.1,0,0.1,0,0.2c0,0.1,0,0.1,0,0.2c0,0,0,0,0,0.1l0.9,63.8c-0.2,0.2-0.4,0.5-0.3,0.8
		l1,76.1l-40.3,0.5c-0.1,0-0.2,0-0.3,0.1l-11.4,0.2l-0.8-61.1l10.8,10.5l0.4,26.1l0,0l0.2,12.5c0,0.6,0.5,1,1.1,1.1l28.7-0.4
		c0.1,0,0.2,0,0.2-0.1c0.1,0,0.1,0,0.2,0c0.1,0,0.2-0.1,0.2-0.2c0,0,0.1,0,0.1-0.1c0,0,0,0,0,0c0,0,0,0,0,0c0.1-0.1,0.1-0.1,0.1-0.2
		c0,0,0.1-0.1,0.1-0.1c0.1-0.1,0.1-0.3,0.1-0.4l-0.9-63.1c0.3-0.2,0.6-0.5,0.6-1L495.8,262.9z M468.2,390l-0.3-24.4l7.2-0.1l6.7-0.1
		l0.1,6.2l0.2,18.2L468.2,390z M482.8,392l10.4,10.1l-24.8,0.3l-0.1-10.3L482.8,392z M474.7,363.3l-7.5,0.1L456.4,353l25.2-0.3
		l0.1,10.6L474.7,363.3z M442.2,340.7l51.9-0.7l0.8,60.8l-10.6-10.3l-0.3-18.7l-0.3-20.3c0-0.3-0.1-0.6-0.3-0.8
		c-0.2-0.2-0.5-0.3-0.8-0.3l-29,0.4c0,0,0,0-0.1,0c-0.1,0-0.1,0-0.2,0c-0.1,0-0.1,0-0.2,0c0,0,0,0-0.1,0c0,0,0,0,0,0c0,0,0,0,0,0
		c0,0,0,0-0.1,0c0,0-0.1,0.1-0.1,0.1c0,0-0.1,0-0.1,0.1c0,0,0,0-0.1,0.1c0,0-0.1,0.1-0.1,0.1c0,0-0.1,0.1-0.1,0.1c0,0,0,0,0,0.1
		c0,0,0,0,0,0c0,0,0,0,0,0c0,0,0,0,0,0.1c0,0.1,0,0.1,0,0.2c0,0.1,0,0.1,0,0.2c0,0,0,0,0,0.1l0.9,64.8c0,0.2,0,0.3,0.1,0.4l1,75.7
		l-40.3,0.5c-0.1,0-0.2,0-0.3,0.1l-11.4,0.2l-0.8-61.1l10.8,10.5l0.4,26.1l0,0l0.2,12.5c0,0.6,0.5,1.1,1.1,1.1l28.7-0.4
		c0.1,0,0.2,0,0.2-0.1c0.1,0,0.1,0,0.2,0c0.1,0,0.2-0.1,0.2-0.2c0,0,0.1,0,0.1-0.1c0,0,0,0,0,0c0,0,0,0,0,0c0.1-0.1,0.1-0.1,0.1-0.2
		c0,0,0.1-0.1,0.1-0.1c0.1-0.1,0.1-0.3,0.1-0.4l-0.9-63.9c0.1-0.1,0.1-0.3,0.1-0.5L442.2,340.7z M415.1,468.1l-0.3-24.4l7.4-0.1
		l6.6-0.1l0.3,24.4L415.1,468.1z M429.7,470.1l10.4,10.1l-24.8,0.3l-0.1-10.3L429.7,470.1z M422.3,441.4l-8.2,0.1L403.3,431
		l25.2-0.3l0.1,10.6L422.3,441.4z M389.1,418.7l51.9-0.7l0.8,60.8l-10.6-10.3l-0.4-26.1l-0.2-12.8c0-0.3-0.1-0.6-0.3-0.8
		c-0.2-0.2-0.5-0.3-0.8-0.3l-29,0.4c0,0,0,0-0.1,0c-0.1,0-0.1,0-0.2,0c-0.1,0-0.1,0-0.2,0c0,0,0,0-0.1,0c0,0,0,0,0,0c0,0,0,0,0,0
		c0,0,0,0-0.1,0c0,0-0.1,0.1-0.1,0.1c0,0-0.1,0-0.1,0.1c0,0,0,0-0.1,0.1c0,0-0.1,0.1-0.1,0.1c0,0-0.1,0.1-0.1,0.1c0,0,0,0,0,0.1
		c0,0,0,0,0,0c0,0,0,0,0,0c0,0,0,0,0,0.1c0,0.1,0,0.1,0,0.2c0,0.1,0,0.1,0,0.2c0,0,0,0,0,0.1l0.9,64.8c0,0.1,0,0.3,0.1,0.4l1,75.9
		l-40.3,0.5c-0.1,0-0.2,0-0.3,0.1l-11.4,0.2l-0.8-61.1l10.8,10.5l0.4,26.1l0,0l0.2,12.5c0,0.6,0.5,1.1,1.1,1.1l28.7-0.4
		c0.1,0,0.2,0,0.2-0.1c0.1,0,0.1,0,0.2,0c0.1,0,0.2-0.1,0.2-0.2c0,0,0.1,0,0.1-0.1c0,0,0,0,0,0s0,0,0,0c0.1-0.1,0.1-0.1,0.1-0.2
		c0,0,0.1-0.1,0.1-0.1c0.1-0.1,0.1-0.3,0.1-0.4l-0.9-64c0.1-0.2,0.1-0.3,0.1-0.5L389.1,418.7z M361.9,546.3l-0.3-24.4l7.2-0.1
		l6.7-0.1l0.1,11l0.2,13.4L361.9,546.3z M376.5,548.3l10.4,10.1l-24.8,0.3l-0.1-10.3L376.5,548.3z M368.4,519.6l-7.5,0.1l-10.8-10.5
		l25.2-0.3l0.1,10.6L368.4,519.6z M335.9,496.9l51.9-0.7l0.8,60.8l-10.6-10.3l-0.2-12.1l-0.4-26.9c0-0.3-0.1-0.6-0.3-0.8
		c-0.2-0.2-0.5-0.3-0.8-0.3l-29,0.4c0,0,0,0-0.1,0c-0.1,0-0.1,0-0.2,0c-0.1,0-0.1,0-0.2,0c0,0,0,0-0.1,0c0,0,0,0,0,0c0,0,0,0,0,0
		c0,0,0,0-0.1,0c0,0-0.1,0.1-0.1,0.1c0,0-0.1,0-0.1,0.1c0,0,0,0-0.1,0.1c0,0-0.1,0.1-0.1,0.1c0,0-0.1,0.1-0.1,0.1c0,0,0,0,0,0.1
		c0,0,0,0,0,0c0,0,0,0,0,0c0,0,0,0,0,0.1c0,0.1,0,0.1,0,0.2c0,0.1,0,0.1,0,0.2c0,0,0,0,0,0.1l0.9,64.8c0,0.1,0,0.2,0.1,0.3l1,75.8
		l-40.3,0.5c-0.1,0-0.2,0-0.3,0.1l-11.4,0.2l-0.8-61.1l10.8,10.5l0.3,20.9l0.2,17.7c0,0.6,0.5,1,1.1,1.1l28.7-0.4
		c0.1,0,0.2,0,0.2-0.1c0.1,0,0.1,0,0.2,0c0.1,0,0.2-0.1,0.2-0.2c0,0,0.1,0,0.1-0.1c0,0,0,0,0,0c0,0,0,0,0,0c0.1-0.1,0.1-0.1,0.1-0.2
		c0,0,0.1-0.1,0.1-0.1c0.1-0.1,0.1-0.3,0.1-0.4l-0.9-63.8c0.1-0.2,0.2-0.3,0.2-0.5L335.9,496.9z M308.8,624.3l-0.1-4.5l-0.3-19.9
		l7.4-0.1l6.6-0.1l0.3,24.4L308.8,624.3z M323.4,626.3l10.4,10.1l-24.8,0.3l-0.1-10.3L323.4,626.3z M316,597.6l-8.2,0.1L297,587.2
		l25.2-0.3l0.1,10.6L316,597.6z M282.8,575l51.9-0.7l0.8,60.8l-10.6-10.3l-0.4-26.1l-0.2-12.8c0-0.6-0.5-1.1-1.1-1.1l-29,0.4
		c0,0,0,0-0.1,0c-0.1,0-0.1,0-0.2,0c-0.1,0-0.1,0-0.2,0c0,0,0,0-0.1,0c0,0,0,0,0,0c0,0,0,0,0,0c0,0,0,0-0.1,0c0,0-0.1,0.1-0.1,0.1
		c0,0-0.1,0-0.1,0.1c0,0,0,0-0.1,0.1c0,0-0.1,0.1-0.1,0.1c0,0-0.1,0.1-0.1,0.1c0,0,0,0,0,0.1c0,0,0,0,0,0c0,0,0,0,0,0c0,0,0,0,0,0.1
		c0,0.1,0,0.1,0,0.2c0,0.1,0,0.1,0,0.2c0,0,0,0,0,0.1l0.9,63.8c-0.2,0.2-0.4,0.5-0.3,0.8l1,76.1l-40.3,0.5c-0.1,0-0.2,0-0.3,0.1
		l-11.4,0.2l-0.8-61.1l10.8,10.5l0.4,26.1l0,0l0.2,12.5c0,0.3,0.1,0.6,0.3,0.8c0.2,0.2,0.5,0.3,0.8,0.3l28.6-0.4c0,0,0,0,0,0l0.2,0
		c0.1,0,0.2,0,0.3-0.1c0.1,0,0.1,0,0.2,0c0.1,0,0.1-0.1,0.2-0.1c0.1,0,0.1-0.1,0.2-0.1c0,0,0.1-0.1,0.1-0.2c0-0.1,0.1-0.1,0.1-0.2
		c0.1-0.1,0.1-0.3,0.1-0.4l-0.9-63.1c0.3-0.2,0.6-0.5,0.6-1L282.8,575z M255.2,702.1l-0.3-24.4l7.4-0.1l6.6-0.1l0.1,4.4l0.3,20
		L255.2,702.1z M269.8,704.1l10.4,10.1l-24.8,0.3l-0.1-10.3L269.8,704.1z M262.4,675.4l-8.2,0.1l-10.8-10.5l25.2-0.3l0.1,10.6
		L262.4,675.4z M229.2,652.8l51.9-0.7l0.8,60.8l-10.6-10.3l-0.3-21.2l-0.2-17.7c0-0.3-0.1-0.6-0.3-0.8c-0.2-0.2-0.5-0.3-0.8-0.3
		l-29,0.4c0,0,0,0-0.1,0c-0.1,0-0.1,0-0.2,0c-0.1,0-0.1,0-0.2,0c0,0,0,0-0.1,0c0,0,0,0,0,0c0,0,0,0,0,0c0,0,0,0-0.1,0
		c0,0-0.1,0.1-0.1,0.1c0,0-0.1,0-0.1,0.1c0,0,0,0-0.1,0.1c0,0-0.1,0.1-0.1,0.1c0,0-0.1,0.1-0.1,0.1c0,0,0,0,0,0.1c0,0,0,0,0,0
		c0,0,0,0,0,0c0,0,0,0,0,0.1c0,0.1,0,0.1,0,0.2c0,0.1,0,0.1,0,0.2c0,0,0,0,0,0.1l0.9,64.8c0,0.2,0,0.3,0.1,0.4l1,75.7l-40.3,0.5
		c-0.1,0-0.2,0-0.3,0.1l-11.4,0.2l-0.8-61.1l10.8,10.5l0.4,26.1c0,0,0,0,0,0l0.2,12.5c0,0.6,0.5,1.1,1.1,1.1l28.6-0.4c0,0,0,0,0,0
		l0.2,0c0.1,0,0.1,0,0.1,0c0.1,0,0.2,0,0.3-0.1c0.1,0,0.2-0.1,0.3-0.2c0,0,0.1,0,0.1-0.1c0,0,0,0,0,0c0.1-0.1,0.2-0.2,0.2-0.4
		c0.1-0.1,0.1-0.3,0.1-0.4l-0.9-63.9c0.1-0.1,0.1-0.3,0.1-0.5L229.2,652.8z M202,780.2l-0.3-24.4l7.4-0.1l6.6-0.1L216,780L202,780.2
		z M216.6,782.2l10.4,10.1l-24.8,0.3l-0.1-10.3L216.6,782.2z M209.2,753.5l-8.2,0.1l-10.8-10.5l25.2-0.3l0.1,10.6L209.2,753.5z
		 M163.5,860.4l10.4,10.1l-24.8,0.3l-0.1-10.3L163.5,860.4z M162.6,843.9l0.2,14.3l-13.9,0.2l-0.3-24.4l7.4-0.1l6.6-0.1L162.6,843.9
		z M162.3,821l0.1,10.6l-6.3,0.1l-8.2,0.1l-10.8-10.5L162.3,821z M188.5,883.2l-40.3,0.5c-0.1,0-0.2,0-0.3,0.1l-11.4,0.2l-0.8-61.1
		l10.8,10.5l0.4,26.1l0,0l0.2,12.5c0,0.3,0.1,0.6,0.3,0.8c0.2,0.2,0.5,0.3,0.8,0.3l28.6-0.4c0,0,0,0,0,0l0.2,0c0.1,0,0.2,0,0.3-0.1
		c0.1,0,0.1,0,0.2,0c0.1,0,0.1-0.1,0.2-0.1c0.1,0,0.1-0.1,0.2-0.1c0,0,0.1-0.1,0.1-0.2c0-0.1,0.1-0.1,0.1-0.2
		c0.1-0.1,0.1-0.3,0.1-0.4l-0.9-64c0.1-0.2,0.1-0.3,0.1-0.5l-1-76.3l51.9-0.7l0.8,60.8l-10.6-10.3l-0.4-26.1l-0.2-12.8
		c0-0.6-0.5-1.1-1.1-1.1l-29,0.4c0,0,0,0-0.1,0c-0.1,0-0.1,0-0.2,0c-0.1,0-0.1,0-0.2,0c0,0,0,0-0.1,0c0,0,0,0,0,0c0,0,0,0,0,0
		c0,0,0,0-0.1,0c0,0-0.1,0.1-0.1,0.1c0,0-0.1,0-0.1,0.1c0,0,0,0-0.1,0.1c0,0-0.1,0.1-0.1,0.1c0,0-0.1,0.1-0.1,0.1c0,0,0,0,0,0.1
		c0,0,0,0,0,0c0,0,0,0,0,0c0,0,0,0,0,0.1c0,0.1,0,0.1,0,0.2c0,0.1,0,0.1,0,0.2c0,0,0,0,0,0.1l0.9,64.8c0,0.2,0,0.3,0.1,0.4
		L188.5,883.2z"/>
	<path d="M121.8,796l41.2-0.6c0.6,0,1.1-0.5,1.1-1.1l-1-76.3l11.6-0.2c0.1,0,0.2,0,0.3-0.1l41.2-0.6c0.6,0,1.1-0.5,1.1-1.1l-1-76.2
		l11.6-0.2c0.1,0,0.2,0,0.3-0.1l41.2-0.6c0.3,0,0.6-0.1,0.8-0.3c0.2-0.2,0.3-0.5,0.3-0.8l-1-75.9l12.1-0.2c0.1,0,0.2,0,0.3-0.1
		l41.2-0.6c0.6,0,1.1-0.5,1.1-1.1l-1-76.1l11.7-0.2c0.1,0,0.2,0,0.3-0.1l41.2-0.6c0.3,0,0.6-0.1,0.8-0.3c0.2-0.2,0.3-0.5,0.3-0.8
		l-1-76.3l11.6-0.2c0.1,0,0.2,0,0.3-0.1l41.2-0.6c0.3,0,0.6-0.1,0.8-0.3c0.2-0.2,0.3-0.5,0.3-0.8l-1-76.2l11.6-0.2
		c0.1,0,0.2,0,0.3-0.1l41.2-0.6c0.6,0,1.1-0.5,1.1-1.1l-1-75.9l12.1-0.2c0.1,0,0.2,0,0.3-0.1l41.2-0.6c0.3,0,0.6-0.1,0.8-0.3
		c0.2-0.2,0.3-0.5,0.3-0.8l-1-77.2c0-0.6-0.5-1.1-1.1-1.1c-0.6,0-1.1,0.5-1.1,1.1l1,76.1l-40.3,0.5c-0.1,0-0.2,0-0.3,0.1l-11.4,0.2
		l-0.8-61.1l10.8,10.5l0.4,26.1l0,0l0.2,12.5c0,0.6,0.5,1,1.1,1.1l28.6-0.4c0,0,0,0,0,0l0.2,0c0.1,0,0.1,0,0.1,0
		c0.1,0,0.2,0,0.3-0.1c0.1,0,0.2-0.1,0.3-0.2c0,0,0.1,0,0.1-0.1c0,0,0,0,0,0c0.1-0.1,0.2-0.2,0.2-0.4c0.1-0.1,0.1-0.3,0.1-0.4
		l-0.9-64.4c0-0.6-0.5-1.1-1.1-1.1l-54.1,0.7c-0.3,0-0.6,0.1-0.8,0.3c-0.2,0.2-0.3,0.5-0.3,0.8l1,76l-53.5,0.7
		c-0.3,0-0.6,0.1-0.8,0.3c-0.2,0.2-0.3,0.5-0.3,0.8l1,76.2l-53.1,0.7c-0.3,0-0.6,0.1-0.8,0.3c-0.2,0.2-0.3,0.5-0.3,0.8l1,76.3
		l-53.1,0.7c-0.3,0-0.6,0.1-0.8,0.3c-0.2,0.2-0.3,0.5-0.3,0.8l1,76.2l-53.1,0.7c-0.3,0-0.6,0.1-0.8,0.3c-0.2,0.2-0.3,0.5-0.3,0.8
		l1,76l-53.5,0.7c-0.3,0-0.6,0.1-0.8,0.3c-0.2,0.2-0.3,0.5-0.3,0.8l1,76.2l-53.1,0.7c-0.3,0-0.6,0.1-0.8,0.3
		c-0.2,0.2-0.3,0.5-0.3,0.8l1,76.3L95.1,717c-0.3,0-0.6,0.1-0.8,0.3c-0.2,0.2-0.3,0.5-0.3,0.8l1,77.4c0,0.6,0.5,1.1,1.1,1.1
		c0,0,0,0,0,0c0.6,0,1.1-0.5,1.1-1.1l-1-76.3l51.9-0.7l0.8,60.8l-10.6-10.3l-0.3-18.7l-0.3-20.3c0-0.3-0.1-0.6-0.3-0.8
		c-0.2-0.2-0.5-0.3-0.8-0.3l-29,0.4c0,0,0,0-0.1,0c-0.1,0-0.1,0-0.2,0c-0.1,0-0.1,0-0.2,0c0,0,0,0-0.1,0c0,0,0,0,0,0c0,0,0,0,0,0
		c0,0,0,0-0.1,0c0,0-0.1,0.1-0.1,0.1c0,0-0.1,0-0.1,0.1c0,0,0,0-0.1,0.1c0,0-0.1,0.1-0.1,0.1c0,0-0.1,0.1-0.1,0.1c0,0,0,0,0,0.1
		c0,0,0,0,0,0c0,0,0,0,0,0c0,0,0,0,0,0.1c0,0.1,0,0.1,0,0.2c0,0.1,0,0.1,0,0.2c0,0,0,0,0,0.1l0.9,64.8c0,0.3,0.1,0.6,0.3,0.8
		c0.2,0.2,0.5,0.3,0.7,0.3c0,0,0,0,0,0l12.8-0.2C121.6,796.1,121.7,796.1,121.8,796z M494.1,195.8l-10.8-10.5l25.2-0.3l0.1,10.6
		l-6.4,0.1L494.1,195.8z M494.8,198l7.4-0.1l6.6-0.1l0.3,24.4l-13.9,0.2L494.8,198z M495.3,234.8l-0.1-10.3l14.6-0.2l10.4,10.1
		L495.3,234.8z M469.1,173l51.9-0.7l0.8,60.8l-10.6-10.3l-0.4-26.1l-0.2-12.8c0-0.3-0.1-0.6-0.3-0.8c-0.2-0.2-0.5-0.3-0.8-0.3
		l-29,0.4c0,0,0,0,0,0c-0.1,0-0.1,0-0.2,0c-0.1,0-0.1,0-0.2,0c0,0,0,0-0.1,0c0,0,0,0,0,0c0,0,0,0,0,0c0,0,0,0-0.1,0
		c0,0-0.1,0.1-0.1,0.1c0,0-0.1,0-0.1,0.1c0,0,0,0-0.1,0.1c0,0-0.1,0.1-0.1,0.1c0,0-0.1,0.1-0.1,0.1c0,0,0,0,0,0.1c0,0,0,0,0,0
		c0,0,0,0,0,0c0,0,0,0,0,0.1c0,0.1,0,0.1,0,0.2c0,0.1,0,0.1,0,0.2c0,0,0,0,0,0.1l0.9,63.8c-0.2,0.2-0.4,0.5-0.3,0.8l1,76.1
		l-40.3,0.5c-0.1,0-0.2,0-0.3,0.1l-11.4,0.2l-0.8-61.1l10.8,10.5l0.3,19.1l0.3,19.5c0,0.3,0.1,0.6,0.3,0.8c0.2,0.2,0.5,0.3,0.8,0.3
		l28.6-0.4c0,0,0,0,0,0l0.2,0c0.1,0,0.2,0,0.3-0.1c0.1,0,0.1,0,0.2,0c0.1,0,0.1-0.1,0.2-0.1c0.1,0,0.1-0.1,0.2-0.1
		c0,0,0.1-0.1,0.1-0.2c0-0.1,0.1-0.1,0.1-0.2c0.1-0.1,0.1-0.3,0.1-0.4l-0.9-63.1c0.3-0.2,0.6-0.5,0.6-1L469.1,173z M441.5,300.2
		l-0.1-5.7l-0.3-18.7l7.4-0.1l6.6-0.1l0.3,24.4L441.5,300.2z M456.1,302.2l10.4,10.1l-24.8,0.3l-0.1-10.3L456.1,302.2z M448.8,273.5
		l-8.2,0.1l-10.8-10.5l25.2-0.3l0.1,10.6L448.8,273.5z M415.6,250.8l51.9-0.7l0.8,60.8l-10.6-10.3l-0.4-26.1l-0.2-12.8
		c0-0.6-0.5-1.1-1.1-1.1l-29,0.4c0,0,0,0-0.1,0c-0.1,0-0.1,0-0.2,0c-0.1,0-0.1,0-0.2,0c0,0,0,0-0.1,0c0,0,0,0,0,0c0,0,0,0,0,0
		c0,0,0,0-0.1,0c0,0-0.1,0.1-0.1,0.1c0,0-0.1,0-0.1,0.1c0,0,0,0-0.1,0.1c0,0-0.1,0.1-0.1,0.1c0,0-0.1,0.1-0.1,0.1c0,0,0,0,0,0.1
		c0,0,0,0,0,0c0,0,0,0,0,0c0,0,0,0,0,0.1c0,0.1,0,0.1,0,0.2c0,0.1,0,0.1,0,0.2c0,0,0,0,0,0.1l0.9,64.8c0,0.2,0,0.3,0.1,0.4l1,75.7
		l-40.3,0.5c-0.1,0-0.2,0-0.3,0.1l-11.4,0.2l-0.8-61.1l10.8,10.5l0.4,26.1c0,0,0,0,0,0l0.2,12.5c0,0.3,0.1,0.6,0.3,0.8
		c0.2,0.2,0.5,0.3,0.8,0.3l28.6-0.4c0,0,0,0,0,0l0.2,0c0.1,0,0.2,0,0.3-0.1c0.1,0,0.1,0,0.2,0c0.1,0,0.1-0.1,0.2-0.1
		c0.1,0,0.1-0.1,0.2-0.1c0,0,0.1-0.1,0.1-0.2c0-0.1,0.1-0.1,0.1-0.2c0.1-0.1,0.1-0.3,0.1-0.4l-0.9-63.9c0.1-0.1,0.1-0.3,0.1-0.5
		L415.6,250.8z M388.4,378.2l-0.3-24.4l7.4-0.1l6.6-0.1l0.1,10.1l0.2,14.3L388.4,378.2z M403,380.2l10.4,10.1l-24.8,0.3l-0.1-10.3
		L403,380.2z M395.6,351.5l-8.2,0.1l-10.8-10.5l25.2-0.3l0.1,10.6L395.6,351.5z M362.4,328.9l51.9-0.7l0.8,60.8l-10.6-10.3
		l-0.2-13.2l-0.3-25.8c0-0.3-0.1-0.6-0.3-0.8c-0.2-0.2-0.5-0.3-0.8-0.3l-29,0.4c0,0,0,0-0.1,0c-0.1,0-0.1,0-0.2,0
		c-0.1,0-0.1,0-0.2,0c0,0,0,0-0.1,0c0,0,0,0,0,0c0,0,0,0,0,0c0,0,0,0-0.1,0c0,0-0.1,0.1-0.1,0.1c0,0-0.1,0-0.1,0.1c0,0,0,0-0.1,0.1
		c0,0-0.1,0.1-0.1,0.1c0,0-0.1,0.1-0.1,0.1c0,0,0,0,0,0.1c0,0,0,0,0,0c0,0,0,0,0,0c0,0,0,0,0,0.1c0,0.1,0,0.1,0,0.2
		c0,0.1,0,0.1,0,0.2c0,0,0,0,0,0.1l0.9,64.8c0,0.2,0,0.3,0.1,0.4l1,75.9l-40.3,0.5c-0.1,0-0.2,0-0.3,0.1l-11.4,0.2l-0.8-61.1
		l10.8,10.5l0.4,26.1l0,0l0.2,12.5c0,0.3,0.1,0.6,0.3,0.8c0.2,0.2,0.5,0.3,0.8,0.3l28.6-0.4c0,0,0,0,0,0l0.2,0c0.1,0,0.2,0,0.3-0.1
		c0.1,0,0.1,0,0.2,0c0.1,0,0.1-0.1,0.2-0.1c0.1,0,0.1-0.1,0.2-0.1c0,0,0.1-0.1,0.1-0.2c0-0.1,0.1-0.1,0.1-0.2
		c0.1-0.1,0.1-0.3,0.1-0.4l-0.9-64c0.1-0.2,0.1-0.3,0.1-0.5L362.4,328.9z M335.3,456.4l-0.3-24.4l7.4-0.1l6.6-0.1l0.1,4.4l0.3,20
		L335.3,456.4z M349.9,458.4l10.4,10.1l-24.8,0.3l-0.1-10.3L349.9,458.4z M342.5,429.7l-8.2,0.1l-10.8-10.5l25.2-0.3l0.1,10.6
		L342.5,429.7z M309.3,407l51.9-0.7l0.8,60.8l-10.6-10.3l-0.3-21.2l-0.2-17.7c0-0.3-0.1-0.6-0.3-0.8c-0.2-0.2-0.5-0.3-0.8-0.3
		l-29,0.4c0,0,0,0-0.1,0c-0.1,0-0.1,0-0.2,0c-0.1,0-0.1,0-0.2,0c0,0,0,0-0.1,0c0,0,0,0,0,0c0,0,0,0,0,0c0,0,0,0-0.1,0
		c0,0-0.1,0.1-0.1,0.1c0,0-0.1,0-0.1,0.1c0,0,0,0-0.1,0.1c0,0-0.1,0.1-0.1,0.1c0,0-0.1,0.1-0.1,0.1c0,0,0,0,0,0.1c0,0,0,0,0,0
		c0,0,0,0,0,0c0,0,0,0,0,0.1c0,0.1,0,0.1,0,0.2c0,0.1,0,0.1,0,0.2c0,0,0,0,0,0.1l0.9,64.8c0,0.1,0,0.2,0.1,0.3l1,75.8l-40.3,0.5
		c-0.1,0-0.2,0-0.3,0.1l-11.4,0.2l-0.8-61.1l10.8,10.5l0.4,26.1l0,0l0.2,12.5c0,0.6,0.5,1.1,1.1,1.1l28.7-0.4c0.1,0,0.2,0,0.2-0.1
		c0.1,0,0.1,0,0.2,0c0.1,0,0.2-0.1,0.2-0.2c0,0,0.1,0,0.1-0.1c0,0,0,0,0,0c0,0,0,0,0,0c0.1-0.1,0.1-0.1,0.1-0.2c0,0,0.1-0.1,0.1-0.1
		c0.1-0.1,0.1-0.3,0.1-0.4l-0.9-63.8c0.1-0.2,0.2-0.3,0.2-0.5L309.3,407z M282.1,534.5l-0.3-24.4l7.4-0.1l6.6-0.1l0.3,24.4
		L282.1,534.5z M296.7,536.5l10.4,10.1l-24.8,0.3l-0.1-10.3L296.7,536.5z M289.3,507.8l-8.2,0.1l-10.8-10.5l25.2-0.3l0.1,10.6
		L289.3,507.8z M256.1,485.1l51.9-0.7l0.8,60.8l-10.6-10.3l-0.4-26.1l-0.2-12.8c0-0.1,0-0.3-0.1-0.4c0,0,0,0,0,0
		c-0.1-0.1-0.1-0.2-0.2-0.3c-0.1-0.1-0.2-0.1-0.2-0.1c-0.2-0.1-0.3-0.2-0.5-0.2l-29,0.4c0,0,0,0-0.1,0c-0.1,0-0.1,0-0.2,0
		c-0.1,0-0.1,0-0.2,0c0,0,0,0-0.1,0c0,0,0,0,0,0c0,0,0,0,0,0c0,0,0,0-0.1,0c0,0-0.1,0.1-0.1,0.1c0,0-0.1,0-0.1,0.1c0,0,0,0-0.1,0.1
		c0,0-0.1,0.1-0.1,0.1c0,0-0.1,0.1-0.1,0.1c0,0,0,0,0,0.1c0,0,0,0,0,0c0,0,0,0,0,0c0,0,0,0,0,0.1c0,0.1,0,0.1,0,0.2
		c0,0.1,0,0.1,0,0.2c0,0,0,0,0,0.1l0.9,63.8c-0.2,0.2-0.4,0.5-0.3,0.8l1,76.1l-40.3,0.5c-0.1,0-0.2,0-0.3,0.1l-11.4,0.2l-0.8-61.1
		l10.8,10.5l0.2,18.3l0.3,20.3c0,0.6,0.5,1.1,1.1,1.1l28.7-0.4c0.1,0,0.2,0,0.2-0.1c0.1,0,0.1,0,0.2,0c0.1,0,0.2-0.1,0.2-0.2
		c0,0,0.1,0,0.1-0.1c0,0,0,0,0,0c0,0,0,0,0,0c0.1-0.1,0.1-0.1,0.1-0.2c0,0,0.1-0.1,0.1-0.1c0.1-0.1,0.1-0.3,0.1-0.4l-0.9-63.1
		c0.3-0.2,0.6-0.5,0.6-1L256.1,485.1z M228.5,612.3l-0.1-6.2l-0.2-18.2l7.4-0.1l6.6-0.1l0.3,24.4L228.5,612.3z M243.1,614.3
		l10.4,10.1l-24.8,0.3l-0.1-10.3L243.1,614.3z M235.7,585.6l-8.2,0.1l-10.8-10.5l24.5-0.3l0.7,0l0.1,10.6L235.7,585.6z M202.5,562.9
		l51.9-0.7l0.8,60.8l-10.6-10.3l-0.4-26.1l-0.2-12.8c0-0.6-0.5-1.1-1.1-1.1h0h0l-29,0.4c0,0,0,0,0,0c-0.1,0-0.1,0-0.2,0
		c-0.1,0-0.1,0-0.2,0c0,0,0,0-0.1,0c0,0,0,0,0,0c0,0,0,0,0,0c0,0,0,0-0.1,0c0,0-0.1,0.1-0.1,0.1c0,0-0.1,0-0.1,0.1c0,0,0,0-0.1,0.1
		c0,0-0.1,0.1-0.1,0.1c0,0-0.1,0.1-0.1,0.1c0,0,0,0,0,0.1c0,0,0,0,0,0c0,0,0,0,0,0c0,0,0,0,0,0.1c0,0.1,0,0.1,0,0.2
		c0,0.1,0,0.1,0,0.2c0,0,0,0,0,0.1l0.9,64.8c0,0.2,0,0.3,0.1,0.4l1,75.7l-40.3,0.5c-0.1,0-0.2,0-0.3,0.1l-11.4,0.2l-0.8-61.1
		l10.8,10.5l0.4,26.1c0,0,0,0,0,0l0.2,12.5c0,0.6,0.5,1.1,1.1,1.1l28.7-0.4c0.1,0,0.2,0,0.2-0.1c0.1,0,0.1,0,0.2,0
		c0.1,0,0.2-0.1,0.2-0.2c0,0,0.1,0,0.1-0.1l0,0c0,0,0,0,0,0c0.1-0.1,0.1-0.1,0.1-0.2c0,0,0.1-0.1,0.1-0.1c0.1-0.1,0.1-0.3,0.1-0.4
		l-0.9-63.9c0.1-0.1,0.1-0.3,0.1-0.5L202.5,562.9z M175.4,690.3l-0.3-24.4l7.2-0.1l6.7-0.1l0.1,11l0.2,13.4L175.4,690.3z M190,692.3
		l10.4,10.1l-24.8,0.3l-0.1-10.3L190,692.3z M181.8,663.6l-7.5,0.1l-10.8-10.5l25.2-0.3l0.1,10.6L181.8,663.6z M136.8,770.5
		l10.4,10.1l-24.8,0.3l-0.1-10.3L136.8,770.5z M135.9,750.1l0.2,18.2l-13.9,0.2l-0.3-24.4l7.2-0.1l6.7-0.1L135.9,750.1z
		 M135.6,731.1l0.1,10.6l-7.1,0.1l-7.5,0.1l-10.8-10.5L135.6,731.1z M121.2,793.9l-11.4,0.2l-0.8-61.1l10.8,10.5l0.4,26.1l0,0
		l0.2,12.5c0,0.6,0.5,1.1,1.1,1.1l28.7-0.4c0.1,0,0.2,0,0.2-0.1c0.1,0,0.1,0,0.2,0c0.1,0,0.2-0.1,0.2-0.2c0,0,0.1,0,0.1-0.1l0,0
		c0,0,0,0,0,0c0.1-0.1,0.1-0.1,0.1-0.2c0,0,0.1-0.1,0.1-0.1c0.1-0.1,0.1-0.3,0.1-0.4l-0.9-64c0.1-0.2,0.1-0.3,0.1-0.5l-1-76.3
		l51.9-0.7l0.8,60.8l-10.6-10.3l-0.2-12.1l-0.4-26.9c0-0.3-0.1-0.6-0.3-0.8c-0.2-0.2-0.5-0.3-0.8-0.3l-29,0.4c0,0,0,0-0.1,0
		c-0.1,0-0.1,0-0.2,0c-0.1,0-0.1,0-0.2,0c0,0,0,0-0.1,0c0,0,0,0,0,0c0,0,0,0,0,0c0,0,0,0-0.1,0c0,0-0.1,0.1-0.1,0.1
		c0,0-0.1,0-0.1,0.1c0,0,0,0-0.1,0.1c0,0-0.1,0.1-0.1,0.1c0,0-0.1,0.1-0.1,0.1c0,0,0,0,0,0.1c0,0,0,0,0,0c0,0,0,0,0,0c0,0,0,0,0,0.1
		c0,0.1,0,0.1,0,0.2c0,0.1,0,0.1,0,0.2c0,0,0,0,0,0.1l0.9,64.8c0,0.1,0,0.3,0.1,0.4l1,75.9l-40.3,0.5
		C121.4,793.8,121.3,793.9,121.2,793.9z"/>
	<path d="M94.8,706c0.1,0,0.2,0,0.3-0.1l41.2-0.6c0.3,0,0.6-0.1,0.8-0.3c0.2-0.2,0.3-0.5,0.3-0.8l-1-76.2L148,628
		c0.1,0,0.2,0,0.3-0.1l41.2-0.6c0.3,0,0.6-0.1,0.8-0.3c0.2-0.2,0.3-0.5,0.3-0.8l-1-75.9l12.1-0.2c0.1,0,0.2,0,0.3-0.1l41.2-0.6
		c0.3,0,0.6-0.1,0.8-0.3c0.2-0.2,0.3-0.5,0.3-0.8l-1-76.1l11.7-0.2c0.1,0,0.2,0,0.3-0.1l41.2-0.6c0.6,0,1.1-0.5,1.1-1.1l-1-76.3
		l11.6-0.2c0.1,0,0.2,0,0.3-0.1l41.2-0.6c0.6,0,1.1-0.5,1.1-1.1l-1-76.2l11.6-0.2c0.1,0,0.2,0,0.3-0.1l41.2-0.6
		c0.6,0,1.1-0.5,1.1-1.1l-1-75.9l12.1-0.2c0.1,0,0.2,0,0.3-0.1l41.2-0.6c0.6,0,1.1-0.5,1.1-1.1l-1-77.2c0-0.6-0.5-1.1-1.1-1.1
		c-0.6,0-1.1,0.5-1.1,1.1l1,76.1l-40.3,0.5c-0.1,0-0.2,0-0.3,0.1l-11.4,0.2L402,175l10.8,10.5l0.4,26.1l0,0l0.2,12.5
		c0,0.3,0.1,0.6,0.3,0.8c0.2,0.2,0.5,0.3,0.8,0.3l28.6-0.4c0,0,0,0,0,0l0.2,0c0.1,0,0.2,0,0.3-0.1c0.1,0,0.1,0,0.2,0
		c0.1,0,0.1-0.1,0.2-0.1c0.1,0,0.1-0.1,0.2-0.1c0,0,0.1-0.1,0.1-0.2c0-0.1,0.1-0.1,0.1-0.2c0.1-0.1,0.1-0.3,0.1-0.4l-0.9-64.4
		c0-0.1,0-0.3-0.1-0.4c0,0-0.1-0.1-0.1-0.1c0-0.1-0.1-0.2-0.2-0.2c-0.2-0.2-0.5-0.3-0.8-0.3l-54.1,0.7c-0.3,0-0.6,0.1-0.8,0.3
		c-0.2,0.2-0.3,0.5-0.3,0.8l1,76l-53.5,0.7c-0.3,0-0.6,0.1-0.8,0.3c-0.2,0.2-0.3,0.5-0.3,0.8l1,76.2l-53.1,0.7
		c-0.3,0-0.6,0.1-0.8,0.3c-0.2,0.2-0.3,0.5-0.3,0.8l1,76.3l-53.1,0.7c-0.3,0-0.6,0.1-0.8,0.3c-0.2,0.2-0.3,0.5-0.3,0.8l1,76.2
		l-53.1,0.7c-0.3,0-0.6,0.1-0.8,0.3c-0.2,0.2-0.3,0.5-0.3,0.8l1,76l-53.5,0.7c-0.3,0-0.6,0.1-0.8,0.3c-0.2,0.2-0.3,0.5-0.3,0.8
		l1,76.2l-53.1,0.7c-0.3,0-0.6,0.1-0.8,0.3c-0.2,0.2-0.3,0.5-0.3,0.8l1,76.3l-53.1,0.7c-0.3,0-0.6,0.1-0.8,0.3
		c-0.2,0.2-0.3,0.5-0.3,0.8l1,77.4c0,0.6,0.5,1.1,1.1,1.1c0,0,0,0,0,0c0.6,0,1.1-0.5,1.1-1.1l-1-76.3l51.9-0.7l0.8,60.8l-10.6-10.3
		l-0.3-21.2L58,718.1c0-0.6-0.5-1.1-1.1-1.1l-29,0.4c0,0,0,0-0.1,0c-0.1,0-0.1,0-0.2,0c-0.1,0-0.1,0-0.2,0c0,0,0,0-0.1,0
		c0,0,0,0,0,0c0,0,0,0,0,0c0,0,0,0-0.1,0c0,0-0.1,0.1-0.1,0.1c0,0-0.1,0-0.1,0.1c0,0,0,0-0.1,0.1c0,0-0.1,0.1-0.1,0.1
		c0,0-0.1,0.1-0.1,0.1c0,0,0,0,0,0.1c0,0,0,0,0,0c0,0,0,0,0,0c0,0,0,0,0,0.1c0,0.1,0,0.1,0,0.2c0,0.1,0,0.1,0,0.2c0,0,0,0,0,0.1
		l0.9,64.8c0,0.3,0.1,0.6,0.3,0.8c0.2,0.2,0.5,0.3,0.7,0.3c0,0,0,0,0,0l12.8-0.2c0.1,0,0.2,0,0.3-0.1l41.2-0.6
		c0.3,0,0.6-0.1,0.8-0.3c0.2-0.2,0.3-0.5,0.3-0.8l-1-76.3L94.8,706z M414.3,183.9l-10.8-10.5l25.2-0.3l0.1,10.6l-6.3,0.1
		L414.3,183.9z M415,186.1l7.4-0.1l6.6-0.1L429,196l0.2,14.3l-13.9,0.2L415,186.1z M415.5,222.9l-0.1-10.3l14.6-0.2l10.4,10.1
		L415.5,222.9z M389.3,161.1l51.9-0.7l0.8,60.8l-10.6-10.3l-0.2-13.2l-0.3-25.8c0-0.3-0.1-0.6-0.3-0.8c-0.1-0.1-0.2-0.2-0.4-0.2
		c-0.1-0.1-0.3-0.1-0.4-0.1l-29,0.4c0,0,0,0-0.1,0c-0.1,0-0.1,0-0.2,0c-0.1,0-0.1,0-0.2,0c0,0,0,0-0.1,0c0,0,0,0,0,0c0,0,0,0,0,0
		c0,0,0,0-0.1,0c0,0-0.1,0.1-0.1,0.1c0,0-0.1,0-0.1,0.1c0,0,0,0-0.1,0.1c0,0-0.1,0.1-0.1,0.1c0,0-0.1,0.1-0.1,0.1c0,0,0,0,0,0.1
		c0,0,0,0,0,0c0,0,0,0,0,0c0,0,0,0,0,0.1c0,0.1,0,0.1,0,0.2c0,0.1,0,0.1,0,0.2c0,0,0,0,0,0.1l0.9,63.8c-0.2,0.2-0.4,0.5-0.3,0.8
		l1,76.1l-40.3,0.5c-0.1,0-0.2,0-0.3,0.1l-11.4,0.2l-0.8-61.1l10.8,10.5l0.4,26.1c0,0,0,0,0,0l0.2,12.5c0,0.6,0.5,1.1,1.1,1.1
		l28.7-0.4c0.1,0,0.2,0,0.2-0.1c0.1,0,0.1,0,0.2,0c0.1,0,0.2-0.1,0.2-0.2c0,0,0.1,0,0.1-0.1l0,0c0,0,0,0,0,0
		c0.1-0.1,0.1-0.1,0.1-0.2c0,0,0.1-0.1,0.1-0.1c0.1-0.1,0.1-0.3,0.1-0.4l-0.9-63.1c0.3-0.2,0.6-0.5,0.6-1L389.3,161.1z M361.7,288.3
		l-0.3-24.4l7.4-0.1l6.6-0.1l0.3,24.4L361.7,288.3z M376.3,290.3l10.4,10.1l-24.8,0.3l-0.1-10.3L376.3,290.3z M368.9,261.6l-8.2,0.1
		l-10.8-10.5l25.2-0.3l0.1,10.6L368.9,261.6z M335.7,238.9l51.9-0.7l0.8,60.8l-10.6-10.3l-0.4-26.1l-0.2-12.8c0-0.3-0.1-0.6-0.3-0.8
		c-0.2-0.2-0.5-0.3-0.8-0.3l-29,0.4c0,0,0,0-0.1,0c-0.1,0-0.1,0-0.2,0c-0.1,0-0.1,0-0.2,0c0,0,0,0-0.1,0c0,0,0,0,0,0c0,0,0,0,0,0
		c0,0,0,0-0.1,0c0,0-0.1,0.1-0.1,0.1c0,0-0.1,0-0.1,0.1c0,0,0,0-0.1,0.1c0,0-0.1,0.1-0.1,0.1c0,0-0.1,0.1-0.1,0.1c0,0,0,0,0,0.1
		c0,0,0,0,0,0c0,0,0,0,0,0c0,0,0,0,0,0.1c0,0.1,0,0.1,0,0.2c0,0.1,0,0.1,0,0.2c0,0,0,0,0,0.1L347,315c0,0.2,0,0.3,0.1,0.4l1,75.7
		l-40.3,0.5c-0.1,0-0.2,0-0.3,0.1l-11.4,0.2l-0.8-61.1l10.8,10.5l0.4,26.1c0,0,0,0,0,0l0.2,12.5c0,0.3,0.1,0.6,0.3,0.8
		c0.2,0.2,0.5,0.3,0.8,0.3l28.6-0.4c0,0,0,0,0,0l0.2,0c0.1,0,0.2,0,0.3-0.1c0.1,0,0.1,0,0.2,0c0.1,0,0.1-0.1,0.2-0.1
		c0.1,0,0.1-0.1,0.2-0.1c0,0,0.1-0.1,0.1-0.2c0-0.1,0.1-0.1,0.1-0.2c0.1-0.1,0.1-0.3,0.1-0.4l-0.9-63.9c0.1-0.1,0.1-0.3,0.1-0.5
		L335.7,238.9z M308.6,366.4l-0.3-24.4l7.4-0.1l6.6-0.1l0.1,4.4l0.3,20L308.6,366.4z M323.2,368.4l10.4,10.1l-24.8,0.3l-0.1-10.3
		L323.2,368.4z M315.8,339.7l-8.2,0.1l-10.8-10.5l25.2-0.3l0.1,10.6L315.8,339.7z M282.6,317l51.9-0.7l0.8,60.8l-10.6-10.3
		l-0.3-21.2l-0.2-17.7c0-0.3-0.1-0.6-0.3-0.8c-0.2-0.2-0.5-0.3-0.8-0.3l-29,0.4c0,0,0,0-0.1,0c-0.1,0-0.1,0-0.2,0
		c-0.1,0-0.1,0-0.2,0c0,0,0,0-0.1,0c0,0,0,0,0,0c0,0,0,0,0,0c0,0,0,0-0.1,0c0,0-0.1,0.1-0.1,0.1c0,0-0.1,0-0.1,0.1c0,0,0,0-0.1,0.1
		c0,0-0.1,0.1-0.1,0.1c0,0-0.1,0.1-0.1,0.1c0,0,0,0,0,0.1c0,0,0,0,0,0c0,0,0,0,0,0c0,0,0,0,0,0.1c0,0.1,0,0.1,0,0.2
		c0,0.1,0,0.1,0,0.2c0,0,0,0,0,0.1l0.9,64.8c0,0.1,0,0.3,0.1,0.4l1,75.9l-40.3,0.5c-0.1,0-0.2,0-0.3,0.1l-11.4,0.2l-0.8-61.1
		l10.8,10.5l0.3,19.1l0.3,19.5c0,0.3,0.1,0.6,0.3,0.8c0.2,0.2,0.5,0.3,0.8,0.3l28.6-0.4c0,0,0,0,0,0l0.2,0c0.1,0,0.2,0,0.3-0.1
		c0.1,0,0.1,0,0.2,0c0.1,0,0.1-0.1,0.2-0.1c0.1,0,0.1-0.1,0.2-0.1c0,0,0.1-0.1,0.1-0.2c0-0.1,0.1-0.1,0.1-0.2
		c0.1-0.1,0.1-0.3,0.1-0.4l-0.9-64c0.1-0.2,0.1-0.3,0.1-0.5L282.6,317z M255.4,444.5l-0.1-5.7l-0.3-18.7l7.4-0.1l6.6-0.1l0.1,4.4
		l0.3,20L255.4,444.5z M270,446.5l10.4,10.1l-24.8,0.3l-0.1-10.3L270,446.5z M262.7,417.8l-8.2,0.1l-10.8-10.5l25.2-0.3l0.1,10.6
		L262.7,417.8z M229.5,395.2l51.9-0.7l0.8,60.8L271.6,445l-0.3-21.2l-0.2-17.7c0-0.3-0.1-0.6-0.3-0.8c-0.1-0.1-0.2-0.2-0.4-0.2
		c-0.1-0.1-0.3-0.1-0.4-0.1l-29,0.4c0,0,0,0-0.1,0c-0.1,0-0.1,0-0.2,0c-0.1,0-0.1,0-0.2,0c0,0,0,0-0.1,0c0,0,0,0,0,0c0,0,0,0,0,0
		c0,0,0,0-0.1,0c0,0-0.1,0.1-0.1,0.1c0,0-0.1,0-0.1,0.1c0,0,0,0-0.1,0.1c0,0-0.1,0.1-0.1,0.1c0,0-0.1,0.1-0.1,0.1c0,0,0,0,0,0.1
		c0,0,0,0,0,0c0,0,0,0,0,0c0,0,0,0,0,0.1c0,0.1,0,0.1,0,0.2c0,0.1,0,0.1,0,0.2c0,0,0,0,0,0.1l0.9,64.8c0,0.1,0,0.2,0.1,0.3l1,75.8
		l-40.3,0.5c-0.1,0-0.2,0-0.3,0.1l-11.4,0.2l-0.8-61.1l10.8,10.5l0.4,26.1l0,0l0.2,12.5c0,0.6,0.5,1.1,1.1,1.1l28.7-0.4
		c0.1,0,0.2,0,0.2-0.1c0.1,0,0.1,0,0.2,0c0.1,0,0.2-0.1,0.2-0.2c0,0,0.1,0,0.1-0.1c0,0,0,0,0,0c0,0,0,0,0,0c0.1-0.1,0.1-0.1,0.1-0.2
		c0,0,0.1-0.1,0.1-0.1c0.1-0.1,0.1-0.3,0.1-0.4l-0.9-63.8c0.1-0.2,0.2-0.3,0.2-0.5L229.5,395.2z M202.3,522.6l-0.3-24.4l7.4-0.1
		l6.6-0.1l0.3,24.4L202.3,522.6z M216.9,524.6l10.4,10.1l-24.8,0.3l-0.1-10.3L216.9,524.6z M209.5,495.9l-8.2,0.1l-10.8-10.5
		l25.2-0.3l0.1,10.6L209.5,495.9z M176.3,473.2l51.9-0.7l0.8,60.8L218.4,523l-0.4-26.1l-0.2-12.8c0-0.6-0.5-1.1-1.1-1.1l-29,0.4
		c0,0,0,0-0.1,0c-0.1,0-0.1,0-0.2,0c-0.1,0-0.1,0-0.2,0c0,0,0,0-0.1,0c0,0,0,0,0,0c0,0,0,0,0,0c0,0,0,0-0.1,0c0,0-0.1,0.1-0.1,0.1
		c0,0-0.1,0-0.1,0.1c0,0,0,0-0.1,0.1c0,0-0.1,0.1-0.1,0.1c0,0-0.1,0.1-0.1,0.1c0,0,0,0,0,0.1c0,0,0,0,0,0c0,0,0,0,0,0c0,0,0,0,0,0.1
		c0,0.1,0,0.1,0,0.2c0,0.1,0,0.1,0,0.2c0,0,0,0,0,0.1l0.9,63.8c-0.2,0.2-0.4,0.5-0.3,0.8l1,76.1l-40.3,0.5c-0.1,0-0.2,0-0.3,0.1
		l-11.4,0.2l-0.8-61.1l10.8,10.5l0.3,20.9l0.2,17.7c0,0.6,0.5,1.1,1.1,1.1l28.6-0.4c0,0,0,0,0,0l0.2,0c0.1,0,0.1,0,0.1,0
		c0.1,0,0.2,0,0.3-0.1c0.1,0,0.2-0.1,0.3-0.2c0,0,0.1,0,0.1-0.1c0,0,0,0,0,0c0.1-0.1,0.2-0.2,0.2-0.4c0.1-0.1,0.1-0.3,0.1-0.4
		l-0.9-63.1c0.3-0.2,0.6-0.5,0.6-1L176.3,473.2z M148.7,600.4l-0.1-4.5l-0.3-19.9l7.4-0.1l6.6-0.1l0.3,24.4L148.7,600.4z
		 M163.3,602.4l10.4,10.1l-24.8,0.3l-0.1-10.3L163.3,602.4z M155.9,573.7l-8.2,0.1l-10.8-10.5l25.2-0.3l0.1,10.6L155.9,573.7z
		 M122.7,551l51.9-0.7l0.8,60.8l-10.6-10.3l-0.4-26.1l-0.2-12.8c0-0.6-0.5-1-1.1-1.1l-29,0.4c0,0,0,0-0.1,0c-0.1,0-0.1,0-0.2,0
		c-0.1,0-0.1,0-0.2,0c0,0,0,0-0.1,0c0,0,0,0,0,0c0,0,0,0,0,0c0,0,0,0-0.1,0c0,0-0.1,0.1-0.1,0.1c0,0-0.1,0-0.1,0.1c0,0,0,0-0.1,0.1
		c0,0-0.1,0.1-0.1,0.1c0,0-0.1,0.1-0.1,0.1c0,0,0,0,0,0.1c0,0,0,0,0,0c0,0,0,0,0,0c0,0,0,0,0,0.1c0,0.1,0,0.1,0,0.2
		c0,0.1,0,0.1,0,0.2c0,0,0,0,0,0.1l0.9,64.8c0,0.2,0,0.3,0.1,0.4l1,75.7l-40.3,0.5c-0.1,0-0.2,0-0.3,0.1L83.1,704l-0.8-61.1
		L93,653.4l0.4,26.1c0,0,0,0,0,0l0.2,12.5c0,0.6,0.5,1.1,1.1,1.1l28.7-0.4c0.1,0,0.2,0,0.2-0.1c0.1,0,0.1,0,0.2,0
		c0.1,0,0.2-0.1,0.2-0.2c0,0,0.1,0,0.1-0.1l0,0c0,0,0,0,0,0c0.1-0.1,0.1-0.1,0.1-0.2c0,0,0.1-0.1,0.1-0.1c0.1-0.1,0.1-0.3,0.1-0.4
		l-0.9-63.9c0.1-0.1,0.1-0.3,0.1-0.5L122.7,551z M95.6,678.5l-0.3-24.4l7.4-0.1l6.6-0.1l0.1,10.1l0.2,14.3L95.6,678.5z M110.2,680.5
		l10.4,10.1l-24.8,0.3l-0.1-10.3L110.2,680.5z M102.8,651.8l-8.2,0.1l-10.8-10.5L109,641l0.1,10.6L102.8,651.8z M57,758.6l10.4,10.1
		l-24.8,0.3l-0.1-10.3L57,758.6z M56.1,736.5l0.3,20l-13.9,0.2l-0.1-4.5l-0.3-19.9l7.4-0.1L56,732L56.1,736.5z M55.8,719.2l0.1,10.6
		l-6.4,0.1l-8.2,0.1l-10.8-10.5L55.8,719.2z M82,781.4L41.7,782c-0.1,0-0.2,0-0.3,0.1l-11.4,0.2l-0.8-61.1l10.8,10.5l0.3,20.9
		l0.2,17.7c0,0.6,0.5,1.1,1.1,1.1l28.7-0.4c0.1,0,0.2,0,0.2-0.1c0.1,0,0.1,0,0.2,0c0.1,0,0.2-0.1,0.2-0.2c0,0,0.1,0,0.1-0.1
		c0,0,0,0,0,0c0,0,0,0,0,0c0.1-0.1,0.1-0.1,0.1-0.2c0,0,0.1-0.1,0.1-0.1c0.1-0.1,0.1-0.3,0.1-0.4l-0.9-64c0.1-0.2,0.1-0.3,0.1-0.5
		l-1-76.3l51.9-0.7l0.8,60.8l-10.6-10.3l-0.2-13.2l-0.3-25.8c0-0.6-0.5-1.1-1.1-1.1l-29,0.4c0,0,0,0-0.1,0c-0.1,0-0.1,0-0.2,0
		c-0.1,0-0.1,0-0.2,0c0,0,0,0-0.1,0c0,0,0,0,0,0c0,0,0,0,0,0c0,0,0,0-0.1,0c0,0-0.1,0.1-0.1,0.1c0,0-0.1,0-0.1,0.1c0,0,0,0-0.1,0.1
		c0,0-0.1,0.1-0.1,0.1c0,0-0.1,0.1-0.1,0.1c0,0,0,0,0,0.1c0,0,0,0,0,0c0,0,0,0,0,0c0,0,0,0,0,0.1c0,0.1,0,0.1,0,0.2
		c0,0.1,0,0.1,0,0.2c0,0,0,0,0,0.1l0.9,64.8c0,0.1,0,0.3,0.1,0.4L82,781.4z"/>
</g>
<g class="st0">
	<path class="st1" d="M480.2,506.7l-0.9-64.8c0,0,0,0,0-0.1c0-0.1,0-0.1,0-0.2c0-0.1,0-0.1,0-0.2c0,0,0,0,0-0.1c0,0,0,0,0,0
		c0,0,0,0,0,0c0,0,0,0,0-0.1c0,0,0.1-0.1,0.1-0.1c0,0,0-0.1,0.1-0.1c0,0,0,0,0.1-0.1c0,0,0.1-0.1,0.1-0.1c0,0,0.1-0.1,0.1-0.1
		c0,0,0,0,0.1,0c0,0,0,0,0,0c0,0,0,0,0,0c0,0,0,0,0.1,0c0,0,0.1,0,0.2,0c0.1,0,0.1,0,0.2,0c0,0,0,0,0.1,0l29-0.4
		c0.3,0,0.6,0.1,0.8,0.3c0.2,0.2,0.3,0.5,0.3,0.8l0.2,12.8l0.4,26.1l10.6,10.3l-0.8-60.8l-51.9,0.7l1,76.3c0,0.2-0.1,0.3-0.1,0.5
		l0.1,10.1h10.5l-0.1-10.4C480.2,507,480.2,506.8,480.2,506.7z"/>
	<path class="st1" d="M413.9,506.9c0.2-0.2,0.5-0.3,0.8-0.3l53.1-0.7l-1-76.3c0-0.3,0.1-0.6,0.3-0.8c0.2-0.2,0.5-0.3,0.8-0.3
		l53.1-0.7l0-0.2H456l0.9,66.5c0,0.6-0.5,1.1-1.1,1.1l-41.2,0.6c-0.1,0-0.2,0.1-0.3,0.1l-11.6,0.2l0.3,21.6h10.7l-0.1-9.8
		C413.5,507.4,413.6,507.1,413.9,506.9z"/>
	<polygon class="st1" points="422.3,441.4 428.6,441.3 428.5,430.7 403.3,431 414.1,441.5 	"/>
	<polygon class="st1" points="415.8,508.8 415.9,517.5 467.7,517.5 467.6,508.1 	"/>
	<polygon class="st1" points="414.7,443.7 415.1,468.1 429,467.9 428.7,443.5 422.1,443.6 	"/>
	<path class="st1" d="M400.4,494.8l-0.9-64.8c0,0,0,0,0-0.1c0-0.1,0-0.1,0-0.2c0-0.1,0-0.1,0-0.2c0,0,0,0,0-0.1c0,0,0,0,0,0
		c0,0,0,0,0,0c0,0,0,0,0-0.1c0,0,0.1-0.1,0.1-0.1c0,0,0-0.1,0.1-0.1c0,0,0,0,0.1-0.1c0,0,0.1-0.1,0.1-0.1c0,0,0.1-0.1,0.1-0.1
		c0,0,0,0,0.1,0c0,0,0,0,0,0c0,0,0,0,0,0c0,0,0,0,0.1,0c0.1,0,0.1,0,0.2,0c0.1,0,0.1,0,0.2,0c0,0,0,0,0.1,0l29-0.4
		c0.3,0,0.6,0.1,0.8,0.3c0.2,0.2,0.3,0.5,0.3,0.8l0.2,12.8l0.4,26.1l10.6,10.3l-0.7-51.3h-47.3v90h7l-0.3-22.3
		C400.4,495.1,400.4,494.9,400.4,494.8z"/>
	<polygon class="st1" points="415.2,480.6 440.1,480.2 429.7,470.1 415.1,470.3 	"/>
	<polygon class="st1" points="494.6,455.6 494.9,480 508.8,479.8 508.5,455.4 501.9,455.5 	"/>
	<path class="st1" d="M443.9,481.7c0,0-0.1,0.1-0.1,0.1c0,0.1-0.1,0.2-0.1,0.2c0,0,0,0,0,0c0,0,0,0,0,0c0,0-0.1,0.1-0.1,0.1
		c-0.1,0.1-0.1,0.1-0.2,0.2c-0.1,0-0.1,0-0.2,0c-0.1,0-0.2,0.1-0.2,0.1l-28.7,0.4c-0.6,0-1.1-0.5-1.1-1.1l-0.2-12.5l0,0l-0.4-26.1
		l-10.8-10.5l0.8,61.1l11.4-0.2c0.1,0,0.2-0.1,0.3-0.1l40.3-0.5l-0.9-65.4h-10.5l0.7,53.8C444,481.4,444,481.6,443.9,481.7z"/>
	<polygon class="st1" points="502.1,453.3 508.5,453.2 508.3,442.6 483.1,442.9 493.9,453.4 	"/>
	<path class="st1" d="M528.3,507.1l-33.8,0.5c-0.1,0-0.2,0.1-0.3,0.1l-11.6,0.2l0.1,9.8h45.6V507.1z"/>
	<path class="st1" d="M522.9,429.3l0.9,63.9c0,0.2,0,0.3-0.1,0.4c0,0.1-0.1,0.1-0.1,0.2c0,0.1-0.1,0.1-0.1,0.2c0,0-0.1,0.1-0.2,0.1
		c-0.1,0-0.1,0.1-0.2,0.1c-0.1,0-0.1,0-0.2,0c-0.1,0-0.2,0.1-0.3,0.1l-0.2,0c0,0,0,0,0,0l-28.6,0.4c-0.3,0-0.6-0.1-0.8-0.3
		c-0.2-0.2-0.3-0.5-0.3-0.8l-0.2-12.5l0,0l-0.4-26.1l-10.8-10.5l0.8,61.1l11.4-0.2c0.1,0,0.2-0.1,0.3-0.1l34.1-0.5v-77.4H523l0,1.3
		C523.1,429,523,429.1,522.9,429.3z"/>
	<polygon class="st1" points="495.1,492.4 519.9,492.1 509.5,482 494.9,482.2 	"/>
	<path class="st2" d="M494.2,507.6c0.1,0,0.2,0,0.3-0.1l33.8-0.5v-2.2l-34.1,0.5c-0.1,0-0.2,0-0.3,0.1l-11.4,0.2l-0.8-61.1
		l10.8,10.5l0.4,26.1l0,0l0.2,12.5c0,0.3,0.1,0.6,0.3,0.8c0.2,0.2,0.5,0.3,0.8,0.3l28.6-0.4c0,0,0,0,0,0l0.2,0c0.1,0,0.2,0,0.3-0.1
		c0.1,0,0.1,0,0.2,0c0.1,0,0.1-0.1,0.2-0.1c0.1,0,0.1-0.1,0.2-0.1c0,0,0.1-0.1,0.1-0.2c0-0.1,0.1-0.1,0.1-0.2
		c0.1-0.1,0.1-0.3,0.1-0.4l-0.9-63.9c0.1-0.1,0.1-0.3,0.1-0.5l0-1.3h-2.2l0,0.2l-53.1,0.7c-0.3,0-0.6,0.1-0.8,0.3
		c-0.2,0.2-0.3,0.5-0.3,0.8l1,76.3l-53.1,0.7c-0.3,0-0.6,0.1-0.8,0.3c-0.2,0.2-0.3,0.5-0.3,0.8l0.1,9.8h2.2l-0.1-8.7l51.9-0.7
		l0.1,9.4h2.2l-0.1-10.1c0.1-0.2,0.1-0.3,0.1-0.5l-1-76.3l51.9-0.7l0.8,60.8L511,480.4l-0.4-26.1l-0.2-12.8c0-0.3-0.1-0.6-0.3-0.8
		c-0.2-0.2-0.5-0.3-0.8-0.3l-29,0.4c0,0,0,0-0.1,0c-0.1,0-0.1,0-0.2,0c-0.1,0-0.1,0-0.2,0c0,0,0,0-0.1,0c0,0,0,0,0,0c0,0,0,0,0,0
		c0,0,0,0-0.1,0c0,0-0.1,0.1-0.1,0.1c0,0-0.1,0-0.1,0.1c0,0,0,0-0.1,0.1c0,0-0.1,0.1-0.1,0.1c0,0-0.1,0.1-0.1,0.1c0,0,0,0,0,0.1
		c0,0,0,0,0,0c0,0,0,0,0,0c0,0,0,0,0,0.1c0,0.1,0,0.1,0,0.2c0,0.1,0,0.1,0,0.2c0,0,0,0,0,0.1l0.9,64.8c0,0.1,0,0.3,0.1,0.4l0.1,10.4
		h2.2l-0.1-9.8L494.2,507.6z M509.5,482l10.4,10.1l-24.8,0.3l-0.1-10.3L509.5,482z M508.8,479.8l-13.9,0.2l-0.3-24.4l7.4-0.1
		l6.6-0.1L508.8,479.8z M508.3,442.6l0.1,10.6l-6.4,0.1l-8.2,0.1l-10.8-10.5L508.3,442.6z"/>
	<path class="st2" d="M414.3,495.7c0.1,0,0.2,0,0.3-0.1l41.2-0.6c0.6,0,1.1-0.5,1.1-1.1l-0.9-66.5h-2.2l0.9,65.4l-40.3,0.5
		c-0.1,0-0.2,0-0.3,0.1l-11.4,0.2l-0.8-61.1l10.8,10.5l0.4,26.1l0,0l0.2,12.5c0,0.6,0.5,1.1,1.1,1.1l28.7-0.4c0.1,0,0.2,0,0.2-0.1
		c0.1,0,0.1,0,0.2,0c0.1,0,0.2-0.1,0.2-0.2c0,0,0.1,0,0.1-0.1c0,0,0,0,0,0c0,0,0,0,0,0c0.1-0.1,0.1-0.1,0.1-0.2c0,0,0.1-0.1,0.1-0.1
		c0.1-0.1,0.1-0.3,0.1-0.4l-0.7-53.8h-2.2l0.7,51.3l-10.6-10.3l-0.4-26.1l-0.2-12.8c0-0.3-0.1-0.6-0.3-0.8c-0.2-0.2-0.5-0.3-0.8-0.3
		l-29,0.4c0,0,0,0-0.1,0c-0.1,0-0.1,0-0.2,0c-0.1,0-0.1,0-0.2,0c0,0,0,0-0.1,0c0,0,0,0,0,0c0,0,0,0,0,0c0,0,0,0-0.1,0
		c0,0-0.1,0.1-0.1,0.1c0,0-0.1,0-0.1,0.1c0,0,0,0-0.1,0.1c0,0-0.1,0.1-0.1,0.1c0,0-0.1,0.1-0.1,0.1c0,0,0,0,0,0.1c0,0,0,0,0,0
		c0,0,0,0,0,0c0,0,0,0,0,0.1c0,0.1,0,0.1,0,0.2c0,0.1,0,0.1,0,0.2c0,0,0,0,0,0.1l0.9,64.8c0,0.1,0,0.3,0.1,0.4l0.3,22.3h2.2
		l-0.3-21.6L414.3,495.7z M429.7,470.1l10.4,10.1l-24.8,0.3l-0.1-10.3L429.7,470.1z M429,467.9l-13.9,0.2l-0.3-24.4l7.4-0.1l6.6-0.1
		L429,467.9z M428.5,430.7l0.1,10.6l-6.4,0.1l-8.2,0.1L403.3,431L428.5,430.7z"/>
</g>
</svg>
